<svg width="570" height="569" viewBox="0 0 570 569" fill="none" xmlns="http://www.w3.org/2000/svg">
<rect width="570" height="569" fill="#FDB62B"/>
<path d="M360.053 381.883C357.916 376.54 357.503 368.872 358.998 359.894C358.999 359.892 358.999 359.889 359 359.887L402.318 109.856L402.622 108.1H400.84H388.68H388.467L388.262 108.159L341.937 121.609C326.387 107.961 303.416 100.5 274.68 100.5C164.386 100.5 31.5 212.157 31.5 371.8C31.5 402.059 39.1599 426.169 52.346 442.749C65.5565 459.359 84.2323 468.3 105.96 468.3C130.145 468.3 149.627 463.299 169 450.77C188.185 438.361 207.188 418.615 230.563 389.26H232.97C234.336 415.396 242.176 435.09 255.775 448.306C269.624 461.765 289.236 468.3 313.44 468.3C342.442 468.3 366.194 455.708 386.086 433.798C405.939 411.93 421.98 380.752 435.688 343.437L436.229 341.966L434.735 341.491L418.015 336.171L416.735 335.763L416.189 336.991C407.094 357.456 399.001 370.776 391.56 378.961C384.145 387.117 377.49 390.06 371.2 390.06C368.458 390.06 366.215 389.295 364.405 387.938C362.583 386.571 361.115 384.539 360.053 381.883ZM235.961 344.95L235.94 345.074V345.2V346.193C226.964 357.386 218.796 366.434 210.683 372.703C202.493 379.032 194.447 382.46 185.76 382.46C181.859 382.46 178.632 381.447 175.94 379.375C173.228 377.287 170.942 374.032 169.106 369.352C165.417 359.944 163.7 345.179 163.7 323.92C163.7 275.052 172.227 229.283 186.663 195.789C201.16 162.152 221.318 141.5 244.28 141.5C254.214 141.5 262.744 144.223 269.237 148.322L235.961 344.95Z" fill="#162DFB" stroke="#F3F3F3" stroke-width="3"/>
<path d="M133.68 468.3C181.332 468.3 216.58 441.428 259.702 383.36C257.39 410.423 261.995 431.515 272.992 445.954C284.272 460.766 302.065 468.3 325.2 468.3C350.022 468.3 371.49 457.418 390.237 437.133C408.95 416.884 424.994 387.229 439.085 349.525L439.629 348.069L438.154 347.577L424.474 343.017L423.201 342.592L422.638 343.811C413.555 363.491 404.711 377.001 396.328 385.571C387.949 394.136 380.141 397.66 373.08 397.66C370.108 397.66 367.778 396.921 365.97 395.58C364.155 394.235 362.74 392.189 361.769 389.362C359.804 383.648 359.75 375.027 361.638 363.695C361.639 363.692 361.639 363.69 361.64 363.687L406.477 109.861L406.788 108.1H405H389.8H389.511L389.243 108.207L352.008 123.101C335.04 111.013 311.424 103.54 284.16 103.54C230.044 103.54 174.371 133.074 132.27 180.808C90.1516 228.561 61.5 294.648 61.5 368C61.5 400.124 68.7635 425.175 81.4617 442.236C94.1944 459.342 112.314 468.3 133.68 468.3ZM165.58 326.96C165.58 278.491 175.05 231.98 191.276 197.641C207.547 163.207 230.346 141.5 256.8 141.5C273.539 141.5 285.957 147.915 296.995 159.486L266.02 340.806C255.464 355.483 244.216 369.127 232.459 379.112C220.615 389.17 208.411 395.38 196 395.38C190.143 395.38 185.416 394.101 181.585 391.547C177.75 388.991 174.683 385.07 172.296 379.564C167.491 368.474 165.58 351.274 165.58 326.96Z" fill="#162DFB" stroke="#F3F3F3" stroke-width="3"/>
<path d="M162.92 468.3C210.197 468.3 246.734 438.879 288.648 381.774C285.161 408.491 288.313 429.791 297.791 444.618C307.72 460.151 324.407 468.3 346.84 468.3C369.76 468.3 390.276 458.18 408.545 438.66C426.785 419.172 442.831 390.277 456.925 352.565L457.45 351.162L456.047 350.636L443.887 346.076L442.582 345.586L441.998 346.852C432.922 366.517 423.702 380.217 414.939 388.979C406.169 397.75 397.978 401.46 390.92 401.46C387.739 401.46 385.323 400.712 383.492 399.347C381.659 397.98 380.266 395.883 379.336 392.916C377.453 386.907 377.587 377.711 379.48 365.205L425.077 109.864L425.392 108.1H423.6H406.88H406.562L406.271 108.229L372.812 123.1C355.102 111.782 330.773 105.06 304.28 105.06C250.892 105.06 197.683 135.385 157.873 183.119C118.047 230.872 91.5 296.188 91.5 366.48C91.5 399.349 98.5672 424.778 111.07 442.03C123.613 459.337 141.549 468.3 162.92 468.3ZM182.66 328.48C182.66 280.018 192.508 232.943 209.582 198.039C226.695 163.058 250.816 140.74 279.2 140.74C298.921 140.74 312.885 149.352 326.241 164.762L296.019 338.535C284.699 354.733 271.927 370.471 258.548 382.166C245.063 393.953 231.159 401.46 217.64 401.46C210.821 401.46 205.323 400.034 200.88 397.216C196.439 394.401 192.929 390.117 190.219 384.191C184.762 372.259 182.66 353.932 182.66 328.48Z" fill="#162DFB" stroke="#F3F3F3" stroke-width="3"/>
<path d="M191.4 468.3C238.964 468.3 279.389 434.78 318.688 376.971L317.604 382.932L317.603 382.939C313.017 408.927 314.678 430.228 322.799 445.099C330.989 460.098 345.606 468.3 366.2 468.3C386.463 468.3 405.266 459.318 422.676 440.849C440.058 422.411 456.104 394.471 470.957 356.385L471.498 355L470.117 354.447L458.717 349.887L457.395 349.358L456.798 350.652C447.724 370.313 438.317 384.199 429.18 393.149C420.042 402.101 411.278 406.02 403.44 406.02C400.239 406.02 397.827 405.31 396.019 403.974C394.214 402.641 392.846 400.561 391.961 397.507C390.164 391.308 390.481 381.54 392.759 367.492C392.759 367.488 392.76 367.484 392.761 367.48L438.357 109.861L438.669 108.1H436.88H419.4H419.006L418.663 108.294L389.769 124.593C371.4 114.054 347.131 106.58 321.36 106.58C269.068 106.58 219.083 137.901 182.234 185.537C145.369 233.193 121.5 297.353 121.5 363.44C121.5 397.818 128.562 423.998 140.865 441.628C153.208 459.318 170.766 468.3 191.4 468.3ZM195.18 330.76C195.18 282.31 205.593 234.672 223.706 199.202C241.849 163.671 267.485 140.74 297.8 140.74C310.479 140.74 320.655 143.531 329.706 148.98C338.641 154.359 346.564 162.379 354.729 173.066L326.018 335.506C313.554 353.981 298.881 372.379 283.316 386.162C267.641 400.043 251.27 409.06 235.48 409.06C227.5 409.06 221.084 407.529 215.922 404.493C210.772 401.464 206.753 396.865 203.674 390.525C197.474 377.754 195.18 358.116 195.18 330.76Z" fill="#162DFB" stroke="#F3F3F3" stroke-width="3"/>
<path d="M349.134 373.3H349.544L346.087 391.277L346.085 391.29C341.879 414.228 342.967 433.424 349.832 446.959C356.77 460.636 369.49 468.3 387.84 468.3C406.201 468.3 424.051 460.079 440.984 442.377C457.893 424.7 473.941 397.52 488.798 359.425L489.31 358.11L488.029 357.518L478.149 352.958L476.797 352.334L476.163 353.681C467.094 372.953 457.31 387.033 447.696 396.274C438.069 405.527 428.732 409.82 420.52 409.82C417.318 409.82 414.916 409.11 413.127 407.751C411.341 406.394 409.989 404.255 409.145 401.057C407.433 394.567 407.937 384.221 410.597 369.023C410.597 369.022 410.597 369.02 410.598 369.019L456.957 109.864L457.272 108.1H455.48H436.48H436.048L435.682 108.33L409.821 124.586C391.456 114.814 367.222 108.1 342.24 108.1C290.295 108.1 242.585 140.216 207.932 187.853C173.265 235.508 151.5 298.895 151.5 361.92C151.5 397.045 158.367 423.602 170.474 441.423C182.627 459.312 200.001 468.3 220.64 468.3C267.63 468.3 311.185 431.507 349.134 373.3ZM212.26 332.28C212.26 283.841 223.239 235.831 242.294 199.984C261.376 164.087 288.338 140.74 320.2 140.74C334.377 140.74 345.685 144.09 355.783 150.482C365.774 156.807 374.656 166.157 383.967 178.383L356.018 333.991C342.791 353.987 326.787 374.283 309.607 389.585C292.318 404.985 274.048 415.14 256.36 415.14C247.619 415.14 240.582 413.467 234.919 410.177C229.266 406.894 224.869 401.935 221.508 395.168C214.743 381.545 212.26 360.772 212.26 332.28Z" fill="#162DFB" stroke="#F3F3F3" stroke-width="3"/>
<path d="M253.68 468.3C299.812 468.3 338.799 435.397 386.305 375.255L383.686 388.999L383.685 389.01C378.728 416.081 379.61 435.843 385.7 448.909C388.763 455.478 393.144 460.355 398.732 463.575C404.308 466.788 410.994 468.3 418.6 468.3C435.442 468.3 452.149 460.649 468.126 444.19C484.084 427.751 499.374 402.474 513.474 367.035L514.035 365.625L512.618 365.08L502.739 361.28L501.427 360.776L500.838 362.051C491.763 381.715 481.971 396.559 472.159 406.464C462.334 416.383 452.625 421.22 443.68 421.22C440.306 421.22 437.8 420.425 435.945 418.819C434.076 417.201 432.667 414.586 431.85 410.548C430.202 402.4 431.096 389.168 434.518 369.015C434.518 369.014 434.519 369.013 434.519 369.011L479.357 113.66L479.666 111.9H477.88H466.48H465.946L465.533 112.237L445.841 128.282C427.471 117.03 401.824 108.1 378.32 108.1C325.968 108.1 276.743 142.718 240.689 192.03C204.613 241.372 181.5 305.706 181.5 365.72C181.5 399.358 188.951 424.981 201.745 442.234C214.575 459.534 232.696 468.3 253.68 468.3ZM230.1 349C230.1 296.017 242.972 242.508 265.627 202.296C288.297 162.056 320.572 135.42 359.32 135.42C388.125 135.42 405.923 147.063 422.316 164.792L391.345 343.059C375.089 364.206 356.82 385.26 337.564 401.04C318.196 416.912 298.01 427.3 278 427.3C261.76 427.3 249.914 420.887 242.038 408.065C234.084 395.117 230.1 375.501 230.1 349Z" fill="#162DFB" stroke="#F3F3F3" stroke-width="3"/>
<path d="M285.96 468.3C331.107 468.3 366.236 439.434 421.458 377.699L419.766 386.724L419.764 386.734L419.762 386.745C414.433 417.575 415.121 437.891 420.426 450.564C423.1 456.95 426.957 461.424 431.808 464.281C436.639 467.127 442.339 468.3 448.6 468.3C480.771 468.3 512.282 440.073 538.912 373.88L539.494 372.432L538.025 371.907L527.385 368.107L526.063 367.635L525.504 368.923C516.806 388.967 507.2 404.378 497.385 414.754C487.556 425.145 477.663 430.34 468.36 430.34C464.589 430.34 461.813 429.489 459.78 427.698C457.733 425.894 456.22 422.942 455.397 418.279C453.739 408.884 455.013 393.364 459.198 369.019C459.198 369.017 459.198 369.016 459.198 369.014L503.277 117.459L503.586 115.7H501.8H496.48H495.838L495.395 116.164L480.325 131.952C461.969 119.231 435.652 108.1 412.88 108.1C360.128 108.1 309.766 144.641 272.684 195.355C235.575 246.105 211.5 311.389 211.5 369.52C211.5 401.3 219.541 425.981 232.917 442.75C246.316 459.547 264.989 468.3 285.96 468.3ZM249.46 363.44C249.46 306.67 264.037 248.417 289.725 204.406C315.427 160.373 352.069 130.86 396.16 130.86C426.427 130.86 443.535 141.004 459.888 153.557L425.154 355.169C406.257 376.688 386.108 397.363 365.252 412.676C344.283 428.072 322.745 437.94 301.16 437.94C285.669 437.94 272.825 431.511 263.804 419.084C254.743 406.602 249.46 387.951 249.46 363.44Z" fill="#162DFB" stroke="#F3F3F3" stroke-width="3"/>
</svg>
