<svg width="570" height="569" viewBox="0 0 570 569" fill="none" xmlns="http://www.w3.org/2000/svg">
<rect width="570" height="569" fill="#FDB62B"/>
<path d="M431.837 431.165L432.098 430.783V430.32V414.36V413.739L431.658 413.299L428.618 410.259L428.179 409.82H427.558H410.838C397.056 409.82 386.928 405.576 379.658 399.245V208.4C379.658 172.124 362.638 145.066 334.503 127.145C306.439 109.268 267.364 100.5 223.118 100.5C184.062 100.5 154.915 108.187 113.663 133.395C97.6498 142.928 84.0248 152.892 74.3869 163.301C64.7514 173.707 58.9776 184.695 58.9776 196.24C58.9776 205.058 60.3034 211.766 63.8609 216.265C67.4912 220.857 73.1653 222.82 80.9976 222.82H138.758H139.508L139.958 222.22L142.238 219.18L142.538 218.78V218.28V174.2C142.538 163.09 145.672 155.438 152.028 150.494C158.473 145.482 168.511 143.02 182.838 143.02C201.145 143.02 215.33 148.615 224.955 159.156C234.599 169.719 239.858 185.458 239.858 206.12V246.007L169.538 264.709L169.918 266.16L169.532 264.71L169.533 264.71C118.63 278.006 87.5189 290.234 69.0753 306.65C50.4778 323.202 44.9213 343.848 44.5378 373.291C43.7698 403.718 54.7603 427.323 72.3901 443.306C89.9959 459.268 114.123 467.54 139.518 467.54C184.724 467.54 216.915 443.135 242.074 412.06H243.448C252.259 430.481 264.3 444.506 280.601 453.943C297.139 463.518 317.94 468.3 343.958 468.3C391.503 468.3 420.12 448.35 431.837 431.165ZM174.458 347.48C174.458 329.155 179.303 316.111 189.94 306.208C200.39 296.479 216.59 289.623 239.858 284.018V390.471C233.41 392.523 226.349 393.86 219.318 393.86C205.535 393.86 194.367 389.953 186.647 382.323C178.931 374.698 174.458 363.156 174.458 347.48Z" fill="#162DFB" stroke="#F3F3F3" stroke-width="3"/>
<path d="M439.087 428.812L439.301 428.455V428.04V417.4V416.779L438.862 416.339L436.582 414.059L436.142 413.62H435.521H413.481C396.612 413.62 385.741 409.315 378.501 402.331V202.32C378.501 167.575 362.631 142.791 337.334 126.763C312.116 110.785 277.6 103.54 240.201 103.54C202.621 103.54 172.71 113.533 136.05 136.445C121.136 145.624 108.829 155.799 100.236 166.516C91.6423 177.234 86.7009 188.575 86.7009 200.04C86.7009 208.846 88.021 215.221 91.6303 219.36C95.2923 223.561 100.978 225.1 108.721 225.1H158.881H159.502L159.942 224.66L162.982 221.62L163.421 221.181V220.56V185.6C163.421 171.74 166.607 161.576 173.513 154.849C180.428 148.114 191.365 144.54 207.521 144.54C225.409 144.54 240.59 150.682 251.296 161.481C262.001 172.279 268.341 187.841 268.341 206.88V252.823L198.044 270.023L198.032 270.026C150.111 282.196 119.211 295.377 100.302 312.549C81.2833 329.822 74.5442 350.987 74.5409 378.62C73.7754 407.13 83.8068 429.405 100.395 444.538C116.963 459.653 139.955 467.54 164.961 467.54C209.317 467.54 245.258 445.486 270.523 416.62H273.407C280.325 432.749 290.262 445.61 303.888 454.472C317.769 463.499 335.36 468.3 357.241 468.3C400.292 468.3 427.398 448.293 439.087 428.812ZM177.861 357.36C177.861 339.019 182.143 325.265 195.563 314.051C208.912 302.896 231.445 294.126 268.341 286.251V395.101C253.682 400.878 241.173 403.74 226.521 403.74C211.18 403.74 199.054 399.812 190.773 392.168C182.512 384.542 177.861 373.018 177.861 357.36Z" fill="#162DFB" stroke="#F3F3F3" stroke-width="3"/>
<path d="M261.811 105.06C225.711 105.06 195.035 117.362 162.224 137.963C133.138 155.571 115.911 179.53 115.911 202.32C115.911 211.478 117.22 217.715 120.88 221.59C124.572 225.498 130.28 226.62 137.931 226.62H183.531H184.057L184.468 226.291L188.268 223.251L188.831 222.801V222.08V192.44C188.831 177.397 191.847 165.681 198.992 157.722C206.108 149.796 217.589 145.3 235.211 145.3C270.15 145.3 298.311 171.275 298.311 207.64V256.623L228.014 273.823L228.013 273.823C181.575 285.242 150.877 298.997 131.691 316.641C112.418 334.364 104.896 355.883 104.511 382.418L104.511 382.419C104.126 409.411 113.777 430.922 129.79 445.673C145.784 460.407 168.016 468.3 192.651 468.3C236.223 468.3 274.414 447.023 300.468 418.9H304.073C309.5 433.881 318.101 446.151 330.099 454.721C342.366 463.483 358.075 468.3 377.331 468.3C417.411 468.3 442.957 448.235 455.368 428.066L455.591 427.705V427.28V419.68V419.059L455.152 418.619L452.872 416.339L452.432 415.9H451.811H426.731C407.534 415.9 395.971 411.55 389.471 404.655V197.76C389.471 164.16 374.365 140.891 350.768 126.094C327.258 111.352 295.401 105.06 261.811 105.06ZM191.111 363.44C191.111 354.613 192.099 346.75 194.969 339.608C197.831 332.488 202.599 325.998 210.296 319.971C225.569 308.01 252.315 297.907 298.311 288.515V397.409C277.611 406.186 261.298 409.82 242.811 409.82C226.306 409.82 213.411 405.88 204.659 398.221C195.94 390.592 191.111 379.079 191.111 363.44Z" fill="#162DFB" stroke="#F3F3F3" stroke-width="3"/>
<path d="M473.222 426.504L473.42 426.158V425.76V421.2V420.273L472.591 419.858L469.551 418.338L469.234 418.18H468.88H442.28C420.88 418.18 409.255 413.116 402.74 406.176V194.72C402.74 161.878 388.011 139.934 365.831 126.278C343.746 112.679 314.362 107.34 284.96 107.34C248.866 107.34 218.187 119.637 187.635 139.494C159.194 157.178 145.14 181.927 145.14 204.6C145.14 213.709 146.244 219.787 149.728 223.488C153.248 227.228 158.806 228.14 166.4 228.14H208.2H208.821L209.261 227.701L213.061 223.901L213.5 223.461V222.84V198.52C213.5 181.948 216.71 168.884 224.26 159.97C231.766 151.107 243.812 146.06 262.16 146.06C297.156 146.06 327.54 172.849 327.54 208.4V260.408L256.502 276.859L256.491 276.861C211.919 287.528 181.418 301.859 162.05 319.975C142.618 338.15 134.5 360.034 134.5 385.48C134.5 411.309 143.57 432.054 158.918 446.333C174.253 460.6 195.73 468.3 220.36 468.3C263.137 468.3 303.575 447.808 329.672 421.18H333.267C337.936 435.381 345.582 447.071 356.347 455.264C367.381 463.662 381.584 468.3 398.96 468.3C435.284 468.3 460.83 448.191 473.222 426.504ZM206.66 368.76C206.66 360.107 207.509 352.248 210.413 344.972C213.306 337.721 218.28 330.951 226.684 324.543C243.396 311.801 273.579 300.556 327.54 290.019V399.689C301.567 410.715 282.206 414.38 260.64 414.38C242.974 414.38 229.503 410.43 220.469 402.856C211.48 395.319 206.66 384.006 206.66 368.76Z" fill="#162DFB" stroke="#F3F3F3" stroke-width="3"/>
<path d="M494.873 425.725L495.06 425.386V425V422.72V421.917L494.392 421.472L492.112 419.952L491.734 419.7H491.28H462.4C440.222 419.7 427.87 414.62 421.34 407.695V192.44C421.34 159.993 407.195 138.803 386.143 125.804C365.193 112.867 337.514 108.1 310.4 108.1C275.038 108.1 243.592 121.939 215.348 140.259C187.628 157.971 174.38 183.494 174.38 206.12C174.38 215.216 175.478 221.14 178.999 224.661C182.53 228.191 188.096 228.9 195.64 228.9H235.16H235.781L236.221 228.461L240.021 224.661L240.46 224.221V223.6V202.32C240.46 184.976 243.674 171.145 251.426 161.659C259.127 152.238 271.546 146.82 290.64 146.82C324.932 146.82 357.54 174.42 357.54 208.4V262.688L286.502 279.139L286.497 279.14C242.67 289.43 212.174 303.953 192.62 322.255C173.012 340.608 164.5 362.674 164.5 387.76C164.5 412.833 173.383 433.009 188.448 446.908C203.498 460.792 224.594 468.3 248.84 468.3C291.604 468.3 332.791 448.569 359.647 422.7H362.497C366.782 436.137 373.848 447.431 383.747 455.427C393.92 463.643 406.991 468.3 422.88 468.3C457.72 468.3 482.498 448.155 494.873 425.725ZM226.78 372.56C226.78 364.094 227.582 356.29 230.576 348.962C233.559 341.658 238.762 334.721 247.738 328.07C265.598 314.837 298.264 302.83 357.54 291.531V401.206C327.761 413.767 306.119 418.18 282.28 418.18C264.228 418.18 250.369 414.227 241.047 406.642C231.777 399.098 226.78 387.787 226.78 372.56Z" fill="#162DFB" stroke="#F3F3F3" stroke-width="3"/>
<path d="M513.466 432.578L513.66 432.235V431.84V430.32V429.699L513.221 429.259L511.701 427.739L511.261 427.3H510.64H477.2C458.063 427.3 447.163 422.978 439.94 416.011V192.44C439.94 161.582 427.755 140.393 408.224 126.983C388.78 113.634 362.215 108.1 333.56 108.1C302.733 108.1 272.04 121.96 243.833 140.256C216.897 157.19 203.62 181.183 203.62 203.08C203.62 211.438 204.723 216.996 208.274 220.324C211.797 223.628 217.331 224.34 224.88 224.34H256.8H257.421L257.861 223.901L261.661 220.101L262.1 219.661V219.04V193.96C262.1 177.404 265.493 164.364 273.675 155.455C281.833 146.571 295.029 141.5 315.32 141.5C351.145 141.5 386.02 169.872 386.02 206.88V264.226L313.445 282.183C271.156 292.469 241.425 306.229 222.253 323.763C203.016 341.356 194.5 362.668 194.5 387.76C194.5 412.833 203.383 433.009 218.448 446.908C233.498 460.792 254.594 468.3 278.84 468.3C321.619 468.3 361.3 448.557 388.127 422.7H389.405C392.959 435.761 399.472 447.046 409.27 455.132C419.361 463.459 432.823 468.3 449.84 468.3C481.613 468.3 503.357 450.463 513.466 432.578ZM248.42 373.32C248.42 364.12 249.501 355.855 252.942 348.228C256.375 340.618 262.21 333.526 271.908 326.766C291.197 313.318 325.581 301.306 386.02 289.267V405.809C357.652 419.126 332.294 425.02 307.72 425.02C288.537 425.02 273.741 420.691 263.759 412.174C253.818 403.693 248.42 390.859 248.42 373.32Z" fill="#162DFB" stroke="#F3F3F3" stroke-width="3"/>
<path d="M353.68 108.1C328.126 108.1 298.922 122.771 271.562 140.25C245.441 156.387 232.1 178.083 232.1 198.52C232.1 205.741 233.014 210.918 236.47 214.151C239.889 217.348 245.399 218.26 253.36 218.26H273.12H273.741L274.181 217.821L277.981 214.021L278.42 213.581V212.96V181.8C278.42 166.834 282.158 154.966 291.045 146.805C299.96 138.617 314.337 133.9 336.2 133.9C375.814 133.9 412.22 163.022 412.22 205.36V267.275L338.873 285.986C298.12 296.269 269.531 309.266 251.118 325.943C232.631 342.688 224.5 363.055 224.5 387.76C224.5 412.833 233.383 433.007 248.349 446.904C263.302 460.789 284.208 468.3 308.08 468.3C349.983 468.3 388.04 448.673 414.821 422.957C417.328 434.838 423.093 445.976 432.59 454.251C442.493 462.88 456.347 468.3 474.52 468.3C502.439 468.3 518.853 454.318 525.942 443.291L526.18 442.921V442.48V440.96V440.339L525.741 439.899L524.981 439.139L524.541 438.7H523.92H484.4C470.656 438.7 461.221 434.478 453.22 428.084V192.44C453.22 163.589 443.778 142.405 426.439 128.476C409.159 114.593 384.259 108.1 353.68 108.1ZM265.5 374.08C265.5 363.767 266.954 354.856 270.992 346.849C275.025 338.853 281.7 331.629 292.359 324.803C313.555 311.23 350.225 299.4 412.22 286.25V412C386.764 427.504 355.476 434.9 330.88 434.9C309.818 434.9 293.516 429.822 282.489 419.805C271.486 409.811 265.5 394.687 265.5 374.08Z" fill="#162DFB" stroke="#F3F3F3" stroke-width="3"/>
</svg>
