<svg width="1280" height="11865" viewBox="0 0 1280 11865" fill="none" xmlns="http://www.w3.org/2000/svg">
<path d="M0 0H1280V720H0V0Z" fill="#162DFB"/>
<path d="M0 0H1280V720H0V0Z" fill="#162DFB"/>
<rect y="7794" width="1280" height="1274" fill="#162DFB"/>
<rect y="10014" width="1280" height="1092" fill="#F3F3F3"/>
<rect y="9068" width="1280" height="946" fill="#162DFB"/>
<rect y="9138" width="1280" height="876" fill="#F3F3F3"/>
<ellipse cx="640" cy="9138" rx="640" ry="70" fill="#F3F3F3"/>
<rect y="6827" width="1280" height="967" fill="#162DFB"/>
<rect y="5823" width="1280" height="1004" fill="#162DFB"/>
<rect y="2604" width="1280" height="1105" fill="#F3F3F3"/>
<rect y="3709" width="1280" height="1286" fill="#F3F3F3"/>
<rect y="3779" width="1280" height="1216" fill="#162DFB"/>
<ellipse cx="640" cy="3779" rx="640" ry="70" fill="#162DFB"/>
<rect y="1530" width="1280" height="1074" fill="#F3F3F3"/>
<rect y="720" width="1280" height="810" fill="#162DFB"/>
<rect y="790" width="1280" height="740" fill="#F3F3F3"/>
<ellipse cx="640" cy="790" rx="640" ry="70" fill="#F3F3F3"/>
<rect y="11106" width="1280" height="759" fill="#F3F3F3"/>
<rect y="4995" width="1280" height="828" fill="#162DFB"/>
</svg>
