<svg width="1280" height="790" viewBox="0 0 1280 790" fill="none" xmlns="http://www.w3.org/2000/svg">
<mask id="mask0_554:11578" style="mask-type:alpha" maskUnits="userSpaceOnUse" x="0" y="0" width="1280" height="790">
<rect width="1280" height="790" fill="#162DFB"/>
</mask>
<g mask="url(#mask0_554:11578)">
<path fill-rule="evenodd" clip-rule="evenodd" d="M995.58 321.686C1003.99 318.467 1013.45 317.776 1022.82 320.285C1046.42 326.609 1060.43 350.87 1054.1 374.473C1047.78 398.075 1023.52 412.082 999.915 405.758C984.978 401.756 973.884 390.57 969.354 376.913C969.172 379.809 968.702 382.729 967.922 385.639C961.598 409.242 937.337 423.248 913.734 416.924C904.265 414.387 896.341 408.963 890.654 401.853C887.428 401.81 884.159 401.411 880.897 400.628C870.228 413.732 852.492 420.099 835.112 415.442C811.509 409.117 797.502 384.857 803.827 361.254C808.798 342.702 824.85 330.079 842.954 328.597C839.827 320.259 839.18 310.901 841.66 301.644C847.985 278.041 872.245 264.034 895.848 270.358C909.712 274.073 920.266 283.977 925.332 296.301C935.882 288.162 949.973 284.861 963.837 288.576C980.303 292.988 992.099 306.129 995.58 321.686Z" fill="#FDB62B"/>
<path fill-rule="evenodd" clip-rule="evenodd" d="M50.3999 727.456C48.3057 740.058 40.7978 751.658 28.871 758.544C7.70947 770.761 -19.3497 763.511 -31.5674 742.349C-32.0149 741.574 -32.4364 740.791 -32.832 740.001C-36.0652 743.86 -40.0169 747.228 -44.6296 749.891C-65.7911 762.109 -92.8503 754.858 -105.068 733.697C-116.826 713.33 -110.553 687.501 -91.2 674.697C-91.6308 658.985 -83.6555 643.54 -69.0872 635.129C-56.6568 627.952 -42.1914 627.493 -29.8945 632.625C-28.1903 619.41 -20.5599 607.112 -8.12939 599.935C13.0322 587.717 40.0914 594.968 52.309 616.129C57.1009 624.429 58.898 633.636 58.0357 642.499C75.9063 639.245 94.6787 647.284 104.282 663.917C116.499 685.078 109.249 712.138 88.0874 724.355C76.1607 731.241 62.3605 731.943 50.3999 727.456Z" fill="#FDB62B"/>
<path fill-rule="evenodd" clip-rule="evenodd" d="M1106.39 -18.8706C1103.14 -13.2417 1101.26 -7.19542 1100.66 -1.12221C1086.15 -0.40985 1072.28 7.43214 1064.48 20.954C1063.32 22.9626 1062.33 25.0243 1061.52 27.1215C1046.86 27.7108 1032.81 35.5717 1024.94 49.2151C1012.72 70.3767 1019.97 97.4359 1041.13 109.654C1056.81 118.708 1075.74 117.07 1089.45 107.002C1106.48 114.63 1126.29 110.625 1139.06 97.6263C1142.59 102.506 1147.19 106.737 1152.75 109.945C1170.75 120.339 1193.02 116.643 1206.79 102.279C1208.81 103.996 1211.01 105.556 1213.39 106.928C1234.55 119.146 1261.61 111.895 1273.83 90.7338C1286.04 69.5723 1278.79 42.5131 1257.63 30.2954C1245.7 23.4095 1231.9 22.7076 1219.94 27.1949C1217.85 14.5931 1210.34 2.99285 1198.41 -3.89304C1194.87 -5.94003 1191.16 -7.44053 1187.38 -8.42068C1184.41 -19.2691 1177.33 -28.9974 1166.82 -35.065C1145.66 -47.2827 1118.6 -40.0322 1106.39 -18.8706Z" fill="#FDB62B"/>
<path fill-rule="evenodd" clip-rule="evenodd" d="M62.3708 -96.8706C65.6207 -91.2417 67.4931 -85.1954 68.0926 -79.1222C82.6082 -78.4099 96.4748 -70.5679 104.282 -57.046C105.441 -55.0374 106.426 -52.9757 107.239 -50.8785C121.897 -50.2892 135.943 -42.4283 143.82 -28.7849C156.038 -7.62328 148.787 19.4359 127.626 31.6536C111.943 40.7078 93.0218 39.0702 79.3023 29.0024C62.2783 36.6299 42.4636 32.6253 29.7017 19.6263C26.1639 24.5055 21.5665 28.7369 16.0099 31.945C-1.99265 42.3388 -24.2635 38.643 -38.0337 24.279C-40.0517 25.9964 -42.2531 27.556 -44.63 28.9283C-65.7916 41.1459 -92.8508 33.8954 -105.068 12.7338C-117.286 -8.42773 -110.036 -35.4869 -88.874 -47.7046C-76.9473 -54.5905 -63.1472 -55.2924 -51.1866 -50.8051C-49.0924 -63.4069 -41.5845 -75.0072 -29.6578 -81.893C-26.1123 -83.94 -22.4013 -85.4405 -18.6222 -86.4207C-15.6555 -97.2691 -8.57711 -106.997 1.93241 -113.065C23.094 -125.283 50.1532 -118.032 62.3708 -96.8706Z" fill="#FDB62B"/>
<path fill-rule="evenodd" clip-rule="evenodd" d="M178.99 212.943C190.461 229.701 211.417 236.094 229.744 229.853C236.774 234.547 244.977 237.092 253.308 237.291C254.119 238.843 255.03 240.364 256.044 241.844C269.845 262.008 297.38 267.166 317.544 253.364C329.389 245.257 336.056 232.411 336.743 219.104C349.397 223.279 363.785 221.714 375.629 213.607C395.793 199.805 400.951 172.27 387.149 152.106C376.988 137.261 359.383 130.549 342.756 133.549C342.603 133.316 342.447 133.083 342.288 132.852C328.487 112.688 300.952 107.53 280.788 121.332C270.753 128.2 264.435 138.47 262.32 149.539C254.998 148.195 247.337 148.687 240.088 151.155C225.503 141.417 205.869 140.93 190.51 151.442C170.346 165.244 165.189 192.779 178.99 212.943Z" fill="#FDB62B"/>
<path fill-rule="evenodd" clip-rule="evenodd" d="M1359.33 590.662C1349.17 573.075 1328.77 565.096 1310.02 569.916C1303.37 564.698 1295.38 561.532 1287.09 560.696C1286.4 559.086 1285.61 557.501 1284.71 555.947C1272.49 534.785 1245.44 527.535 1224.27 539.752C1211.84 546.929 1204.21 559.227 1202.51 572.442C1190.21 567.31 1175.75 567.77 1163.32 574.947C1142.15 587.164 1134.9 614.223 1147.12 635.385C1156.12 650.965 1173.16 659.004 1189.96 657.286C1190.1 657.53 1190.24 657.774 1190.38 658.017C1202.59 679.178 1229.65 686.429 1250.82 674.211C1261.35 668.131 1268.43 658.376 1271.39 647.5C1278.59 649.401 1286.26 649.497 1293.68 647.591C1307.48 658.418 1327.01 660.406 1343.13 651.1C1364.29 638.883 1371.54 611.823 1359.33 590.662Z" fill="#FDB62B"/>
<path fill-rule="evenodd" clip-rule="evenodd" d="M558.41 493.935C572.241 501.92 580.129 516.245 580.524 531.12C591.84 527.67 604.503 528.74 615.557 535.122C636.719 547.34 643.969 574.399 631.752 595.56C619.534 616.722 592.475 623.972 571.313 611.755C570.027 611.012 568.793 610.215 567.61 609.367C554.891 615.456 539.483 615.373 526.348 607.79C523.951 606.406 521.733 604.832 519.701 603.098C506.987 622.751 480.952 629.185 460.451 617.349C455.316 614.384 450.999 610.545 447.582 606.128C434.047 615.023 416.109 616.132 401.126 607.482C379.965 595.264 372.714 568.205 384.932 547.043C392.809 533.4 406.855 525.539 421.513 524.949C422.326 522.852 423.311 520.791 424.47 518.782C436.688 497.621 463.747 490.37 484.909 502.588C489.522 505.251 493.473 508.619 496.707 512.478C497.102 511.688 497.524 510.905 497.971 510.129C510.189 488.968 537.248 481.717 558.41 493.935Z" fill="#FDB62B"/>
</g>
</svg>
