<svg width="1280" height="946" viewBox="0 0 1280 946" fill="none" xmlns="http://www.w3.org/2000/svg">
<rect width="1280" height="876" fill="#162DFB"/>
<rect y="70" width="1280" height="876" fill="#F3F3F3"/>
<ellipse cx="640" cy="70" rx="640" ry="70" fill="#F3F3F3"/>
<ellipse cx="1051.24" cy="618.879" rx="145.508" ry="157.263" fill="#FDB62B"/>
<ellipse cx="635.043" cy="618.879" rx="145.508" ry="157.263" fill="#FDB62B"/>
<ellipse cx="235.373" cy="618.879" rx="145.508" ry="157.263" fill="#FDB62B"/>
<path fill-rule="evenodd" clip-rule="evenodd" d="M89.8643 672.571C89.8643 685.403 98.51 696.217 110.294 699.504C112.285 704.46 115.654 708.715 119.927 711.793C119.796 712.891 119.728 714.009 119.728 715.143C119.728 730.584 132.246 743.101 147.686 743.101C156.756 743.101 164.817 738.782 169.926 732.088C175.034 738.782 183.095 743.101 192.165 743.101C207.605 743.101 220.123 730.584 220.123 715.143C220.123 703.775 213.338 693.992 203.597 689.622C203.6 689.445 203.602 689.268 203.602 689.091C203.602 673.65 191.085 661.133 175.644 661.133C167.96 661.133 161 664.233 155.947 669.25C152.608 665.936 148.438 663.458 143.777 662.158C139.647 651.874 129.583 644.613 117.822 644.613C102.381 644.613 89.8643 657.13 89.8643 672.571Z" fill="#F3F3F3"/>
<path fill-rule="evenodd" clip-rule="evenodd" d="M941.259 714.661C944.587 725.232 954.064 733.245 965.789 734.149C981.184 735.335 994.626 723.816 995.812 708.421C995.856 707.857 995.882 707.296 995.892 706.738C998.788 708.054 1001.96 708.895 1005.32 709.154C1020.71 710.34 1034.15 698.821 1035.34 683.426C1036.48 668.61 1025.85 655.602 1011.33 653.588C1007.29 644.516 998.526 637.891 987.927 637.074C978.884 636.378 970.514 640.065 964.907 646.346C960.329 639.28 952.623 634.354 943.58 633.657C928.185 632.471 914.743 643.99 913.556 659.385C912.838 668.706 916.777 677.311 923.414 682.913C923.199 683.998 923.046 685.108 922.959 686.238C921.973 699.033 929.762 710.479 941.259 714.661Z" fill="#F3F3F3"/>
<path fill-rule="evenodd" clip-rule="evenodd" d="M602.403 592.113C591.043 595.157 579.442 590.748 572.792 581.883C567.953 581.833 563.284 580.52 559.201 578.182C555.619 584.337 549.698 589.132 542.276 591.121C527.361 595.118 512.031 586.267 508.034 571.352C504.038 556.437 512.889 541.107 527.804 537.111L527.865 537.094C525.045 522.785 533.77 508.541 548.066 504.71C556.827 502.363 565.732 504.448 572.398 509.592C575.599 501.804 582.268 495.546 591.029 493.198C601.297 490.447 611.761 493.785 618.59 500.998C632.958 498.072 647.302 506.81 651.148 521.164C655.144 536.078 646.293 551.409 631.379 555.405C628.128 556.276 624.857 556.537 621.688 556.257C621.864 556.787 622.026 557.325 622.172 557.872C626.169 572.787 617.318 588.117 602.403 592.113Z" fill="#F3F3F3"/>
<path fill-rule="evenodd" clip-rule="evenodd" d="M343.026 514.291C353.211 520.172 358.296 531.493 356.73 542.464C365.292 551.203 367.373 564.89 360.957 576.003C360.39 576.985 359.773 577.92 359.11 578.805C362.675 586.725 362.51 596.187 357.836 604.283C350.116 617.655 333.017 622.237 319.645 614.516C311.79 609.981 306.968 602.21 305.891 593.86C298.121 597.102 288.98 596.812 281.125 592.277C277.88 590.404 275.153 587.978 272.993 585.187C264.441 590.807 253.105 591.508 243.638 586.042C230.266 578.321 225.684 561.223 233.405 547.85C238.382 539.229 247.258 534.262 256.52 533.889C257.034 532.564 257.656 531.261 258.389 529.992C266.109 516.62 283.208 512.039 296.58 519.759C299.495 521.442 301.992 523.57 304.035 526.009C304.285 525.509 304.552 525.015 304.835 524.525C312.555 511.153 329.654 506.571 343.026 514.291Z" fill="#F3F3F3"/>
<path fill-rule="evenodd" clip-rule="evenodd" d="M690.205 716.362C693.544 723.711 700.024 729.564 708.43 731.816C723.344 735.813 738.675 726.962 742.671 712.047C742.817 711.501 742.947 710.954 743.059 710.407C745.663 712.233 748.626 713.643 751.877 714.514C766.792 718.51 782.122 709.659 786.118 694.744C789.965 680.39 781.911 665.651 768.005 661.001C765.698 651.34 758.304 643.218 748.036 640.466C739.275 638.119 730.371 640.204 723.705 645.348C720.503 637.56 713.834 631.302 705.073 628.955C690.159 624.958 674.828 633.809 670.832 648.724C669.265 654.573 669.673 660.487 671.649 665.755C660.209 666.692 650.066 674.669 646.925 686.392C642.929 701.306 651.78 716.637 666.694 720.633C675.1 722.885 683.638 721.057 690.205 716.362Z" fill="#F3F3F3"/>
<path fill-rule="evenodd" clip-rule="evenodd" d="M1102.64 542.952C1100.59 546.509 1099.41 550.33 1099.03 554.167C1089.85 554.618 1081.09 559.573 1076.16 568.117C1075.43 569.386 1074.8 570.689 1074.29 572.014C1065.03 572.386 1056.15 577.354 1051.17 585.975C1043.45 599.347 1048.04 616.446 1061.41 624.166C1071.32 629.888 1083.27 628.853 1091.94 622.491C1102.7 627.312 1115.22 624.781 1123.29 616.567C1125.52 619.65 1128.43 622.324 1131.94 624.351C1143.31 630.919 1157.39 628.583 1166.09 619.507C1167.36 620.592 1168.75 621.577 1170.26 622.445C1183.63 630.165 1200.73 625.583 1208.45 612.211C1216.17 598.839 1211.59 581.74 1198.21 574.02C1190.68 569.669 1181.96 569.225 1174.4 572.061C1173.08 564.098 1168.33 556.767 1160.8 552.416C1158.55 551.123 1156.21 550.174 1153.82 549.555C1151.95 542.7 1147.47 536.553 1140.83 532.719C1127.46 524.998 1110.36 529.58 1102.64 542.952Z" fill="#F3F3F3"/>
<path d="M229.273 790.121C326.871 790.121 399.053 716.922 399.053 617.29C399.053 517.658 326.871 444.459 229.273 444.459C132.182 444.459 60 517.658 60 617.29C60 716.922 132.182 790.121 229.273 790.121ZM239.947 764.704C167.257 764.704 109.308 699.639 109.308 600.515C109.308 520.2 155.565 469.367 220.631 469.367C292.813 469.367 349.746 533.924 349.746 633.048C349.746 713.363 305.013 764.704 239.947 764.704Z" fill="#162DFB"/>
<path d="M639.746 790.121C737.345 790.121 809.527 716.922 809.527 617.29C809.527 517.658 737.345 444.459 639.746 444.459C542.656 444.459 470.474 517.658 470.474 617.29C470.474 716.922 542.656 790.121 639.746 790.121ZM650.421 764.704C577.73 764.704 519.781 699.639 519.781 600.515C519.781 520.2 566.039 469.367 631.105 469.367C703.287 469.367 760.219 533.924 760.219 633.048C760.219 713.363 715.487 764.704 650.421 764.704Z" fill="#162DFB"/>
<path d="M1050.22 790.121C1147.82 790.121 1220 716.922 1220 617.29C1220 517.658 1147.82 444.459 1050.22 444.459C953.129 444.459 880.946 517.658 880.946 617.29C880.946 716.922 953.129 790.121 1050.22 790.121ZM1060.89 764.704C988.203 764.704 930.254 699.639 930.254 600.515C930.254 520.2 976.512 469.367 1041.58 469.367C1113.76 469.367 1170.69 533.924 1170.69 633.048C1170.69 713.363 1125.96 764.704 1060.89 764.704Z" fill="#162DFB"/>
<rect x="583" y="231" width="424" height="57" stroke="#162DFB" stroke-width="10"/>
<rect x="278" y="279" width="310" height="14" fill="#162DFB"/>
<rect x="578" y="279" width="434" height="14" fill="#162DFB"/>
<rect x="278" y="226" width="307" height="14" fill="#162DFB"/>
<rect x="578" y="226" width="434" height="14" fill="#162DFB"/>
<rect x="283" y="231" width="300" height="57" stroke="#162DFB" stroke-width="10"/>
</svg>
