<svg width="1160" height="565" viewBox="0 0 1160 565" fill="none" xmlns="http://www.w3.org/2000/svg">
<ellipse cx="991.236" cy="392.879" rx="145.508" ry="157.263" fill="#FDB62B"/>
<ellipse cx="575.043" cy="392.879" rx="145.508" ry="157.263" fill="#FDB62B"/>
<ellipse cx="175.373" cy="392.879" rx="145.508" ry="157.263" fill="#FDB62B"/>
<path fill-rule="evenodd" clip-rule="evenodd" d="M29.8643 446.571C29.8643 459.403 38.51 470.217 50.2943 473.504C52.2847 478.46 55.6538 482.715 59.9271 485.793C59.7959 486.891 59.7284 488.009 59.7284 489.143C59.7284 504.584 72.2455 517.101 87.6863 517.101C96.7563 517.101 104.817 512.782 109.926 506.088C115.034 512.782 123.095 517.101 132.165 517.101C147.605 517.101 160.123 504.584 160.123 489.143C160.123 477.775 153.338 467.992 143.597 463.622C143.6 463.445 143.602 463.268 143.602 463.091C143.602 447.65 131.085 435.133 115.644 435.133C107.96 435.133 101 438.233 95.9465 443.25C92.6082 439.936 88.438 437.458 83.7768 436.158C79.6472 425.874 69.5827 418.613 57.8222 418.613C42.3814 418.613 29.8643 431.13 29.8643 446.571Z" fill="#F3F3F3"/>
<path fill-rule="evenodd" clip-rule="evenodd" d="M881.259 488.661C884.587 499.232 894.064 507.245 905.789 508.149C921.184 509.335 934.626 497.816 935.812 482.421C935.856 481.857 935.882 481.296 935.892 480.738C938.788 482.054 941.96 482.895 945.316 483.154C960.711 484.34 974.152 472.821 975.339 457.426C976.48 442.61 965.854 429.602 951.33 427.588C947.287 418.516 938.526 411.891 927.927 411.074C918.884 410.378 910.514 414.065 904.907 420.346C900.329 413.28 892.623 408.354 883.58 407.657C868.185 406.471 854.743 417.99 853.556 433.385C852.838 442.706 856.777 451.311 863.414 456.913C863.199 457.998 863.046 459.108 862.959 460.238C861.973 473.033 869.762 484.479 881.259 488.661Z" fill="#F3F3F3"/>
<path fill-rule="evenodd" clip-rule="evenodd" d="M542.403 366.113C531.043 369.157 519.442 364.748 512.792 355.883C507.953 355.833 503.284 354.52 499.201 352.182C495.619 358.337 489.698 363.132 482.276 365.121C467.361 369.118 452.031 360.267 448.034 345.352C444.038 330.437 452.889 315.107 467.804 311.111L467.865 311.094C465.045 296.785 473.77 282.541 488.066 278.71C496.827 276.363 505.732 278.448 512.398 283.592C515.599 275.804 522.268 269.546 531.029 267.198C541.297 264.447 551.761 267.785 558.59 274.998C572.958 272.072 587.302 280.81 591.148 295.164C595.144 310.078 586.293 325.409 571.379 329.405C568.128 330.276 564.857 330.537 561.688 330.257C561.864 330.787 562.026 331.325 562.172 331.872C566.169 346.787 557.318 362.117 542.403 366.113Z" fill="#F3F3F3"/>
<path fill-rule="evenodd" clip-rule="evenodd" d="M283.026 288.291C293.211 294.172 298.296 305.493 296.73 316.464C305.292 325.203 307.373 338.89 300.957 350.003C300.39 350.985 299.773 351.92 299.11 352.805C302.675 360.725 302.51 370.187 297.836 378.283C290.116 391.655 273.017 396.237 259.645 388.516C251.79 383.981 246.968 376.21 245.891 367.86C238.121 371.102 228.98 370.812 221.125 366.277C217.88 364.404 215.153 361.978 212.993 359.187C204.441 364.807 193.105 365.508 183.638 360.042C170.266 352.321 165.684 335.223 173.405 321.85C178.382 313.229 187.258 308.262 196.52 307.889C197.034 306.564 197.656 305.261 198.389 303.992C206.109 290.62 223.208 286.039 236.58 293.759C239.495 295.442 241.992 297.57 244.035 300.009C244.285 299.509 244.552 299.015 244.835 298.525C252.555 285.153 269.654 280.571 283.026 288.291Z" fill="#F3F3F3"/>
<path fill-rule="evenodd" clip-rule="evenodd" d="M630.205 490.362C633.544 497.711 640.024 503.564 648.43 505.816C663.344 509.813 678.675 500.962 682.671 486.047C682.817 485.501 682.947 484.954 683.059 484.407C685.663 486.233 688.626 487.643 691.877 488.514C706.792 492.51 722.122 483.659 726.118 468.744C729.965 454.39 721.911 439.651 708.005 435.001C705.698 425.34 698.304 417.218 688.036 414.466C679.275 412.119 670.371 414.204 663.705 419.348C660.503 411.56 653.834 405.302 645.073 402.955C630.159 398.958 614.828 407.809 610.832 422.724C609.265 428.573 609.673 434.487 611.649 439.755C600.209 440.692 590.066 448.669 586.925 460.392C582.929 475.306 591.78 490.637 606.694 494.633C615.1 496.885 623.638 495.057 630.205 490.362Z" fill="#F3F3F3"/>
<path fill-rule="evenodd" clip-rule="evenodd" d="M1042.64 316.952C1040.59 320.509 1039.41 324.33 1039.03 328.167C1029.85 328.618 1021.09 333.573 1016.16 342.117C1015.43 343.386 1014.8 344.689 1014.29 346.014C1005.03 346.386 996.152 351.354 991.174 359.975C983.454 373.347 988.035 390.446 1001.41 398.166C1011.32 403.888 1023.27 402.853 1031.94 396.491C1042.7 401.312 1055.22 398.781 1063.29 390.567C1065.52 393.65 1068.43 396.324 1071.94 398.351C1083.31 404.919 1097.39 402.583 1106.09 393.507C1107.36 394.592 1108.75 395.577 1110.26 396.445C1123.63 404.165 1140.73 399.583 1148.45 386.211C1156.17 372.839 1151.59 355.74 1138.21 348.02C1130.68 343.669 1121.96 343.225 1114.4 346.061C1113.08 338.098 1108.33 330.767 1100.8 326.416C1098.55 325.123 1096.21 324.174 1093.82 323.555C1091.95 316.7 1087.47 310.553 1080.83 306.719C1067.46 298.998 1050.36 303.58 1042.64 316.952Z" fill="#F3F3F3"/>
<path d="M169.273 564.121C266.871 564.121 339.053 490.922 339.053 391.29C339.053 291.658 266.871 218.459 169.273 218.459C72.1823 218.459 0 291.658 0 391.29C0 490.922 72.1823 564.121 169.273 564.121ZM179.947 538.704C107.257 538.704 49.3076 473.639 49.3076 374.515C49.3076 294.2 95.5653 243.367 160.631 243.367C232.813 243.367 289.746 307.924 289.746 407.048C289.746 487.363 245.013 538.704 179.947 538.704Z" fill="#162DFB"/>
<path d="M579.746 564.121C677.345 564.121 749.527 490.922 749.527 391.29C749.527 291.658 677.345 218.459 579.746 218.459C482.656 218.459 410.474 291.658 410.474 391.29C410.474 490.922 482.656 564.121 579.746 564.121ZM590.421 538.704C517.73 538.704 459.781 473.639 459.781 374.515C459.781 294.2 506.039 243.367 571.105 243.367C643.287 243.367 700.219 307.924 700.219 407.048C700.219 487.363 655.487 538.704 590.421 538.704Z" fill="#162DFB"/>
<path d="M990.219 564.121C1087.82 564.121 1160 490.922 1160 391.29C1160 291.658 1087.82 218.459 990.219 218.459C893.129 218.459 820.946 291.658 820.946 391.29C820.946 490.922 893.129 564.121 990.219 564.121ZM1000.89 538.704C928.203 538.704 870.254 473.639 870.254 374.515C870.254 294.2 916.512 243.367 981.577 243.367C1053.76 243.367 1110.69 307.924 1110.69 407.048C1110.69 487.363 1065.96 538.704 1000.89 538.704Z" fill="#162DFB"/>
<rect x="523" y="5" width="424" height="57" stroke="#162DFB" stroke-width="10"/>
<path d="M236.434 41H243.934V40.52L241.534 39.32V22.85H250.834V39.32L248.434 40.52V41H255.934V40.52L253.534 39.32V22.88L255.934 21.68V21.2H236.434V21.68L238.834 22.88V39.32L236.434 40.52V41ZM259.333 47.9H265.753V47.42L263.623 46.46V41C264.493 41.18 265.513 41.3 266.653 41.3C270.403 41.3 273.463 38.51 273.463 33.59C273.463 29.63 271.273 27.2 268.243 27.2C266.623 27.2 265.303 27.74 263.773 29.03H263.563L263.323 27.2H263.143L259.423 28.85V29.06L261.223 30.62V46.46L259.333 47.42V47.9ZM266.593 29.27C269.053 29.27 271.063 30.89 271.063 34.58C271.063 38.39 269.443 39.86 267.523 39.86C265.993 39.86 264.823 39.56 263.623 38.6V30.17C264.583 29.57 265.603 29.27 266.593 29.27ZM278.244 28.94V39.56L276.354 40.52V41H282.534V40.52L280.644 39.56V38.51L287.244 31.82V39.56L285.354 40.52V41H291.534V40.52L289.644 39.56V28.94L291.534 27.98V27.5H285.354V27.98L287.244 28.94V29.99L280.644 36.68V28.94L282.534 27.98V27.5H276.354V27.98L278.244 28.94ZM300.701 41.3C303.131 41.3 305.021 39.89 305.951 38.15V37.85H305.861C304.361 38.66 303.101 39.05 301.991 39.05C298.061 39.05 296.801 36.35 296.801 33.47C296.801 30.35 298.151 28.52 300.341 28.52C301.661 28.52 302.531 29.06 303.131 29.87L304.151 31.25H304.361L305.501 30.29C305.801 30.05 305.891 29.87 305.891 29.57C305.891 29.33 305.741 29.06 305.411 28.67C304.631 27.8 302.951 27.2 301.331 27.2C297.431 27.2 294.431 30.38 294.431 34.85C294.431 38.75 296.831 41.3 300.701 41.3ZM308.187 32.63H308.667L310.707 28.91H313.467V39.56L311.157 40.52V41H318.177V40.52L315.867 39.56V28.91H318.627L320.667 32.63H321.147V27.5H308.187V32.63ZM329.823 41.3C332.253 41.3 334.143 39.89 335.073 38.15V37.85H334.983C333.483 38.66 332.223 39.05 331.113 39.05C327.303 39.05 326.013 36.53 325.923 33.74H334.893L335.043 33.59C335.043 29.48 333.093 27.2 329.943 27.2C326.553 27.2 323.553 30.38 323.553 34.85C323.553 38.75 325.953 41.3 329.823 41.3ZM329.463 28.52C331.203 28.52 332.313 29.66 332.763 32.36H325.983C326.283 29.93 327.543 28.52 329.463 28.52ZM339.914 28.94V39.56L338.024 40.52V41H344.804V40.52L342.314 39.56V28.91H346.814L348.854 32.63H349.334V27.5H338.024V27.98L339.914 28.94ZM353.566 28.94V39.56L351.676 40.52V41H357.856V40.52L355.966 39.56V34.79H362.266V39.56L360.376 40.52V41H366.556V40.52L364.666 39.56V28.94L366.556 27.98V27.5H360.376V27.98L362.266 28.94V33.38H355.966V28.94L357.856 27.98V27.5H351.676V27.98L353.566 28.94ZM371.32 28.94V39.56L369.43 40.52V41H375.61V40.52L373.72 39.56V38.51L380.32 31.82V39.56L378.43 40.52V41H384.61V40.52L382.72 39.56V28.94L384.61 27.98V27.5H378.43V27.98L380.32 28.94V29.99L373.72 36.68V28.94L375.61 27.98V27.5H369.43V27.98L371.32 28.94ZM386.937 32.63H387.417L389.457 28.91H392.217V39.56L389.907 40.52V41H396.927V40.52L394.617 39.56V28.91H397.377L399.417 32.63H399.897V27.5H386.937V32.63ZM408.573 41.3C411.003 41.3 412.893 39.89 413.823 38.15V37.85H413.733C412.233 38.66 410.973 39.05 409.863 39.05C406.053 39.05 404.763 36.53 404.673 33.74H413.643L413.793 33.59C413.793 29.48 411.843 27.2 408.693 27.2C405.303 27.2 402.303 30.38 402.303 34.85C402.303 38.75 404.703 41.3 408.573 41.3ZM408.213 28.52C409.953 28.52 411.063 29.66 411.513 32.36H404.733C405.033 29.93 406.293 28.52 408.213 28.52ZM424.274 47.9H430.694V47.42L428.564 46.46V41C429.434 41.18 430.454 41.3 431.594 41.3C435.344 41.3 438.404 38.51 438.404 33.59C438.404 29.63 436.214 27.2 433.184 27.2C431.564 27.2 430.244 27.74 428.714 29.03H428.504L428.264 27.2H428.084L424.364 28.85V29.06L426.164 30.62V46.46L424.274 47.42V47.9ZM431.534 29.27C433.994 29.27 436.004 30.89 436.004 34.58C436.004 38.39 434.384 39.86 432.464 39.86C430.934 39.86 429.764 39.56 428.564 38.6V30.17C429.524 29.57 430.544 29.27 431.534 29.27ZM447.772 41.3C450.202 41.3 452.092 39.89 453.022 38.15V37.85H452.932C451.432 38.66 450.172 39.05 449.062 39.05C445.252 39.05 443.962 36.53 443.872 33.74H452.842L452.992 33.59C452.992 29.48 451.042 27.2 447.892 27.2C444.502 27.2 441.502 30.38 441.502 34.85C441.502 38.75 443.902 41.3 447.772 41.3ZM447.412 28.52C449.152 28.52 450.262 29.66 450.712 32.36H443.932C444.232 29.93 445.492 28.52 447.412 28.52ZM457.983 28.94L457.683 39.56L455.793 40.52V41H460.893V40.52L459.183 39.56L459.453 30.11L464.403 41H465.033L469.683 30.11L470.163 39.56L468.453 40.52V41H474.453V40.52L472.563 39.56L471.993 28.94L473.883 27.98V27.5H469.563L465.423 37.04H465.153L460.923 27.5H456.093V27.98L457.983 28.94ZM479.045 28.94V39.56L477.155 40.52V41H483.335V40.52L481.445 39.56V34.79H487.745V39.56L485.855 40.52V41H492.035V40.52L490.145 39.56V28.94L492.035 27.98V27.5H485.855V27.98L487.745 28.94V33.38H481.445V28.94L483.335 27.98V27.5H477.155V27.98L479.045 28.94ZM496.799 28.94V39.56L494.909 40.52V41H501.089V40.52L499.199 39.56V38.51L505.799 31.82V39.56L503.909 40.52V41H510.089V40.52L508.199 39.56V28.94L510.089 27.98V27.5H503.909V27.98L505.799 28.94V29.99L499.199 36.68V28.94L501.089 27.98V27.5H494.909V27.98L496.799 28.94Z" fill="#162DFB"/>
<path d="M540.5 41H548V40.52L545.6 39.32V22.85H554.9V39.32L552.5 40.52V41H560V40.52L557.6 39.32V22.88L560 21.68V21.2H540.5V21.68L542.9 22.88V39.32L540.5 40.52V41ZM570.058 41.3C573.988 41.3 576.658 38.27 576.658 34.25C576.658 30.23 573.988 27.2 570.058 27.2C566.128 27.2 563.458 30.23 563.458 34.25C563.458 38.27 566.128 41.3 570.058 41.3ZM570.478 40.01C567.448 40.01 566.158 36.8 566.158 33.62C566.158 31.01 567.238 28.46 569.698 28.46C572.728 28.46 573.958 31.67 573.958 34.85C573.958 37.43 572.908 40.01 570.478 40.01ZM586.046 41.3C588.476 41.3 590.366 39.89 591.296 38.15V37.85H591.206C589.706 38.66 588.446 39.05 587.336 39.05C583.406 39.05 582.146 36.35 582.146 33.47C582.146 30.35 583.496 28.52 585.686 28.52C587.006 28.52 587.876 29.06 588.476 29.87L589.496 31.25H589.706L590.846 30.29C591.146 30.05 591.236 29.87 591.236 29.57C591.236 29.33 591.086 29.06 590.756 28.67C589.976 27.8 588.296 27.2 586.676 27.2C582.776 27.2 579.776 30.38 579.776 34.85C579.776 38.75 582.176 41.3 586.046 41.3ZM596.082 28.94L595.782 39.56L593.892 40.52V41H598.992V40.52L597.282 39.56L597.552 30.11L602.502 41H603.132L607.782 30.11L608.262 39.56L606.552 40.52V41H612.552V40.52L610.662 39.56L610.092 28.94L611.982 27.98V27.5H607.662L603.522 37.04H603.252L599.022 27.5H594.192V27.98L596.082 28.94ZM621.913 41.3C625.843 41.3 628.513 38.27 628.513 34.25C628.513 30.23 625.843 27.2 621.913 27.2C617.983 27.2 615.313 30.23 615.313 34.25C615.313 38.27 617.983 41.3 621.913 41.3ZM622.333 40.01C619.303 40.01 618.013 36.8 618.013 33.62C618.013 31.01 619.093 28.46 621.553 28.46C624.583 28.46 625.813 31.67 625.813 34.85C625.813 37.43 624.763 40.01 622.333 40.01ZM630.915 32.63H631.395L633.435 28.91H636.195V39.56L633.885 40.52V41H640.905V40.52L638.595 39.56V28.91H641.355L643.395 32.63H643.875V27.5H630.915V32.63ZM646.22 47.9H652.64V47.42L650.51 46.46V41C651.38 41.18 652.4 41.3 653.54 41.3C657.29 41.3 660.35 38.51 660.35 33.59C660.35 29.63 658.16 27.2 655.13 27.2C653.51 27.2 652.19 27.74 650.66 29.03H650.45L650.21 27.2H650.03L646.31 28.85V29.06L648.11 30.62V46.46L646.22 47.42V47.9ZM653.48 29.27C655.94 29.27 657.95 30.89 657.95 34.58C657.95 38.39 656.33 39.86 654.41 39.86C652.88 39.86 651.71 39.56 650.51 38.6V30.17C651.47 29.57 652.49 29.27 653.48 29.27ZM665.132 28.94V39.56L663.242 40.52V41H669.422V40.52L667.532 39.56V38.51L674.132 31.82V39.56L672.242 40.52V41H678.422V40.52L676.532 39.56V28.94L678.422 27.98V27.5H672.242V27.98L674.132 28.94V29.99L667.532 36.68V28.94L669.422 27.98V27.5H663.242V27.98L665.132 28.94ZM680.749 32.63H681.229L683.269 28.91H686.029V39.56L683.719 40.52V41H690.739V40.52L688.429 39.56V28.91H691.189L693.229 32.63H693.709V27.5H680.749V32.63ZM702.384 41.3C704.814 41.3 706.704 39.89 707.634 38.15V37.85H707.544C706.044 38.66 704.784 39.05 703.674 39.05C699.864 39.05 698.574 36.53 698.484 33.74H707.454L707.604 33.59C707.604 29.48 705.654 27.2 702.504 27.2C699.114 27.2 696.114 30.38 696.114 34.85C696.114 38.75 698.514 41.3 702.384 41.3ZM702.024 28.52C703.764 28.52 704.874 29.66 705.324 32.36H698.544C698.844 29.93 700.104 28.52 702.024 28.52ZM719.976 28.94V39.56L718.086 40.52V41H723.426C728.406 41 730.746 39.65 730.746 36.95C730.746 35.57 729.756 34.07 726.516 33.71C729.006 33.26 729.786 32 729.786 30.56C729.786 28.25 727.296 27.5 723.666 27.5H718.086V27.98L719.976 28.94ZM724.566 28.79C726.516 28.79 727.236 29.84 727.236 31.07C727.236 32.33 726.456 33.26 724.476 33.26H722.376V28.79H724.566ZM724.446 34.4C726.966 34.4 728.046 35.48 728.046 37.22C728.046 38.81 726.936 39.71 724.326 39.71H722.376V34.4H724.446ZM742.476 28.94V39.56L740.586 40.52V41H746.766V40.52L744.876 39.56V38.51L751.476 31.82V39.56L749.586 40.52V41H755.766V40.52L753.876 39.56V28.94L755.766 27.98V27.5H749.586V27.98L751.476 28.94V29.99L744.876 36.68V28.94L746.766 27.98V27.5H740.586V27.98L742.476 28.94ZM763.162 29.66V28.91H767.572V39.56L765.682 40.52V41H771.862V40.52L769.972 39.56V28.94L771.862 27.98V27.5H759.592V27.98L761.662 28.94V29.66C761.662 35.48 761.212 38.81 758.572 38.81H758.122L758.002 38.93V40.43C758.002 41.09 758.152 41.3 758.992 41.3C760.192 41.3 761.062 40.67 761.692 39.53C762.742 37.67 763.162 34.37 763.162 29.66ZM779.276 29.66V28.91H783.686V39.56L781.796 40.52V41H787.976V40.52L786.086 39.56V28.94L787.976 27.98V27.5H775.706V27.98L777.776 28.94V29.66C777.776 35.48 777.326 38.81 774.686 38.81H774.236L774.116 38.93V40.43C774.116 41.09 774.266 41.3 775.106 41.3C776.306 41.3 777.176 40.67 777.806 39.53C778.856 37.67 779.276 34.37 779.276 29.66ZM792.749 28.94V39.56L790.859 40.52V41H797.039V40.52L795.149 39.56V34.79H797.729C797.939 38.54 800.429 41.3 803.999 41.3C807.749 41.3 810.299 38.27 810.299 34.25C810.299 30.23 807.749 27.2 803.999 27.2C800.519 27.2 798.089 29.81 797.729 33.38H795.149V28.94L797.039 27.98V27.5H790.859V27.98L792.749 28.94ZM804.419 40.01C801.599 40.01 800.399 36.8 800.399 33.62C800.399 31.01 801.389 28.46 803.639 28.46C806.459 28.46 807.599 31.67 807.599 34.85C807.599 37.43 806.639 40.01 804.419 40.01ZM815.252 28.94L814.952 39.56L813.062 40.52V41H818.162V40.52L816.452 39.56L816.722 30.11L821.672 41H822.302L826.952 30.11L827.432 39.56L825.722 40.52V41H831.722V40.52L829.832 39.56L829.262 28.94L831.152 27.98V27.5H826.832L822.692 37.04H822.422L818.192 27.5H813.362V27.98L815.252 28.94ZM836.313 28.94V39.56L834.423 40.52V41H840.603V40.52L838.713 39.56V38.51L845.313 31.82V39.56L843.423 40.52V41H849.603V40.52L847.713 39.56V28.94L849.603 27.98V27.5H843.423V27.98L845.313 28.94V29.99L838.713 36.68V28.94L840.603 27.98V27.5H834.423V27.98L836.313 28.94ZM854.36 28.94V39.56L852.47 40.52V41H858.65V40.52L856.76 39.56V34.79H863.06V39.56L861.17 40.52V41H867.35V40.52L865.46 39.56V28.94L867.35 27.98V27.5H861.17V27.98L863.06 28.94V33.38H856.76V28.94L858.65 27.98V27.5H852.47V27.98L854.36 28.94ZM873.464 41.3C875.144 41.3 876.764 40.52 877.814 39.5H877.994C878.324 40.58 879.104 41.3 880.334 41.3C881.684 41.3 882.644 40.52 883.124 39.65V39.56L883.034 39.5H881.894C880.994 39.5 880.484 39.29 880.214 38.99V30.47C880.214 27.95 878.024 27.2 875.894 27.2C874.514 27.2 873.284 27.74 872.174 28.46C871.094 29.15 870.584 30.14 870.584 31.01C870.584 31.73 870.764 31.85 871.364 31.85H872.924L873.074 31.7V30.86C873.074 29.48 873.584 28.61 875.114 28.61C876.494 28.61 877.814 29.72 877.814 31.1V33.29L874.964 33.95C871.514 34.76 870.194 36.23 870.194 38.18C870.194 40.13 871.574 41.3 873.464 41.3ZM872.534 37.58C872.534 36.23 873.044 35.21 877.814 34.31V38.75C876.614 39.26 875.744 39.44 874.784 39.44C873.344 39.44 872.534 38.81 872.534 37.58ZM884.362 32.63H884.842L886.882 28.91H889.642V39.56L887.332 40.52V41H894.352V40.52L892.042 39.56V28.91H894.802L896.842 32.63H897.322V27.5H884.362V32.63ZM906.328 41.3C910.258 41.3 912.928 38.27 912.928 34.25C912.928 30.23 910.258 27.2 906.328 27.2C902.398 27.2 899.728 30.23 899.728 34.25C899.728 38.27 902.398 41.3 906.328 41.3ZM906.748 40.01C903.718 40.01 902.428 36.8 902.428 33.62C902.428 31.01 903.508 28.46 905.968 28.46C908.998 28.46 910.228 31.67 910.228 34.85C910.228 37.43 909.178 40.01 906.748 40.01ZM915.869 47.9H922.289V47.42L920.159 46.46V41C921.029 41.18 922.049 41.3 923.189 41.3C926.939 41.3 929.999 38.51 929.999 33.59C929.999 29.63 927.809 27.2 924.779 27.2C923.159 27.2 921.839 27.74 920.309 29.03H920.099L919.859 27.2H919.679L915.959 28.85V29.06L917.759 30.62V46.46L915.869 47.42V47.9ZM923.129 29.27C925.589 29.27 927.599 30.89 927.599 34.58C927.599 38.39 925.979 39.86 924.059 39.86C922.529 39.86 921.359 39.56 920.159 38.6V30.17C921.119 29.57 922.139 29.27 923.129 29.27Z" fill="#162DFB"/>
<rect x="218" y="53" width="310" height="14" fill="#162DFB"/>
<rect x="518" y="53" width="434" height="14" fill="#162DFB"/>
<rect x="218" width="307" height="14" fill="#162DFB"/>
<rect x="518" width="434" height="14" fill="#162DFB"/>
<rect x="223" y="5" width="300" height="57" stroke="#162DFB" stroke-width="10"/>
</svg>
