<svg width="364" height="364" viewBox="0 0 364 364" fill="none" xmlns="http://www.w3.org/2000/svg">
<rect width="364" height="364" fill="#FDB62B"/>
<mask id="mask0_544:10860" style="mask-type:alpha" maskUnits="userSpaceOnUse" x="0" y="0" width="364" height="364">
<rect width="364" height="364" fill="#FDB62B"/>
</mask>
<g mask="url(#mask0_544:10860)">
<path d="M103.099 363.162C152.532 363.162 187.723 336.362 215.372 302.025H218.724C237.994 343.062 271.509 364 328.484 364C380.431 364 411.432 342.225 424 323.8V306.212L420.649 302.862H402.216C386.296 302.862 374.566 297.837 366.187 290.3V79.25C366.187 0.525002 292.456 -38 195.263 -38C152.532 -38 120.694 -29.625 75.4491 -1.98749C40.2588 18.95 15.9608 41.5625 15.9608 65.85C15.9608 85.1125 21.8258 93.4875 38.5831 93.4875H102.261L104.774 90.1375V41.5625C104.774 16.4375 119.018 5.55 150.857 5.55C191.912 5.55 215.372 30.675 215.372 76.7375V121.962L136.613 142.9C24.3394 172.212 0.879271 196.5 0.0414078 260.987C-1.63432 327.15 47.7996 363.162 103.099 363.162ZM139.964 232.512C139.964 191.475 161.749 173.05 215.372 160.487V281.087C207.831 283.6 199.453 285.275 191.074 285.275C160.073 285.275 139.964 267.687 139.964 232.512Z" fill="#162DFB"/>
</g>
</svg>
