<svg width="1160" height="762" viewBox="0 0 1160 762" fill="none" xmlns="http://www.w3.org/2000/svg">
<rect width="364" height="364" fill="#FDB62B"/>
<mask id="mask0_585:12250" style="mask-type:alpha" maskUnits="userSpaceOnUse" x="0" y="0" width="364" height="364">
<rect width="364" height="364" fill="#FDB62B"/>
</mask>
<g mask="url(#mask0_585:12250)">
<path d="M103.099 363.162C152.532 363.162 187.723 336.362 215.372 302.025H218.724C237.994 343.062 271.509 364 328.484 364C380.431 364 411.432 342.225 424 323.8V306.212L420.649 302.862H402.216C386.296 302.862 374.566 297.837 366.187 290.3V79.25C366.187 0.525002 292.456 -38 195.263 -38C152.532 -38 120.694 -29.625 75.4491 -1.98749C40.2588 18.95 15.9608 41.5625 15.9608 65.85C15.9608 85.1125 21.8258 93.4875 38.5831 93.4875H102.261L104.774 90.1375V41.5625C104.774 16.4375 119.018 5.55 150.857 5.55C191.912 5.55 215.372 30.675 215.372 76.7375V121.962L136.613 142.9C24.3394 172.212 0.879271 196.5 0.0414078 260.987C-1.63432 327.15 47.7996 363.162 103.099 363.162ZM139.964 232.512C139.964 191.475 161.749 173.05 215.372 160.487V281.087C207.831 283.6 199.453 285.275 191.074 285.275C160.073 285.275 139.964 267.687 139.964 232.512Z" fill="#162DFB"/>
</g>
<rect x="796" width="364" height="364" fill="#FDB62B"/>
<mask id="mask1_585:12250" style="mask-type:alpha" maskUnits="userSpaceOnUse" x="796" y="0" width="364" height="364">
<rect x="796" width="364" height="364" fill="#FDB62B"/>
</mask>
<g mask="url(#mask1_585:12250)">
<path d="M1040.5 416C1185.64 416 1285 306.8 1285 182C1285 56.225 1185.64 -52 1040.5 -52C895.359 -52 796 56.225 796 182C796 306.8 895.359 416 1040.5 416ZM1049.27 364.325C994.717 364.325 971.339 269.75 971.339 161.525C971.339 70.85 989.847 -1.29999 1033.68 -1.29999C1087.26 -1.29999 1109.66 93.275 1109.66 201.5C1109.66 290.225 1091.15 364.325 1049.27 364.325Z" fill="#162DFB"/>
</g>
<rect x="398" width="364" height="364" fill="#FDB62B"/>
<mask id="mask2_585:12250" style="mask-type:alpha" maskUnits="userSpaceOnUse" x="398" y="0" width="364" height="364">
<rect x="398" width="364" height="364" fill="#FDB62B"/>
</mask>
<g mask="url(#mask2_585:12250)">
<path d="M728.552 0C728.552 21.0785 716.096 33.534 657.647 49.822C411.398 118.806 306 282.644 306 467.56C306 612.236 385.528 732 547.458 732C677.769 732 787 637.147 787 501.094C787 369.832 695.016 291.267 575.245 291.267C534.044 291.267 501.466 301.806 476.554 318.094C472.721 257.733 461.223 231.864 461.223 211.743C461.223 191.623 467.93 180.126 487.094 180.126C507.215 180.126 534.044 191.623 611.655 191.623C708.43 191.623 762.088 137.969 762.088 53.6545V3.83242L758.255 0H728.552ZM478.47 490.555V372.707C490.926 355.461 510.09 341.089 538.835 341.089C591.534 341.089 614.53 409.115 614.53 529.838C614.53 646.728 586.743 681.22 555.124 681.22C509.131 681.22 478.47 622.775 478.47 490.555Z" fill="#162DFB"/>
</g>
<rect y="398" width="364" height="364" fill="#162DFB"/>
<mask id="mask3_585:12250" style="mask-type:alpha" maskUnits="userSpaceOnUse" x="0" y="398" width="364" height="364">
<rect y="398" width="364" height="364" fill="#FDB62B"/>
</mask>
<g mask="url(#mask3_585:12250)">
<path d="M34.6267 397H-114.227L-115.828 409.807L-65.4095 435.421L-70.2113 459.433C-96.6208 615.517 -123.831 689.157 -186.253 689.157H-197.457L-202.259 693.159L-211.863 746.788C-215.064 764.397 -212.663 770 -189.454 770C-115.028 770 -76.6136 693.159 -40.6006 502.657L15.4197 761.996H45.8307L207.489 501.056L179.479 661.142C167.475 731.579 192.284 770 245.103 770C296.321 770 333.935 725.176 363.546 645.933L349.141 641.131C329.934 682.753 311.527 698.762 295.521 698.762C281.116 698.762 277.114 685.154 281.116 661.142L327.533 397H225.896L86.6455 621.12H82.644L34.6267 397Z" fill="#F3F3F3"/>
</g>
<rect x="796" y="398" width="364" height="364" fill="#162DFB"/>
<mask id="mask4_585:12250" style="mask-type:alpha" maskUnits="userSpaceOnUse" x="796" y="398" width="364" height="364">
<rect x="796" y="398" width="364" height="364" fill="#FDB62B"/>
</mask>
<g mask="url(#mask4_585:12250)">
<path d="M785.12 978C818.975 978 848.701 962.364 875.95 931.092C906.502 896.528 911.456 883.361 936.228 845.506L1102.2 591.215C1142.66 529.494 1160 499.868 1160 467.773C1160 432.387 1132.75 397 1103.85 397C1089.81 397 1084.86 400.292 1074.12 420.042L1053.48 460.367V464.482L1066.69 471.065C1082.38 480.94 1091.46 494.108 1091.46 513.858C1091.46 531.14 1087.34 557.474 1060.91 599.445L1016.32 669.395H1011.37L941.183 397H938.705L790.9 426.626V436.501L847.876 460.367L936.228 793.66L924.668 811.765C877.602 885.007 874.299 889.945 814.021 889.945H767.78L762 894.882V954.135C762 971.416 768.606 978 785.12 978Z" fill="#F3F3F3"/>
</g>
<rect x="398" y="398" width="364" height="364" fill="#162DFB"/>
<mask id="mask5_585:12250" style="mask-type:alpha" maskUnits="userSpaceOnUse" x="398" y="398" width="364" height="364">
<rect x="398" y="398" width="364" height="364" fill="#FDB62B"/>
</mask>
<g mask="url(#mask5_585:12250)">
<path d="M353 788.394H427.652C441.649 759.43 442.582 744.481 545.228 614.61L617.08 794H619.879L781.313 760.364V749.153L717.859 722.057L647.874 544.536C773.848 406.256 802.775 389.439 805.575 362.343H733.723C722.525 387.57 723.458 403.453 636.676 515.572L572.289 353H570.423L407.122 386.636V397.847L469.643 424.943L533.097 583.778C392.192 738.875 354.866 757.561 353 788.394Z" fill="#F3F3F3"/>
</g>
</svg>
