<svg width="364" height="364" viewBox="0 0 364 364" fill="none" xmlns="http://www.w3.org/2000/svg">
<rect width="364" height="364" fill="#162DFB"/>
<mask id="mask0_544:10880" style="mask-type:alpha" maskUnits="userSpaceOnUse" x="0" y="0" width="364" height="364">
<rect width="364" height="364" fill="#FDB62B"/>
</mask>
<g mask="url(#mask0_544:10880)">
<path d="M-10.8797 581C22.9751 581 52.7012 565.364 79.9502 534.092C110.502 499.528 115.456 486.361 140.228 448.506L306.199 194.215C346.66 132.494 364 102.868 364 70.7734C364 35.3867 336.751 0 307.851 0C293.813 0 288.859 3.29179 278.124 23.0425L257.481 63.3668V67.4816L270.693 74.0651C286.382 83.9405 295.465 97.1076 295.465 116.858C295.465 134.14 291.336 160.474 264.913 202.445L220.324 272.395H215.369L145.183 0H142.705L-5.09958 29.6261V39.5014L51.8755 63.3668L140.228 396.66L128.668 414.765C81.6017 488.007 78.2988 492.945 18.0207 492.945H-28.2199L-34 497.882V557.135C-34 574.416 -27.3942 581 -10.8797 581Z" fill="#F3F3F3"/>
</g>
</svg>
