<svg width="364" height="364" viewBox="0 0 364 364" fill="none" xmlns="http://www.w3.org/2000/svg">
<rect width="364" height="364" fill="#FDB62B"/>
<mask id="mask0_544:10870" style="mask-type:alpha" maskUnits="userSpaceOnUse" x="0" y="0" width="364" height="364">
<rect width="364" height="364" fill="#FDB62B"/>
</mask>
<g mask="url(#mask0_544:10870)">
<path d="M330.552 0C330.552 21.0785 318.096 33.534 259.647 49.822C13.3984 118.806 -92 282.644 -92 467.56C-92 612.236 -12.4721 732 149.458 732C279.769 732 389 637.147 389 501.094C389 369.832 297.016 291.267 177.245 291.267C136.044 291.267 103.466 301.806 78.5538 318.094C74.7211 257.733 63.2231 231.864 63.2231 211.743C63.2231 191.623 69.9303 180.126 89.0936 180.126C109.215 180.126 136.044 191.623 213.655 191.623C310.43 191.623 364.088 137.969 364.088 53.6545V3.83242L360.255 0H330.552ZM80.4701 490.555V372.707C92.9263 355.461 112.09 341.089 140.835 341.089C193.534 341.089 216.53 409.115 216.53 529.838C216.53 646.728 188.743 681.22 157.124 681.22C111.131 681.22 80.4701 622.775 80.4701 490.555Z" fill="#162DFB"/>
</g>
</svg>
