<svg width="1160" height="762" viewBox="0 0 1160 762" fill="none" xmlns="http://www.w3.org/2000/svg">
<rect width="364" height="364" fill="#FDB62B"/>
<path fill-rule="evenodd" clip-rule="evenodd" d="M215.372 302.025C187.723 336.362 152.532 363.162 103.099 363.162C48.7128 363.162 2.69938e-09 328.33 2.69938e-09 264.241C2.69938e-09 263.164 0.0137347 262.08 0.0414078 260.987C0.879271 196.5 24.3394 172.212 136.613 142.9L215.372 121.962V76.7375C215.372 30.675 191.912 5.55 150.857 5.55C119.018 5.55 104.774 16.4375 104.774 41.5625V90.1375L102.261 93.4875H38.5831C21.8258 93.4875 15.9608 85.1125 15.9608 65.85C15.9608 42.3291 38.7493 20.3791 72.15 -9.43492e-08L329.455 0C347.188 14.6266 359.296 33.5099 364 56.7093V360.21C353.481 362.6 341.655 364 328.484 364C271.509 364 237.994 343.062 218.724 302.025H215.372ZM215.372 160.487C161.749 173.05 139.964 191.475 139.964 232.512C139.964 267.688 160.073 285.275 191.074 285.275C199.453 285.275 207.831 283.6 215.372 281.087V160.487Z" fill="#162DFB"/>
<rect x="796" width="364" height="364" fill="#FDB62B"/>
<path fill-rule="evenodd" clip-rule="evenodd" d="M884.35 364H1043.81C993.154 357.876 971.339 266.069 971.339 161.525C971.339 77.9463 987.063 10.1065 1023.85 0H883.963C828.692 43.4835 796 109.855 796 182C796 253.753 828.844 320.35 884.35 364ZM1044.23 0C1090.22 11.6939 1109.66 100.673 1109.66 201.5C1109.66 286.815 1092.55 358.607 1053.99 364H1160V0H1044.23Z" fill="#162DFB"/>
<rect x="398" width="364" height="364" fill="#FDB62B"/>
<path fill-rule="evenodd" clip-rule="evenodd" d="M657.647 49.822C716.096 33.534 728.552 21.0785 728.552 0H758.255L762 3.74475V59.5117C759.558 140.446 706.17 191.623 611.655 191.623C560.229 191.623 531.099 186.575 511.443 183.169C501.435 181.434 493.882 180.126 487.094 180.126C467.93 180.126 461.223 191.623 461.223 211.743C461.223 219.971 463.146 229.159 465.68 241.275C469.345 258.787 474.288 282.415 476.554 318.094C501.466 301.806 534.044 291.267 575.245 291.267C643.978 291.267 703.561 317.141 741.859 364H582.492C571.187 348.926 556.722 341.089 538.835 341.089C515.107 341.089 497.908 350.882 485.621 364H398V204.755C455.211 136.936 540.487 82.6432 657.647 49.822Z" fill="#162DFB"/>
<rect y="398" width="364" height="364" fill="#162DFB"/>
<path fill-rule="evenodd" clip-rule="evenodd" d="M34.8409 398H0V690.612L15.4197 761.996H45.8307L207.489 501.056L179.479 661.142C170.661 712.884 181.708 747.35 209.13 762H280.552C314.362 745.835 341.227 705.661 363.546 645.933L349.141 641.131C329.934 682.753 311.527 698.762 295.521 698.762C281.116 698.762 277.114 685.154 281.116 661.142L327.357 398H225.275L86.6455 621.12H82.644L34.8409 398Z" fill="#F3F3F3"/>
<rect x="796" y="398" width="364" height="364" fill="#162DFB"/>
<path fill-rule="evenodd" clip-rule="evenodd" d="M796 438.637L847.876 460.367L927.835 762H990.731L1102.2 591.215C1142.66 529.494 1160 499.868 1160 467.773C1160 435.879 1137.86 403.985 1112.33 398H1094.1C1086.68 400.017 1081.93 405.674 1074.12 420.042L1053.48 460.367V464.482L1066.69 471.065C1082.38 480.94 1091.46 494.108 1091.46 513.858C1091.46 531.14 1087.34 557.474 1060.91 599.445L1016.32 669.395H1011.37L941.44 398H933.716L796 425.604V438.637Z" fill="#F3F3F3"/>
<rect x="398" y="398" width="364" height="364" fill="#162DFB"/>
<path fill-rule="evenodd" clip-rule="evenodd" d="M398 725.444V762H440.144C451.775 739.471 474.042 704.677 545.228 614.61L604.263 762H762V740.906L717.859 722.057L647.874 544.536C692.495 495.556 724.94 461.816 748.361 437.459C753.299 432.325 757.835 427.607 762 423.252V398H718.119C707.174 418.923 686.218 451.565 636.676 515.572L590.111 398H407.474L469.643 424.943L533.097 583.778C477.133 645.379 437.508 685.461 409.955 713.332C405.686 717.651 401.706 721.677 398 725.444Z" fill="#F3F3F3"/>
</svg>
