<svg width="364" height="364" viewBox="0 0 364 364" fill="none" xmlns="http://www.w3.org/2000/svg">
<rect width="364" height="364" fill="#FDB62B"/>
<mask id="mask0_544:10865" style="mask-type:alpha" maskUnits="userSpaceOnUse" x="0" y="0" width="364" height="364">
<rect width="364" height="364" fill="#FDB62B"/>
</mask>
<g mask="url(#mask0_544:10865)">
<path d="M244.5 416C389.641 416 489 306.8 489 182C489 56.225 389.641 -52 244.5 -52C99.3586 -52 0 56.225 0 182C0 306.8 99.3586 416 244.5 416ZM253.267 364.325C198.717 364.325 175.339 269.75 175.339 161.525C175.339 70.85 193.847 -1.29999 237.681 -1.29999C291.257 -1.29999 313.661 93.275 313.661 201.5C313.661 290.225 295.153 364.325 253.267 364.325Z" fill="#162DFB"/>
</g>
</svg>
