<svg width="364" height="364" viewBox="0 0 364 364" fill="none" xmlns="http://www.w3.org/2000/svg">
<rect width="364" height="364" fill="#162DFB"/>
<mask id="mask0_544:10875" style="mask-type:alpha" maskUnits="userSpaceOnUse" x="0" y="0" width="364" height="364">
<rect width="364" height="364" fill="#FDB62B"/>
</mask>
<g mask="url(#mask0_544:10875)">
<path d="M35.9628 0H-112.492L-114.088 12.7725L-63.8052 38.3176L-68.5941 62.2661C-94.9328 217.931 -122.07 291.373 -184.325 291.373H-195.499L-200.288 295.365L-209.866 348.85C-213.058 366.412 -210.664 372 -187.518 372C-113.29 372 -74.9792 295.365 -39.0628 105.373L16.8073 364.017H47.1368L208.362 103.777L180.427 263.433C168.455 333.682 193.197 372 245.875 372C296.956 372 334.469 327.296 364 248.266L349.633 243.476C330.478 284.987 312.121 300.953 296.158 300.953C281.791 300.953 277.8 287.382 281.791 263.433L328.084 0H226.719L87.8422 223.519H83.8514L35.9628 0Z" fill="#F3F3F3"/>
</g>
</svg>
