<svg width="1281" height="167" viewBox="0 0 1281 167" fill="none" xmlns="http://www.w3.org/2000/svg">
<path d="M1280 0.231445L0.00195324 112.217L0.00195312 162.99L1280 51.0043V0.231445Z" fill="#162DFB"/>
<path d="M3.56143 143.932L11.531 143.235L11.4864 142.725L8.82455 141.673L7.2934 124.172L17.1756 123.307L18.7068 140.808L16.2681 142.307L16.3127 142.817L24.2823 142.12L24.2377 141.609L21.5758 140.557L20.0475 123.088L22.4862 121.59L22.4416 121.08L1.7207 122.893L1.76533 123.403L4.42714 124.455L5.95551 141.924L3.51681 143.422L3.56143 143.932Z" fill="#F3F3F3"/>
<path d="M28.5347 149.136L35.3566 148.539L35.312 148.029L32.9594 147.207L32.4518 141.405C33.393 141.515 34.488 141.548 35.6994 141.442C39.6842 141.093 42.6764 137.844 42.219 132.616C41.8509 128.408 39.2978 126.03 36.0781 126.311C34.3567 126.462 33.0043 127.158 31.4984 128.671L31.2753 128.691L30.8501 126.769L30.6588 126.785L26.8593 128.885L26.8789 129.108L28.9366 130.598L30.4092 147.43L28.4901 148.626L28.5347 149.136ZM34.5173 128.664C37.1313 128.436 39.4177 129.97 39.7608 133.891C40.115 137.94 38.5302 139.652 36.49 139.831C34.8642 139.973 33.5931 139.763 32.2287 138.855L31.445 129.897C32.4093 129.17 33.4653 128.756 34.5173 128.664Z" fill="#F3F3F3"/>
<path d="M53.2409 139.907C57.417 139.542 59.9724 136.074 59.5987 131.802C59.225 127.531 56.1061 124.559 51.9301 124.924C47.754 125.29 45.1986 128.758 45.5723 133.029C45.946 137.301 49.0649 140.273 53.2409 139.907ZM53.5673 138.497C50.3476 138.779 48.6784 135.488 48.3828 132.109C48.1401 129.336 49.0507 126.525 51.6647 126.297C54.8844 126.015 56.4898 129.312 56.7854 132.691C57.0253 135.432 56.1494 138.271 53.5673 138.497Z" fill="#F3F3F3"/>
<path d="M70.2295 138.421C72.8116 138.195 74.6889 136.521 75.5154 134.586L75.4875 134.267L75.3918 134.275C73.8732 135.275 72.5706 135.807 71.3911 135.91C67.2151 136.275 65.6252 133.524 65.3574 130.463C65.0674 127.148 66.3318 125.078 68.6589 124.874C70.0615 124.752 71.0362 125.244 71.749 126.049L72.9612 127.421L73.1843 127.401L74.3065 126.275C74.6029 125.992 74.6818 125.793 74.6539 125.474C74.6316 125.219 74.4471 124.946 74.0602 124.562C73.1505 123.71 71.3096 123.229 69.5881 123.38C65.444 123.742 62.5518 127.4 62.9673 132.15C63.3299 136.294 66.1172 138.781 70.2295 138.421Z" fill="#F3F3F3"/>
<path d="M79.6174 124.365L80.6047 135.65L78.6857 136.846L78.7303 137.356L85.2972 136.781L85.2526 136.271L83.155 135.427L83.0574 134.311L89.4487 126.589L90.1682 134.813L88.2491 136.009L88.2938 136.519L94.8607 135.945L94.816 135.435L92.7185 134.59L91.7312 123.305L93.6502 122.11L93.6056 121.6L87.0387 122.174L87.0833 122.684L89.1809 123.529L89.2785 124.644L82.8873 132.367L82.1677 124.142L84.0868 122.946L84.0422 122.436L77.4753 123.011L77.5199 123.521L79.6174 124.365Z" fill="#F3F3F3"/>
<path d="M98.9217 122.676L99.5902 133.989L97.6711 135.185L97.7158 135.695L103.135 135.221L103.09 134.711L101.184 133.85L100.593 123.783L106.865 134.895L107.534 134.836L111.463 122.832L112.852 132.829L111.124 134.008L111.168 134.518L117.544 133.96L117.499 133.45L115.402 132.606L113.809 121.374L115.728 120.178L115.683 119.668L111.093 120.07L107.581 130.592L107.294 130.617L101.912 120.873L96.7795 121.322L96.8241 121.832L98.9217 122.676Z" fill="#F3F3F3"/>
<path d="M129.272 120.021L130.259 131.306L128.34 132.502L128.384 133.012L134.059 132.515C139.35 132.052 141.711 130.4 141.46 127.531C141.332 126.065 140.141 124.563 136.664 124.482C139.268 123.772 139.98 122.361 139.846 120.83C139.632 118.376 136.916 117.81 133.059 118.148L127.129 118.667L127.174 119.177L129.272 120.021ZM134.135 119.435C136.207 119.254 137.07 120.302 137.184 121.609C137.301 122.948 136.559 124.009 134.455 124.193L132.223 124.388L131.808 119.639L134.135 119.435ZM134.529 125.407C137.207 125.173 138.455 126.22 138.617 128.069C138.764 129.759 137.669 130.818 134.895 131.061L132.823 131.242L132.329 125.6L134.529 125.407Z" fill="#F3F3F3"/>
<path d="M151.046 131.35C153.628 131.124 155.505 129.45 156.332 127.515L156.304 127.196L156.208 127.205C154.689 128.205 153.387 128.736 152.207 128.84C148.031 129.205 146.441 126.453 146.174 123.393C145.884 120.077 147.148 118.007 149.475 117.804C150.878 117.681 151.852 118.174 152.565 118.979L153.777 120.35L154.001 120.331L155.123 119.205C155.419 118.922 155.498 118.722 155.47 118.404C155.448 118.148 155.263 117.876 154.877 117.492C153.967 116.64 152.126 116.158 150.404 116.309C146.26 116.672 143.368 120.33 143.784 125.079C144.146 129.224 146.934 131.71 151.046 131.35Z" fill="#F3F3F3"/>
<path d="M166.301 130.016C168.883 129.79 170.76 128.116 171.587 126.18L171.559 125.862L171.463 125.87C169.945 126.87 168.642 127.402 167.462 127.505C163.414 127.859 161.809 125.301 161.454 122.345L170.985 121.511L171.131 121.338C170.749 116.97 168.465 114.729 165.117 115.022C161.515 115.337 158.623 118.995 159.039 123.745C159.401 127.889 162.188 130.376 166.301 130.016ZM164.73 116.469C166.579 116.307 167.865 117.416 168.594 120.243L161.389 120.873C161.482 118.263 162.69 116.648 164.73 116.469Z" fill="#F3F3F3"/>
<path d="M173.975 129.023L179.554 128.535L179.509 128.025L177.432 127.05L177.415 126.859L179.966 122.235L183.744 126.498L183.761 126.689L181.9 127.816L181.945 128.326L188.129 127.785L188.084 127.275L186.691 126.401L181.484 120.496L184.785 115.261L186.377 113.997L186.332 113.487L181.04 113.95L181.085 114.46L183.002 115.449L183.019 115.64L180.772 119.691L177.455 115.934L177.439 115.743L179.523 114.597L179.478 114.087L172.879 114.664L172.924 115.174L174.509 116.031L179.25 121.398L175.554 127.247L173.93 128.513L173.975 129.023Z" fill="#F3F3F3"/>
<path d="M205.565 126.581C209.741 126.215 212.297 122.747 211.923 118.476C211.549 114.204 208.431 111.232 204.254 111.598C200.078 111.963 197.523 115.431 197.897 119.703C198.27 123.974 201.389 126.946 205.565 126.581ZM205.892 125.171C202.672 125.452 201.003 122.161 200.707 118.782C200.464 116.009 201.375 113.199 203.989 112.97C207.209 112.688 208.814 115.985 209.11 119.364C209.35 122.106 208.474 124.945 205.892 125.171Z" fill="#F3F3F3"/>
<path d="M222.554 125.094C225.136 124.868 227.013 123.194 227.84 121.259L227.812 120.94L227.716 120.949C226.198 121.949 224.895 122.48 223.715 122.583C219.539 122.949 217.95 120.197 217.682 117.137C217.392 113.821 218.656 111.751 220.983 111.548C222.386 111.425 223.361 111.918 224.073 112.723L225.286 114.094L225.509 114.075L226.631 112.949C226.927 112.666 227.006 112.466 226.978 112.147C226.956 111.892 226.772 111.619 226.385 111.236C225.475 110.384 223.634 109.902 221.913 110.053C217.768 110.415 214.876 114.073 215.292 118.823C215.654 122.967 218.442 125.454 222.554 125.094Z" fill="#F3F3F3"/>
<path d="M229.703 115.185L230.213 115.141L232.035 110.998L234.967 110.742L235.958 122.058L233.592 123.293L233.637 123.803L241.096 123.151L241.052 122.641L238.508 121.835L237.518 110.519L240.451 110.262L242.964 114.025L243.474 113.981L242.997 108.529L229.226 109.734L229.703 115.185Z" fill="#F3F3F3"/>
<path d="M250.215 122.674C252.001 122.518 253.65 121.539 254.67 120.357L254.862 120.34C255.313 121.457 256.209 122.15 257.516 122.035C258.95 121.91 259.898 120.992 260.327 120.023L260.318 119.927L260.217 119.872L259.006 119.978C258.05 120.061 257.488 119.886 257.173 119.592L256.381 110.539C256.147 107.861 253.75 107.267 251.487 107.465C250.02 107.594 248.764 108.282 247.651 109.15C246.568 109.984 246.118 111.083 246.199 112.008C246.265 112.773 246.468 112.884 247.105 112.828L248.763 112.683L248.909 112.509L248.83 111.617C248.702 110.15 249.163 109.179 250.789 109.036C252.255 108.908 253.761 109.965 253.89 111.431L254.093 113.758L251.126 114.725C247.535 115.906 246.269 117.591 246.451 119.663C246.632 121.735 248.207 122.85 250.215 122.674ZM248.881 118.808C248.756 117.373 249.203 116.242 254.188 114.842L254.601 119.56C253.373 120.214 252.465 120.486 251.445 120.575C249.915 120.709 248.996 120.115 248.881 118.808Z" fill="#F3F3F3"/>
<path d="M263.229 108.301L264.216 119.586L262.297 120.782L262.341 121.292L268.016 120.796C273.308 120.333 275.669 118.681 275.418 115.812C275.289 114.345 274.098 112.843 270.622 112.762C273.226 112.052 273.937 110.641 273.803 109.111C273.589 106.656 270.873 106.091 267.016 106.428L261.086 106.947L261.131 107.457L263.229 108.301ZM268.092 107.715C270.164 107.534 271.027 108.583 271.141 109.89C271.258 111.229 270.516 112.289 268.412 112.473L266.18 112.669L265.765 107.919L268.092 107.715ZM268.486 113.688C271.164 113.453 272.412 114.501 272.574 116.349C272.721 118.039 271.626 119.099 268.852 119.341L266.78 119.522L266.286 113.88L268.486 113.688Z" fill="#F3F3F3"/>
<path d="M282.716 119.831C284.502 119.675 286.15 118.695 287.171 117.514L287.363 117.497C287.814 118.614 288.709 119.306 290.016 119.192C291.451 119.067 292.399 118.148 292.828 117.179L292.819 117.084L292.718 117.028L291.507 117.134C290.55 117.218 289.989 117.042 289.674 116.749L288.882 107.695C288.648 105.017 286.251 104.424 283.988 104.622C282.521 104.75 281.264 105.438 280.152 106.307C279.068 107.14 278.619 108.24 278.699 109.164C278.766 109.929 278.969 110.04 279.606 109.984L281.264 109.839L281.409 109.666L281.331 108.773C281.203 107.307 281.664 106.335 283.29 106.193C284.756 106.065 286.262 107.121 286.39 108.588L286.594 110.915L283.627 111.881C280.036 113.063 278.77 114.747 278.952 116.819C279.133 118.891 280.708 120.006 282.716 119.831ZM281.382 115.964C281.257 114.53 281.704 113.398 286.689 111.999L287.102 116.717C285.874 117.37 284.966 117.642 283.946 117.732C282.416 117.865 281.497 117.271 281.382 115.964Z" fill="#F3F3F3"/>
<path d="M293.49 109.605L294 109.56L295.822 105.418L298.755 105.161L299.745 116.478L297.38 117.713L297.424 118.223L304.884 117.57L304.839 117.06L302.295 116.255L301.305 104.938L304.238 104.681L306.752 108.445L307.262 108.4L306.785 102.949L293.013 104.154L293.49 109.605Z" fill="#F3F3F3"/>
<path d="M315.689 107.727L314.318 107.847L313.97 103.862L316.526 102.61L316.482 102.1L309.277 102.731L309.322 103.241L311.42 104.085L312.407 115.37L310.488 116.566L310.532 117.076L316.207 116.579C321.498 116.116 323.846 114.305 323.586 111.34C323.41 109.332 321.682 107.203 315.689 107.727ZM316.652 109.185C319.33 108.95 320.572 109.934 320.742 111.878C320.89 113.568 319.805 114.755 317.032 114.998L314.96 115.179L314.452 109.377L316.652 109.185Z" fill="#F3F3F3"/>
<path d="M333.194 115.415C335.776 115.189 337.653 113.515 338.48 111.579L338.452 111.26L338.356 111.269C336.837 112.269 335.535 112.801 334.355 112.904C330.179 113.269 328.589 110.517 328.322 107.457C328.032 104.142 329.296 102.071 331.623 101.868C333.026 101.745 334 102.238 334.713 103.043L335.925 104.415L336.149 104.395L337.271 103.269C337.567 102.986 337.646 102.786 337.618 102.468C337.596 102.213 337.411 101.94 337.024 101.556C336.115 100.704 334.274 100.223 332.552 100.373C328.408 100.736 325.516 104.394 325.932 109.144C326.294 113.288 329.081 115.774 333.194 115.415Z" fill="#F3F3F3"/>
<path d="M349.568 113.661L355.689 113.125L355.644 112.615L353.547 111.771L352.56 100.486L354.479 99.29L354.434 98.78L347.708 99.3685C344.392 99.6585 341.937 100.966 342.207 104.058C342.364 105.843 343.782 107.004 346.207 107.177L342.894 112.639L341.076 113.89L341.121 114.4L345.137 114.048L345.821 112.318L348.697 107.377L350.578 107.212L350.997 111.994L349.524 113.151L349.568 113.661ZM348.02 106.247C346.012 106.423 344.912 105.234 344.781 103.736C344.645 102.174 345.657 100.897 347.857 100.705L349.993 100.518L350.475 106.033L348.02 106.247Z" fill="#F3F3F3"/>
<path d="M367.611 99.169L368.598 110.454L366.679 111.65L366.724 112.16L373.291 111.585L373.246 111.075L371.149 110.231L370.705 105.162L377.4 104.576L377.843 109.645L375.924 110.841L375.969 111.351L382.536 110.776L382.491 110.266L380.393 109.422L379.406 98.1371L381.325 96.9413L381.28 96.4312L374.714 97.0058L374.758 97.5158L376.856 98.3602L377.269 103.078L370.574 103.664L370.161 98.9459L372.08 97.7501L372.036 97.24L365.469 97.8146L365.514 98.3246L367.611 99.169Z" fill="#F3F3F3"/>
<path d="M389.06 110.527C390.845 110.371 392.494 109.391 393.515 108.21L393.706 108.193C394.157 109.31 395.053 110.003 396.36 109.888C397.795 109.763 398.742 108.845 399.171 107.875L399.163 107.78L399.062 107.724L397.851 107.83C396.894 107.914 396.333 107.738 396.018 107.445L395.226 98.3913C394.992 95.7135 392.595 95.1201 390.331 95.3182C388.865 95.4465 387.608 96.1346 386.496 97.0029C385.412 97.8365 384.962 98.9359 385.043 99.8603C385.11 100.625 385.313 100.736 385.95 100.68L387.608 100.535L387.753 100.362L387.675 99.4695C387.547 98.0031 388.008 97.0312 389.634 96.8889C391.1 96.7607 392.606 97.8174 392.734 99.2838L392.938 101.611L389.971 102.577C386.38 103.759 385.114 105.443 385.295 107.515C385.477 109.588 387.052 110.703 389.06 110.527ZM387.726 106.66C387.601 105.226 388.048 104.095 393.033 102.695L393.445 107.413C392.218 108.066 391.31 108.338 390.29 108.428C388.76 108.562 387.84 107.967 387.726 106.66Z" fill="#F3F3F3"/>
<path d="M415.878 108.181C418.46 107.955 420.337 106.281 421.164 104.345L421.136 104.027L421.04 104.035C419.522 105.035 418.219 105.567 417.039 105.67C412.863 106.035 411.274 103.283 411.006 100.223C410.716 96.9076 411.98 94.8375 414.307 94.6339C415.71 94.5112 416.685 95.0041 417.397 95.8091L418.61 97.1806L418.833 97.1611L419.955 96.035C420.251 95.7521 420.33 95.5525 420.302 95.2337C420.28 94.9787 420.096 94.7057 419.709 94.322C418.799 93.47 416.958 92.9886 415.237 93.1392C411.092 93.5018 408.2 97.1598 408.616 101.91C408.978 106.054 411.766 108.54 415.878 108.181Z" fill="#F3F3F3"/>
<path d="M425.266 94.1249L426.253 105.41L424.334 106.606L424.379 107.116L430.053 106.619C435.345 106.156 437.706 104.504 437.455 101.635C437.327 100.169 436.135 98.6668 432.659 98.5855C435.263 97.8759 435.975 96.4645 435.841 94.9343C435.626 92.4797 432.91 91.9142 429.053 92.2517L423.124 92.7704L423.168 93.2805L425.266 94.1249ZM430.129 93.5388C432.201 93.3575 433.064 94.4063 433.178 95.7133C433.296 97.0522 432.553 98.1129 430.449 98.297L428.218 98.4922L427.802 93.7424L430.129 93.5388ZM430.523 99.5112C433.201 99.2769 434.449 100.324 434.611 102.173C434.759 103.863 433.663 104.922 430.889 105.165L428.817 105.346L428.324 99.7036L430.523 99.5112Z" fill="#F3F3F3"/>
<path d="M447.423 105.421C451.599 105.055 454.154 101.587 453.78 97.3158C453.407 93.0441 450.288 90.0726 446.112 90.438C441.936 90.8034 439.38 94.2713 439.754 98.543C440.128 102.815 443.247 105.786 447.423 105.421ZM447.749 104.011C444.529 104.293 442.86 101.002 442.565 97.6225C442.322 94.8491 443.232 92.0391 445.846 91.8104C449.066 91.5287 450.672 94.8253 450.967 98.2044C451.207 100.946 450.331 103.785 447.749 104.011Z" fill="#F3F3F3"/>
<path d="M458.42 91.2242L459.408 102.509L457.489 103.705L457.533 104.215L464.1 103.64L464.056 103.13L461.958 102.286L461.86 101.17L468.252 93.4478L468.971 101.672L467.052 102.868L467.097 103.378L473.664 102.804L473.619 102.294L471.521 101.449L470.534 90.1644L472.453 88.9686L472.409 88.4586L465.842 89.0331L465.886 89.5431L467.984 90.3875L468.082 91.5033L461.69 99.2257L460.971 91.0011L462.89 89.8053L462.845 89.2953L456.278 89.8698L456.323 90.3798L458.42 91.2242Z" fill="#F3F3F3"/>
<path d="M476.009 102.599L481.587 102.111L481.543 101.6L479.466 100.626L479.449 100.435L482 95.8106L485.778 100.074L485.795 100.265L483.934 101.391L483.978 101.901L490.163 101.36L490.118 100.85L488.725 99.9764L483.518 94.0717L486.818 88.8361L488.41 87.5726L488.366 87.0625L483.074 87.5255L483.119 88.0355L485.036 89.0242L485.053 89.2154L482.805 93.2667L479.489 89.5094L479.472 89.3182L481.556 88.1722L481.512 87.6621L474.913 88.2395L474.958 88.7495L476.542 89.6066L481.284 94.9738L477.588 100.822L475.964 102.089L476.009 102.599Z" fill="#F3F3F3"/>
<path d="M501.509 87.4545L502.177 98.7673L500.258 99.9631L500.303 100.473L505.722 99.999L505.678 99.489L503.771 98.6278L503.18 88.5611L509.452 99.6727L510.121 99.6141L514.05 87.61L515.439 97.6071L513.711 98.7861L513.756 99.2962L520.131 98.7384L520.087 98.2283L517.989 97.3839L516.396 86.152L518.315 84.9562L518.27 84.4462L513.68 84.8478L510.168 95.3699L509.881 95.395L504.499 85.651L499.367 86.1L499.411 86.6101L501.509 87.4545Z" fill="#F3F3F3"/>
<path d="M529.756 98.2175C532.338 97.9916 534.215 96.3176 535.042 94.3822L535.014 94.0635L534.918 94.0718C533.4 95.072 532.097 95.6035 530.918 95.7067C526.869 96.0609 525.264 93.5031 524.909 90.5468L534.441 89.7129L534.586 89.5395C534.204 85.1722 531.92 82.9308 528.573 83.2236C524.971 83.5388 522.078 87.1968 522.494 91.9466C522.856 96.0908 525.644 98.5773 529.756 98.2175ZM528.185 84.6709C530.034 84.5091 531.32 85.6173 532.049 88.4445L524.845 89.0748C524.938 86.4648 526.145 84.8494 528.185 84.6709Z" fill="#F3F3F3"/>
<path d="M545.165 96.8694C547.747 96.6435 549.625 94.9695 550.451 93.0341L550.423 92.7153L550.328 92.7237C548.809 93.7239 547.506 94.2554 546.327 94.3586C542.151 94.724 540.561 91.9721 540.293 88.9118C540.003 85.5964 541.268 83.5263 543.595 83.3227C544.997 83.2 545.972 83.693 546.685 84.4979L547.897 85.8695L548.12 85.8499L549.242 84.7239C549.539 84.4409 549.618 84.2413 549.59 83.9225C549.567 83.6675 549.383 83.3945 548.996 83.0108C548.086 82.1588 546.245 81.6775 544.524 81.8281C540.38 82.1906 537.488 85.8486 537.903 90.5985C538.266 94.7427 541.053 97.2292 545.165 96.8694Z" fill="#F3F3F3"/>
<path d="M552.314 86.9606L552.824 86.916L554.646 82.7735L557.579 82.5169L558.569 93.8337L556.204 95.0685L556.248 95.5786L563.708 94.9259L563.663 94.4159L561.119 93.6105L560.129 82.2938L563.062 82.0372L565.575 85.8004L566.086 85.7558L565.609 80.3046L551.837 81.5095L552.314 86.9606Z" fill="#F3F3F3"/>
<path d="M572.827 94.4493C574.612 94.2931 576.261 93.3137 577.282 92.1322L577.473 92.1155C577.924 93.2324 578.82 93.925 580.127 93.8106C581.561 93.6851 582.509 92.7671 582.938 91.798L582.93 91.7023L582.829 91.647L581.617 91.7529C580.661 91.8366 580.099 91.6609 579.785 91.3672L578.993 82.3138C578.758 79.636 576.362 79.0426 574.098 79.2407C572.632 79.369 571.375 80.0571 570.262 80.9254C569.179 81.759 568.729 82.8584 568.81 83.7828C568.877 84.5479 569.079 84.6587 569.717 84.6029L571.375 84.4579L571.52 84.2846L571.442 83.392C571.314 81.9256 571.775 80.9537 573.4 80.8114C574.867 80.6832 576.373 81.7399 576.501 83.2063L576.705 85.5334L573.737 86.4997C570.147 87.6812 568.881 89.3659 569.062 91.438C569.243 93.5101 570.819 94.625 572.827 94.4493ZM571.493 90.5829C571.367 89.1484 571.814 88.0171 576.799 86.6173L577.212 91.3353C575.984 91.9888 575.077 92.2609 574.057 92.3502C572.526 92.484 571.607 91.8899 571.493 90.5829Z" fill="#F3F3F3"/>
<path d="M584.096 93.1422L589.675 92.6541L589.63 92.1441L587.553 91.1694L587.536 90.9781L590.087 86.3542L593.865 90.6172L593.882 90.8084L592.021 91.9349L592.065 92.445L598.25 91.9039L598.205 91.3938L596.812 90.52L591.605 84.6153L594.905 79.3797L596.497 78.1162L596.453 77.6061L591.161 78.0691L591.206 78.5791L593.123 79.5678L593.14 79.759L590.892 83.8103L587.576 80.0531L587.56 79.8618L589.644 78.7158L589.599 78.2057L583 78.7831L583.045 79.2931L584.629 80.1503L589.371 85.5174L585.675 91.3658L584.051 92.6322L584.096 93.1422Z" fill="#F3F3F3"/>
<path d="M601.598 98.196C604.626 96.4535 605.69 94.3045 605.495 92.0731C605.356 90.4792 604.465 89.1116 603.059 88.4636C602.692 88.303 602.428 88.2297 602.237 88.2465C601.886 88.2771 601.747 88.5142 601.502 89.0175L600.717 90.6923L600.84 91.0027L601.974 91.4817C603.076 91.9635 603.682 92.6492 603.786 93.8287C603.903 95.1676 603.241 96.4141 601.539 97.5266L601.598 98.196Z" fill="#F3F3F3"/>
<path d="M617.438 77.312L618.425 88.5969L616.506 89.7927L616.551 90.3028L623.118 89.7282L623.073 89.2182L620.976 88.3738L619.985 77.057L626.361 76.4992L627.351 87.816L625.432 89.0118L625.477 89.5218L632.044 88.9473L631.999 88.4373L629.901 87.5929L628.914 76.308L630.833 75.1122L630.789 74.6021L615.296 75.9576L615.34 76.4676L617.438 77.312Z" fill="#F3F3F3"/>
<path d="M635.746 96.0115L642.568 95.4146L642.524 94.9046L640.171 94.0825L639.664 88.2807C640.605 88.391 641.7 88.4237 642.911 88.3178C646.896 87.9691 649.888 84.72 649.431 79.4919C649.063 75.284 646.51 72.9055 643.29 73.1872C641.568 73.3378 640.216 74.0343 638.71 75.5473L638.487 75.5668L638.062 73.6446L637.871 73.6613L634.071 75.7604L634.091 75.9836L636.148 77.4739L637.621 94.3056L635.702 95.5014L635.746 96.0115ZM641.729 75.5402C644.343 75.3115 646.629 76.846 646.972 80.767C647.327 84.8156 645.742 86.5282 643.702 86.7067C642.076 86.849 640.805 86.6389 639.44 85.7304L638.657 76.7726C639.621 76.0458 640.677 75.6322 641.729 75.5402Z" fill="#F3F3F3"/>
<path d="M654.079 74.1063L655.067 85.3912L653.147 86.587L653.192 87.0971L659.759 86.5225L659.714 86.0125L657.617 85.1681L657.519 84.0523L663.91 76.3299L664.63 84.5545L662.711 85.7503L662.756 86.2604L669.323 85.6858L669.278 85.1758L667.18 84.3314L666.193 73.0465L668.112 71.8507L668.067 71.3406L661.501 71.9152L661.545 72.4252L663.643 73.2696L663.74 74.3853L657.349 82.1078L656.63 73.8832L658.549 72.6874L658.504 72.1773L651.937 72.7519L651.982 73.2619L654.079 74.1063Z" fill="#F3F3F3"/>
<path d="M679.091 85.1524C681.673 84.9265 683.551 83.2525 684.377 81.3171L684.349 80.9983L684.253 81.0067C682.735 82.0069 681.432 82.5384 680.253 82.6416C676.077 83.007 674.487 80.2551 674.219 77.1948C673.929 73.8794 675.193 71.8093 677.521 71.6057C678.923 71.483 679.898 71.976 680.611 72.7809L681.823 74.1525L682.046 74.1329L683.168 73.0069C683.465 72.7239 683.543 72.5243 683.516 72.2055C683.493 71.9505 683.309 71.6775 682.922 71.2938C682.012 70.4418 680.171 69.9605 678.45 70.1111C674.306 70.4736 671.413 74.1316 671.829 78.8815C672.192 83.0257 674.979 85.5122 679.091 85.1524Z" fill="#F3F3F3"/>
<path d="M686.24 75.2436L686.75 75.199L688.572 71.0565L691.505 70.7999L692.495 82.1166L690.129 83.3515L690.174 83.8616L697.634 83.2089L697.589 82.6989L695.045 81.8935L694.055 70.5768L696.988 70.3202L699.501 74.0834L700.011 74.0388L699.535 68.5876L685.763 69.7925L686.24 75.2436Z" fill="#F3F3F3"/>
<path d="M710.036 82.4451C712.618 82.2192 714.496 80.5452 715.322 78.6098L715.294 78.291L715.199 78.2994C713.68 79.2995 712.377 79.8311 711.198 79.9343C707.149 80.2885 705.544 77.7306 705.189 74.7743L714.721 73.9404L714.866 73.7671C714.484 69.3998 712.2 67.1583 708.853 67.4511C705.251 67.7663 702.358 71.4243 702.774 76.1741C703.137 80.3183 705.924 82.8048 710.036 82.4451ZM708.466 68.8984C710.315 68.7367 711.6 69.8448 712.329 72.672L705.125 73.3023C705.218 70.6923 706.425 69.0769 708.466 68.8984Z" fill="#F3F3F3"/>
<path d="M719.61 68.3731L720.597 79.658L718.678 80.8538L718.723 81.3638L725.928 80.7335L725.883 80.2235L723.148 79.4349L722.158 68.1181L726.939 67.6997L729.453 71.463L729.963 71.4184L729.486 65.9672L717.468 67.0186L717.513 67.5287L719.61 68.3731Z" fill="#F3F3F3"/>
<path d="M734.117 67.1039L735.105 78.3888L733.186 79.5846L733.23 80.0946L739.797 79.5201L739.752 79.0101L737.655 78.1657L737.211 73.097L743.906 72.5113L744.349 77.58L742.43 78.7758L742.475 79.2858L749.042 78.7113L748.997 78.2013L746.9 77.3569L745.912 66.072L747.831 64.8762L747.787 64.3661L741.22 64.9406L741.264 65.4507L743.362 66.2951L743.775 71.0131L737.08 71.5987L736.668 66.8808L738.587 65.685L738.542 65.1749L731.975 65.7494L732.02 66.2595L734.117 67.1039Z" fill="#F3F3F3"/>
<path d="M753.883 86.0292C754.935 85.9371 755.995 85.202 756.75 83.9153C757.589 82.4927 757.675 82.0034 758.15 80.4521L763.094 64.633L765.39 63.34L765.345 62.8299L759.097 63.3766L759.142 63.8866L761.633 64.8251L761.65 65.0163L758.871 74.3821L758.776 74.3905L753.727 65.5167L753.713 65.3574L756.241 64.1404L756.196 63.6304L748.577 64.2969L748.622 64.807L750.844 65.6084L757.779 77.6899L756.881 80.274C755.875 83.0924 755.724 83.202 754.162 83.3386L752.696 83.4669L752.579 83.6056L752.719 85.1995C752.78 85.9008 752.927 86.1128 753.883 86.0292Z" fill="#F3F3F3"/>
<path d="M766.06 68.2603L766.57 68.2157L768.392 64.0731L771.325 63.8165L772.315 75.1333L769.95 76.3682L769.994 76.8782L777.454 76.2256L777.409 75.7155L774.865 74.9102L773.875 63.5934L776.808 63.3368L779.321 67.1001L779.831 67.0554L779.355 61.6043L765.583 62.8091L766.06 68.2603Z" fill="#F3F3F3"/>
<path d="M788.259 66.3824L786.888 66.5023L786.54 62.5175L789.096 61.2659L789.052 60.7559L781.847 61.3862L781.892 61.8963L783.989 62.7407L784.977 74.0255L783.058 75.2214L783.102 75.7314L788.776 75.235C794.068 74.772 796.415 72.9605 796.156 69.9959C795.98 67.9875 794.252 65.8581 788.259 66.3824ZM789.222 67.84C791.899 67.6058 793.142 68.5892 793.312 70.5338C793.46 72.2233 792.375 73.4104 789.602 73.653L787.53 73.8343L787.022 68.0325L789.222 67.84Z" fill="#F3F3F3"/>
<path d="M807.652 80.9717L814.474 80.3748L814.43 79.8648L812.077 79.0427L811.569 73.2408C812.511 73.3512 813.606 73.3839 814.817 73.2779C818.802 72.9293 821.794 69.6802 821.337 64.4521C820.968 60.2442 818.415 57.8657 815.196 58.1474C813.474 58.298 812.122 58.9945 810.616 60.5075L810.393 60.527L809.968 58.6047L809.776 58.6215L805.977 60.7206L805.996 60.9438L808.054 62.4341L809.527 79.2658L807.608 80.4616L807.652 80.9717ZM813.635 60.5003C816.249 60.2716 818.535 61.8062 818.878 65.7272C819.233 69.7758 817.648 71.4884 815.608 71.6669C813.982 71.8091 812.711 71.5991 811.346 70.6906L810.563 61.7328C811.527 61.006 812.583 60.5924 813.635 60.5003Z" fill="#F3F3F3"/>
<path d="M832.008 71.7739C834.59 71.548 836.467 69.874 837.294 67.9386L837.266 67.6199L837.17 67.6282C835.652 68.6284 834.349 69.1599 833.169 69.2631C829.121 69.6173 827.516 67.0595 827.161 64.1032L836.692 63.2693L836.838 63.0959C836.456 58.7286 834.172 56.4872 830.825 56.78C827.222 57.0952 824.33 60.7532 824.746 65.503C825.108 69.6472 827.896 72.1337 832.008 71.7739ZM830.437 58.2273C832.286 58.0655 833.572 59.1737 834.301 62.0009L827.096 62.6312C827.189 60.0212 828.397 58.4058 830.437 58.2273Z" fill="#F3F3F3"/>
<path d="M841.709 57.6908L842.378 69.0036L840.459 70.1994L840.503 70.7095L845.923 70.2353L845.878 69.7253L843.972 68.8641L843.38 58.7974L849.652 69.909L850.322 69.8504L854.251 57.8464L855.639 67.8434L853.911 69.0224L853.956 69.5325L860.332 68.9747L860.287 68.4647L858.189 67.6203L856.596 56.3883L858.516 55.1925L858.471 54.6825L853.88 55.0841L850.368 65.6063L850.081 65.6314L844.699 55.8873L839.567 56.3364L839.612 56.8464L841.709 57.6908Z" fill="#F3F3F3"/>
<path d="M864.09 55.7328L865.077 67.0177L863.158 68.2135L863.202 68.7235L869.769 68.149L869.725 67.639L867.627 66.7946L867.184 61.7259L873.878 61.1402L874.322 66.2089L872.402 67.4047L872.447 67.9147L879.014 67.3402L878.969 66.8302L876.872 65.9858L875.885 54.7009L877.804 53.5051L877.759 52.995L871.192 53.5695L871.237 54.0796L873.334 54.924L873.747 59.642L867.053 60.2276L866.64 55.5097L868.559 54.3139L868.514 53.8038L861.947 54.3783L861.992 54.8884L864.09 55.7328Z" fill="#F3F3F3"/>
<path d="M882.955 54.0823L883.942 65.3672L882.023 66.563L882.068 67.073L888.635 66.4985L888.59 65.9885L886.493 65.1441L886.395 64.0283L892.786 56.3059L893.506 64.5305L891.587 65.7263L891.631 66.2363L898.198 65.6618L898.154 65.1517L896.056 64.3074L895.069 53.0225L896.988 51.8267L896.943 51.3166L890.376 51.8911L890.421 52.4012L892.518 53.2456L892.616 54.3613L886.225 62.0837L885.505 53.8592L887.424 52.6633L887.38 52.1533L880.813 52.7278L880.857 53.2379L882.955 54.0823Z" fill="#F3F3F3"/>
<path d="M910.101 51.7073L911.089 62.9922L909.17 64.188L909.214 64.698L915.781 64.1235L915.736 63.6135L913.639 62.7691L913.541 61.6533L919.933 53.9309L920.652 62.1555L918.733 63.3513L918.778 63.8613L925.345 63.2868L925.3 62.7768L923.202 61.9324L922.215 50.6475L924.134 49.4517L924.089 48.9416L917.523 49.5161L917.567 50.0262L919.665 50.8706L919.762 51.9863L913.371 59.7087L912.652 51.4842L914.571 50.2884L914.526 49.7783L907.959 50.3528L908.004 50.8629L910.101 51.7073Z" fill="#F3F3F3"/>
<path d="M943.083 62.0561C945.665 61.8302 947.542 60.1562 948.369 58.2208L948.341 57.9021L948.245 57.9104C946.726 58.9106 945.424 59.4422 944.244 59.5453C940.068 59.9107 938.478 57.1588 938.211 54.0985C937.921 50.7831 939.185 48.7131 941.512 48.5095C942.915 48.3868 943.889 48.8797 944.602 49.6846L945.814 51.0562L946.038 51.0367L947.16 49.9106C947.456 49.6277 947.535 49.428 947.507 49.1093C947.485 48.8542 947.3 48.5813 946.914 48.1975C946.004 47.3456 944.163 46.8642 942.441 47.0148C938.297 47.3774 935.405 51.0354 935.821 55.7852C936.183 59.9294 938.97 62.4159 943.083 62.0561Z" fill="#F3F3F3"/>
<path d="M958.688 60.6908C962.864 60.3255 965.42 56.8575 965.046 52.5859C964.672 48.3142 961.554 45.3427 957.378 45.7081C953.202 46.0734 950.646 49.5413 951.02 53.813C951.393 58.0847 954.512 61.0562 958.688 60.6908ZM959.015 59.281C955.795 59.5627 954.126 56.2717 953.83 52.8926C953.588 50.1192 954.498 47.3091 957.112 47.0804C960.332 46.7987 961.937 50.0953 962.233 53.4744C962.473 56.216 961.597 59.0551 959.015 59.281Z" fill="#F3F3F3"/>
<path d="M967.786 59.5736L973.365 59.0856L973.32 58.5755L971.244 57.6008L971.227 57.4095L973.778 52.7856L977.555 57.0486L977.572 57.2399L975.711 58.3663L975.756 58.8764L981.94 58.3353L981.896 57.8253L980.502 56.9514L975.296 51.0467L978.596 45.8111L980.188 44.5476L980.143 44.0375L974.852 44.5005L974.896 45.0105L976.814 45.9992L976.83 46.1905L974.583 50.2418L971.267 46.4845L971.25 46.2932L973.334 45.1472L973.29 44.6372L966.691 45.2145L966.735 45.7245L968.32 46.5817L973.062 51.9488L969.366 57.7972L967.742 59.0636L967.786 59.5736Z" fill="#F3F3F3"/>
<path d="M984.944 65.4607L991.766 64.8638L991.721 64.3538L989.368 63.5317L988.861 57.7298C989.802 57.8402 990.897 57.8729 992.108 57.7669C996.093 57.4183 999.086 54.1692 998.628 48.9411C998.26 44.7332 995.707 42.3547 992.487 42.6364C990.766 42.787 989.413 43.4835 987.907 44.9965L987.684 45.016L987.259 43.0938L987.068 43.1105L983.268 45.2096L983.288 45.4328L985.346 46.9231L986.818 63.7548L984.899 64.9506L984.944 65.4607ZM990.926 44.9893C993.54 44.7607 995.827 46.2952 996.17 50.2162C996.524 54.2648 994.939 55.9774 992.899 56.1559C991.273 56.2982 990.002 56.0881 988.638 55.1796L987.854 46.2218C988.818 45.495 989.874 45.0814 990.926 44.9893Z" fill="#F3F3F3"/>
<path d="M1006.02 56.5502C1007.8 56.394 1009.45 55.4146 1010.47 54.2331L1010.66 54.2164C1011.11 55.3333 1012.01 56.0259 1013.32 55.9115C1014.75 55.786 1015.7 54.8679 1016.13 53.8988L1016.12 53.8032L1016.02 53.7478L1014.81 53.8538C1013.85 53.9375 1013.29 53.7617 1012.97 53.4681L1012.18 44.4146C1011.95 41.7369 1009.55 41.1435 1007.29 41.3415C1005.82 41.4698 1004.56 42.158 1003.45 43.0262C1002.37 43.8599 1001.92 44.9592 1002 45.8837C1002.07 46.6488 1002.27 46.7596 1002.91 46.7038L1004.56 46.5588L1004.71 46.3854L1004.63 45.4928C1004.5 44.0264 1004.96 43.0546 1006.59 42.9123C1008.06 42.784 1009.56 43.8408 1009.69 45.3072L1009.89 47.6343L1006.93 48.6006C1003.34 49.782 1002.07 51.4668 1002.25 53.5389C1002.43 55.611 1004.01 56.7259 1006.02 56.5502ZM1004.68 52.6838C1004.56 51.2492 1005 50.118 1009.99 48.7182L1010.4 53.4362C1009.17 54.0896 1008.27 54.3618 1007.25 54.451C1005.72 54.5849 1004.8 53.9908 1004.68 52.6838Z" fill="#F3F3F3"/>
<path d="M1019.03 42.1773L1020.02 53.4622L1018.1 54.658L1018.14 55.1681L1024.71 54.5936L1024.66 54.0835L1022.57 53.2391L1022.12 48.1705L1028.82 47.5848L1029.26 52.6534L1027.34 53.8492L1027.39 54.3593L1033.95 53.7848L1033.91 53.2747L1031.81 52.4303L1030.82 41.1454L1032.74 39.9496L1032.7 39.4396L1026.13 40.0141L1026.18 40.5241L1028.27 41.3685L1028.69 46.0865L1021.99 46.6722L1021.58 41.9542L1023.5 40.7584L1023.45 40.2484L1016.89 40.8229L1016.93 41.3329L1019.03 42.1773Z" fill="#F3F3F3"/>
<path d="M1044.88 52.8287L1051 52.2932L1050.96 51.7832L1048.86 50.9388L1047.87 39.6539L1049.79 38.4581L1049.75 37.948L1043.02 38.5365C1039.71 38.8265 1037.25 40.1335 1037.52 43.2257C1037.68 45.0109 1039.1 46.1717 1041.52 46.345L1038.21 51.8065L1036.39 53.0577L1036.43 53.5678L1040.45 53.2164L1041.13 51.4862L1044.01 46.5447L1045.89 46.3802L1046.31 51.1619L1044.84 52.3187L1044.88 52.8287ZM1043.33 45.4154C1041.32 45.5911 1040.23 44.4024 1040.09 42.9042C1039.96 41.3421 1040.97 40.065 1043.17 39.8726L1045.31 39.6857L1045.79 45.2007L1043.33 45.4154Z" fill="#F3F3F3"/>
<path d="M1052.72 43.1812L1053.23 43.1366L1055.05 38.994L1057.98 38.7375L1058.97 50.0542L1056.6 51.2891L1056.65 51.7991L1064.11 51.1465L1064.06 50.6365L1061.52 49.8311L1060.53 38.5143L1063.46 38.2578L1065.98 42.021L1066.49 41.9764L1066.01 36.5252L1052.24 37.73L1052.72 43.1812Z" fill="#F3F3F3"/>
<path d="M1074.91 41.3033L1073.54 41.4232L1073.19 37.4385L1075.75 36.1869L1075.71 35.6768L1068.5 36.3071L1068.55 36.8172L1070.64 37.6616L1071.63 48.9465L1069.71 50.1423L1069.76 50.6523L1075.43 50.1559C1080.72 49.6929 1083.07 47.8815 1082.81 44.9168C1082.64 42.9085 1080.91 40.779 1074.91 41.3033ZM1075.88 42.761C1078.55 42.5267 1079.8 43.5101 1079.97 45.4547C1080.11 47.1443 1079.03 48.3313 1076.26 48.574L1074.18 48.7552L1073.68 42.9534L1075.88 42.761Z" fill="#F3F3F3"/>
<path d="M1100.39 48.2937C1102.97 48.0678 1104.85 46.3938 1105.67 44.4584L1105.65 44.1396L1105.55 44.148C1104.03 45.1482 1102.73 45.6797 1101.55 45.7829C1097.37 46.1483 1095.78 43.3964 1095.52 40.3361C1095.23 37.0207 1096.49 34.9506 1098.82 34.747C1100.22 34.6243 1101.19 35.1173 1101.91 35.9222L1103.12 37.2938L1103.34 37.2742L1104.47 36.1482C1104.76 35.8652 1104.84 35.6656 1104.81 35.3468C1104.79 35.0918 1104.61 34.8188 1104.22 34.4351C1103.31 33.5831 1101.47 33.1018 1099.75 33.2524C1095.6 33.6149 1092.71 37.2729 1093.13 42.0228C1093.49 46.1669 1096.28 48.6535 1100.39 48.2937Z" fill="#F3F3F3"/>
<path d="M1109.78 34.238L1110.76 45.5229L1108.84 46.7187L1108.89 47.2288L1115.46 46.6542L1115.41 46.1442L1113.31 45.2998L1112.32 33.983L1118.7 33.4252L1119.69 44.742L1117.77 45.9378L1117.81 46.4478L1124.38 45.8733L1124.34 45.3633L1122.24 44.5189L1121.25 33.234L1123.17 32.0382L1123.13 31.5281L1107.63 32.8835L1107.68 33.3936L1109.78 34.238Z" fill="#F3F3F3"/>
<path d="M1134.55 45.3051C1138.72 44.9397 1141.28 41.4718 1140.91 37.2001C1140.53 32.9285 1137.41 29.957 1133.24 30.3223C1129.06 30.6877 1126.51 34.1556 1126.88 38.4273C1127.25 42.699 1130.37 45.6705 1134.55 45.3051ZM1134.87 43.8953C1131.65 44.177 1129.99 40.8859 1129.69 37.5068C1129.45 34.7334 1130.36 31.9234 1132.97 31.6947C1136.19 31.413 1137.8 34.7096 1138.09 38.0887C1138.33 40.8302 1137.46 43.6694 1134.87 43.8953Z" fill="#F3F3F3"/>
<path d="M1155.82 43.1232L1160.02 42.755L1159.98 42.245L1157.84 41.3396L1150.95 35.2612L1156.33 30.2615L1158.46 28.9506L1158.42 28.4405L1152.81 28.9314L1152.85 29.4414L1153.88 30.5081L1153.89 30.6994L1148.53 35.8903L1148.1 30.8854L1150.02 29.6896L1149.97 29.1796L1143.4 29.7541L1143.45 30.2642L1145.55 31.1086L1146.53 42.3935L1144.61 43.5893L1144.66 44.0993L1151.23 43.5248L1151.18 43.0147L1149.08 42.1703L1148.58 36.3685L1154.46 41.5715L1155.82 43.1232Z" fill="#F3F3F3"/>
<path d="M1168.92 42.2982C1173.09 41.9329 1175.65 38.465 1175.27 34.1933C1174.9 29.9216 1171.78 26.9501 1167.61 27.3155C1163.43 27.6808 1160.87 31.1487 1161.25 35.4204C1161.62 39.6921 1164.74 42.6636 1168.92 42.2982ZM1169.24 40.8884C1166.02 41.1701 1164.35 37.8791 1164.06 34.5C1163.82 31.7266 1164.73 28.9165 1167.34 28.6878C1170.56 28.4061 1172.17 31.7027 1172.46 35.0818C1172.7 37.8234 1171.83 40.6625 1169.24 40.8884Z" fill="#F3F3F3"/>
<path d="M1179.77 18.3175C1180.04 21.4097 1182.11 23.4766 1185.59 23.1726C1189.06 22.8686 1190.75 20.4726 1190.48 17.3804L1187.73 17.6202C1187.95 20.043 1187.29 21.7704 1185.48 21.9293C1183.66 22.0883 1182.72 20.5004 1182.51 18.0776L1179.77 18.3175ZM1179.91 28.1017L1180.9 39.3866L1178.98 40.5824L1179.03 41.0924L1185.59 40.5179L1185.55 40.0079L1183.45 39.1635L1183.35 38.0477L1189.75 30.3253L1190.47 38.5499L1188.55 39.7457L1188.59 40.2558L1195.16 39.6812L1195.11 39.1712L1193.02 38.3268L1192.03 27.0419L1193.95 25.8461L1193.9 25.336L1187.34 25.9105L1187.38 26.4206L1189.48 27.265L1189.58 28.3807L1183.18 36.1032L1182.46 27.8786L1184.38 26.6828L1184.34 26.1727L1177.77 26.7472L1177.82 27.2573L1179.91 28.1017Z" fill="#F3F3F3"/>
<path d="M1204.93 39.1478C1207.51 38.9219 1209.39 37.2479 1210.21 35.3125L1210.18 34.9937L1210.09 35.0021C1208.57 36.0023 1207.27 36.5338 1206.09 36.637C1201.91 37.0024 1200.32 34.2505 1200.05 31.1901C1199.76 27.8748 1201.03 25.8047 1203.36 25.6011C1204.76 25.4784 1205.73 25.9713 1206.45 26.7763L1207.66 28.1478L1207.88 28.1283L1209 27.0022C1209.3 26.7193 1209.38 26.5197 1209.35 26.2009C1209.33 25.9459 1209.14 25.6729 1208.76 25.2892C1207.85 24.4372 1206.01 23.9559 1204.28 24.1065C1200.14 24.469 1197.25 28.127 1197.66 32.8769C1198.03 37.021 1200.81 39.5076 1204.93 39.1478Z" fill="#F3F3F3"/>
<path d="M1212.08 29.239L1212.59 29.1944L1214.41 25.0519L1217.34 24.7953L1218.33 36.112L1215.96 37.3469L1216.01 37.8569L1223.47 37.2043L1223.42 36.6943L1220.88 35.8889L1219.89 24.5721L1222.82 24.3156L1225.34 28.0788L1225.85 28.0342L1225.37 22.583L1211.6 23.7879L1212.08 29.239Z" fill="#F3F3F3"/>
<path d="M1230 23.7194L1230.99 35.0043L1229.07 36.2001L1229.12 36.7101L1234.79 36.2137C1240.08 35.7507 1242.44 34.0987 1242.19 31.2296C1242.06 29.7632 1240.87 28.2614 1237.4 28.18C1240 27.4704 1240.71 26.059 1240.58 24.5288C1240.36 22.0742 1237.65 21.5087 1233.79 21.8462L1227.86 22.3649L1227.91 22.875L1230 23.7194ZM1234.87 23.1333C1236.94 22.952 1237.8 24.0008 1237.92 25.3078C1238.03 26.6467 1237.29 27.7074 1235.19 27.8915L1232.96 28.0867L1232.54 23.3369L1234.87 23.1333ZM1235.26 29.1057C1237.94 28.8714 1239.19 29.9186 1239.35 31.7675C1239.5 33.4571 1238.4 34.5166 1235.63 34.7593L1233.56 34.9406L1233.06 29.2981L1235.26 29.1057Z" fill="#F3F3F3"/>
<path d="M1245.94 22.3249L1246.93 33.6098L1245.01 34.8056L1245.06 35.3157L1251.62 34.7411L1251.58 34.2311L1249.48 33.3867L1249.38 32.2709L1255.77 24.5485L1256.49 32.7731L1254.58 33.9689L1254.62 34.479L1261.19 33.9044L1261.14 33.3944L1259.04 32.55L1258.06 21.2651L1259.98 20.0693L1259.93 19.5592L1253.36 20.1338L1253.41 20.6438L1255.51 21.4882L1255.6 22.6039L1249.21 30.3264L1248.49 22.1018L1250.41 20.906L1250.37 20.3959L1243.8 20.9705L1243.85 21.4805L1245.94 22.3249Z" fill="#F3F3F3"/>
<path d="M1270.99 33.3682C1273.57 33.1423 1275.45 31.4683 1276.27 29.5329L1276.25 29.2141L1276.15 29.2225C1274.63 30.2227 1273.33 30.7542 1272.15 30.8574C1268.1 31.2116 1266.5 28.6538 1266.14 25.6975L1275.67 24.8636L1275.82 24.6902C1275.44 20.3229 1273.15 18.0814 1269.8 18.3743C1266.2 18.6894 1263.31 22.3474 1263.73 27.0973C1264.09 31.2415 1266.87 33.728 1270.99 33.3682ZM1269.42 19.8216C1271.27 19.6598 1272.55 20.768 1273.28 23.5952L1266.08 24.2255C1266.17 21.6155 1267.38 20 1269.42 19.8216Z" fill="#F3F3F3"/>
<path d="M0 54.5058L1280 166.491V115.718L0 3.73291L0 54.5058Z" fill="#FDB62B"/>
<path d="M207.887 53.5566C209.082 52.4023 210.173 50.9077 211.566 48.6114L219.419 35.7168L221.484 34.8374L221.53 34.3114L214.626 33.7074L214.58 34.2334L217.178 35.587L217.166 35.7185L210.613 46.6398L210.054 46.5909L205.386 34.8203L205.4 34.6559L208.334 33.6869L208.38 33.1609L200.161 32.4419L200.115 32.9679L202.343 34.3884L208.511 49.8348C207.37 51.5238 206.114 52.2421 203.747 52.035L203.418 52.0062L203.276 52.1262L203.117 53.9343C203.054 54.6576 203.165 54.8992 204.152 54.9855C205.138 55.0717 206.401 55.0167 207.887 53.5566Z" fill="#162DFB"/>
<path d="M223.299 43.0127L222.281 54.6502L220.118 55.521L220.072 56.047L225.923 56.559C231.38 57.0364 234.074 55.7814 234.333 52.8227C234.465 51.3105 233.524 49.5718 230.008 48.8667C232.78 48.6123 233.755 47.3064 233.894 45.7284C234.115 43.1971 231.458 42.1365 227.481 41.7885L221.366 41.2535L221.32 41.7795L223.299 43.0127ZM228.343 43.2884C230.48 43.4753 231.168 44.695 231.05 46.0428C230.929 47.4235 229.986 48.3679 227.816 48.178L225.515 47.9767L225.943 43.0784L228.343 43.2884ZM227.674 49.4244C230.435 49.666 231.515 50.953 231.348 52.8597C231.196 54.6021 229.893 55.4819 227.033 55.2317L224.896 55.0447L225.405 49.2259L227.674 49.4244Z" fill="#162DFB"/>
<path d="M241.026 58.2115C242.867 58.3726 244.717 57.6732 245.965 56.6561L246.162 56.6734C246.42 57.8885 247.206 58.7522 248.554 58.8702C250.033 58.9996 251.16 58.2369 251.769 57.3295L251.778 57.2309L251.685 57.1565L250.436 57.0473C249.45 56.961 248.911 56.682 248.644 56.3273L249.461 46.991C249.702 44.2295 247.374 43.1977 245.04 42.9935C243.528 42.8612 242.128 43.335 240.843 44.0176C239.593 44.6702 238.94 45.7061 238.856 46.6595C238.787 47.4485 238.973 47.5972 239.63 47.6548L241.34 47.8043L241.519 47.6543L241.599 46.7338C241.732 45.2216 242.374 44.3172 244.05 44.4638C245.563 44.5961 246.903 45.939 246.77 47.4513L246.56 49.8511L243.374 50.3011C239.516 50.858 237.928 52.3422 237.741 54.4791C237.555 56.6159 238.955 58.0303 241.026 58.2115ZM240.363 54.0459C240.493 52.5666 241.149 51.4978 246.463 50.9688L246.037 55.8342C244.673 56.2781 243.702 56.3919 242.65 56.2999C241.073 56.1618 240.245 55.3938 240.363 54.0459Z" fill="#162DFB"/>
<path d="M256.846 59.2644L258.245 57.6642L263.984 52.2699L263.461 58.253L261.298 59.1238L261.252 59.6498L268.024 60.2423L268.07 59.7163L266.091 58.4831L266.614 52.5L271.329 58.8089L272.429 60.6277L276.768 61.0073L276.814 60.4814L274.808 59.1796L269.193 51.7981L275.253 47.6575L277.655 46.7082L277.701 46.1822L271.915 45.676L271.869 46.202L272.719 47.4689L272.702 47.6661L266.657 52.0069L267.109 46.8456L269.272 45.9748L269.318 45.4488L262.546 44.8563L262.5 45.3823L264.479 46.6155L264.027 51.7768L258.829 46.4524L258.846 46.2552L259.903 45.1551L259.949 44.6291L253.999 44.1085L253.953 44.6345L256.153 45.9864L261.585 51.2981L254.985 57.4452L252.553 58.3588L252.507 58.8848L256.846 59.2644Z" fill="#162DFB"/>
<path d="M282.055 61.8011C283.895 61.9621 285.745 61.2627 286.994 60.2457L287.191 60.2629C287.449 61.478 288.235 62.3418 289.583 62.4597C291.062 62.5891 292.189 61.8264 292.798 60.9191L292.807 60.8205L292.714 60.7461L291.465 60.6368C290.479 60.5505 289.94 60.2715 289.673 59.9169L290.49 50.5805C290.731 47.8191 288.403 46.7873 286.069 46.5831C284.557 46.4508 283.157 46.9246 281.872 47.6072C280.622 48.2597 279.969 49.2957 279.885 50.249C279.816 51.038 280.002 51.1868 280.659 51.2443L282.369 51.3939L282.548 51.2439L282.628 50.3234C282.76 48.8112 283.403 47.9067 285.079 48.0534C286.591 48.1857 287.932 49.5286 287.799 51.0408L287.589 53.4407L284.403 53.8907C280.545 54.4475 278.957 55.9318 278.77 58.0686C278.583 60.2055 279.983 61.6199 282.055 61.8011ZM281.392 57.6355C281.521 56.1561 282.178 55.0873 287.491 54.5584L287.066 59.4238C285.702 59.8676 284.731 59.9815 283.679 59.8894C282.101 59.7514 281.274 58.9833 281.392 57.6355Z" fill="#162DFB"/>
<path d="M301.525 63.5045C304.187 63.7375 306.394 62.3736 307.58 60.556L307.608 60.2273L307.51 60.2186C305.788 60.9624 304.37 61.269 303.154 61.1626C298.979 60.7973 297.807 57.9122 297.976 54.8462L307.805 55.7062L307.984 55.5562C308.378 51.0524 306.46 48.367 303.008 48.065C299.293 47.74 295.701 50.9371 295.272 55.8354C294.898 60.1091 297.284 63.1335 301.525 63.5045ZM302.355 49.4655C304.262 49.6323 305.369 50.9879 305.603 53.9898L298.174 53.3398C298.736 50.7057 300.251 49.2814 302.355 49.4655Z" fill="#162DFB"/>
<path d="M313.899 50.9392L312.552 62.548L310.389 63.4188L310.343 63.9448L315.932 64.4337L315.978 63.9077L314.196 62.6918L315.398 52.3622L319.778 64.7702L320.469 64.8306L326.608 53.343L326.228 63.7445L324.262 64.6325L324.216 65.1585L330.791 65.7337L330.837 65.2077L328.858 63.9746L329.252 52.2824L331.415 51.4116L331.461 50.8856L326.727 50.4714L321.276 60.5286L320.98 60.5027L317.259 49.6431L311.966 49.18L311.92 49.706L313.899 50.9392Z" fill="#162DFB"/>
<path d="M353.909 54.4396L356.072 53.5688L356.118 53.0428L349.346 52.4504L349.3 52.9763L351.279 54.2095L350.261 65.8471L348.098 66.7179L348.052 67.2438L354.824 67.8363L354.87 67.3103L352.891 66.0772L353.909 54.4396ZM340.663 57.4215L339.249 57.2978L339.609 53.1885L342.429 52.3752L342.475 51.8492L335.046 51.1992L335 51.7252L336.979 52.9584L335.961 64.596L333.798 65.4667L333.752 65.9927L339.603 66.5047C345.06 66.9821 347.768 65.5627 348.036 62.5054C348.217 60.4343 346.843 57.9622 340.663 57.4215ZM341.38 59.0742C344.141 59.3158 345.227 60.5371 345.051 62.5424C344.899 64.2848 343.585 65.2961 340.725 65.0459L338.588 64.8589L339.111 58.8758L341.38 59.0742Z" fill="#162DFB"/>
<path d="M364.898 69.0489C367.561 69.2819 369.767 67.918 370.953 66.1004L370.982 65.7717L370.883 65.7631C369.162 66.5069 367.743 66.8134 366.527 66.707C362.352 66.3418 361.18 63.4566 361.349 60.3907L371.178 61.2506L371.357 61.1007C371.751 56.5969 369.833 53.9114 366.381 53.6095C362.666 53.2845 359.074 56.4815 358.645 61.3798C358.272 65.6535 360.657 68.6779 364.898 69.0489ZM365.729 55.0099C367.635 55.1767 368.742 56.5324 368.977 59.5342L361.547 58.8842C362.109 56.2501 363.625 54.8258 365.729 55.0099Z" fill="#162DFB"/>
<path d="M385.36 57.1912L384.341 68.8287L382.178 69.6995L382.132 70.2255L388.904 70.818L388.95 70.292L386.971 69.0588L387.992 57.3884L394.567 57.9636L393.546 69.634L391.383 70.5048L391.337 71.0308L398.109 71.6233L398.155 71.0973L396.176 69.8641L397.194 58.2266L399.357 57.3558L399.403 56.8298L383.426 55.432L383.38 55.958L385.36 57.1912Z" fill="#162DFB"/>
<path d="M404.788 72.5389C406.629 72.6999 408.479 72.0005 409.727 70.9834L409.924 71.0007C410.183 72.2158 410.968 73.0796 412.316 73.1975C413.795 73.3269 414.922 72.5642 415.532 71.6569L415.54 71.5583L415.447 71.4839L414.198 71.3746C413.212 71.2883 412.673 71.0093 412.406 70.6547L413.223 61.3183C413.464 58.5569 411.137 57.5251 408.802 57.3208C407.29 57.1885 405.891 57.6624 404.605 58.3449C403.356 58.9975 402.702 60.0335 402.618 60.9868C402.549 61.7758 402.735 61.9246 403.393 61.9821L405.102 62.1316L405.281 61.9816L405.361 61.0612C405.494 59.5489 406.136 58.6445 407.813 58.7912C409.325 58.9235 410.665 60.2664 410.533 61.7786L410.323 64.1784L407.136 64.6284C403.278 65.1853 401.691 66.6696 401.504 68.8064C401.317 70.9433 402.717 72.3577 404.788 72.5389ZM404.125 68.3733C404.255 66.8939 404.911 65.8251 410.225 65.2962L409.799 70.1616C408.435 70.6054 407.465 70.7192 406.413 70.6272C404.835 70.4891 404.007 69.7211 404.125 68.3733Z" fill="#162DFB"/>
<path d="M424.225 74.2394C426.888 74.4724 429.094 73.1085 430.28 71.2909L430.309 70.9622L430.21 70.9535C428.489 71.6973 427.071 72.0039 425.854 71.8975C421.548 71.5207 420.426 68.4412 420.702 65.2853C421.001 61.8663 422.656 59.9904 425.056 60.2004C426.502 60.3269 427.404 61.0021 427.984 61.9472L428.969 63.5572L429.199 63.5774L430.541 62.6347C430.892 62.4004 431.008 62.2118 431.037 61.8831C431.06 61.6201 430.921 61.3098 430.597 60.8508C429.826 59.8227 428.042 59.0041 426.267 58.8488C421.994 58.4749 418.401 61.672 417.973 66.5703C417.599 70.844 419.984 73.8684 424.225 74.2394Z" fill="#162DFB"/>
<path d="M439.924 75.6129C442.587 75.8458 444.793 74.4819 445.979 72.6644L446.008 72.3356L445.909 72.327C444.188 73.0708 442.77 73.3774 441.553 73.271C437.247 72.8942 436.125 69.8147 436.401 66.6587C436.7 63.2398 438.355 61.3639 440.755 61.5738C442.201 61.7004 443.103 62.3755 443.683 63.3207L444.668 64.9307L444.898 64.9508L446.239 64.0081C446.591 63.7739 446.707 63.5853 446.736 63.2565C446.759 62.9935 446.62 62.6833 446.296 62.2243C445.525 61.1961 443.741 60.3776 441.966 60.2223C437.692 59.8484 434.1 63.0455 433.672 67.9438C433.298 72.2174 435.683 75.2418 439.924 75.6129Z" fill="#162DFB"/>
<path d="M452.27 76.693C454.111 76.854 455.961 76.1546 457.209 75.1375L457.406 75.1548C457.664 76.3699 458.45 77.2337 459.798 77.3516C461.277 77.481 462.404 76.7183 463.013 75.811L463.022 75.7124L462.929 75.638L461.68 75.5287C460.694 75.4424 460.155 75.1634 459.888 74.8088L460.705 65.4724C460.946 62.711 458.618 61.6792 456.284 61.475C454.772 61.3427 453.372 61.8165 452.087 62.499C450.837 63.1516 450.184 64.1876 450.1 65.1409C450.031 65.9299 450.217 66.0787 450.874 66.1362L452.584 66.2857L452.763 66.1358L452.843 65.2153C452.975 63.7031 453.618 62.7986 455.294 62.9453C456.806 63.0776 458.147 64.4205 458.014 65.9327L457.804 68.3325L454.618 68.7825C450.76 69.3394 449.172 70.8237 448.985 72.9605C448.798 75.0974 450.198 76.5118 452.27 76.693ZM451.607 72.5274C451.736 71.048 452.393 69.9792 457.706 69.4503L457.281 74.3157C455.917 74.7595 454.946 74.8733 453.894 74.7813C452.316 74.6433 451.489 73.8752 451.607 72.5274Z" fill="#162DFB"/>
<path d="M468.09 77.7458L469.489 76.1457L475.228 70.7513L474.705 76.7345L472.542 77.6053L472.495 78.1312L479.268 78.7237L479.314 78.1977L477.335 76.9646L477.858 70.9814L482.573 77.2904L483.673 79.1091L488.012 79.4888L488.058 78.9628L486.052 77.661L480.437 70.2795L486.497 66.1389L488.899 65.1896L488.945 64.6637L483.159 64.1575L483.113 64.6835L483.963 65.9503L483.946 66.1476L477.901 70.4883L478.353 65.327L480.516 64.4562L480.562 63.9302L473.79 63.3378L473.744 63.8637L475.723 65.0969L475.271 70.2582L470.073 64.9339L470.09 64.7366L471.147 63.6365L471.193 63.1105L465.242 62.59L465.196 63.116L467.397 64.4679L472.829 69.7795L466.229 75.9267L463.797 76.8402L463.751 77.3662L468.09 77.7458Z" fill="#162DFB"/>
<path d="M493.486 66.651L492.467 78.2885L490.304 79.1593L490.258 79.6853L497.03 80.2778L497.076 79.7518L495.097 78.5186L495.198 77.368L503.072 70.6697L502.33 79.1514L500.167 80.0221L500.121 80.5481L506.893 81.1406L506.939 80.6146L504.96 79.3814L505.978 67.7439L508.141 66.8731L508.187 66.3471L501.415 65.7546L501.369 66.2806L503.348 67.5138L503.247 68.6644L495.373 75.3627L496.115 66.8811L498.279 66.0103L498.325 65.4843L491.552 64.8918L491.506 65.4178L493.486 66.651Z" fill="#162DFB"/>
<path d="M509.373 88.9766L516.408 89.5921L516.454 89.0661L514.212 87.8099L514.735 81.8267C515.671 82.1074 516.778 82.3367 518.027 82.446C522.136 82.8055 525.757 80.0415 526.229 74.6501C526.608 70.3107 524.441 67.4379 521.121 67.1474C519.346 66.9921 517.848 67.4573 516.047 68.7242L515.817 68.7041L515.73 66.6758L515.532 66.6585L511.298 68.1099L511.278 68.3401L513.101 70.2221L511.582 87.5798L509.419 88.4506L509.373 88.9766ZM519.114 69.2576C521.81 69.4934 523.857 71.4614 523.504 75.5049C523.138 79.68 521.222 81.1355 519.118 80.9514C517.442 80.8047 516.188 80.3638 514.965 79.1968L515.774 69.9591C516.883 69.3936 518.03 69.1627 519.114 69.2576Z" fill="#162DFB"/>
<path d="M548.844 71.4942L551.007 70.6234L551.053 70.0975L544.281 69.505L544.235 70.031L546.214 71.2641L545.196 82.9017L543.033 83.7725L542.987 84.2985L549.759 84.8909L549.805 84.3649L547.826 83.1318L548.844 71.4942ZM535.598 74.4761L534.184 74.3524L534.544 70.2431L537.364 69.4298L537.411 68.9039L529.981 68.2538L529.935 68.7798L531.914 70.013L530.896 81.6506L528.733 82.5213L528.687 83.0473L534.538 83.5593C539.995 84.0367 542.703 82.6173 542.971 79.56C543.152 77.4889 541.778 75.0168 535.598 74.4761ZM536.315 76.1288C539.076 76.3704 540.162 77.5917 539.986 79.597C539.834 81.3394 538.52 82.3507 535.66 82.1005L533.523 81.9135L534.046 75.9304L536.315 76.1288Z" fill="#162DFB"/>
<path d="M552.763 91.9446C556.15 90.7171 557.616 88.7253 557.817 86.4241C557.961 84.7804 557.301 83.232 555.99 82.3222C555.645 82.0933 555.391 81.9717 555.194 81.9544C554.832 81.9228 554.648 82.1385 554.309 82.6058L553.211 84.1661L553.281 84.5034L554.347 85.193C555.38 85.8796 555.873 86.6846 555.767 87.901C555.646 89.2817 554.751 90.429 552.823 91.2542L552.763 91.9446Z" fill="#162DFB"/>
<path d="M572.59 73.5717L571.571 85.2092L569.408 86.08L569.362 86.606L576.134 87.1985L576.18 86.6725L574.201 85.4393L574.659 80.2123L581.562 80.8163L581.105 86.0433L578.942 86.9141L578.896 87.4401L585.668 88.0326L585.714 87.5066L583.735 86.2734L584.753 74.6358L586.916 73.7651L586.962 73.2391L580.19 72.6466L580.144 73.1726L582.123 74.4058L581.697 79.2712L574.794 78.6672L575.22 73.8018L577.383 72.931L577.429 72.405L570.657 71.8125L570.611 72.3385L572.59 73.5717Z" fill="#162DFB"/>
<path d="M592.339 88.9475C594.18 89.1085 596.03 88.4091 597.278 87.392L597.476 87.4093C597.734 88.6244 598.519 89.4882 599.867 89.6061C601.347 89.7355 602.473 88.9728 603.083 88.0655L603.091 87.9669L602.998 87.8925L601.749 87.7832C600.763 87.6969 600.224 87.4179 599.957 87.0633L600.774 77.7269C601.016 74.9655 598.688 73.9336 596.354 73.7294C594.841 73.5971 593.442 74.071 592.156 74.7535C590.907 75.4061 590.253 76.4421 590.17 77.3954C590.101 78.1844 590.286 78.3332 590.944 78.3907L592.653 78.5402L592.832 78.3902L592.912 77.4698C593.045 75.9575 593.687 75.0531 595.364 75.1998C596.876 75.3321 598.216 76.675 598.084 78.1872L597.874 80.587L594.687 81.037C590.829 81.5939 589.242 83.0782 589.055 85.215C588.868 87.3519 590.268 88.7663 592.339 88.9475ZM591.677 84.7819C591.806 83.3025 592.463 82.2337 597.776 81.7048L597.35 86.5702C595.986 87.014 595.016 87.1278 593.964 87.0358C592.386 86.8977 591.559 86.1297 591.677 84.7819Z" fill="#162DFB"/>
<path d="M607.111 88.3185L604.947 89.1893L604.901 89.7153L628.768 91.8033L628.814 91.2773L626.835 90.0442L627.853 78.4066L630.016 77.5358L630.062 77.0098L623.29 76.4174L623.244 76.9434L625.223 78.1765L624.202 89.847L618.285 89.3292L619.306 77.6588L621.469 76.788L621.515 76.262L614.743 75.6696L614.697 76.1956L616.676 77.4287L615.655 89.0992L609.738 88.5814L610.759 76.911L612.922 76.0402L612.968 75.5143L606.196 74.9218L606.15 75.4478L608.129 76.6809L607.111 88.3185Z" fill="#162DFB"/>
<path d="M646.352 93.673C649.015 93.906 651.221 92.5421 652.407 90.7245L652.436 90.3958L652.337 90.3871C650.616 91.1309 649.198 91.4375 647.981 91.3311C643.675 90.9543 642.553 87.8748 642.829 84.7189C643.128 81.2999 644.783 79.424 647.183 79.634C648.629 79.7605 649.531 80.4357 650.111 81.3808L651.096 82.9908L651.326 83.0109L652.668 82.0683C653.019 81.834 653.135 81.6454 653.164 81.3167C653.187 81.0537 653.049 80.7434 652.724 80.2844C651.953 79.2563 650.17 78.4377 648.394 78.2824C644.121 77.9085 640.528 81.1056 640.1 86.0039C639.726 90.2776 642.111 93.302 646.352 93.673Z" fill="#162DFB"/>
<path d="M658.698 94.7531C660.539 94.9142 662.389 94.2147 663.637 93.1977L663.834 93.2149C664.092 94.43 664.878 95.2938 666.226 95.4117C667.705 95.5412 668.832 94.7785 669.442 93.8711L669.45 93.7725L669.357 93.6981L668.108 93.5888C667.122 93.5025 666.583 93.2235 666.316 92.8689L667.133 83.5326C667.374 80.7711 665.046 79.7393 662.712 79.5351C661.2 79.4028 659.801 79.8766 658.515 80.5592C657.266 81.2117 656.612 82.2477 656.528 83.2011C656.459 83.99 656.645 84.1388 657.303 84.1963L659.012 84.3459L659.191 84.1959L659.271 83.2754C659.404 81.7632 660.046 80.8587 661.723 81.0054C663.235 81.1377 664.575 82.4806 664.442 83.9928L664.232 86.3927L661.046 86.8427C657.188 87.3995 655.601 88.8838 655.414 91.0207C655.227 93.1575 656.627 94.5719 658.698 94.7531ZM658.035 90.5875C658.165 89.1082 658.821 88.0393 664.135 87.5104L663.709 92.3758C662.345 92.8196 661.375 92.9335 660.323 92.8414C658.745 92.7034 657.917 91.9354 658.035 90.5875Z" fill="#162DFB"/>
<path d="M674.619 82.4981L673.272 94.1069L671.109 94.9777L671.063 95.5036L676.652 95.9926L676.698 95.4666L674.916 94.2507L676.118 83.9211L680.498 96.3291L681.188 96.3895L687.328 84.9019L686.948 95.3033L684.982 96.1914L684.936 96.7174L691.511 97.2926L691.557 96.7666L689.578 95.5334L689.971 83.8412L692.134 82.9705L692.18 82.4445L687.447 82.0303L681.995 92.0875L681.699 92.0616L677.979 81.202L672.686 80.7389L672.64 81.2649L674.619 82.4981Z" fill="#162DFB"/>
<path d="M701.741 98.5189C706.047 98.8956 709.264 95.8313 709.649 91.4261C710.034 87.021 707.399 83.4447 703.092 83.0679C698.786 82.6911 695.57 85.7554 695.184 90.1606C694.799 94.5658 697.434 98.1421 701.741 98.5189ZM702.325 97.1455C699.004 96.855 697.898 93.2138 698.203 89.7291C698.454 86.869 699.881 84.1783 702.577 84.4141C705.897 84.7046 706.938 88.3401 706.633 91.8248C706.385 94.652 704.987 97.3785 702.325 97.1455Z" fill="#162DFB"/>
<path d="M718.276 87.1126L718.348 86.2907L723.181 86.7135L722.16 98.384L719.996 99.2547L719.95 99.7807L726.722 100.373L726.768 99.8472L724.789 98.614L725.807 86.9765L727.971 86.1057L728.017 85.5797L714.571 84.4034L714.525 84.9294L716.701 86.1798L716.632 86.9688C716.074 93.3464 715.262 96.9524 712.369 96.6993L711.876 96.6561L711.733 96.7761L711.589 98.4198C711.526 99.1431 711.67 99.3876 712.59 99.4681C713.905 99.5831 714.919 98.9762 715.719 97.7874C717.048 95.8498 717.824 92.2739 718.276 87.1126Z" fill="#162DFB"/>
<path d="M736.79 101.585C739.452 101.818 741.659 100.454 742.845 98.6368L742.873 98.308L742.775 98.2994C741.053 99.0432 739.635 99.3498 738.419 99.2434C734.244 98.8781 733.072 95.993 733.241 92.927L743.07 93.787L743.249 93.637C743.643 89.1332 741.725 86.4478 738.273 86.1458C734.558 85.8208 730.966 89.0178 730.537 93.9161C730.163 98.1898 732.549 101.214 736.79 101.585ZM737.62 87.5462C739.527 87.7131 740.634 89.0687 740.868 92.0705L733.439 91.4205C734.001 88.7865 735.516 87.3622 737.62 87.5462Z" fill="#162DFB"/>
<path d="M746.016 92.819L746.542 92.8651L749.134 88.9842L752.159 89.2488L751.138 100.919L748.514 101.75L748.468 102.276L756.161 102.949L756.207 102.423L753.768 101.149L754.789 89.4789L757.813 89.7435L759.692 94.0155L760.218 94.0615L760.71 88.44L746.508 87.1975L746.016 92.819Z" fill="#162DFB"/>
<path d="M777.079 105.11C779.742 105.343 781.949 103.979 783.134 102.162L783.163 101.833L783.065 101.824C781.343 102.568 779.925 102.875 778.709 102.768C774.402 102.391 773.28 99.312 773.556 96.156C773.855 92.7371 775.51 90.8612 777.91 91.0711C779.357 91.1977 780.258 91.8728 780.838 92.818L781.823 94.428L782.054 94.4481L783.395 93.5054C783.747 93.2712 783.862 93.0826 783.891 92.7538C783.914 92.4908 783.776 92.1806 783.452 91.7216C782.68 90.6934 780.897 89.8749 779.121 89.7196C774.848 89.3457 771.256 92.5427 770.827 97.441C770.453 101.715 772.839 104.739 777.079 105.11Z" fill="#162DFB"/>
<path d="M793.173 106.518C797.479 106.895 800.696 103.831 801.081 99.4254C801.466 95.0202 798.831 91.4439 794.524 91.0671C790.218 90.6904 787.002 93.7547 786.616 98.1599C786.231 102.565 788.866 106.141 793.173 106.518ZM793.757 105.145C790.436 104.854 789.33 101.213 789.635 97.7284C789.886 94.8683 791.313 92.1775 794.009 92.4134C797.329 92.7038 798.37 96.3393 798.065 99.824C797.817 102.651 796.419 105.378 793.757 105.145Z" fill="#162DFB"/>
<path d="M806.884 94.0698L805.866 105.707L803.703 106.578L803.657 107.104L809.508 107.616C814.966 108.093 817.659 106.838 817.918 103.88C818.05 102.368 817.109 100.629 813.593 99.9238C816.365 99.6694 817.341 98.3635 817.479 96.7855C817.7 94.2542 815.044 93.1936 811.066 92.8456L804.951 92.3106L804.905 92.8366L806.884 94.0698ZM811.928 94.3455C814.065 94.5324 814.753 95.752 814.636 97.0999C814.515 98.4806 813.571 99.4249 811.401 99.2351L809.1 99.0338L809.528 94.1355L811.928 94.3455ZM811.259 100.481C814.02 100.723 815.1 102.01 814.933 103.917C814.781 105.659 813.478 106.539 810.618 106.289L808.481 106.102L808.991 100.283L811.259 100.481Z" fill="#162DFB"/>
<path d="M827.002 109.478C829.664 109.711 831.871 108.347 833.057 106.529L833.086 106.201L832.987 106.192C831.266 106.936 829.847 107.242 828.631 107.136C824.456 106.771 823.284 103.885 823.453 100.82L833.282 101.68L833.461 101.53C833.855 97.0257 831.937 94.3403 828.485 94.0383C824.77 93.7133 821.178 96.9104 820.749 101.809C820.375 106.082 822.761 109.107 827.002 109.478ZM827.832 95.4388C829.739 95.6056 830.846 96.9612 831.08 99.9631L823.651 99.3131C824.213 96.679 825.728 95.2547 827.832 95.4388Z" fill="#162DFB"/>
<path d="M835.356 117.496L842.391 118.112L842.437 117.586L840.195 116.33L840.719 110.347C841.655 110.627 842.761 110.857 844.01 110.966C848.119 111.325 851.74 108.561 852.212 103.17C852.591 98.8306 850.425 95.9578 847.104 95.6673C845.329 95.512 843.831 95.9772 842.031 97.2441L841.8 97.2239L841.713 95.1956L841.516 95.1783L837.281 96.6298L837.261 96.8599L839.084 98.742L837.565 116.1L835.402 116.97L835.356 117.496ZM845.098 97.7774C847.793 98.0133 849.841 99.9812 849.487 104.025C849.122 108.2 847.205 109.655 845.102 109.471C843.425 109.325 842.172 108.884 840.949 107.717L841.757 98.4789C842.866 97.9135 844.013 97.6825 845.098 97.7774Z" fill="#162DFB"/>
<path d="M856.879 110.17L854.716 111.041L854.67 111.567L878.537 113.655L878.583 113.129L876.604 111.896L877.622 100.259L879.785 99.3878L879.831 98.8618L873.059 98.2693L873.013 98.7953L874.992 100.028L873.971 111.699L868.053 111.181L869.075 99.5107L871.238 98.64L871.284 98.114L864.512 97.5215L864.466 98.0475L866.445 99.2807L865.424 110.951L859.506 110.433L860.527 98.7629L862.69 97.8922L862.736 97.3662L855.964 96.7737L855.918 97.2997L857.897 98.5329L856.879 110.17Z" fill="#162DFB"/>
<path d="M884.549 114.513C886.39 114.674 888.24 113.974 889.488 112.957L889.686 112.974C889.944 114.189 890.729 115.053 892.077 115.171C893.557 115.301 894.683 114.538 895.293 113.631L895.301 113.532L895.208 113.458L893.959 113.348C892.973 113.262 892.434 112.983 892.167 112.628L892.984 103.292C893.226 100.531 890.898 99.4987 888.564 99.2945C887.051 99.1622 885.652 99.636 884.366 100.319C883.117 100.971 882.463 102.007 882.379 102.96C882.31 103.749 882.496 103.898 883.154 103.956L884.863 104.105L885.042 103.955L885.122 103.035C885.255 101.523 885.897 100.618 887.574 100.765C889.086 100.897 890.426 102.24 890.294 103.752L890.084 106.152L886.897 106.602C883.039 107.159 881.452 108.643 881.265 110.78C881.078 112.917 882.478 114.331 884.549 114.513ZM883.886 110.347C884.016 108.868 884.672 107.799 889.986 107.27L889.56 112.135C888.196 112.579 887.226 112.693 886.174 112.601C884.596 112.463 883.769 111.695 883.886 110.347Z" fill="#162DFB"/>
<path d="M904.019 116.216C906.682 116.449 908.888 115.085 910.074 113.267L910.103 112.939L910.004 112.93C908.283 113.674 906.865 113.98 905.648 113.874C901.473 113.509 900.301 110.624 900.47 107.558L910.3 108.418L910.478 108.268C910.872 103.764 908.954 101.078 905.502 100.776C901.788 100.451 898.195 103.649 897.767 108.547C897.393 112.82 899.778 115.845 904.019 116.216ZM904.85 102.177C906.756 102.344 907.864 103.699 908.098 106.701L900.668 106.051C901.23 103.417 902.746 101.993 904.85 102.177Z" fill="#162DFB"/>
<path d="M913.246 107.45L913.772 107.496L916.364 103.615L919.388 103.879L918.367 115.55L915.744 116.38L915.698 116.906L923.39 117.579L923.436 117.053L920.997 115.78L922.018 104.11L925.042 104.374L926.921 108.646L927.447 108.692L927.939 103.071L913.737 101.828L913.246 107.45Z" fill="#162DFB"/>
<path d="M940.661 105.774L939.643 117.411L937.48 118.282L937.434 118.808L944.206 119.401L944.252 118.875L942.273 117.641L943.294 105.971L949.869 106.546L948.848 118.217L946.685 119.087L946.639 119.613L953.411 120.206L953.457 119.68L951.478 118.447L952.496 106.809L954.659 105.938L954.705 105.412L938.728 104.015L938.682 104.541L940.661 105.774Z" fill="#162DFB"/>
<path d="M963.837 121.449C968.144 121.826 971.36 118.762 971.745 114.357C972.131 109.951 969.495 106.375 965.189 105.998C960.882 105.622 957.666 108.686 957.281 113.091C956.895 117.496 959.531 121.073 963.837 121.449ZM964.421 120.076C961.101 119.786 959.995 116.144 960.3 112.66C960.55 109.8 961.978 107.109 964.674 107.345C967.994 107.635 969.034 111.271 968.729 114.755C968.482 117.582 967.084 120.309 964.421 120.076Z" fill="#162DFB"/>
<path d="M981.357 122.982C984.019 123.215 986.226 121.851 987.412 120.034L987.44 119.705L987.342 119.696C985.62 120.44 984.202 120.747 982.986 120.64C978.679 120.263 977.558 117.184 977.834 114.028C978.133 110.609 979.788 108.733 982.187 108.943C983.634 109.07 984.535 109.745 985.115 110.69L986.101 112.3L986.331 112.32L987.672 111.377C988.024 111.143 988.14 110.955 988.168 110.626C988.191 110.363 988.053 110.053 987.729 109.594C986.957 108.565 985.174 107.747 983.399 107.592C979.125 107.218 975.533 110.415 975.104 115.313C974.73 119.587 977.116 122.611 981.357 122.982Z" fill="#162DFB"/>
<path d="M993.702 124.062C995.543 124.223 997.393 123.524 998.642 122.507L998.839 122.524C999.097 123.739 999.883 124.603 1001.23 124.721C1002.71 124.85 1003.84 124.088 1004.45 123.18L1004.45 123.082L1004.36 123.007L1003.11 122.898C1002.13 122.812 1001.59 122.533 1001.32 122.178L1002.14 112.842C1002.38 110.08 1000.05 109.048 997.717 108.844C996.205 108.712 994.805 109.186 993.52 109.868C992.27 110.521 991.616 111.557 991.533 112.51C991.464 113.299 991.65 113.448 992.307 113.505L994.016 113.655L994.195 113.505L994.276 112.584C994.408 111.072 995.05 110.168 996.727 110.314C998.239 110.447 999.579 111.79 999.447 113.302L999.237 115.702L996.051 116.152C992.192 116.709 990.605 118.193 990.418 120.33C990.231 122.467 991.631 123.881 993.702 124.062ZM993.04 119.897C993.169 118.417 993.826 117.348 999.139 116.819L998.714 121.685C997.35 122.129 996.379 122.243 995.327 122.151C993.749 122.012 992.922 121.244 993.04 119.897Z" fill="#162DFB"/>
<path d="M1007.39 123.371L1005.64 123.219L1005.15 128.84L1005.68 128.886L1008.27 125.005L1018.13 125.868L1020.01 130.14L1020.54 130.186L1021.03 124.565L1018.69 124.361L1019.72 112.69L1021.88 111.819L1021.92 111.293L1008.48 110.117L1008.43 110.643L1010.41 111.876L1010.37 112.336C1010.12 115.229 1009.3 120.093 1007.39 123.371ZM1016.06 124.13L1009.19 123.529C1010.93 120.303 1011.76 115.439 1012.02 112.48L1012.06 111.987L1017.09 112.427L1016.06 124.13Z" fill="#162DFB"/>
<path d="M1035.46 127.384L1039.8 127.764L1039.85 127.238L1037.84 125.936L1031.93 118.529L1038.28 114.414L1040.69 113.465L1040.73 112.939L1034.95 112.433L1034.9 112.959L1035.75 114.225L1035.73 114.423L1029.36 118.735L1029.81 113.573L1031.97 112.703L1032.02 112.177L1025.25 111.584L1025.2 112.11L1027.18 113.343L1026.16 124.981L1024 125.852L1023.95 126.378L1030.73 126.97L1030.77 126.444L1028.79 125.211L1029.32 119.228L1034.36 125.565L1035.46 127.384Z" fill="#162DFB"/>
<path d="M1042.74 136.005C1043.83 136.1 1045.04 135.543 1046.03 134.371C1047.14 133.077 1047.31 132.595 1048.07 131.105L1055.93 115.925L1058.49 115.023L1058.54 114.497L1052.09 113.933L1052.05 114.459L1054.41 115.858L1054.39 116.055L1049.89 125.069L1049.8 125.061L1046.26 115.145L1046.27 114.98L1049.06 114.197L1049.1 113.671L1041.25 112.984L1041.2 113.51L1043.31 114.721L1048.19 128.233L1046.82 130.697C1045.29 133.379 1045.12 133.463 1043.51 133.322L1042 133.19L1041.85 133.31L1041.71 134.954C1041.65 135.677 1041.76 135.919 1042.74 136.005Z" fill="#162DFB"/>
</svg>
