<svg width="1280" height="744" viewBox="0 0 1280 744" fill="none" xmlns="http://www.w3.org/2000/svg">
<rect y="50" width="1280" height="644" fill="#162DFB"/>
<rect width="1280" height="744" fill="#162DFB"/>
<rect x="748" y="208" width="40" height="54" fill="#F3F3F3"/>
<rect x="1036" y="208" width="40" height="54" fill="#F3F3F3"/>
<rect x="892" y="208" width="40" height="54" fill="#F3F3F3"/>
<rect x="1180" y="208" width="40" height="54" fill="#F3F3F3"/>
<rect x="796" y="208" width="40" height="54" fill="#F3F3F3"/>
<rect x="1084" y="208" width="40" height="54" fill="#F3F3F3"/>
<rect x="940" y="208" width="40" height="54" fill="#F3F3F3"/>
<rect x="844" y="208" width="40" height="54" fill="#F3F3F3"/>
<rect x="1132" y="208" width="40" height="54" fill="#F3F3F3"/>
<rect x="988" y="208" width="40" height="54" fill="#F3F3F3"/>
<rect x="700" y="208" width="40" height="54" fill="#F3F3F3"/>
<rect x="748" y="394" width="40" height="54" fill="#F3F3F3"/>
<rect x="1036" y="394" width="40" height="54" fill="#F3F3F3"/>
<rect x="892" y="394" width="40" height="54" fill="#F3F3F3"/>
<rect x="1180" y="394" width="40" height="54" fill="#F3F3F3"/>
<rect x="796" y="394" width="40" height="54" fill="#F3F3F3"/>
<rect x="1084" y="394" width="40" height="54" fill="#F3F3F3"/>
<rect x="940" y="394" width="40" height="54" fill="#F3F3F3"/>
<rect x="844" y="394" width="40" height="54" fill="#F3F3F3"/>
<rect x="1132" y="394" width="40" height="54" fill="#F3F3F3"/>
<rect x="988" y="394" width="40" height="54" fill="#F3F3F3"/>
<rect x="700" y="394" width="40" height="54" fill="#F3F3F3"/>
<rect x="748" y="270" width="40" height="54" fill="#F3F3F3"/>
<rect x="1036" y="270" width="40" height="54" fill="#F3F3F3"/>
<rect x="892" y="270" width="40" height="54" fill="#F3F3F3"/>
<rect x="1180" y="270" width="40" height="54" fill="#F3F3F3"/>
<rect x="796" y="270" width="40" height="54" fill="#F3F3F3"/>
<rect x="1084" y="270" width="40" height="54" fill="#F3F3F3"/>
<rect x="940" y="270" width="40" height="54" fill="#F3F3F3"/>
<rect x="844" y="270" width="40" height="54" fill="#F3F3F3"/>
<rect x="1132" y="270" width="40" height="54" fill="#F3F3F3"/>
<rect x="988" y="270" width="40" height="54" fill="#F3F3F3"/>
<rect x="700" y="270" width="40" height="54" fill="#F3F3F3"/>
<rect x="748" y="456" width="40" height="54" fill="#F3F3F3"/>
<rect x="1036" y="456" width="40" height="54" fill="#F3F3F3"/>
<rect x="892" y="456" width="40" height="54" fill="#F3F3F3"/>
<rect x="1180" y="456" width="40" height="54" fill="#F3F3F3"/>
<rect x="796" y="456" width="40" height="54" fill="#F3F3F3"/>
<rect x="1084" y="456" width="40" height="54" fill="#F3F3F3"/>
<rect x="940" y="456" width="40" height="54" fill="#F3F3F3"/>
<rect x="844" y="456" width="40" height="54" fill="#F3F3F3"/>
<rect x="1132" y="456" width="40" height="54" fill="#F3F3F3"/>
<rect x="988" y="456" width="40" height="54" fill="#F3F3F3"/>
<rect x="700" y="456" width="40" height="54" fill="#F3F3F3"/>
<rect x="748" y="332" width="40" height="54" fill="#F3F3F3"/>
<rect x="1036" y="332" width="40" height="54" fill="#F3F3F3"/>
<rect x="892" y="332" width="40" height="54" fill="#F3F3F3"/>
<rect x="1180" y="332" width="40" height="54" fill="#F3F3F3"/>
<rect x="796" y="332" width="40" height="54" fill="#F3F3F3"/>
<rect x="1084" y="332" width="40" height="54" fill="#F3F3F3"/>
<rect x="940" y="332" width="40" height="54" fill="#F3F3F3"/>
<rect x="844" y="332" width="40" height="54" fill="#F3F3F3"/>
<rect x="1132" y="332" width="40" height="54" fill="#F3F3F3"/>
<rect x="988" y="332" width="40" height="54" fill="#F3F3F3"/>
<rect x="700" y="332" width="40" height="54" fill="#F3F3F3"/>
<rect x="748" y="518" width="40" height="54" fill="#F3F3F3"/>
<rect x="1036" y="518" width="40" height="54" fill="#F3F3F3"/>
<rect x="892" y="518" width="40" height="54" fill="#F3F3F3"/>
<rect x="1180" y="518" width="40" height="54" fill="#F3F3F3"/>
<rect x="796" y="518" width="40" height="54" fill="#F3F3F3"/>
<rect x="1084" y="518" width="40" height="54" fill="#F3F3F3"/>
<rect x="940" y="518" width="40" height="54" fill="#F3F3F3"/>
<rect x="844" y="518" width="40" height="54" fill="#F3F3F3"/>
<rect x="1132" y="518" width="40" height="54" fill="#F3F3F3"/>
<rect x="988" y="518" width="40" height="54" fill="#F3F3F3"/>
<rect x="700" y="518" width="40" height="54" fill="#F3F3F3"/>
<rect x="748" y="580" width="40" height="54" fill="#F3F3F3"/>
<rect x="1036" y="580" width="40" height="54" fill="#F3F3F3"/>
<rect x="892" y="580" width="40" height="54" fill="#F3F3F3"/>
<rect x="1180" y="580" width="40" height="54" fill="#F3F3F3"/>
<rect x="796" y="580" width="40" height="54" fill="#F3F3F3"/>
<rect x="1084" y="580" width="40" height="54" fill="#F3F3F3"/>
<rect x="940" y="580" width="40" height="54" fill="#F3F3F3"/>
<rect x="844" y="580" width="40" height="54" fill="#F3F3F3"/>
<rect x="1132" y="580" width="40" height="54" fill="#F3F3F3"/>
<rect x="988" y="580" width="40" height="54" fill="#F3F3F3"/>
<rect x="700" y="580" width="40" height="54" fill="#F3F3F3"/>
<path d="M701.664 187H711.04V186.488L708.352 185.176V167.704L711.04 166.392V165.88H701.664V166.392L704.352 167.704V185.176L701.664 186.488V187ZM708.384 176.28L717.6 187H723.68V186.488L721.536 185.592L712.16 174.84L720 167.256L722.08 166.392V165.88H714.848V166.392L717.184 167.512L708.384 176.28ZM725.75 194.712C726.838 194.712 728.118 194.072 728.982 192.856C729.942 191.512 730.07 191.032 730.678 189.528L737.046 174.072L739.35 172.984V172.472H733.174V172.984L735.286 174.072V174.232L732.214 182.232H732.054L728.214 174.072V173.944L730.454 172.984V172.472H722.102V172.984L724.15 173.912L730.326 186.904L729.366 189.112C728.278 191.576 727.83 191.672 726.262 191.672H724.822L724.662 191.832V193.784C724.662 194.488 724.79 194.712 725.75 194.712ZM740.711 185.464H738.951V191.032H739.527L741.863 187H751.591L753.927 191.032H754.503V185.464H752.231V174.008L754.343 172.984V172.472H740.519V172.984L742.631 174.008V174.456C742.631 177.272 742.311 182.168 740.711 185.464ZM748.551 185.464H742.535C743.943 182.2 744.263 177.336 744.263 174.456V174.008H748.551V185.464ZM760.552 187.32C762.376 187.32 763.976 186.424 765.064 185.24H765.288C765.736 186.52 766.728 187.32 768.328 187.32C769.992 187.32 771.048 186.488 771.56 185.656V185.336L771.464 185.24H770.408C769.576 185.24 769.064 185.048 768.776 184.728V175.992C768.776 173.208 766.28 172.152 763.464 172.152C761.96 172.152 760.68 172.664 759.304 173.528C758.088 174.264 757.384 175.256 757.384 176.184C757.384 176.952 757.608 177.144 758.248 177.144H760.168L760.328 177.016V175.768C760.328 174.488 760.84 173.72 762.344 173.72C763.848 173.72 765.064 174.84 765.064 176.408V178.52L762.056 179.256C758.152 180.216 756.936 181.56 756.904 183.768C756.872 186.008 758.504 187.32 760.552 187.32ZM760.424 182.968C760.424 181.464 761.096 180.536 765.064 179.736V184.44C764.168 184.824 763.464 184.984 762.664 184.984C761.256 184.984 760.424 184.312 760.424 182.968Z" fill="#F3F3F3"/>
<rect x="108" y="208" width="40" height="54" fill="#F3F3F3"/>
<rect x="396" y="208" width="40" height="54" fill="#F3F3F3"/>
<rect x="252" y="208" width="40" height="54" fill="#F3F3F3"/>
<rect x="540" y="208" width="40" height="54" fill="#F3F3F3"/>
<rect x="156" y="208" width="40" height="54" fill="#F3F3F3"/>
<rect x="444" y="208" width="40" height="54" fill="#F3F3F3"/>
<rect x="300" y="208" width="40" height="54" fill="#F3F3F3"/>
<rect x="204" y="208" width="40" height="54" fill="#F3F3F3"/>
<rect x="492" y="208" width="40" height="54" fill="#F3F3F3"/>
<rect x="348" y="208" width="40" height="54" fill="#F3F3F3"/>
<rect x="60" y="208" width="40" height="54" fill="#F3F3F3"/>
<rect x="108" y="394" width="40" height="54" fill="#F3F3F3"/>
<rect x="396" y="394" width="40" height="54" fill="#F3F3F3"/>
<rect x="252" y="394" width="40" height="54" fill="#F3F3F3"/>
<rect x="540" y="394" width="40" height="54" fill="#F3F3F3"/>
<rect x="156" y="394" width="40" height="54" fill="#F3F3F3"/>
<rect x="444" y="394" width="40" height="54" fill="#F3F3F3"/>
<rect x="300" y="394" width="40" height="54" fill="#F3F3F3"/>
<rect x="204" y="394" width="40" height="54" fill="#F3F3F3"/>
<rect x="492" y="394" width="40" height="54" fill="#F3F3F3"/>
<rect x="348" y="394" width="40" height="54" fill="#F3F3F3"/>
<rect x="60" y="394" width="40" height="54" fill="#F3F3F3"/>
<rect x="108" y="270" width="40" height="54" fill="#F3F3F3"/>
<rect x="396" y="270" width="40" height="54" fill="#F3F3F3"/>
<rect x="252" y="270" width="40" height="54" fill="#F3F3F3"/>
<rect x="540" y="270" width="40" height="54" fill="#F3F3F3"/>
<rect x="156" y="270" width="40" height="54" fill="#F3F3F3"/>
<rect x="444" y="270" width="40" height="54" fill="#F3F3F3"/>
<rect x="300" y="270" width="40" height="54" fill="#F3F3F3"/>
<rect x="204" y="270" width="40" height="54" fill="#F3F3F3"/>
<rect x="492" y="270" width="40" height="54" fill="#F3F3F3"/>
<rect x="348" y="270" width="40" height="54" fill="#F3F3F3"/>
<rect x="60" y="270" width="40" height="54" fill="#F3F3F3"/>
<rect x="108" y="456" width="40" height="54" fill="#F3F3F3"/>
<rect x="396" y="456" width="40" height="54" fill="#F3F3F3"/>
<rect x="252" y="456" width="40" height="54" fill="#F3F3F3"/>
<rect x="540" y="456" width="40" height="54" fill="#F3F3F3"/>
<rect x="156" y="456" width="40" height="54" fill="#F3F3F3"/>
<rect x="444" y="456" width="40" height="54" fill="#F3F3F3"/>
<rect x="300" y="456" width="40" height="54" fill="#F3F3F3"/>
<rect x="204" y="456" width="40" height="54" fill="#F3F3F3"/>
<rect x="492" y="456" width="40" height="54" fill="#F3F3F3"/>
<rect x="348" y="456" width="40" height="54" fill="#F3F3F3"/>
<rect x="60" y="456" width="40" height="54" fill="#F3F3F3"/>
<rect x="108" y="332" width="40" height="54" fill="#F3F3F3"/>
<rect x="396" y="332" width="40" height="54" fill="#F3F3F3"/>
<rect x="252" y="332" width="40" height="54" fill="#F3F3F3"/>
<rect x="540" y="332" width="40" height="54" fill="#F3F3F3"/>
<rect x="156" y="332" width="40" height="54" fill="#F3F3F3"/>
<rect x="444" y="332" width="40" height="54" fill="#F3F3F3"/>
<rect x="300" y="332" width="40" height="54" fill="#F3F3F3"/>
<rect x="204" y="332" width="40" height="54" fill="#F3F3F3"/>
<rect x="492" y="332" width="40" height="54" fill="#F3F3F3"/>
<rect x="348" y="332" width="40" height="54" fill="#F3F3F3"/>
<rect x="60" y="332" width="40" height="54" fill="#F3F3F3"/>
<rect x="108" y="518" width="40" height="54" fill="#F3F3F3"/>
<rect x="396" y="518" width="40" height="54" fill="#F3F3F3"/>
<rect x="252" y="518" width="40" height="54" fill="#F3F3F3"/>
<rect x="540" y="518" width="40" height="54" fill="#F3F3F3"/>
<rect x="156" y="518" width="40" height="54" fill="#F3F3F3"/>
<rect x="444" y="518" width="40" height="54" fill="#F3F3F3"/>
<rect x="300" y="518" width="40" height="54" fill="#F3F3F3"/>
<rect x="204" y="518" width="40" height="54" fill="#F3F3F3"/>
<rect x="492" y="518" width="40" height="54" fill="#F3F3F3"/>
<rect x="348" y="518" width="40" height="54" fill="#F3F3F3"/>
<rect x="60" y="518" width="40" height="54" fill="#F3F3F3"/>
<rect x="108" y="580" width="40" height="54" fill="#F3F3F3"/>
<rect x="396" y="580" width="40" height="54" fill="#F3F3F3"/>
<rect x="252" y="580" width="40" height="54" fill="#F3F3F3"/>
<rect x="540" y="580" width="40" height="54" fill="#F3F3F3"/>
<rect x="156" y="580" width="40" height="54" fill="#F3F3F3"/>
<rect x="444" y="580" width="40" height="54" fill="#F3F3F3"/>
<rect x="300" y="580" width="40" height="54" fill="#F3F3F3"/>
<rect x="204" y="580" width="40" height="54" fill="#F3F3F3"/>
<rect x="492" y="580" width="40" height="54" fill="#F3F3F3"/>
<rect x="348" y="580" width="40" height="54" fill="#F3F3F3"/>
<rect x="60" y="580" width="40" height="54" fill="#F3F3F3"/>
<path d="M72.736 187.32C79.008 187.32 83.648 182.712 83.648 176.44C83.648 170.168 79.008 165.56 72.736 165.56C66.496 165.56 61.856 170.168 61.856 176.44C61.856 182.712 66.496 187.32 72.736 187.32ZM73.312 185.688C69.312 185.688 66.112 181.624 66.112 175.416C66.112 170.36 68.704 167.16 72.256 167.16C76.224 167.16 79.36 171.192 79.36 177.4C79.36 182.456 76.896 185.688 73.312 185.688ZM86.2985 177.944H86.8745L89.0825 174.008H91.7065V185.464L89.1145 186.488V187H97.9785V186.488L95.3865 185.464V174.008H98.0105L100.219 177.944H100.795V172.472H86.2985V177.944ZM114.363 187H119.771V186.488L117.723 185.4L111.739 178.328L116.987 174.104L119.163 172.984V172.472H112.955V172.984L114.107 174.136V174.328L108.539 179.128V174.008L110.523 172.984V172.472H102.747V172.984L104.827 174.008V185.464L102.747 186.488V187H110.523V186.488L108.539 185.464V179.736L113.275 185.336L114.363 187ZM122.875 194.712C123.963 194.712 125.243 194.072 126.107 192.856C127.067 191.512 127.195 191.032 127.803 189.528L134.171 174.072L136.475 172.984V172.472H130.299V172.984L132.411 174.072V174.232L129.339 182.232H129.179L125.339 174.072V173.944L127.579 172.984V172.472H119.227V172.984L121.275 173.912L127.451 186.904L126.491 189.112C125.403 191.576 124.955 191.672 123.387 191.672H121.947L121.787 191.832V193.784C121.787 194.488 121.915 194.712 122.875 194.712ZM137.836 185.464H136.076V191.032H136.652L138.988 187H148.716L151.052 191.032H151.628V185.464H149.356V174.008L151.468 172.984V172.472H137.644V172.984L139.756 174.008V174.456C139.756 177.272 139.436 182.168 137.836 185.464ZM145.676 185.464H139.66C141.068 182.2 141.388 177.336 141.388 174.456V174.008H145.676V185.464ZM157.677 187.32C159.501 187.32 161.101 186.424 162.189 185.24H162.413C162.861 186.52 163.853 187.32 165.453 187.32C167.117 187.32 168.173 186.488 168.685 185.656V185.336L168.589 185.24H167.533C166.701 185.24 166.189 185.048 165.901 184.728V175.992C165.901 173.208 163.405 172.152 160.589 172.152C159.085 172.152 157.805 172.664 156.429 173.528C155.213 174.264 154.509 175.256 154.509 176.184C154.509 176.952 154.733 177.144 155.373 177.144H157.293L157.453 177.016V175.768C157.453 174.488 157.965 173.72 159.469 173.72C160.973 173.72 162.189 174.84 162.189 176.408V178.52L159.181 179.256C155.277 180.216 154.061 181.56 154.029 183.768C153.997 186.008 155.629 187.32 157.677 187.32ZM157.549 182.968C157.549 181.464 158.221 180.536 162.189 179.736V184.44C161.293 184.824 160.589 184.984 159.789 184.984C158.381 184.984 157.549 184.312 157.549 182.968Z" fill="#F3F3F3"/>
<path d="M1152.9 113H1161.06V112.488L1158.5 111.208V91.88H1157.86L1150.18 96.68V97.8L1155.78 94.984V111.208L1152.9 112.488V113ZM1172.16 113.32C1176.8 113.32 1179.07 109.992 1179.07 106.728C1179.07 103.208 1176.86 100.584 1173.44 100.584C1171.23 100.584 1169.47 101.608 1168.35 103.208C1168.99 98.088 1172.22 94.12 1177.44 92.488V91.56C1169.89 93.672 1165.18 98.792 1165.18 105.512C1165.18 109.96 1167.97 113.32 1172.16 113.32ZM1168.22 105.224C1168.22 105.096 1168.22 105 1168.22 104.872C1169.09 103.56 1170.5 102.728 1172.19 102.728C1174.78 102.728 1176.13 104.264 1176.13 107.432C1176.13 109.672 1174.82 111.848 1172.22 111.848C1170.08 111.848 1168.22 109.992 1168.22 105.224ZM1184 102.184C1185.06 102.184 1185.95 101.288 1185.95 100.232C1185.95 99.176 1185.06 98.28 1184 98.28C1182.94 98.28 1182.05 99.176 1182.05 100.232C1182.05 101.288 1182.94 102.184 1184 102.184ZM1184 113.16C1185.06 113.16 1185.95 112.264 1185.95 111.208C1185.95 110.152 1185.06 109.256 1184 109.256C1182.94 109.256 1182.05 110.152 1182.05 111.208C1182.05 112.264 1182.94 113.16 1184 113.16ZM1195.81 113.32C1199.87 113.32 1203.26 110.536 1203.26 107.4C1203.26 104.36 1201.34 102.152 1197.5 101.544C1200.35 100.808 1202.14 98.792 1202.14 96.616C1202.14 93.768 1199.68 91.56 1196.38 91.56C1194.59 91.56 1193.44 92.008 1192 92.904C1190.43 93.832 1189.7 95.048 1189.7 96.136C1189.7 97.128 1190.11 97.256 1190.94 97.256H1192.29L1192.54 97V95.848C1192.54 94.152 1193.82 93 1195.68 93C1197.82 93 1199.04 94.152 1199.04 96.84C1199.04 99.688 1196.83 101.384 1193.79 101.384H1192.93V102.792H1194.82C1198.82 102.792 1200.13 104.616 1200.13 107.496C1200.13 110.088 1198.56 111.88 1195.87 111.88C1193.12 111.88 1191.9 110.792 1191.9 109.416V108.36L1191.68 108.136H1190.21C1189.44 108.136 1189.06 108.264 1189.06 109.16C1189.06 110.056 1189.66 110.952 1190.85 111.848C1192.19 112.872 1193.76 113.32 1195.81 113.32ZM1210.18 113H1218.34V112.488L1215.78 111.208V106.824H1219.58V104.68H1215.78V91.88H1215.14L1204.26 106.184V106.824H1213.06V111.208L1210.18 112.488V113ZM1207.3 104.68L1213.06 96.84V104.68H1207.3Z" fill="#F3F3F3"/>
<path d="M153.623 117.48C163.175 117.48 170.231 110.568 170.231 101.16C170.231 91.752 163.175 84.84 153.623 84.84C144.119 84.84 137.063 91.752 137.063 101.16C137.063 110.568 144.119 117.48 153.623 117.48ZM154.391 114.984C149.015 114.984 144.695 108.888 144.695 99.624C144.695 92.088 148.199 87.288 152.999 87.288C158.375 87.288 162.551 93.336 162.551 102.6C162.551 110.136 159.239 114.984 154.391 114.984ZM173.731 103.32H174.643L178.051 97.464H181.603V114.696L177.619 116.232V117H192.355V116.232L188.323 114.696V97.464H191.875L195.283 103.32H196.195V95.112H173.731V103.32ZM201.759 97.416V114.696L198.543 116.232V117H210.783V116.232L208.479 114.696V97.464H215.247V114.696L212.991 116.232V117H225.231V116.232L222.015 114.696V97.416L225.231 95.88V95.112H198.543V95.88L201.759 97.416ZM228.215 128.04H241.895V127.272L238.151 125.736V117.048C239.399 117.336 240.743 117.48 242.231 117.48C248.183 117.48 253.367 112.824 253.367 105.144C253.367 98.616 249.623 94.632 245.351 94.632C242.807 94.632 240.695 95.496 238.343 97.56H238.055L237.671 94.632H237.095L228.359 97.56V98.136L231.431 100.392V125.736L228.215 127.272V128.04ZM241.367 98.568C244.055 98.568 246.647 101.064 246.647 106.536C246.647 113.208 244.247 114.984 241.943 114.984C240.359 114.984 239.063 114.456 238.151 113.4V99.528C239.303 98.904 240.215 98.568 241.367 98.568ZM262.287 117.432C265.071 117.432 267.327 116.04 268.911 114.216H269.199C270.063 116.28 271.695 117.48 274.431 117.48C277.119 117.48 278.799 116.232 279.519 115.032V114.36L279.375 114.216H277.983C276.879 114.216 276.159 113.928 275.679 113.448V100.776C275.679 96.456 271.743 94.632 267.039 94.632C264.687 94.632 262.815 95.256 260.511 96.696C258.639 97.848 257.439 99.24 257.439 100.632C257.439 101.736 257.775 102.12 258.735 102.12H261.903L262.095 101.928V99.72C262.095 97.944 262.911 97.032 264.975 97.032C267.279 97.032 268.911 98.616 268.911 101.064V104.04L264.399 105.144C258.351 106.68 256.671 108.456 256.671 111.912C256.575 115.464 259.167 117.432 262.287 117.432ZM263.007 110.568C263.007 108.216 264.111 106.968 268.911 105.96V113.016C267.951 113.4 267.135 113.592 266.175 113.592C264.207 113.592 263.007 112.584 263.007 110.568ZM284.399 97.416V114.696L281.183 116.232V117H292.799C300.767 117 305.135 114.84 305.135 110.52C305.135 107.784 302.879 105.72 296.879 105.144C301.151 104.568 303.599 102.888 303.551 100.104C303.599 96.12 298.991 95.112 293.183 95.112H281.183V95.88L284.399 97.416ZM292.895 97.224C295.631 97.224 296.879 98.664 296.879 100.824C296.879 103.176 295.583 104.424 292.751 104.424H291.119V97.224H292.895ZM292.703 106.344C296.543 106.344 298.175 107.976 298.175 110.616C298.175 113.4 296.495 114.888 292.511 114.888H291.119V106.344H292.703ZM315.497 98.856V97.464H320.969V114.696L317.801 116.232V117H330.953V116.232L327.737 114.696V97.416L330.953 95.88V95.112H309.641V95.88L312.953 97.416V98.856C312.953 107.832 312.185 112.536 307.673 112.536H307.001L306.761 112.776V116.088C306.761 117.144 306.953 117.48 308.345 117.48C310.265 117.48 312.089 116.664 313.337 114.408C314.921 111.624 315.497 106.152 315.497 98.856ZM344.91 117.48C349.374 117.48 352.83 114.984 354.414 111.576V110.808H354.27C352.11 111.912 350.046 112.296 348.222 112.296C342.894 112.296 340.734 109.08 340.734 105.048V104.808H354.174L354.366 104.568C354.27 98.232 351.294 94.632 346.11 94.632C339.534 94.632 334.254 99.768 334.254 107.064C334.254 113.352 338.334 117.48 344.91 117.48ZM345.006 96.792C347.166 96.792 348.51 98.28 348.99 102.648H340.878C341.31 98.904 342.75 96.792 345.006 96.792ZM360.946 97.416V114.696L357.73 116.232V117H369.97V116.232L367.666 114.696V106.728H374.914V114.696L372.658 116.232V117H384.898V116.232L381.682 114.696V97.416L384.898 95.88V95.112H372.658V95.88L374.914 97.416V104.376H367.666V97.416L369.97 95.88V95.112H357.73V95.88L360.946 97.416ZM391.087 97.416V114.696L387.871 116.232V117H400.111V116.232L397.807 114.696V112.776L405.535 102.792V114.696L403.279 116.232V117H415.519V116.232L412.303 114.696V97.416L415.519 95.88V95.112H403.279V95.88L405.535 97.416V99.144L397.807 109.128V97.416L400.111 95.88V95.112H387.871V95.88L391.087 97.416ZM429.472 117.48C433.936 117.48 437.392 114.984 438.976 111.576V110.808H438.832C436.672 111.912 434.608 112.296 432.784 112.296C427.456 112.296 425.296 109.08 425.296 105.048V104.808H438.736L438.928 104.568C438.832 98.232 435.856 94.632 430.672 94.632C424.096 94.632 418.816 99.768 418.816 107.064C418.816 113.352 422.896 117.48 429.472 117.48ZM429.568 96.792C431.728 96.792 433.072 98.28 433.552 102.648H425.44C425.872 98.904 427.312 96.792 429.568 96.792Z" fill="#F3F3F3"/>
<path fill-rule="evenodd" clip-rule="evenodd" d="M73.0448 109.994L112.871 87L123.16 91.6805L100.402 104.82L100.399 104.821L90.23 126.621L84.2764 125.507L85.6074 113.361L77.6435 117.959L73.0448 109.994ZM82.0603 103.273L70.8745 98.3524L72.8863 92.6393L96.853 94.7327L82.0603 103.273ZM73.045 109.995L60 108.424L64.5988 116.389L77.6438 117.961L73.045 109.995Z" fill="#FDB62B"/>
</svg>
