<svg width="1280" height="744" viewBox="0 0 1280 744" fill="none" xmlns="http://www.w3.org/2000/svg">
<rect y="50" width="1280" height="644" fill="#162DFB"/>
<rect width="1280" height="744" fill="#162DFB"/>
<rect x="748" y="208" width="40" height="54" fill="#F3F3F3"/>
<rect x="1036" y="208" width="40" height="54" fill="#F3F3F3"/>
<rect x="892" y="208" width="40" height="54" fill="#F3F3F3"/>
<rect x="1180" y="208" width="40" height="54" fill="#F3F3F3"/>
<rect x="796" y="208" width="40" height="54" fill="#F3F3F3"/>
<rect x="1084" y="208" width="40" height="54" fill="#F3F3F3"/>
<rect x="940" y="208" width="40" height="54" fill="#F3F3F3"/>
<rect x="844" y="208" width="40" height="54" fill="#F3F3F3"/>
<rect x="1132" y="208" width="40" height="54" fill="#F3F3F3"/>
<rect x="988" y="208" width="40" height="54" fill="#F3F3F3"/>
<rect x="700" y="208" width="40" height="54" fill="#F3F3F3"/>
<rect x="748" y="394" width="40" height="54" fill="#F3F3F3"/>
<rect x="1036" y="394" width="40" height="54" fill="#F3F3F3"/>
<rect x="892" y="394" width="40" height="54" fill="#F3F3F3"/>
<rect x="1180" y="394" width="40" height="54" fill="#F3F3F3"/>
<rect x="796" y="394" width="40" height="54" fill="#F3F3F3"/>
<rect x="1084" y="394" width="40" height="54" fill="#F3F3F3"/>
<rect x="940" y="394" width="40" height="54" fill="#F3F3F3"/>
<rect x="844" y="394" width="40" height="54" fill="#F3F3F3"/>
<rect x="1132" y="394" width="40" height="54" fill="#F3F3F3"/>
<rect x="988" y="394" width="40" height="54" fill="#F3F3F3"/>
<rect x="700" y="394" width="40" height="54" fill="#F3F3F3"/>
<rect x="748" y="270" width="40" height="54" fill="#F3F3F3"/>
<rect x="1036" y="270" width="40" height="54" fill="#F3F3F3"/>
<rect x="892" y="270" width="40" height="54" fill="#F3F3F3"/>
<rect x="1180" y="270" width="40" height="54" fill="#F3F3F3"/>
<rect x="796" y="270" width="40" height="54" fill="#F3F3F3"/>
<rect x="1084" y="270" width="40" height="54" fill="#F3F3F3"/>
<rect x="940" y="270" width="40" height="54" fill="#F3F3F3"/>
<rect x="844" y="270" width="40" height="54" fill="#F3F3F3"/>
<rect x="1132" y="270" width="40" height="54" fill="#F3F3F3"/>
<rect x="988" y="270" width="40" height="54" fill="#F3F3F3"/>
<rect x="700" y="270" width="40" height="54" fill="#F3F3F3"/>
<rect x="748" y="456" width="40" height="54" fill="#F3F3F3"/>
<rect x="1036" y="456" width="40" height="54" fill="#F3F3F3"/>
<rect x="892" y="456" width="40" height="54" fill="#F3F3F3"/>
<rect x="1180" y="456" width="40" height="54" fill="#F3F3F3"/>
<rect x="796" y="456" width="40" height="54" fill="#F3F3F3"/>
<rect x="1084" y="456" width="40" height="54" fill="#F3F3F3"/>
<rect x="940" y="456" width="40" height="54" fill="#F3F3F3"/>
<rect x="844" y="456" width="40" height="54" fill="#F3F3F3"/>
<rect x="1132" y="456" width="40" height="54" fill="#F3F3F3"/>
<rect x="988" y="456" width="40" height="54" fill="#F3F3F3"/>
<rect x="700" y="456" width="40" height="54" fill="#F3F3F3"/>
<rect x="748" y="332" width="40" height="54" fill="#F3F3F3"/>
<rect x="1036" y="332" width="40" height="54" fill="#F3F3F3"/>
<rect x="892" y="332" width="40" height="54" fill="#F3F3F3"/>
<rect x="1180" y="332" width="40" height="54" fill="#F3F3F3"/>
<rect x="796" y="332" width="40" height="54" fill="#F3F3F3"/>
<rect x="1084" y="332" width="40" height="54" fill="#F3F3F3"/>
<rect x="940" y="332" width="40" height="54" fill="#F3F3F3"/>
<rect x="844" y="332" width="40" height="54" fill="#F3F3F3"/>
<rect x="1132" y="332" width="40" height="54" fill="#F3F3F3"/>
<rect x="988" y="332" width="40" height="54" fill="#F3F3F3"/>
<rect x="700" y="332" width="40" height="54" fill="#F3F3F3"/>
<rect x="748" y="518" width="40" height="54" fill="#F3F3F3"/>
<rect x="1036" y="518" width="40" height="54" fill="#F3F3F3"/>
<rect x="892" y="518" width="40" height="54" fill="#F3F3F3"/>
<rect x="1180" y="518" width="40" height="54" fill="#F3F3F3"/>
<rect x="796" y="518" width="40" height="54" fill="#F3F3F3"/>
<rect x="1084" y="518" width="40" height="54" fill="#F3F3F3"/>
<rect x="940" y="518" width="40" height="54" fill="#F3F3F3"/>
<rect x="844" y="518" width="40" height="54" fill="#F3F3F3"/>
<rect x="1132" y="518" width="40" height="54" fill="#F3F3F3"/>
<rect x="988" y="518" width="40" height="54" fill="#F3F3F3"/>
<rect x="700" y="518" width="40" height="54" fill="#F3F3F3"/>
<rect x="748" y="580" width="40" height="54" fill="#F3F3F3"/>
<rect x="1036" y="580" width="40" height="54" fill="#F3F3F3"/>
<rect x="892" y="580" width="40" height="54" fill="#F3F3F3"/>
<rect x="1180" y="580" width="40" height="54" fill="#F3F3F3"/>
<rect x="796" y="580" width="40" height="54" fill="#F3F3F3"/>
<rect x="1084" y="580" width="40" height="54" fill="#F3F3F3"/>
<rect x="940" y="580" width="40" height="54" fill="#F3F3F3"/>
<rect x="844" y="580" width="40" height="54" fill="#F3F3F3"/>
<rect x="1132" y="580" width="40" height="54" fill="#F3F3F3"/>
<rect x="988" y="580" width="40" height="54" fill="#F3F3F3"/>
<rect x="700" y="580" width="40" height="54" fill="#F3F3F3"/>
<path d="M706.445 245.222H712.333L712.429 244.742L710.189 244.23L713.677 226.086L717.837 245.382H718.445L729.165 226.214L726.733 244.23L724.525 244.742L724.397 245.222H730.349L730.445 244.742L728.525 244.198L730.925 225.19L733.453 224.55L733.549 224.102H729.165L719.053 242.278L715.021 224.102H710.573L710.477 224.518L712.877 225.19L708.909 244.198L706.573 244.742L706.445 245.222Z" fill="#162DFB"/>
<path d="M766.672 245.542C770.992 245.542 774.064 240.71 774.064 236.198C774.064 232.838 772.304 230.502 769.328 230.502C765.36 230.502 761.936 234.662 761.936 239.91C761.936 243.206 763.696 245.542 766.672 245.542ZM767.184 244.806C764.72 244.806 763.44 242.63 763.44 239.558C763.44 234.982 765.744 231.206 768.848 231.206C771.344 231.206 772.56 233.35 772.56 236.326C772.56 241.062 770.192 244.806 767.184 244.806Z" fill="#162DFB"/>
<path d="M815.2 245.542C817.984 245.542 820.032 243.174 820.864 240.934L820.672 240.774H820.608C819.456 242.982 817.888 244.518 815.872 244.518C813.536 244.518 811.936 242.822 811.936 239.686C811.936 234.374 814.656 231.206 817.824 231.206C819.36 231.206 820.032 232.07 820.704 233.318L820.96 233.798H821.088L821.92 233.254C822.112 233.126 822.208 232.966 822.208 232.774C822.208 232.454 821.952 232.038 821.504 231.622C820.832 231.046 819.744 230.502 818.208 230.502C814.496 230.502 810.592 235.11 810.592 240.102C810.592 243.238 812.064 245.542 815.2 245.542Z" fill="#162DFB"/>
<path d="M866.737 245.542C867.953 245.542 869.137 244.006 870.097 241.606L869.649 241.446C868.881 243.27 867.921 244.07 867.313 244.07C866.673 244.07 866.449 243.59 865.329 241.734L862.353 236.87L865.521 233.478C866.577 232.358 867.281 231.878 867.953 231.878C868.337 231.878 868.785 232.07 869.105 232.262L869.393 232.422H869.457L869.905 231.59C870.097 231.206 870.033 230.918 869.777 230.758C869.521 230.598 869.265 230.502 868.785 230.502C867.345 230.502 865.969 232.294 861.105 237.318V237.478L864.177 242.694C865.553 245.062 865.937 245.542 866.737 245.542ZM858.097 245.222H859.537L862.161 230.502H861.905L858.449 231.27V231.59L860.465 231.878L858.097 245.222Z" fill="#162DFB"/>
<path d="M916.983 240.774C916.983 238.822 915.639 237.478 912.695 237.286C916.151 236.166 917.335 234.502 917.335 232.998C917.335 231.782 916.311 230.502 914.039 230.502C910.327 230.502 906.327 235.11 906.327 240.102C906.327 243.238 907.799 245.542 911.127 245.542C914.647 245.542 916.983 243.206 916.983 240.774ZM913.559 231.206C915.063 231.206 915.767 232.038 915.767 233.126C915.767 235.174 914.231 236.71 910.743 237.318L907.799 237.83C908.375 233.862 910.807 231.206 913.559 231.206ZM911.671 244.838C909.335 244.838 907.671 243.014 907.671 239.686C907.671 239.206 907.703 238.758 907.735 238.342C908.439 238.182 909.207 238.054 910.039 237.894C910.839 237.734 911.639 237.638 912.247 237.638C914.199 237.638 915.383 239.046 915.383 240.838C915.383 243.11 914.327 244.838 911.671 244.838Z" fill="#162DFB"/>
<path d="M956.415 245.542C958.303 245.542 959.775 244.326 962.143 241.67H962.207L962.111 242.182C961.663 244.774 962.239 245.542 963.263 245.542C964.575 245.542 965.887 244.39 967.007 241.606L966.559 241.446C965.823 243.142 964.927 244.07 964.095 244.07C963.423 244.07 963.295 243.462 963.647 241.414L965.503 230.822H965.279L964.607 231.526C963.839 230.982 962.719 230.502 961.759 230.502C957.375 230.502 953.343 236.582 953.343 241.446C953.343 244.102 954.687 245.542 956.415 245.542ZM954.815 241.19C954.815 236.39 957.279 231.334 961.055 231.334C962.367 231.334 963.103 231.782 963.807 232.326L962.335 240.87C960.735 242.694 958.911 244.39 957.055 244.39C955.711 244.39 954.815 243.27 954.815 241.19Z" fill="#162DFB"/>
<path d="M709.94 430.823H719.06C725.172 430.823 728.276 427.527 728.276 424.391C728.276 421.799 726.58 420.039 723.188 419.495C726.324 418.695 728.148 416.423 728.148 414.151C728.148 411.175 725.396 409.703 721.14 409.703H713.652L713.556 410.215L715.796 411.495L712.724 429.031L710.036 430.311L709.94 430.823ZM720.724 411.335C723.572 411.335 724.692 412.519 724.692 414.759C724.692 417.255 722.964 419.143 719.444 419.143H717.652L719.028 411.335H720.724ZM719.924 420.711C723.316 420.711 724.756 421.863 724.756 424.391C724.756 427.207 722.932 429.191 719.092 429.191H715.892L717.364 420.711H719.924Z" fill="#162DFB"/>
<path d="M764.022 431.142C766.006 431.142 767.702 429.734 769.366 427.27H769.462L769.398 427.622C769.014 429.798 769.686 431.142 771.382 431.142C773.046 431.142 774.486 429.67 775.734 426.47L775.254 426.278C774.486 427.942 773.654 428.646 772.95 428.646C772.374 428.646 772.246 428.134 772.438 426.95L774.358 416.102H773.622L772.374 416.806C771.606 416.358 770.582 416.038 769.494 416.038C765.142 416.038 761.142 421.254 761.142 426.79C761.142 429.67 762.326 431.142 764.022 431.142ZM764.118 425.414C764.118 421.318 765.878 417.35 768.502 417.35C769.59 417.35 770.262 417.83 770.966 418.758L769.75 425.638C768.694 427.206 767.254 428.774 765.878 428.774C764.502 428.774 764.118 427.718 764.118 425.414Z" fill="#162DFB"/>
<path d="M808.633 431.142C810.521 431.142 811.609 430.214 813.625 427.846H813.785C813.785 429.83 814.937 431.142 816.569 431.142C818.489 431.142 819.545 430.214 821.561 427.846H821.625C821.305 429.798 821.945 431.142 823.641 431.142C825.305 431.142 826.745 429.67 827.993 426.47L827.513 426.278C826.745 427.942 825.913 428.646 825.209 428.646C824.601 428.646 824.441 428.134 824.665 426.95L826.585 416.038H826.457L821.177 417.062V417.318L823.257 418.406L821.881 426.438C820.953 427.494 819.673 428.966 818.521 428.966C817.305 428.966 816.793 428.102 816.793 426.982C816.793 426.758 816.825 426.438 816.921 425.862L818.617 416.038H818.489L813.273 417.062V417.318L815.321 418.406L813.913 426.406L813.881 426.47C812.985 427.558 811.705 428.966 810.585 428.966C809.369 428.966 808.857 428.102 808.857 426.982C808.857 426.758 808.889 426.438 808.985 425.862L810.681 416.038H810.553L805.017 417.062V417.318L807.385 418.406L805.977 426.406C805.913 426.854 805.849 427.27 805.849 427.654C805.849 429.83 807.001 431.142 808.633 431.142Z" fill="#162DFB"/>
<path d="M860.524 431.142C862.476 431.142 863.5 430.246 865.644 427.846H865.708C865.388 429.798 866.028 431.142 867.724 431.142C869.388 431.142 870.828 429.67 872.076 426.47L871.596 426.278C870.828 427.942 869.996 428.646 869.292 428.646C868.684 428.646 868.524 428.134 868.748 426.95L870.668 416.038H870.54L865.26 417.062V417.318L867.34 418.406L865.964 426.438C865.004 427.526 863.66 428.966 862.476 428.966C861.26 428.966 860.748 428.102 860.748 426.982C860.748 426.758 860.78 426.438 860.876 425.862L862.572 416.038H862.444L856.908 417.062V417.318L859.276 418.406L857.868 426.406C857.804 426.854 857.74 427.27 857.74 427.654C857.74 429.83 858.892 431.142 860.524 431.142Z" fill="#162DFB"/>
<path d="M904.812 430.822H907.724L908.876 424.166L914.412 423.846L913.772 427.622C913.388 429.798 914.028 431.142 915.724 431.142C917.388 431.142 918.86 429.67 920.076 426.47L919.596 426.278C918.828 427.942 917.996 428.646 917.292 428.646C916.684 428.646 916.524 428.134 916.748 426.95L918.668 416.038H918.54L913.26 417.062V417.318L915.34 418.406L914.668 422.406L909.1 422.758L910.252 416.038H910.156L904.62 417.062V417.318L906.988 418.406L904.812 430.822Z" fill="#162DFB"/>
<path d="M959.05 431.142C961.098 431.142 962.538 430.854 964.234 430.022L964.874 426.406H964.394L963.05 428.134C962.122 429.318 960.906 429.926 959.402 429.926C957.898 429.926 957.194 429.094 957.194 427.942C957.194 426.406 958.73 425.542 960.458 424.614C962.794 423.43 965.578 422.278 965.578 419.462C965.578 417.19 963.786 416.038 961.258 416.038C959.434 416.038 957.866 416.39 956.362 417.094L955.754 420.678H956.202L957.546 419.046C958.506 417.862 959.562 417.35 960.618 417.35C961.93 417.35 962.698 417.99 962.698 419.27C962.698 420.934 960.842 421.83 958.922 422.79C956.682 423.91 954.218 425.094 954.218 427.718C954.218 430.15 956.49 431.142 959.05 431.142Z" fill="#162DFB"/>
<path d="M1096.81 430.822H1099.72L1100.88 424.166L1106.41 423.846L1105.77 427.622C1105.39 429.798 1106.03 431.142 1107.72 431.142C1109.39 431.142 1110.86 429.67 1112.08 426.47L1111.6 426.278C1110.83 427.942 1110 428.646 1109.29 428.646C1108.68 428.646 1108.52 428.134 1108.75 426.95L1110.67 416.038H1110.54L1105.26 417.062V417.318L1107.34 418.406L1106.67 422.406L1101.1 422.758L1102.25 416.038H1102.16L1096.62 417.062V417.318L1098.99 418.406L1096.81 430.822Z" fill="#162DFB"/>
<path d="M996.75 430.822H999.661L1001.39 420.806C1002.35 419.686 1003.69 418.214 1005.01 418.214C1006.57 418.214 1006.96 419.494 1006.73 420.902L1004.94 430.822H1007.89L1009.68 420.774V420.742C1010.64 419.622 1011.98 418.214 1013.23 418.214C1014.8 418.214 1015.21 419.494 1014.96 420.902L1013.77 427.622C1013.39 429.798 1014.06 431.142 1015.76 431.142C1017.42 431.142 1018.86 429.67 1020.11 426.47L1019.63 426.278C1018.86 427.942 1018.03 428.646 1017.33 428.646C1016.75 428.646 1016.62 428.134 1016.81 426.95L1017.93 420.774C1018.45 417.894 1017.17 416.038 1015.18 416.038C1013.1 416.038 1012.14 416.902 1009.97 419.334H1009.77C1009.71 417.286 1008.56 416.038 1006.93 416.038C1004.88 416.038 1003.92 416.902 1001.74 419.334H1001.58V416.038H1001.49L996.558 417.062V417.318L998.926 418.406L996.75 430.822Z" fill="#162DFB"/>
<path d="M1056 431.142C1060.26 431.142 1063.17 427.846 1063.17 423.59C1063.17 419.334 1060.26 416.07 1056 416.07C1051.71 416.07 1048.8 419.334 1048.8 423.59C1048.8 427.846 1051.71 431.142 1056 431.142ZM1056.42 429.734C1053.38 429.734 1052.1 426.342 1052.1 422.918C1052.1 420.102 1053.18 417.446 1055.65 417.446C1058.66 417.446 1059.87 420.838 1059.87 424.23C1059.87 427.014 1058.85 429.734 1056.42 429.734Z" fill="#162DFB"/>
<path d="M719.759 554.876C722.703 554.876 725.103 554.236 726.895 553.212L728.175 547.804H727.631L724.143 552.188C723.055 552.828 721.839 553.276 720.559 553.276C717.455 553.276 715.503 550.62 715.503 546.428C715.503 539.932 718.639 534.62 723.279 534.62C724.527 534.62 725.263 534.94 725.999 535.58L728.079 540.636H728.623L729.263 534.652C727.599 533.692 726.255 533.116 723.727 533.116C716.655 533.116 710.895 539.26 710.895 546.236C710.895 551.26 714.255 554.876 719.759 554.876Z" fill="#162DFB"/>
<path d="M774.68 554.876C776.728 554.876 778.232 553.084 779.416 549.916L778.808 549.724C778.04 551.388 777.336 552.028 776.696 552.028C776.12 552.028 775.96 551.484 776.12 550.524L778.04 539.644H777.944L771.704 540.796V541.18L773.496 542.268L772.056 550.524C771.576 553.34 772.568 554.876 774.68 554.876ZM759.672 542.268L758.488 548.988C757.88 552.54 759.512 554.876 763.704 554.876C768.024 554.876 770.904 552.54 770.904 549.564C770.904 546.876 768.696 545.308 764.664 545.308H763.224L764.216 539.644H764.088L757.56 540.796V541.18L759.672 542.268ZM762.488 549.596L763 546.588H763.8C765.688 546.588 766.488 547.772 766.488 549.596C766.488 551.836 765.4 553.532 763.864 553.532C762.36 553.532 762.04 552.028 762.488 549.596Z" fill="#162DFB"/>
<path d="M808.808 554.556H812.936L814.152 547.356V547.388L816.808 551.964C817.736 553.564 818.312 554.876 820.136 554.876C821.96 554.876 823.112 553.468 824.104 549.948L823.496 549.756C822.952 551.42 822.472 552.028 821.8 552.028C821.192 552.028 820.936 551.516 820.36 550.556L817.32 545.34L818.824 543.708C819.56 542.876 820.2 542.556 820.872 542.556C821.448 542.556 821.768 542.684 822.056 542.812L822.568 543.004L822.696 542.972L823.528 540.86C823.688 540.476 823.496 540.156 823.208 539.932C822.984 539.772 822.632 539.644 822.12 539.644C820.488 539.644 818.824 541.436 814.184 547.196L815.432 539.644H815.336L808.84 540.796V541.18L810.952 542.268L808.808 554.556Z" fill="#162DFB"/>
<path d="M852.073 554.556H856.201L857.929 544.284C858.761 543.324 859.753 542.332 860.777 542.332C862.057 542.332 862.377 543.356 862.153 544.508L860.361 554.556H864.489L866.249 544.38C866.281 544.316 866.281 544.22 866.313 544.156C867.113 543.26 868.105 542.332 869.097 542.332C870.345 542.332 870.633 543.356 870.441 544.508L869.385 550.524C868.873 553.34 869.897 554.876 872.009 554.876C874.057 554.876 875.561 553.084 876.745 549.916L876.137 549.724C875.369 551.388 874.665 552.028 874.025 552.028C873.481 552.028 873.321 551.484 873.481 550.524L874.569 544.38C875.081 541.468 873.737 539.644 871.593 539.644C869.577 539.644 868.617 540.476 866.537 542.78H866.345C866.217 540.828 865.033 539.644 863.305 539.644C861.257 539.644 860.393 540.476 858.313 542.78H858.121V539.644H858.025L852.105 540.796V541.18L854.217 542.268L852.073 554.556Z" fill="#162DFB"/>
<path d="M918.68 554.876C920.728 554.876 922.232 553.084 923.416 549.916L922.808 549.724C922.04 551.388 921.336 552.028 920.696 552.028C920.12 552.028 919.96 551.484 920.12 550.524L922.04 539.644H921.944L915.704 540.796V541.18L917.496 542.268L916.056 550.524C915.576 553.34 916.568 554.876 918.68 554.876ZM903.672 542.268L902.488 548.988C901.88 552.54 903.512 554.876 907.704 554.876C912.024 554.876 914.904 552.54 914.904 549.564C914.904 546.876 912.696 545.308 908.664 545.308H907.224L908.216 539.644H908.088L901.56 540.796V541.18L903.672 542.268ZM906.488 549.596L907 546.588H907.8C909.688 546.588 910.488 547.772 910.488 549.596C910.488 551.836 909.4 553.532 907.864 553.532C906.36 553.532 906.04 552.028 906.488 549.596Z" fill="#162DFB"/>
<path d="M966.198 549.66C966.198 547.836 964.918 546.428 962.454 546.396C965.366 545.596 966.742 544.348 966.742 542.492C966.742 541.052 965.462 539.644 962.198 539.644C956.79 539.644 953.526 544.38 953.526 549.34C953.526 552.764 955.798 554.876 959.414 554.876C963.03 554.876 966.198 552.54 966.198 549.66ZM961.462 541.02C962.294 541.02 962.71 541.532 962.71 542.428C962.71 544.092 961.846 545.724 959.158 546.3L957.846 546.556C958.358 543.26 959.606 541.02 961.462 541.02ZM959.446 553.468C958.102 553.468 957.558 552.06 957.558 550.364C957.558 549.5 957.59 548.636 957.686 547.836L958.838 547.612C959.286 547.516 959.67 547.484 960.054 547.484C961.43 547.484 962.07 548.38 962.07 549.788C962.07 551.58 961.046 553.468 959.446 553.468Z" fill="#162DFB"/>
<path d="M1000.81 554.556H1004.94L1006.15 547.356V547.388L1008.81 551.964C1009.74 553.564 1010.31 554.876 1012.14 554.876C1013.96 554.876 1015.11 553.468 1016.1 549.948L1015.5 549.756C1014.95 551.42 1014.47 552.028 1013.8 552.028C1013.19 552.028 1012.94 551.516 1012.36 550.556L1009.32 545.34L1010.82 543.708C1011.56 542.876 1012.2 542.556 1012.87 542.556C1013.45 542.556 1013.77 542.684 1014.06 542.812L1014.57 543.004L1014.7 542.972L1015.53 540.86C1015.69 540.476 1015.5 540.156 1015.21 539.932C1014.98 539.772 1014.63 539.644 1014.12 539.644C1012.49 539.644 1010.82 541.436 1006.18 547.196L1007.43 539.644H1007.34L1000.84 540.796V541.18L1002.95 542.268L1000.81 554.556Z" fill="#162DFB"/>
<path d="M1051.52 554.876C1053.5 554.876 1054.98 553.756 1056.8 551.292H1056.9C1056.67 553.628 1057.66 554.876 1059.58 554.876C1061.63 554.876 1063.14 553.084 1064.32 549.916L1063.74 549.724C1062.98 551.388 1062.24 552.028 1061.6 552.028C1061.06 552.028 1060.9 551.484 1061.06 550.524L1062.94 539.836H1062.3L1060.7 540.476C1060 539.964 1059.01 539.644 1057.86 539.644C1053.34 539.644 1048.54 544.572 1048.54 550.716C1048.54 553.404 1049.76 554.876 1051.52 554.876ZM1052.8 548.988C1052.8 544.892 1054.4 541.116 1056.7 541.116C1057.44 541.116 1057.98 541.404 1058.46 541.916L1057.15 549.596C1056.26 550.844 1055.23 551.932 1054.14 551.932C1053.12 551.932 1052.8 551.036 1052.8 548.988Z" fill="#162DFB"/>
<path d="M1093.92 561.916H1102.65V561.404L1099.96 560.412L1100.96 554.62C1101.56 554.78 1102.24 554.876 1102.97 554.876C1107.45 554.876 1111.29 549.948 1111.29 544.284C1111.29 541.308 1109.98 539.644 1108.06 539.644C1106.08 539.644 1104.92 540.668 1103.07 543.132H1102.88V539.644H1102.78L1096.89 540.796V541.18L1098.97 542.268L1095.77 560.444L1093.92 561.404V561.916ZM1105.66 542.588C1106.78 542.588 1107.13 543.644 1107.13 545.34C1107.13 549.884 1105.44 553.532 1103.23 553.532C1102.33 553.532 1101.79 553.02 1101.37 552.156L1102.62 544.86C1103.45 543.708 1104.57 542.588 1105.66 542.588Z" fill="#162DFB"/>
<path d="M706.899 616.422H717.171L717.267 615.91L715.251 614.566L718.323 597.062H724.819L721.747 614.566L719.251 615.91L719.155 616.422H729.395L729.491 615.91L727.219 614.566L730.291 597.158L733.011 595.814L733.107 595.302H710.611L710.515 595.814L712.851 597.158L709.779 614.566L706.995 615.91L706.899 616.422Z" fill="#162DFB"/>
<path d="M756.875 623.782H766.827V623.27L764.075 622.214L765.067 616.55C765.643 616.678 766.251 616.742 766.923 616.742C771.531 616.742 775.499 612.102 775.499 606.15C775.499 603.174 774.059 601.382 772.011 601.382C769.995 601.382 769.259 602.086 767.275 604.518H767.019V601.382H766.923L760.139 602.662V603.174L761.995 604.23L758.827 622.246L756.875 623.27V623.782ZM769.035 604.87C769.899 604.87 770.219 605.862 770.219 607.11C770.219 611.942 768.587 615.334 766.731 615.334C766.091 615.334 765.675 614.95 765.451 614.278L766.795 606.31C767.435 605.51 768.203 604.87 769.035 604.87Z" fill="#162DFB"/>
<path d="M810.426 616.742C812.442 616.742 813.658 615.91 815.642 613.414H815.834C815.93 615.654 817.146 616.742 819.162 616.742C821.562 616.742 823.098 614.662 824.25 611.526L823.546 611.302C822.778 613.03 822.17 613.574 821.594 613.574C821.082 613.574 820.89 612.998 821.018 612.23L822.842 601.702H822.33L820.346 602.278C819.706 601.702 818.746 601.382 817.53 601.382C812.922 601.382 807.354 606.054 807.354 612.742C807.354 615.27 808.634 616.742 810.426 616.742ZM812.794 610.726C812.794 606.598 814.234 602.982 816.25 602.982C816.698 602.982 817.082 603.11 817.37 603.302L815.962 611.622V611.686C815.194 612.646 814.554 613.254 813.786 613.254C813.082 613.254 812.794 612.518 812.794 610.726Z" fill="#162DFB"/>
<path d="M862.497 616.742C864.481 616.742 866.273 616.422 867.937 615.526L868.609 611.75H868.097L866.625 613.382C865.601 614.534 864.321 615.142 863.137 615.142C862.113 615.142 861.665 614.694 861.665 613.766C861.665 612.358 863.169 611.59 864.833 610.662C866.881 609.542 869.217 608.23 869.217 605.35C869.217 602.758 867.489 601.382 864.257 601.382C862.881 601.382 860.609 601.574 859.169 602.278L858.465 606.278H858.977L860.193 604.902C861.345 603.59 862.401 602.95 863.489 602.95C864.385 602.95 864.833 603.494 864.833 604.326C864.833 605.702 863.073 606.566 861.249 607.558C859.137 608.71 856.929 610.086 856.929 612.87C856.929 615.366 858.657 616.742 862.497 616.742Z" fill="#162DFB"/>
<path d="M905.803 616.742C907.819 616.742 909.035 615.91 911.019 613.414H911.211C911.307 615.654 912.523 616.742 914.539 616.742C916.939 616.742 918.475 614.662 919.627 611.526L918.923 611.302C918.155 613.03 917.547 613.574 916.971 613.574C916.459 613.574 916.267 612.998 916.395 612.23L918.219 601.702H917.707L915.723 602.278C915.083 601.702 914.123 601.382 912.907 601.382C908.299 601.382 902.731 606.054 902.731 612.742C902.731 615.27 904.011 616.742 905.803 616.742ZM908.171 610.726C908.171 606.598 909.611 602.982 911.627 602.982C912.075 602.982 912.459 603.11 912.747 603.302L911.339 611.622V611.686C910.571 612.646 909.931 613.254 909.163 613.254C908.459 613.254 908.171 612.518 908.171 610.726Z" fill="#162DFB"/>
<path d="M718.361 493.009C725.593 493.009 730.681 487.089 730.681 480.433C730.681 474.993 727.257 471.217 721.593 471.217C714.585 471.217 709.273 477.073 709.273 483.825C709.273 489.265 712.697 493.009 718.361 493.009ZM719.097 491.409C715.577 491.409 713.433 488.369 713.433 483.985C713.433 477.841 716.633 472.785 720.985 472.785C724.569 472.785 726.553 475.825 726.553 480.209C726.553 486.289 723.513 491.409 719.097 491.409Z" fill="#162DFB"/>
<path d="M765.871 478.161H760.335L760.239 478.673L762.255 479.697L762.127 480.593C761.039 486.865 759.983 490.001 757.423 490.001H756.943L756.783 490.161L756.431 492.081C756.303 492.785 756.399 493.009 757.327 493.009C760.303 493.009 761.839 489.809 763.279 482.097L765.551 492.689H766.607L773.263 482.001L772.047 489.009C771.599 491.569 772.463 493.009 774.383 493.009C776.271 493.009 777.743 491.345 778.959 488.177L778.415 487.985C777.647 489.649 776.879 490.321 776.207 490.321C775.631 490.321 775.471 489.777 775.663 488.721L777.519 478.161H773.935L768.015 487.569H767.855L765.871 478.161Z" fill="#162DFB"/>
<path d="M815.319 493.009C817.975 493.009 820.055 490.961 821.719 488.049L821.271 487.665H821.207C819.479 489.649 818.263 490.065 817.079 490.065C815.063 490.065 813.879 488.529 813.879 485.937C813.879 482.449 815.735 479.249 817.623 479.249C818.743 479.249 819.159 479.697 819.863 480.913L820.535 482.065H820.727L822.039 481.137C822.391 480.881 822.519 480.561 822.519 480.241C822.519 479.985 822.487 479.793 822.231 479.409C821.591 478.449 820.471 477.841 818.743 477.841C814.359 477.841 810.263 482.737 810.263 487.441C810.263 491.025 811.927 493.009 815.319 493.009Z" fill="#162DFB"/>
<path d="M868.051 493.009C869.683 493.009 870.739 491.633 871.795 488.177L871.283 488.017C870.675 489.649 870.163 490.321 869.459 490.321C868.851 490.321 868.595 489.841 867.987 488.849L864.883 483.697L866.739 481.681C867.475 480.913 868.051 480.561 868.755 480.561C869.331 480.561 869.651 480.689 869.907 480.785L870.419 481.009L870.579 480.913L871.315 479.057C871.475 478.673 871.283 478.353 870.995 478.129C870.771 477.969 870.419 477.841 869.907 477.841C868.339 477.841 866.675 479.601 862.003 485.297V485.457L864.819 490.097C865.779 491.697 866.355 493.009 868.051 493.009ZM857.075 492.689H860.723L863.219 477.841H863.123L857.043 478.929V479.249L859.251 480.337L857.075 492.689Z" fill="#162DFB"/>
<path d="M711.086 307.089H718.766C723.886 307.089 727.246 304.177 727.246 300.817C727.246 298.257 725.646 296.497 722.478 295.921C725.486 295.057 727.246 292.753 727.246 290.481C727.246 287.441 724.75 285.969 720.782 285.969H714.798L714.702 286.449L716.91 287.313L713.678 305.713L711.182 306.609L711.086 307.089ZM720.75 287.249C723.63 287.249 724.942 288.465 724.942 290.833C724.942 293.457 723.054 295.569 719.47 295.569H717.646L719.086 287.249H720.75ZM719.854 296.817C723.15 296.817 724.942 298.033 724.942 300.849C724.942 303.761 722.958 305.841 718.958 305.841H715.822L717.422 296.817H719.854Z" fill="#162DFB"/>
<path d="M908.769 307.409C910.593 307.409 911.777 306.449 913.953 303.985H914.081L914.049 304.145C913.665 306.385 914.241 307.409 915.489 307.409C916.865 307.409 918.241 306.161 919.425 303.185L918.977 303.025C918.241 304.689 917.345 305.553 916.545 305.553C915.905 305.553 915.777 304.945 916.065 303.281L917.985 292.369H917.793L913.569 293.233V293.489L915.809 294.161L914.273 302.865C912.961 304.337 911.425 305.905 909.889 305.905C908.545 305.905 908.033 305.009 908.033 303.825C908.033 303.505 908.097 303.121 908.193 302.609L909.953 292.369H909.761L905.569 293.233V293.489L907.809 294.161L906.273 302.673C906.177 303.217 906.113 303.729 906.113 304.177C906.113 306.257 907.105 307.409 908.769 307.409Z" fill="#162DFB"/>
<path d="M771.095 307.409C772.471 307.409 773.847 306.161 775.031 303.185L774.615 303.025C773.847 304.689 772.951 305.553 772.151 305.553C771.511 305.553 771.383 304.945 771.671 303.281L773.527 292.689H764.119L764.023 293.137L766.039 293.905L765.911 294.705C764.823 300.657 763.767 305.265 760.823 305.265H760.439L760.247 305.457L760.087 306.481C759.959 307.185 760.119 307.409 760.855 307.409C762.007 307.409 763.063 306.673 763.927 305.265C765.239 303.281 766.071 299.633 766.967 294.673L767.159 293.745H771.511L769.655 304.145C769.271 306.385 769.847 307.409 771.095 307.409Z" fill="#162DFB"/>
<path d="M965.037 302.481C965.037 300.593 963.661 299.249 960.845 299.249C964.045 298.225 965.485 296.689 965.485 294.897C965.485 293.585 964.429 292.369 962.189 292.369C958.061 292.369 954.253 297.137 954.253 302.129C954.253 305.585 955.949 307.409 959.085 307.409C962.381 307.409 965.037 305.169 965.037 302.481ZM961.517 293.265C962.861 293.265 963.533 294.001 963.533 295.121C963.533 297.041 962.253 298.481 958.829 299.089L956.237 299.537C956.845 295.665 958.957 293.265 961.517 293.265ZM959.437 306.481C957.261 306.481 956.077 304.721 956.077 301.905C956.077 301.393 956.109 300.849 956.141 300.369C956.781 300.241 958.029 300.017 958.445 299.921C959.085 299.825 959.693 299.761 960.173 299.761C962.029 299.761 963.021 301.009 963.021 302.641C963.021 304.785 961.805 306.481 959.437 306.481Z" fill="#162DFB"/>
<path d="M1093.3 307.089H1095.19L1096.95 296.945C1098.26 295.473 1099.8 293.873 1101.4 293.873C1103.12 293.873 1103.48 295.249 1103.16 296.977L1101.4 307.089H1103.25L1105.04 297.105L1105.08 296.913C1106.42 295.441 1107.92 293.873 1109.49 293.873C1111.25 293.873 1111.57 295.249 1111.28 296.977L1110.04 304.145C1109.65 306.417 1110.2 307.409 1111.44 307.409C1112.85 307.409 1114.2 306.161 1115.38 303.185L1114.96 303.025C1114.2 304.689 1113.3 305.553 1112.53 305.553C1111.89 305.553 1111.73 304.977 1112.05 303.281L1113.17 297.105C1113.72 294.065 1112.66 292.369 1110.61 292.369C1108.72 292.369 1107.57 293.329 1105.33 295.857H1105.2C1105.27 293.617 1104.24 292.369 1102.52 292.369C1100.6 292.369 1099.48 293.329 1097.24 295.825H1097.11L1097.36 292.369H1097.2L1093.36 293.233V293.489L1095.57 294.161L1093.3 307.089Z" fill="#162DFB"/>
<path d="M812.336 307.409C814.256 307.409 815.888 306.033 817.904 303.473H818L817.872 304.145C817.456 306.417 818.032 307.409 819.28 307.409C820.656 307.409 822.032 306.161 823.216 303.185L822.8 303.025C822.032 304.689 821.136 305.553 820.336 305.553C819.728 305.553 819.6 304.977 819.888 303.281L821.776 292.529H821.296L820.432 293.233C819.664 292.753 818.576 292.369 817.584 292.369C813.232 292.369 809.36 298.129 809.36 303.153C809.36 305.969 810.608 307.409 812.336 307.409ZM811.28 302.449C811.28 297.969 813.456 293.393 816.784 293.393C818.032 293.393 818.8 293.905 819.504 294.673L818.192 302.225C816.816 304.017 815.088 305.809 813.36 305.809C811.952 305.809 811.28 304.689 811.28 302.449Z" fill="#162DFB"/>
<path d="M1006.78 307.409C1011.26 307.409 1014.27 302.513 1014.27 298.289C1014.27 294.801 1012.54 292.369 1009.21 292.369C1004.99 292.369 1001.72 296.849 1001.72 301.521C1001.72 304.977 1003.45 307.409 1006.78 307.409ZM1007.19 306.449C1004.83 306.449 1003.8 304.497 1003.8 301.361C1003.8 296.753 1005.88 293.297 1008.83 293.297C1011.23 293.297 1012.19 295.217 1012.19 298.289C1012.19 302.801 1010.11 306.449 1007.19 306.449Z" fill="#162DFB"/>
<path d="M1150.78 307.409C1155.26 307.409 1158.27 302.513 1158.27 298.289C1158.27 294.801 1156.54 292.369 1153.21 292.369C1148.99 292.369 1145.72 296.849 1145.72 301.521C1145.72 304.977 1147.45 307.409 1150.78 307.409ZM1151.19 306.449C1148.83 306.449 1147.8 304.497 1147.8 301.361C1147.8 296.753 1149.88 293.297 1152.83 293.297C1155.23 293.297 1156.19 295.217 1156.19 298.289C1156.19 302.801 1154.11 306.449 1151.19 306.449Z" fill="#162DFB"/>
<path d="M862.315 307.409C867.787 307.409 870.251 301.009 870.251 294.545C870.251 288.337 868.075 283.537 864.299 283.537C862.955 283.537 861.899 284.113 860.971 285.297L861.483 285.745C862.155 284.913 863.147 284.497 863.947 284.497C866.635 284.497 868.075 287.985 868.299 293.105C867.499 292.689 866.571 292.369 865.323 292.369C860.939 292.369 857.643 296.657 857.643 301.617C857.643 305.009 859.403 307.409 862.315 307.409ZM859.691 301.457C859.691 296.945 861.835 293.233 864.939 293.233C866.411 293.233 867.499 293.809 868.299 294.865C868.235 300.561 866.347 306.545 862.699 306.545C860.651 306.545 859.691 304.305 859.691 301.457Z" fill="#162DFB"/>
<path d="M1055.31 307.409C1057.84 307.409 1059.79 305.393 1061.07 302.705L1060.82 302.513H1060.75C1059.25 304.945 1057.75 305.937 1056.15 305.937C1053.81 305.937 1052.5 304.241 1052.5 301.169C1052.5 296.721 1054.9 293.393 1057.59 293.393C1058.99 293.393 1059.63 294.097 1060.31 295.217L1060.72 295.921H1060.91L1061.78 295.377C1062.03 295.217 1062.16 294.961 1062.16 294.737C1062.16 294.417 1062 294.097 1061.62 293.681C1060.98 292.945 1059.99 292.369 1058.42 292.369C1054.58 292.369 1050.67 297.233 1050.67 301.969C1050.67 305.297 1052.21 307.409 1055.31 307.409Z" fill="#162DFB"/>
<path d="M1203.2 307.409C1204.45 307.409 1205.44 305.969 1206.56 303.185L1206.15 303.025C1205.38 304.753 1204.61 305.553 1203.91 305.553C1203.3 305.553 1203.04 305.105 1202.12 303.601L1199.01 298.673L1201.99 295.537C1202.88 294.609 1203.49 294.193 1204.23 294.193C1204.71 294.193 1205.03 294.289 1205.32 294.449L1205.73 294.641L1205.83 294.577L1206.34 293.521C1206.5 293.137 1206.4 292.817 1206.12 292.625C1205.89 292.465 1205.57 292.369 1205.09 292.369C1203.65 292.369 1202.18 294.097 1197.38 299.345V299.505L1200.48 304.561C1201.7 306.577 1202.15 307.409 1203.2 307.409ZM1193.96 307.089H1195.84L1198.4 292.369H1198.24L1194.02 293.233V293.489L1196.23 294.161L1193.96 307.089Z" fill="#162DFB"/>
<path d="M719.537 369.276C723.057 369.276 724.913 368.668 726.929 367.708L728.145 362.62H727.633L725.073 366.108C723.825 366.908 722.257 367.804 720.401 367.804C716.753 367.804 714.193 364.86 714.193 359.804C714.193 354.044 717.361 348.988 723.153 348.988C724.785 348.988 725.745 349.564 726.801 350.684L728.081 354.652H728.593L729.425 349.052C727.377 347.932 725.969 347.516 723.537 347.516C716.977 347.516 711.217 353.372 711.217 360.668C711.217 365.724 714.225 369.276 719.537 369.276Z" fill="#162DFB"/>
<path d="M764.243 369.275C766.195 369.275 768.019 367.739 769.619 365.275H769.747L769.587 366.107C769.235 368.027 769.779 369.275 771.283 369.275C772.787 369.275 774.227 367.931 775.475 364.731L775.059 364.539C774.291 366.171 773.395 366.939 772.659 366.939C772.083 366.939 771.955 366.427 772.179 365.147L774.131 354.235H773.331L772.211 354.939C771.443 354.523 770.419 354.235 769.363 354.235C765.043 354.235 761.395 359.579 761.395 364.859C761.395 367.803 762.547 369.275 764.243 369.275ZM763.827 363.611C763.827 359.515 765.683 355.483 768.435 355.483C769.651 355.483 770.387 356.059 771.187 357.115L770.003 363.707C768.883 365.403 767.283 367.163 765.747 367.163C764.243 367.163 763.827 366.011 763.827 363.611Z" fill="#162DFB"/>
<path d="M807.011 376.315H813.891V375.803L811.331 374.875L812.323 368.859C812.995 369.115 813.763 369.275 814.563 369.275C818.883 369.275 822.531 363.931 822.531 358.651C822.531 355.739 821.379 354.235 819.683 354.235C817.731 354.235 815.907 355.771 814.307 358.235H814.179V354.235H814.083L809.539 355.195V355.387L812.035 356.507L808.771 374.907L807.011 375.803V376.315ZM818.179 356.347C819.683 356.347 820.099 357.499 820.099 359.899C820.099 363.995 818.243 368.027 815.491 368.027C814.275 368.027 813.571 367.419 812.771 366.331L813.891 359.835C815.043 358.107 816.643 356.347 818.179 356.347Z" fill="#162DFB"/>
<path d="M860.243 369.275C862.195 369.275 864.019 367.739 865.619 365.275H865.747L865.587 366.107C865.235 368.027 865.779 369.275 867.283 369.275C868.787 369.275 870.227 367.931 871.475 364.731L871.059 364.539C870.291 366.171 869.395 366.939 868.659 366.939C868.083 366.939 867.955 366.427 868.179 365.147L870.131 354.235H869.331L868.211 354.939C867.443 354.523 866.419 354.235 865.363 354.235C861.043 354.235 857.395 359.579 857.395 364.859C857.395 367.803 858.547 369.275 860.243 369.275ZM859.827 363.611C859.827 359.515 861.683 355.483 864.435 355.483C865.651 355.483 866.387 356.059 867.187 357.115L866.003 363.707C864.883 365.403 863.283 367.163 861.747 367.163C860.243 367.163 859.827 366.011 859.827 363.611Z" fill="#162DFB"/>
<path d="M958.899 369.275C963.571 369.275 966.547 364.315 966.547 360.443C966.547 356.795 964.819 354.235 961.107 354.235C956.563 354.235 953.459 359.067 953.459 363.067C953.459 366.715 955.187 369.275 958.899 369.275ZM959.251 368.059C956.947 368.059 956.243 366.331 956.243 363.163C956.243 358.523 958.099 355.419 960.819 355.419C963.091 355.419 963.763 357.115 963.763 360.251C963.763 364.475 962.035 368.059 959.251 368.059Z" fill="#162DFB"/>
<path d="M901.001 368.955H903.433L905.129 359.067C906.153 357.883 907.657 356.187 909.065 356.187C910.761 356.187 911.209 357.563 910.953 359.067L909.193 368.955H911.625L913.417 359.003C914.441 357.819 915.913 356.187 917.289 356.187C918.985 356.187 919.433 357.563 919.177 359.067L917.929 366.107C917.577 368.027 918.121 369.275 919.625 369.275C921.129 369.275 922.569 367.931 923.817 364.731L923.401 364.539C922.633 366.171 921.737 366.939 921.001 366.939C920.425 366.939 920.297 366.427 920.521 365.147L921.641 358.971C922.153 356.091 920.905 354.235 918.985 354.235C916.905 354.235 915.945 355.099 913.705 357.595H913.545C913.481 355.515 912.361 354.235 910.761 354.235C908.681 354.235 907.721 355.099 905.481 357.595H905.353V354.235H905.257L900.713 355.195V355.387L903.209 356.507L901.001 368.955Z" fill="#162DFB"/>
<path d="M1013.11 364.187C1013.11 362.395 1011.79 361.115 1009.33 361.147C1012.11 360.251 1013.68 358.843 1013.68 356.827C1013.68 355.387 1012.59 354.235 1010.39 354.235C1005.78 354.235 1002.16 359.195 1002.16 364.219C1002.16 367.995 1004.15 369.275 1007.06 369.275C1010.1 369.275 1013.11 367.131 1013.11 364.187ZM1009.52 355.355C1010.67 355.355 1011.28 355.995 1011.28 357.147C1011.28 358.875 1010.32 360.251 1006.99 360.827L1004.82 361.211C1005.39 357.467 1007.12 355.355 1009.52 355.355ZM1007.22 368.059C1005.23 368.059 1004.59 366.395 1004.59 364.219C1004.59 363.579 1004.63 363.003 1004.66 362.427L1006.99 362.011C1007.38 361.947 1007.76 361.915 1008.08 361.915C1009.87 361.915 1010.64 362.971 1010.64 364.411C1010.64 366.395 1009.23 368.059 1007.22 368.059Z" fill="#162DFB"/>
<path d="M701.664 187H711.04V186.488L708.352 185.176V167.704L711.04 166.392V165.88H701.664V166.392L704.352 167.704V185.176L701.664 186.488V187ZM708.384 176.28L717.6 187H723.68V186.488L721.536 185.592L712.16 174.84L720 167.256L722.08 166.392V165.88H714.848V166.392L717.184 167.512L708.384 176.28ZM725.75 194.712C726.838 194.712 728.118 194.072 728.982 192.856C729.942 191.512 730.07 191.032 730.678 189.528L737.046 174.072L739.35 172.984V172.472H733.174V172.984L735.286 174.072V174.232L732.214 182.232H732.054L728.214 174.072V173.944L730.454 172.984V172.472H722.102V172.984L724.15 173.912L730.326 186.904L729.366 189.112C728.278 191.576 727.83 191.672 726.262 191.672H724.822L724.662 191.832V193.784C724.662 194.488 724.79 194.712 725.75 194.712ZM740.711 185.464H738.951V191.032H739.527L741.863 187H751.591L753.927 191.032H754.503V185.464H752.231V174.008L754.343 172.984V172.472H740.519V172.984L742.631 174.008V174.456C742.631 177.272 742.311 182.168 740.711 185.464ZM748.551 185.464H742.535C743.943 182.2 744.263 177.336 744.263 174.456V174.008H748.551V185.464ZM760.552 187.32C762.376 187.32 763.976 186.424 765.064 185.24H765.288C765.736 186.52 766.728 187.32 768.328 187.32C769.992 187.32 771.048 186.488 771.56 185.656V185.336L771.464 185.24H770.408C769.576 185.24 769.064 185.048 768.776 184.728V175.992C768.776 173.208 766.28 172.152 763.464 172.152C761.96 172.152 760.68 172.664 759.304 173.528C758.088 174.264 757.384 175.256 757.384 176.184C757.384 176.952 757.608 177.144 758.248 177.144H760.168L760.328 177.016V175.768C760.328 174.488 760.84 173.72 762.344 173.72C763.848 173.72 765.064 174.84 765.064 176.408V178.52L762.056 179.256C758.152 180.216 756.936 181.56 756.904 183.768C756.872 186.008 758.504 187.32 760.552 187.32ZM760.424 182.968C760.424 181.464 761.096 180.536 765.064 179.736V184.44C764.168 184.824 763.464 184.984 762.664 184.984C761.256 184.984 760.424 184.312 760.424 182.968Z" fill="#F3F3F3"/>
<rect x="108" y="208" width="40" height="54" fill="#F3F3F3"/>
<rect x="396" y="208" width="40" height="54" fill="#F3F3F3"/>
<rect x="252" y="208" width="40" height="54" fill="#F3F3F3"/>
<rect x="540" y="208" width="40" height="54" fill="#F3F3F3"/>
<rect x="156" y="208" width="40" height="54" fill="#F3F3F3"/>
<rect x="444" y="208" width="40" height="54" fill="#F3F3F3"/>
<rect x="300" y="208" width="40" height="54" fill="#F3F3F3"/>
<rect x="204" y="208" width="40" height="54" fill="#F3F3F3"/>
<rect x="492" y="208" width="40" height="54" fill="#F3F3F3"/>
<rect x="348" y="208" width="40" height="54" fill="#F3F3F3"/>
<rect x="60" y="208" width="40" height="54" fill="#F3F3F3"/>
<rect x="108" y="394" width="40" height="54" fill="#F3F3F3"/>
<rect x="396" y="394" width="40" height="54" fill="#F3F3F3"/>
<rect x="252" y="394" width="40" height="54" fill="#F3F3F3"/>
<rect x="540" y="394" width="40" height="54" fill="#F3F3F3"/>
<rect x="156" y="394" width="40" height="54" fill="#F3F3F3"/>
<rect x="444" y="394" width="40" height="54" fill="#F3F3F3"/>
<rect x="300" y="394" width="40" height="54" fill="#F3F3F3"/>
<rect x="204" y="394" width="40" height="54" fill="#F3F3F3"/>
<rect x="492" y="394" width="40" height="54" fill="#F3F3F3"/>
<rect x="348" y="394" width="40" height="54" fill="#F3F3F3"/>
<rect x="60" y="394" width="40" height="54" fill="#F3F3F3"/>
<rect x="108" y="270" width="40" height="54" fill="#F3F3F3"/>
<rect x="396" y="270" width="40" height="54" fill="#F3F3F3"/>
<rect x="252" y="270" width="40" height="54" fill="#F3F3F3"/>
<rect x="540" y="270" width="40" height="54" fill="#F3F3F3"/>
<rect x="156" y="270" width="40" height="54" fill="#F3F3F3"/>
<rect x="444" y="270" width="40" height="54" fill="#F3F3F3"/>
<rect x="300" y="270" width="40" height="54" fill="#F3F3F3"/>
<rect x="204" y="270" width="40" height="54" fill="#F3F3F3"/>
<rect x="492" y="270" width="40" height="54" fill="#F3F3F3"/>
<rect x="348" y="270" width="40" height="54" fill="#F3F3F3"/>
<rect x="60" y="270" width="40" height="54" fill="#F3F3F3"/>
<rect x="108" y="456" width="40" height="54" fill="#F3F3F3"/>
<rect x="396" y="456" width="40" height="54" fill="#F3F3F3"/>
<rect x="252" y="456" width="40" height="54" fill="#F3F3F3"/>
<rect x="540" y="456" width="40" height="54" fill="#F3F3F3"/>
<rect x="156" y="456" width="40" height="54" fill="#F3F3F3"/>
<rect x="444" y="456" width="40" height="54" fill="#F3F3F3"/>
<rect x="300" y="456" width="40" height="54" fill="#F3F3F3"/>
<rect x="204" y="456" width="40" height="54" fill="#F3F3F3"/>
<rect x="492" y="456" width="40" height="54" fill="#F3F3F3"/>
<rect x="348" y="456" width="40" height="54" fill="#F3F3F3"/>
<rect x="60" y="456" width="40" height="54" fill="#F3F3F3"/>
<rect x="108" y="332" width="40" height="54" fill="#F3F3F3"/>
<rect x="396" y="332" width="40" height="54" fill="#F3F3F3"/>
<rect x="252" y="332" width="40" height="54" fill="#F3F3F3"/>
<rect x="540" y="332" width="40" height="54" fill="#F3F3F3"/>
<rect x="156" y="332" width="40" height="54" fill="#F3F3F3"/>
<rect x="444" y="332" width="40" height="54" fill="#F3F3F3"/>
<rect x="300" y="332" width="40" height="54" fill="#F3F3F3"/>
<rect x="204" y="332" width="40" height="54" fill="#F3F3F3"/>
<rect x="492" y="332" width="40" height="54" fill="#F3F3F3"/>
<rect x="348" y="332" width="40" height="54" fill="#F3F3F3"/>
<rect x="60" y="332" width="40" height="54" fill="#F3F3F3"/>
<rect x="108" y="518" width="40" height="54" fill="#F3F3F3"/>
<rect x="396" y="518" width="40" height="54" fill="#F3F3F3"/>
<rect x="252" y="518" width="40" height="54" fill="#F3F3F3"/>
<rect x="540" y="518" width="40" height="54" fill="#F3F3F3"/>
<rect x="156" y="518" width="40" height="54" fill="#F3F3F3"/>
<rect x="444" y="518" width="40" height="54" fill="#F3F3F3"/>
<rect x="300" y="518" width="40" height="54" fill="#F3F3F3"/>
<rect x="204" y="518" width="40" height="54" fill="#F3F3F3"/>
<rect x="492" y="518" width="40" height="54" fill="#F3F3F3"/>
<rect x="348" y="518" width="40" height="54" fill="#F3F3F3"/>
<rect x="60" y="518" width="40" height="54" fill="#F3F3F3"/>
<rect x="108" y="580" width="40" height="54" fill="#F3F3F3"/>
<rect x="396" y="580" width="40" height="54" fill="#F3F3F3"/>
<rect x="252" y="580" width="40" height="54" fill="#F3F3F3"/>
<rect x="540" y="580" width="40" height="54" fill="#F3F3F3"/>
<rect x="156" y="580" width="40" height="54" fill="#F3F3F3"/>
<rect x="444" y="580" width="40" height="54" fill="#F3F3F3"/>
<rect x="300" y="580" width="40" height="54" fill="#F3F3F3"/>
<rect x="204" y="580" width="40" height="54" fill="#F3F3F3"/>
<rect x="492" y="580" width="40" height="54" fill="#F3F3F3"/>
<rect x="348" y="580" width="40" height="54" fill="#F3F3F3"/>
<rect x="60" y="580" width="40" height="54" fill="#F3F3F3"/>
<path d="M69.5331 245H76.7011V244.2L73.9491 243.656V234.664H86.0451V243.656L83.2931 244.2V245H90.4611V244.2L87.9651 243.656V225.224L90.4611 224.68V223.88H83.2931V224.68L86.0451 225.224V233.544H73.9491V225.224L76.7011 224.68V223.88H69.5331V224.68L72.0291 225.224V243.656L69.5331 244.2V245Z" fill="#162DFB"/>
<path d="M128.004 245.32C131.908 245.32 134.564 242.088 134.564 237.8C134.564 233.512 131.908 230.28 128.004 230.28C124.1 230.28 121.444 233.512 121.444 237.8C121.444 242.088 124.1 245.32 128.004 245.32ZM128.452 244.584C125.092 244.584 123.044 241.288 123.044 237.128C123.044 233.704 124.772 230.984 127.62 230.984C131.076 230.984 132.964 234.312 132.964 238.44C132.964 241.608 131.396 244.584 128.452 244.584Z" fill="#162DFB"/>
<path d="M171.95 231.846V244.198L169.934 244.742V245.222H176.014C179.534 245.222 182.158 243.75 182.158 240.998C182.158 239.366 181.134 237.798 177.614 237.446C180.366 236.966 181.23 235.59 181.23 233.99C181.23 231.494 178.798 230.822 176.206 230.822H169.934V231.302L171.95 231.846ZM176.206 231.654C178.702 231.654 179.63 232.87 179.63 234.63C179.63 235.974 178.638 237.158 176.494 237.158H173.55V231.654H176.206ZM176.078 237.958C179.534 237.958 180.558 239.462 180.558 241.382C180.558 243.43 178.862 244.39 176.398 244.39H173.55V237.958H176.078Z" fill="#162DFB"/>
<path d="M224.004 245.542C227.908 245.542 230.564 242.31 230.564 238.022C230.564 233.734 227.908 230.502 224.004 230.502C220.1 230.502 217.444 233.734 217.444 238.022C217.444 242.31 220.1 245.542 224.004 245.542ZM224.452 244.806C221.092 244.806 219.044 241.51 219.044 237.35C219.044 233.926 220.772 231.206 223.62 231.206C227.076 231.206 228.964 234.534 228.964 238.662C228.964 241.83 227.396 244.806 224.452 244.806Z" fill="#162DFB"/>
<path d="M272.885 245.542C275.285 245.542 277.141 244.454 278.101 242.95V242.534H278.005C277.077 243.558 275.317 244.198 273.333 244.198C269.717 244.198 267.637 241.638 267.637 237.894C267.637 233.446 269.813 231.206 272.789 231.206C274.485 231.206 275.477 232.134 276.405 233.414L276.821 233.99H276.949L277.813 233.254C277.973 233.126 278.037 232.998 278.037 232.838C278.037 232.486 277.653 232.07 277.013 231.622C276.181 231.046 274.837 230.502 273.141 230.502C269.013 230.502 266.037 233.798 266.037 238.31C266.037 242.406 268.405 245.542 272.885 245.542Z" fill="#162DFB"/>
<path d="M314.403 231.846V244.198L312.387 244.742V245.222H318.275V244.742L316.003 244.198V243.014L324.003 234.022V244.198L321.731 244.742V245.222H327.619V244.742L325.603 244.198V231.846L327.619 231.302V230.822H321.731V231.302L324.003 231.846V232.902L316.003 241.894V231.846L318.275 231.302V230.822H312.387V231.302L314.403 231.846Z" fill="#162DFB"/>
<path d="M457.122 252.582H463.01V252.102L460.738 251.558V244.678C461.698 245.19 462.786 245.542 463.714 245.542C467.81 245.542 471.202 242.566 471.202 237.318C471.202 233.094 468.866 230.502 465.666 230.502C463.938 230.502 462.498 231.11 460.866 232.486H460.706L460.578 230.502H460.258L456.802 231.27V231.75L459.138 232.038V251.558L457.122 252.102V252.582ZM464.802 231.59C467.266 231.59 469.698 233.51 469.698 237.83C469.698 242.822 467.426 244.71 464.834 244.71C463.266 244.71 462.05 244.262 460.738 243.398V233.19C461.89 232.166 463.234 231.59 464.802 231.59Z" fill="#162DFB"/>
<path d="M373.028 221.222C373.028 222.694 372.452 223.27 370.148 223.846C362.628 225.766 361.444 229.926 361.444 237.286C361.444 242.15 363.812 245.542 368.004 245.542C371.812 245.542 374.564 242.566 374.564 238.31C374.564 234.118 372.1 231.142 368.228 231.142C365.7 231.142 364.1 232.422 363.044 234.054C363.044 232.742 363.14 231.654 363.268 230.758C363.716 228.038 364.708 227.11 365.444 226.63C366.212 226.15 366.724 225.894 369.732 225.35C372.484 224.87 373.476 223.942 373.476 221.67V221.35L373.348 221.222H373.028ZM363.044 237.35V234.95C363.94 233.446 365.668 232.006 367.78 232.006C372.068 232.006 372.964 235.686 372.964 238.982C372.964 242.694 370.884 244.806 368.452 244.806C365.22 244.806 363.044 242.278 363.044 237.35Z" fill="#162DFB"/>
<path d="M512.885 245.542C515.285 245.542 517.141 244.454 518.101 242.95V242.534H518.005C517.077 243.558 515.317 244.198 513.333 244.198C509.717 244.198 507.637 241.638 507.637 237.894C507.637 233.446 509.813 231.206 512.789 231.206C514.485 231.206 515.477 232.134 516.405 233.414L516.821 233.99H516.949L517.813 233.254C517.973 233.126 518.037 232.998 518.037 232.838C518.037 232.486 517.653 232.07 517.013 231.622C516.181 231.046 514.837 230.502 513.141 230.502C509.013 230.502 506.037 233.798 506.037 238.31C506.037 242.406 508.405 245.542 512.885 245.542Z" fill="#162DFB"/>
<path d="M410.403 231.846V244.198L408.387 244.742V245.222H414.275V244.742L412.003 244.198V243.014L420.003 234.022V244.198L417.731 244.742V245.222H423.619V244.742L421.603 244.198V231.846L423.619 231.302V230.822H417.731V231.302L420.003 231.846V232.902L412.003 241.894V231.846L414.275 231.302V230.822H408.387V231.302L410.403 231.846Z" fill="#162DFB"/>
<path d="M564.155 245.222H567.547V244.742L565.531 244.198L558.523 237.382L565.275 231.91L567.323 231.302V230.822H562.203V231.302L563.771 231.942V232.134L557.019 237.83V231.846L559.291 231.302V230.822H553.403V231.302L555.419 231.846V244.198L553.403 244.742V245.222H559.291V244.742L557.019 244.198V238.054L563.291 244.134L564.155 245.222Z" fill="#162DFB"/>
<path d="M80.155 346.28C83.739 346.28 85.595 344.104 85.595 341.416H82.843C82.843 343.432 82.107 344.968 80.155 344.968C78.203 344.968 77.467 343.432 77.467 341.416H74.715C74.715 344.104 76.571 346.28 80.155 346.28ZM68.955 369H76.955V368.488L74.395 367.208V366.152L85.595 353.256V367.208L83.035 368.488V369H91.035V368.488L88.475 367.208V349.672L91.035 348.392V347.88H83.035V348.392L85.595 349.672V351.016L74.395 363.912V349.672L76.955 348.392V347.88H68.955V348.392L71.515 349.672V367.208L68.955 368.488V369Z" fill="#162DFB"/>
<path d="M127.999 369.32C132.191 369.32 135.039 366.088 135.039 361.8C135.039 357.512 132.191 354.28 127.999 354.28C123.807 354.28 120.959 357.512 120.959 361.8C120.959 366.088 123.807 369.32 127.999 369.32ZM128.447 367.944C125.215 367.944 123.839 364.52 123.839 361.128C123.839 358.344 124.991 355.624 127.615 355.624C130.847 355.624 132.159 359.048 132.159 362.44C132.159 365.192 131.039 367.944 128.447 367.944Z" fill="#162DFB"/>
<path d="M166.724 367.464L164.708 368.488V369H187.94V368.488L185.924 367.464V356.136L187.94 355.112V354.6H181.348V355.112L183.364 356.136V367.496H177.604V356.136L179.62 355.112V354.6H173.028V355.112L175.044 356.136V367.496H169.284V356.136L171.3 355.112V354.6H164.708V355.112L166.724 356.136V367.464Z" fill="#162DFB"/>
<path d="M227.814 369H232.038V368.488L229.99 367.4L223.654 360.744L229.446 356.232L231.686 355.112V354.6H226.054V355.112L226.982 356.264V356.456L221.19 361.16V356.136L223.206 355.112V354.6H216.614V355.112L218.63 356.136V367.464L216.614 368.488V369H223.206V368.488L221.19 367.464V361.64L226.598 367.336L227.814 369Z" fill="#162DFB"/>
<path d="M269.164 369.32C270.956 369.32 272.684 368.488 273.804 367.4H273.996C274.348 368.552 275.18 369.32 276.492 369.32C277.932 369.32 278.956 368.488 279.468 367.56V367.464L279.372 367.4H278.156C277.196 367.4 276.652 367.176 276.364 366.856V357.768C276.364 355.08 274.028 354.28 271.756 354.28C270.284 354.28 268.972 354.856 267.788 355.624C266.636 356.36 266.092 357.416 266.092 358.344C266.092 359.112 266.284 359.24 266.924 359.24H268.588L268.748 359.08V358.184C268.748 356.712 269.292 355.784 270.924 355.784C272.396 355.784 273.804 356.968 273.804 358.44V360.776L270.764 361.48C267.084 362.344 265.676 363.912 265.676 365.992C265.676 368.072 267.148 369.32 269.164 369.32ZM268.172 365.352C268.172 363.912 268.716 362.824 273.804 361.864V366.6C272.524 367.144 271.596 367.336 270.572 367.336C269.036 367.336 268.172 366.664 268.172 365.352Z" fill="#162DFB"/>
<path d="M312.458 376.36H319.306V375.848L317.034 374.824V369C317.962 369.192 319.05 369.32 320.266 369.32C324.266 369.32 327.53 366.344 327.53 361.096C327.53 356.872 325.194 354.28 321.962 354.28C320.234 354.28 318.826 354.856 317.194 356.232H316.97L316.714 354.28H316.522L312.554 356.04V356.264L314.474 357.928V374.824L312.458 375.848V376.36ZM320.202 356.488C322.826 356.488 324.97 358.216 324.97 362.152C324.97 366.216 323.242 367.784 321.194 367.784C319.562 367.784 318.314 367.464 317.034 366.44V357.448C318.058 356.808 319.146 356.488 320.202 356.488Z" fill="#162DFB"/>
<path d="M461.774 356.904V356.104H466.478V367.464L464.462 368.488V369H471.054V368.488L469.038 367.464V356.136L471.054 355.112V354.6H457.966V355.112L460.174 356.136V356.904C460.174 363.112 459.694 366.664 456.878 366.664H456.398L456.27 366.792V368.392C456.27 369.096 456.43 369.32 457.326 369.32C458.606 369.32 459.534 368.648 460.206 367.432C461.326 365.448 461.774 361.928 461.774 356.904Z" fill="#162DFB"/>
<path d="M361.6 361.096H374.4V359.496H361.6V361.096Z" fill="#162DFB"/>
<path d="M509.164 369.32C510.956 369.32 512.684 368.488 513.804 367.4H513.996C514.348 368.552 515.18 369.32 516.492 369.32C517.932 369.32 518.956 368.488 519.468 367.56V367.464L519.372 367.4H518.156C517.196 367.4 516.652 367.176 516.364 366.856V357.768C516.364 355.08 514.028 354.28 511.756 354.28C510.284 354.28 508.972 354.856 507.788 355.624C506.636 356.36 506.092 357.416 506.092 358.344C506.092 359.112 506.284 359.24 506.924 359.24H508.588L508.748 359.08V358.184C508.748 356.712 509.292 355.784 510.924 355.784C512.396 355.784 513.804 356.968 513.804 358.44V360.776L510.764 361.48C507.084 362.344 505.676 363.912 505.676 365.992C505.676 368.072 507.148 369.32 509.164 369.32ZM508.172 365.352C508.172 363.912 508.716 362.824 513.804 361.864V366.6C512.524 367.144 511.596 367.336 510.572 367.336C509.036 367.336 508.172 366.664 508.172 365.352Z" fill="#162DFB"/>
<path d="M415.99 369.32C422.134 369.32 426.678 364.712 426.678 358.44C426.678 352.168 422.134 347.56 415.99 347.56C409.878 347.56 405.334 352.168 405.334 358.44C405.334 364.712 409.878 369.32 415.99 369.32ZM416.662 367.72C412.086 367.72 408.438 363.624 408.438 357.384C408.438 352.328 411.35 349.128 415.446 349.128C419.99 349.128 423.574 353.192 423.574 359.432C423.574 364.488 420.758 367.72 416.662 367.72Z" fill="#162DFB"/>
<path d="M68.7 554.445H78.748V553.933L76.252 552.621V544.461H85.116V552.621L82.556 553.933V554.445H92.636V553.933L89.948 552.621V535.149L92.636 533.837V533.325H82.556V533.837L85.116 535.149V542.701H76.252V535.149L78.748 533.837V533.325H68.7V533.837L71.42 535.149V552.621L68.7 553.933V554.445Z" fill="#162DFB"/>
<path d="M128.552 545.453H127.72V541.389L130.312 540.365V539.853H121.096V540.365L123.24 541.389V552.909L121.096 553.933V554.445H128.456C133.768 554.445 136.648 552.877 136.648 549.677C136.648 547.213 134.152 545.453 128.552 545.453ZM128.68 546.925C130.888 546.925 132.04 548.109 132.04 549.997C132.04 551.885 130.888 552.973 128.616 552.973H127.72V546.925H128.68Z" fill="#162DFB"/>
<path d="M166.944 541.389V552.909L164.8 553.933V554.445H173.568V553.933L171.424 552.909V547.597H173.6C173.824 551.565 176.768 554.765 181.024 554.765C185.408 554.765 188.416 551.309 188.416 547.149C188.416 542.957 185.408 539.533 181.024 539.533C176.992 539.533 174.144 542.349 173.664 546.029H171.424V541.389L173.568 540.365V539.853H164.8V540.365L166.944 541.389ZM181.376 553.197C179.168 553.197 178.208 549.965 178.208 546.477C178.208 543.565 178.976 541.069 180.736 541.069C182.912 541.069 183.808 544.301 183.808 547.789C183.808 550.637 183.072 553.197 181.376 553.197Z" fill="#162DFB"/>
<path d="M218.171 546.541H231.163V544.941H218.171V546.541Z" fill="#162DFB"/>
<path d="M272.672 531.693C276.416 531.693 278.4 529.613 278.4 526.861H275.264C275.264 528.973 274.496 530.477 272.672 530.477C270.848 530.477 270.08 528.973 270.08 526.861H266.944C266.944 529.613 268.928 531.693 272.672 531.693ZM260.544 554.445H270.592V553.933L268.096 552.621V551.245L277.28 539.213V552.621L274.72 553.933V554.445H284.8V553.933L282.112 552.621V535.149L284.8 533.837V533.325H274.72V533.837L277.28 535.149V536.589L268.096 548.621V535.149L270.592 533.837V533.325H260.544V533.837L263.264 535.149V552.621L260.544 553.933V554.445Z" fill="#162DFB"/>
<path d="M320.685 554.765C325.229 554.765 328.301 551.309 328.301 547.149C328.301 542.957 325.229 539.533 320.685 539.533C316.141 539.533 313.037 542.957 313.037 547.149C313.037 551.309 316.141 554.765 320.685 554.765ZM321.037 553.197C318.669 553.197 317.645 549.965 317.645 546.477C317.645 543.597 318.477 541.069 320.397 541.069C322.733 541.069 323.693 544.301 323.693 547.789C323.693 550.637 322.893 553.197 321.037 553.197Z" fill="#162DFB"/>
<path d="M360.237 561.805H369.357V561.293L366.861 560.269V554.477C367.693 554.669 368.589 554.765 369.581 554.765C373.549 554.765 377.005 551.661 377.005 546.541C377.005 542.189 374.509 539.533 371.661 539.533C369.965 539.533 368.557 540.109 366.989 541.485H366.797L366.541 539.533H366.157L360.333 541.485V541.869L362.381 543.373V560.269L360.237 561.293V561.805ZM369.005 542.157C370.797 542.157 372.525 543.821 372.525 547.469C372.525 551.917 370.925 553.101 369.389 553.101C368.333 553.101 367.469 552.749 366.861 552.045V542.797C367.629 542.381 368.237 542.157 369.005 542.157Z" fill="#162DFB"/>
<path d="M419.922 554.445H426.162V553.933L424.114 552.845L418.354 545.485L423.25 541.485L425.362 540.365V539.853H418.77V540.365L420.082 541.517V541.709L414.642 546.509V541.389L416.626 540.365V539.853H408.018V540.365L410.162 541.389V552.909L408.018 553.933V554.445H416.626V553.933L414.642 552.909V547.245L418.93 552.781L419.922 554.445Z" fill="#162DFB"/>
<path d="M74.1106 616.311H87.2306V615.799L83.7106 614.455V596.951H87.8706L90.6866 602.583H91.1986V595.191H70.1426V602.583H70.6546L73.4706 596.951H77.6306V614.455L74.1106 615.799V616.311Z" fill="#162DFB"/>
<path d="M128.671 616.631C133.439 616.631 136.703 613.047 136.703 608.951C136.703 604.823 133.439 601.271 128.671 601.271C123.903 601.271 120.639 604.823 120.639 608.951C120.639 613.047 123.903 616.631 128.671 616.631ZM128.959 614.935C127.167 614.935 126.399 611.831 126.399 608.279C126.399 605.303 127.007 602.935 128.447 602.935C130.207 602.935 130.943 606.039 130.943 609.591C130.943 612.503 130.335 614.935 128.959 614.935Z" fill="#162DFB"/>
<path d="M179.55 616.311H187.102V615.799L185.054 614.711L179.646 606.903L183.966 603.223L186.014 602.103V601.591H178.814V602.103L180.382 603.255V603.447L175.166 608.311V603.127L177.086 602.103V601.591H167.198V602.103L169.406 603.127V614.775L167.198 615.799V616.311H177.086V615.799L175.166 614.775V609.271L178.718 614.647L179.55 616.311Z" fill="#162DFB"/>
<path d="M216.937 603.127V614.775L214.729 615.799V616.311H223.881V615.799L222.697 614.775V613.367L226.633 607.031V614.775L225.449 615.799V616.311H234.601V615.799L232.393 614.775V603.127L234.601 602.103V601.591H225.449V602.103L226.633 603.127V604.311L222.697 610.647V603.127L223.881 602.103V601.591H214.729V602.103L216.937 603.127Z" fill="#162DFB"/>
<path d="M272.671 616.631C277.439 616.631 280.703 613.047 280.703 608.951C280.703 604.823 277.439 601.271 272.671 601.271C267.903 601.271 264.639 604.823 264.639 608.951C264.639 613.047 267.903 616.631 272.671 616.631ZM272.959 614.935C271.167 614.935 270.399 611.831 270.399 608.279C270.399 605.303 271.007 602.935 272.447 602.935C274.207 602.935 274.943 606.039 274.943 609.591C274.943 612.503 274.335 614.935 272.959 614.935Z" fill="#162DFB"/>
<path d="M70.2997 492.578H79.6757V492.066L76.9877 490.754V473.282L79.6757 471.97V471.458H70.2997V471.97L72.9877 473.282V490.754L70.2997 492.066V492.578ZM77.0197 481.858L86.2357 492.578H92.3157V492.066L90.1717 491.17L80.7957 480.418L88.6357 472.834L90.7157 471.97V471.458H83.4837V471.97L85.8197 473.09L77.0197 481.858Z" fill="#162DFB"/>
<path d="M125.5 492.898C127.324 492.898 128.924 492.002 130.012 490.818H130.236C130.684 492.098 131.676 492.898 133.276 492.898C134.94 492.898 135.996 492.066 136.508 491.234V490.914L136.412 490.818H135.356C134.524 490.818 134.012 490.626 133.724 490.306V481.57C133.724 478.786 131.228 477.73 128.412 477.73C126.908 477.73 125.628 478.242 124.252 479.106C123.036 479.842 122.332 480.834 122.332 481.762C122.332 482.53 122.556 482.722 123.196 482.722H125.116L125.276 482.594V481.346C125.276 480.066 125.788 479.298 127.292 479.298C128.796 479.298 130.012 480.418 130.012 481.986V484.098L127.004 484.834C123.1 485.794 121.884 487.138 121.852 489.346C121.82 491.586 123.452 492.898 125.5 492.898ZM125.372 488.546C125.372 487.042 126.044 486.114 130.012 485.314V490.018C129.116 490.402 128.412 490.562 127.612 490.562C126.204 490.562 125.372 489.89 125.372 488.546Z" fill="#162DFB"/>
<path d="M175.929 491.554C174.233 491.554 173.369 490.946 172.473 489.538L171.609 488.098H171.097V491.778C172.505 492.482 173.753 492.898 176.185 492.898C180.121 492.898 182.841 491.426 182.841 488.514C182.841 486.53 181.209 485.154 178.041 484.802C180.793 484.354 182.105 482.978 182.105 481.186C182.105 478.434 179.193 477.73 176.441 477.73C174.425 477.73 172.729 478.146 171.449 478.754V482.434H171.897L172.921 480.866C173.721 479.65 174.393 479.106 175.769 479.106C177.561 479.106 178.361 480.098 178.361 481.602C178.361 483.138 177.529 484.258 175.577 484.258H173.817V485.602H175.545C177.849 485.602 178.937 486.722 178.937 488.546C178.937 490.53 177.785 491.554 175.929 491.554Z" fill="#162DFB"/>
<path d="M221.5 492.898C223.324 492.898 224.924 492.002 226.012 490.818H226.236C226.684 492.098 227.676 492.898 229.276 492.898C230.94 492.898 231.996 492.066 232.508 491.234V490.914L232.412 490.818H231.356C230.524 490.818 230.012 490.626 229.724 490.306V481.57C229.724 478.786 227.228 477.73 224.412 477.73C222.908 477.73 221.628 478.242 220.252 479.106C219.036 479.842 218.332 480.834 218.332 481.762C218.332 482.53 218.556 482.722 219.196 482.722H221.116L221.276 482.594V481.346C221.276 480.066 221.788 479.298 223.292 479.298C224.796 479.298 226.012 480.418 226.012 481.986V484.098L223.004 484.834C219.1 485.794 217.884 487.138 217.852 489.346C217.82 491.586 219.452 492.898 221.5 492.898ZM221.372 488.546C221.372 487.042 222.044 486.114 226.012 485.314V490.018C225.116 490.402 224.412 490.562 223.612 490.562C222.204 490.562 221.372 489.89 221.372 488.546Z" fill="#162DFB"/>
<path d="M266.15 479.586V491.042L264.07 492.066V492.578H271.59V492.066L269.862 491.042V485.826H275.462V491.042L273.734 492.066V492.578H281.254V492.066L279.174 491.042V479.586L281.254 478.562V478.05H273.734V478.562L275.462 479.586V484.29H269.862V479.586L271.59 478.562V478.05H264.07V478.562L266.15 479.586Z" fill="#162DFB"/>
<path d="M320.387 483.618H319.331V479.586L321.923 478.562V478.05H313.539V478.562L315.619 479.586V491.042L313.539 492.066V492.578H320.227C325.539 492.578 328.259 491.01 328.259 487.874C328.259 485.602 326.147 483.618 320.387 483.618ZM320.803 485.122C323.203 485.122 324.355 486.306 324.355 488.194C324.355 490.018 323.203 491.106 320.707 491.106H319.331V485.122H320.803Z" fill="#162DFB"/>
<path d="M69.9886 306.978H76.5166V306.338L73.7646 305.538L76.2286 299.266H84.1326L86.6286 305.506L83.8766 306.338V306.978H91.3326V306.338L89.2846 305.506L81.1886 285.698H80.0686L71.8766 305.57L69.9886 306.338V306.978ZM76.8046 297.762L80.1326 289.346L83.5246 297.762H76.8046Z" fill="#162DFB"/>
<path d="M122.69 293.09L124.706 293.89V294.466C124.706 298.114 124.194 302.562 122.882 305.762H121.154V310.914H121.666L123.49 306.978H133.282L135.106 310.914H135.618V305.762H133.346V293.89L135.362 293.09V292.578H122.69V293.09ZM131.202 305.762H124.354C125.57 302.562 126.05 298.114 126.05 294.466V293.794H131.202V305.762Z" fill="#162DFB"/>
<path d="M174.23 294.658V293.794H179.254V305.666L177.142 306.466V306.978H183.446V306.466L181.43 305.666V293.89L183.446 293.09V292.578H170.774V293.09L172.886 293.89V294.658C172.886 300.642 172.47 304.994 169.622 304.994H169.206L169.046 305.122V306.37C169.046 307.074 169.27 307.298 170.038 307.298C171.19 307.298 172.118 306.594 172.79 305.314C173.846 303.33 174.23 299.554 174.23 294.658Z" fill="#162DFB"/>
<path d="M225.317 307.298C227.845 307.298 229.797 305.954 230.757 304.258V303.906H230.661C229.349 304.834 227.845 305.314 226.309 305.314C222.341 305.314 220.677 302.594 220.677 299.234C220.677 299.138 220.677 299.074 220.677 298.978H230.629L230.757 298.85C230.629 294.658 228.613 292.258 225.253 292.258C221.669 292.258 218.533 295.682 218.533 300.258C218.533 304.418 221.029 307.298 225.317 307.298ZM224.773 293.378C226.949 293.378 228.165 294.85 228.613 297.826H220.773C221.157 295.01 222.725 293.378 224.773 293.378Z" fill="#162DFB"/>
<path d="M265.409 314.338H271.873V313.826L269.601 313.026V306.786C270.529 307.106 271.617 307.298 272.737 307.298C276.769 307.298 280.065 304.322 280.065 299.074C280.065 294.85 277.729 292.258 274.529 292.258C272.801 292.258 271.361 292.834 269.729 294.21H269.537L269.345 292.258H269.089L265.345 293.602V293.954L267.425 295.042V313.026L265.409 313.826V314.338ZM273.121 294.018C275.681 294.018 277.953 295.81 277.953 299.906C277.953 304.354 276.001 306.05 273.729 306.05C272.129 306.05 270.881 305.666 269.601 304.738V295.234C270.657 294.434 271.873 294.018 273.121 294.018Z" fill="#162DFB"/>
<path d="M69.9932 430.711H78.4412V430.199L75.9452 428.919V411.351H85.4172V428.919L82.8892 430.199V430.711H91.3372V430.199L88.7452 428.919V411.383L91.3372 410.103V409.591H69.9932V410.103L72.5852 411.383V428.919L69.9932 430.199V430.711Z" fill="#162DFB"/>
<path d="M129.158 431.031C131.846 431.031 133.926 429.495 134.95 427.543V427.159H134.854C133.286 427.991 131.942 428.375 130.726 428.375C126.79 428.375 125.382 425.783 125.318 422.871H134.758L134.918 422.711C134.886 418.359 132.838 415.959 129.446 415.959C125.67 415.959 122.374 419.351 122.374 424.119C122.374 428.311 124.966 431.031 129.158 431.031ZM128.87 417.367C130.662 417.367 131.75 418.519 132.198 421.399H125.414C125.702 418.839 126.982 417.367 128.87 417.367Z" fill="#162DFB"/>
<path d="M168.919 438.071H176.311V437.559L173.975 436.535V430.711C174.903 430.935 175.927 431.031 177.079 431.031C181.079 431.031 184.407 428.023 184.407 422.807C184.407 418.551 182.007 415.959 178.871 415.959C177.143 415.959 175.735 416.535 174.135 417.911H173.911L173.655 415.959H173.431L169.015 417.751V418.007L170.967 419.639V436.535L168.919 437.559V438.071ZM176.919 418.263C179.319 418.263 181.367 419.959 181.367 423.831C181.367 427.991 179.671 429.463 177.751 429.463C176.279 429.463 175.095 429.143 173.975 428.183V419.127C174.935 418.551 175.927 418.263 176.919 418.263Z" fill="#162DFB"/>
<path d="M216.797 417.815L216.477 429.175L214.429 430.199V430.711H219.965V430.199L218.141 429.175L218.397 419.287L223.613 430.711H224.445L229.341 419.287L229.853 429.175L228.029 430.199V430.711H234.909V430.199L232.861 429.175L232.253 417.815L234.301 416.791V416.279H229.213L224.925 426.039H224.669L220.317 416.279H214.749V416.791L216.797 417.815Z" fill="#162DFB"/>
<path d="M272.254 421.815H271.006V417.815L273.662 416.791V416.279H265.95V416.791L267.998 417.815V429.175L265.95 430.199V430.711H272.03C277.342 430.711 279.934 429.111 279.934 426.103C279.934 423.959 278.174 421.815 272.254 421.815ZM272.926 423.351C275.486 423.351 276.638 424.439 276.638 426.391C276.638 428.119 275.486 429.207 272.798 429.207H271.006V423.351H272.926Z" fill="#162DFB"/>
<path d="M72.736 187.32C79.008 187.32 83.648 182.712 83.648 176.44C83.648 170.168 79.008 165.56 72.736 165.56C66.496 165.56 61.856 170.168 61.856 176.44C61.856 182.712 66.496 187.32 72.736 187.32ZM73.312 185.688C69.312 185.688 66.112 181.624 66.112 175.416C66.112 170.36 68.704 167.16 72.256 167.16C76.224 167.16 79.36 171.192 79.36 177.4C79.36 182.456 76.896 185.688 73.312 185.688ZM86.2985 177.944H86.8745L89.0825 174.008H91.7065V185.464L89.1145 186.488V187H97.9785V186.488L95.3865 185.464V174.008H98.0105L100.219 177.944H100.795V172.472H86.2985V177.944ZM114.363 187H119.771V186.488L117.723 185.4L111.739 178.328L116.987 174.104L119.163 172.984V172.472H112.955V172.984L114.107 174.136V174.328L108.539 179.128V174.008L110.523 172.984V172.472H102.747V172.984L104.827 174.008V185.464L102.747 186.488V187H110.523V186.488L108.539 185.464V179.736L113.275 185.336L114.363 187ZM122.875 194.712C123.963 194.712 125.243 194.072 126.107 192.856C127.067 191.512 127.195 191.032 127.803 189.528L134.171 174.072L136.475 172.984V172.472H130.299V172.984L132.411 174.072V174.232L129.339 182.232H129.179L125.339 174.072V173.944L127.579 172.984V172.472H119.227V172.984L121.275 173.912L127.451 186.904L126.491 189.112C125.403 191.576 124.955 191.672 123.387 191.672H121.947L121.787 191.832V193.784C121.787 194.488 121.915 194.712 122.875 194.712ZM137.836 185.464H136.076V191.032H136.652L138.988 187H148.716L151.052 191.032H151.628V185.464H149.356V174.008L151.468 172.984V172.472H137.644V172.984L139.756 174.008V174.456C139.756 177.272 139.436 182.168 137.836 185.464ZM145.676 185.464H139.66C141.068 182.2 141.388 177.336 141.388 174.456V174.008H145.676V185.464ZM157.677 187.32C159.501 187.32 161.101 186.424 162.189 185.24H162.413C162.861 186.52 163.853 187.32 165.453 187.32C167.117 187.32 168.173 186.488 168.685 185.656V185.336L168.589 185.24H167.533C166.701 185.24 166.189 185.048 165.901 184.728V175.992C165.901 173.208 163.405 172.152 160.589 172.152C159.085 172.152 157.805 172.664 156.429 173.528C155.213 174.264 154.509 175.256 154.509 176.184C154.509 176.952 154.733 177.144 155.373 177.144H157.293L157.453 177.016V175.768C157.453 174.488 157.965 173.72 159.469 173.72C160.973 173.72 162.189 174.84 162.189 176.408V178.52L159.181 179.256C155.277 180.216 154.061 181.56 154.029 183.768C153.997 186.008 155.629 187.32 157.677 187.32ZM157.549 182.968C157.549 181.464 158.221 180.536 162.189 179.736V184.44C161.293 184.824 160.589 184.984 159.789 184.984C158.381 184.984 157.549 184.312 157.549 182.968Z" fill="#F3F3F3"/>
<path d="M1152.9 113H1161.06V112.488L1158.5 111.208V91.88H1157.86L1150.18 96.68V97.8L1155.78 94.984V111.208L1152.9 112.488V113ZM1172.16 113.32C1176.8 113.32 1179.07 109.992 1179.07 106.728C1179.07 103.208 1176.86 100.584 1173.44 100.584C1171.23 100.584 1169.47 101.608 1168.35 103.208C1168.99 98.088 1172.22 94.12 1177.44 92.488V91.56C1169.89 93.672 1165.18 98.792 1165.18 105.512C1165.18 109.96 1167.97 113.32 1172.16 113.32ZM1168.22 105.224C1168.22 105.096 1168.22 105 1168.22 104.872C1169.09 103.56 1170.5 102.728 1172.19 102.728C1174.78 102.728 1176.13 104.264 1176.13 107.432C1176.13 109.672 1174.82 111.848 1172.22 111.848C1170.08 111.848 1168.22 109.992 1168.22 105.224ZM1184 102.184C1185.06 102.184 1185.95 101.288 1185.95 100.232C1185.95 99.176 1185.06 98.28 1184 98.28C1182.94 98.28 1182.05 99.176 1182.05 100.232C1182.05 101.288 1182.94 102.184 1184 102.184ZM1184 113.16C1185.06 113.16 1185.95 112.264 1185.95 111.208C1185.95 110.152 1185.06 109.256 1184 109.256C1182.94 109.256 1182.05 110.152 1182.05 111.208C1182.05 112.264 1182.94 113.16 1184 113.16ZM1195.81 113.32C1199.87 113.32 1203.26 110.536 1203.26 107.4C1203.26 104.36 1201.34 102.152 1197.5 101.544C1200.35 100.808 1202.14 98.792 1202.14 96.616C1202.14 93.768 1199.68 91.56 1196.38 91.56C1194.59 91.56 1193.44 92.008 1192 92.904C1190.43 93.832 1189.7 95.048 1189.7 96.136C1189.7 97.128 1190.11 97.256 1190.94 97.256H1192.29L1192.54 97V95.848C1192.54 94.152 1193.82 93 1195.68 93C1197.82 93 1199.04 94.152 1199.04 96.84C1199.04 99.688 1196.83 101.384 1193.79 101.384H1192.93V102.792H1194.82C1198.82 102.792 1200.13 104.616 1200.13 107.496C1200.13 110.088 1198.56 111.88 1195.87 111.88C1193.12 111.88 1191.9 110.792 1191.9 109.416V108.36L1191.68 108.136H1190.21C1189.44 108.136 1189.06 108.264 1189.06 109.16C1189.06 110.056 1189.66 110.952 1190.85 111.848C1192.19 112.872 1193.76 113.32 1195.81 113.32ZM1210.18 113H1218.34V112.488L1215.78 111.208V106.824H1219.58V104.68H1215.78V91.88H1215.14L1204.26 106.184V106.824H1213.06V111.208L1210.18 112.488V113ZM1207.3 104.68L1213.06 96.84V104.68H1207.3Z" fill="#F3F3F3"/>
<path d="M153.623 117.48C163.175 117.48 170.231 110.568 170.231 101.16C170.231 91.752 163.175 84.84 153.623 84.84C144.119 84.84 137.063 91.752 137.063 101.16C137.063 110.568 144.119 117.48 153.623 117.48ZM154.391 114.984C149.015 114.984 144.695 108.888 144.695 99.624C144.695 92.088 148.199 87.288 152.999 87.288C158.375 87.288 162.551 93.336 162.551 102.6C162.551 110.136 159.239 114.984 154.391 114.984ZM173.731 103.32H174.643L178.051 97.464H181.603V114.696L177.619 116.232V117H192.355V116.232L188.323 114.696V97.464H191.875L195.283 103.32H196.195V95.112H173.731V103.32ZM201.759 97.416V114.696L198.543 116.232V117H210.783V116.232L208.479 114.696V97.464H215.247V114.696L212.991 116.232V117H225.231V116.232L222.015 114.696V97.416L225.231 95.88V95.112H198.543V95.88L201.759 97.416ZM228.215 128.04H241.895V127.272L238.151 125.736V117.048C239.399 117.336 240.743 117.48 242.231 117.48C248.183 117.48 253.367 112.824 253.367 105.144C253.367 98.616 249.623 94.632 245.351 94.632C242.807 94.632 240.695 95.496 238.343 97.56H238.055L237.671 94.632H237.095L228.359 97.56V98.136L231.431 100.392V125.736L228.215 127.272V128.04ZM241.367 98.568C244.055 98.568 246.647 101.064 246.647 106.536C246.647 113.208 244.247 114.984 241.943 114.984C240.359 114.984 239.063 114.456 238.151 113.4V99.528C239.303 98.904 240.215 98.568 241.367 98.568ZM262.287 117.432C265.071 117.432 267.327 116.04 268.911 114.216H269.199C270.063 116.28 271.695 117.48 274.431 117.48C277.119 117.48 278.799 116.232 279.519 115.032V114.36L279.375 114.216H277.983C276.879 114.216 276.159 113.928 275.679 113.448V100.776C275.679 96.456 271.743 94.632 267.039 94.632C264.687 94.632 262.815 95.256 260.511 96.696C258.639 97.848 257.439 99.24 257.439 100.632C257.439 101.736 257.775 102.12 258.735 102.12H261.903L262.095 101.928V99.72C262.095 97.944 262.911 97.032 264.975 97.032C267.279 97.032 268.911 98.616 268.911 101.064V104.04L264.399 105.144C258.351 106.68 256.671 108.456 256.671 111.912C256.575 115.464 259.167 117.432 262.287 117.432ZM263.007 110.568C263.007 108.216 264.111 106.968 268.911 105.96V113.016C267.951 113.4 267.135 113.592 266.175 113.592C264.207 113.592 263.007 112.584 263.007 110.568ZM284.399 97.416V114.696L281.183 116.232V117H292.799C300.767 117 305.135 114.84 305.135 110.52C305.135 107.784 302.879 105.72 296.879 105.144C301.151 104.568 303.599 102.888 303.551 100.104C303.599 96.12 298.991 95.112 293.183 95.112H281.183V95.88L284.399 97.416ZM292.895 97.224C295.631 97.224 296.879 98.664 296.879 100.824C296.879 103.176 295.583 104.424 292.751 104.424H291.119V97.224H292.895ZM292.703 106.344C296.543 106.344 298.175 107.976 298.175 110.616C298.175 113.4 296.495 114.888 292.511 114.888H291.119V106.344H292.703ZM315.497 98.856V97.464H320.969V114.696L317.801 116.232V117H330.953V116.232L327.737 114.696V97.416L330.953 95.88V95.112H309.641V95.88L312.953 97.416V98.856C312.953 107.832 312.185 112.536 307.673 112.536H307.001L306.761 112.776V116.088C306.761 117.144 306.953 117.48 308.345 117.48C310.265 117.48 312.089 116.664 313.337 114.408C314.921 111.624 315.497 106.152 315.497 98.856ZM344.91 117.48C349.374 117.48 352.83 114.984 354.414 111.576V110.808H354.27C352.11 111.912 350.046 112.296 348.222 112.296C342.894 112.296 340.734 109.08 340.734 105.048V104.808H354.174L354.366 104.568C354.27 98.232 351.294 94.632 346.11 94.632C339.534 94.632 334.254 99.768 334.254 107.064C334.254 113.352 338.334 117.48 344.91 117.48ZM345.006 96.792C347.166 96.792 348.51 98.28 348.99 102.648H340.878C341.31 98.904 342.75 96.792 345.006 96.792ZM360.946 97.416V114.696L357.73 116.232V117H369.97V116.232L367.666 114.696V106.728H374.914V114.696L372.658 116.232V117H384.898V116.232L381.682 114.696V97.416L384.898 95.88V95.112H372.658V95.88L374.914 97.416V104.376H367.666V97.416L369.97 95.88V95.112H357.73V95.88L360.946 97.416ZM391.087 97.416V114.696L387.871 116.232V117H400.111V116.232L397.807 114.696V112.776L405.535 102.792V114.696L403.279 116.232V117H415.519V116.232L412.303 114.696V97.416L415.519 95.88V95.112H403.279V95.88L405.535 97.416V99.144L397.807 109.128V97.416L400.111 95.88V95.112H387.871V95.88L391.087 97.416ZM429.472 117.48C433.936 117.48 437.392 114.984 438.976 111.576V110.808H438.832C436.672 111.912 434.608 112.296 432.784 112.296C427.456 112.296 425.296 109.08 425.296 105.048V104.808H438.736L438.928 104.568C438.832 98.232 435.856 94.632 430.672 94.632C424.096 94.632 418.816 99.768 418.816 107.064C418.816 113.352 422.896 117.48 429.472 117.48ZM429.568 96.792C431.728 96.792 433.072 98.28 433.552 102.648H425.44C425.872 98.904 427.312 96.792 429.568 96.792Z" fill="#F3F3F3"/>
<path fill-rule="evenodd" clip-rule="evenodd" d="M73.0448 109.994L112.871 87L123.16 91.6805L100.402 104.82L100.399 104.821L90.23 126.621L84.2764 125.507L85.6074 113.361L77.6435 117.959L73.0448 109.994ZM82.0603 103.273L70.8745 98.3524L72.8863 92.6393L96.853 94.7327L82.0603 103.273ZM73.045 109.995L60 108.424L64.5988 116.389L77.6438 117.961L73.045 109.995Z" fill="#FDB62B"/>
</svg>
