<svg width="1160" height="775" viewBox="0 0 1160 775" fill="none" xmlns="http://www.w3.org/2000/svg">
<rect x="796" y="411" width="364" height="364" fill="#162DFB"/>
<mask id="mask0_585:12289" style="mask-type:alpha" maskUnits="userSpaceOnUse" x="796" y="411" width="364" height="364">
<rect x="796" y="411" width="364" height="364" fill="#162DFB"/>
</mask>
<g mask="url(#mask0_585:12289)">
<path d="M799.047 718.605H895.55V713.174L869.477 702.65V579.082H947.356V702.311L924.67 713.174V718.605H1021.17V713.174L994.761 702.65V579.082H1065.53V688.392C1065.53 709.779 1085.17 722 1112.6 722C1133.59 722 1152.55 711.476 1160 700.613V694.842L1158.98 694.163C1152.89 695.521 1146.46 696.879 1138.33 696.879C1124.45 696.879 1113.27 691.447 1113.27 679.905V579.082H1160V563.805H1113.27V526.463H1106.5L1072.3 563.805H994.761V542.758C994.761 506.095 999.163 492.516 1018.8 492.516C1026.59 492.516 1032.35 494.553 1039.8 498.287L1046.23 501.003H1048.94L1058.08 482.671C1059.43 479.955 1059.77 477.918 1059.77 476.221C1059.77 472.487 1058.08 470.45 1051.65 467.395C1048.26 465.697 1042.84 464 1037.43 464C986.973 464 947.356 530.876 947.356 553.282V563.805H869.477V542.758C869.477 506.434 875.572 491.497 894.534 491.497C899.952 491.497 905.369 493.195 909.771 495.571L915.189 497.947H918.236L927.04 478.937C928.394 476.221 929.41 474.184 929.41 472.487C929.41 469.771 928.394 468.074 923.315 466.037C920.268 465.018 916.205 464 911.464 464C861.351 464 821.734 530.876 821.734 553.282V563.805H796V579.082H821.734V702.311L799.047 713.174V718.605Z" fill="#FDB62B"/>
</g>
<rect x="398" y="411" width="364" height="364" fill="#162DFB"/>
<mask id="mask1_585:12289" style="mask-type:alpha" maskUnits="userSpaceOnUse" x="398" y="411" width="364" height="364">
<rect x="398" y="411" width="364" height="364" fill="#162DFB"/>
</mask>
<g mask="url(#mask1_585:12289)">
<path d="M401.044 717.745H497.44V712.334L471.396 701.849V578.732H511.307V563.512H471.396V542.542C471.396 506.013 475.455 492.484 495.072 492.484C502.852 492.484 508.602 494.513 516.043 498.233L522.469 500.939H525.513L534.307 482.675C535.66 479.969 536.336 477.94 536.336 476.248C536.336 472.528 534.307 470.837 528.219 467.454C524.837 465.763 519.087 464.072 514.013 464.072C472.411 464.072 423.706 521.91 423.706 553.027V563.512H398V578.732H423.706V701.51L401.044 712.334V717.745Z" fill="#F3F3F3"/>
<path d="M526.559 717.745H622.955V712.334L596.912 701.849V578.732H636.823V563.512H596.912V542.542C596.912 506.013 600.97 492.484 620.588 492.484C628.367 492.484 634.117 494.513 641.558 498.233L647.984 500.939H651.029L659.823 482.675C661.175 479.969 661.852 477.94 661.852 476.248C661.852 472.528 659.823 470.837 653.734 467.454C650.352 465.763 644.602 464.072 639.529 464.072C597.926 464.072 549.221 521.91 549.221 553.027V563.512H523.515V578.732H549.221V701.51L526.559 712.334V717.745Z" fill="#F3F3F3"/>
<path d="M714.648 721.128C735.618 721.128 754.559 710.643 762 699.819V694.069L760.985 693.393C754.897 694.746 748.471 696.099 740.015 696.099C726.486 696.099 714.986 690.687 714.986 679.187V578.732H762V563.512H714.986V526.307H708.559L674.398 563.512L643.281 573.997V578.732H667.634V687.643C667.634 708.951 687.251 721.128 714.648 721.128Z" fill="#F3F3F3"/>
<path d="M511.329 578.732H523.537V563.512H511.329V578.732Z" fill="#FDB62B"/>
<path d="M636.844 563.512V578.732H643.303V573.997L674.42 563.512H636.844Z" fill="#FDB62B"/>
</g>
<rect y="411" width="364" height="364" fill="#162DFB"/>
<mask id="mask2_585:12289" style="mask-type:alpha" maskUnits="userSpaceOnUse" x="0" y="411" width="364" height="364">
<rect y="411" width="364" height="364" fill="#162DFB"/>
</mask>
<g mask="url(#mask2_585:12289)">
<path d="M3.04408 717.618H99.4399V712.208L73.3961 701.725V578.636H113.307V563.418H73.3961V542.453C73.3961 505.932 77.4549 492.405 97.0723 492.405C104.852 492.405 110.602 494.434 118.043 498.154L124.469 500.859H127.513L136.307 482.599C137.66 479.893 138.336 477.864 138.336 476.174C138.336 472.454 136.307 470.763 130.219 467.382C126.837 465.691 121.087 464 116.013 464C74.4108 464 25.7056 521.825 25.7056 552.936V563.418H0V578.636H25.7056V701.387L3.04408 712.208V717.618Z" fill="#F3F3F3"/>
<path d="M128.559 717.618H224.955V712.208L198.912 701.725V578.636H238.823V563.418H198.912V542.453C198.912 505.932 202.97 492.405 222.588 492.405C230.367 492.405 236.117 494.434 243.558 498.154L249.984 500.859H253.029L261.823 482.599C263.175 479.893 263.852 477.864 263.852 476.174C263.852 472.454 261.823 470.763 255.734 467.382C252.352 465.691 246.602 464 241.529 464C199.926 464 151.221 521.825 151.221 552.936V563.418H125.515V578.636H151.221V701.387L128.559 712.208V717.618Z" fill="#F3F3F3"/>
<path d="M316.648 721C337.618 721 356.559 710.517 364 699.696V693.947L362.985 693.271C356.897 694.624 350.471 695.976 342.015 695.976C328.486 695.976 316.986 690.566 316.986 679.068V578.636H364V563.418H316.986V526.221H310.559L276.398 563.418L245.281 573.901V578.636H269.634V687.522C269.634 708.826 289.251 721 316.648 721Z" fill="#F3F3F3"/>
</g>
<rect x="398" width="364" height="364" fill="#FDB62B"/>
<mask id="mask3_585:12289" style="mask-type:alpha" maskUnits="userSpaceOnUse" x="398" y="0" width="364" height="364">
<rect x="398" width="364" height="364" fill="#FDB62B"/>
</mask>
<g mask="url(#mask3_585:12289)">
<path fill-rule="evenodd" clip-rule="evenodd" d="M528.377 136.327C530.68 136.506 532.809 136.742 534.939 136.979C527.271 124.526 522 108.721 522 91.479C522 38.3158 562.734 0 621.199 0C683.77 0 710.122 36.6396 703.222 90H695.662L652.159 131.196L633.857 139.766L643.244 90.0421C650.911 47.8947 633.659 24.9053 598.676 24.9053C561.776 24.9053 537.814 51.2474 537.814 89.5632C537.814 109.667 545.396 128.974 562.381 152.578C555.688 144.633 546.055 137.89 528.377 136.327Z" fill="#162DFB"/>
<path d="M469.625 364C524.123 364 560.455 324.72 560.455 283.045C560.455 250.472 540.855 236.58 512.65 221.252C486.835 207.839 478.23 197.78 478.23 182.93C478.23 169.038 488.269 158.979 503.089 158.979C516.474 158.979 523.645 165.685 533.206 177.661L545.158 192.031H548.504L567.148 178.14C570.016 176.224 570.973 172.871 570.973 169.517C570.973 165.206 568.582 159.937 563.802 153.71C556.153 144.129 544.68 135.986 520.777 135.986C474.406 135.986 429.469 174.787 429.469 207.36C429.469 239.455 441.42 251.43 472.015 269.154C503.567 287.357 515.04 295.021 515.04 314.182C515.04 329.99 503.567 341.007 482.533 341.007C466.279 341.007 451.937 332.385 441.42 317.535L433.293 306.038H429.947L412.259 318.972C407.956 321.846 407 325.678 407 329.51C407 335.259 410.346 340.528 417.517 346.755C427.078 356.336 443.81 364 469.625 364Z" fill="#F3F3F3"/>
<path d="M654.565 364C690.897 364 720.058 332.385 739.18 274.423L730.097 271.07C717.19 302.206 701.414 315.14 687.072 315.14C676.077 315.14 670.341 308.913 670.341 293.584C670.341 289.273 670.819 284.003 672.731 273.465L692.331 161.853H754V140.776H696.155L704.76 90H696.155L652.653 131.196L601.501 155.147L600.067 161.853H631.14L608.672 288.794C607.715 296.937 606.759 304.601 606.759 311.308C606.759 345.797 623.969 364 654.565 364Z" fill="#F3F3F3"/>
</g>
<rect x="796" width="364" height="364" fill="#FDB62B"/>
<mask id="mask4_585:12289" style="mask-type:alpha" maskUnits="userSpaceOnUse" x="796" y="0" width="364" height="364">
<rect x="796" width="364" height="364" fill="#FDB62B"/>
</mask>
<g mask="url(#mask4_585:12289)">
<path d="M867.778 364C922.41 364 958.831 324.726 958.831 283.058C958.831 250.968 939.183 237.079 910.909 221.753C885.03 207.863 876.404 197.805 876.404 182.958C876.404 169.068 886.468 159.011 901.324 159.011C914.742 159.011 921.931 165.716 931.515 177.689L943.496 192.058H946.85L965.54 178.168C967.936 176.732 969.374 172.9 969.374 169.547C969.374 166.674 968.895 163.321 966.019 159.489C945.413 132.668 936.307 111.595 936.307 89.5632C936.307 51.2474 960.269 24.9053 997.169 24.9053C1032.15 24.9053 1049.4 47.8947 1041.74 90.0421L1032.15 140.811L998.127 155.179L996.69 161.884H1027.84L1005.32 288.805C997.169 337.179 1014.42 364 1051.32 364C1087.74 364 1116.98 332.389 1136.14 274.437L1127.04 271.084C1114.1 302.216 1098.29 315.147 1083.91 315.147C1070.01 315.147 1064.26 304.611 1068.57 278.747L1089.18 161.884H1151V140.811H1093.01L1100.68 96.7474C1110.75 39.7526 1084.87 0 1019.69 0C961.227 0 920.493 38.3158 920.493 91.479C920.493 108.721 925.765 124.526 933.432 136.979C929.119 136.5 924.806 136.021 919.055 136.021C872.571 136.021 827.524 174.816 827.524 207.384C827.524 238.995 841.421 252.405 870.175 268.689C901.803 286.889 912.346 294.553 912.346 313.711C912.346 329.516 900.845 341.011 879.759 341.011C861.069 341.011 850.047 332.389 839.504 317.542L831.357 306.047H828.003L810.271 318.979C805.958 321.853 805 325.684 805 329.516C805 335.263 808.355 341.011 815.543 346.758C825.127 356.337 841.9 364 867.778 364Z" fill="#162DFB"/>
</g>
<rect width="364" height="364" fill="#FDB62B"/>
<mask id="mask5_585:12289" style="mask-type:alpha" maskUnits="userSpaceOnUse" x="0" y="0" width="364" height="364">
<rect width="364" height="364" fill="#FDB62B"/>
</mask>
<g mask="url(#mask5_585:12289)">
<path d="M71.6251 364C126.123 364 162.455 324.72 162.455 283.045C162.455 250.472 142.855 236.58 114.65 221.252C88.835 207.839 80.2301 197.78 80.2301 182.93C80.2301 169.038 90.2692 158.979 105.089 158.979C118.474 158.979 125.645 165.685 135.206 177.661L147.158 192.031H150.504L169.148 178.14C172.016 176.224 172.973 172.871 172.973 169.517C172.973 165.206 170.582 159.937 165.802 153.71C158.153 144.129 146.68 135.986 122.777 135.986C76.4056 135.986 31.4685 174.787 31.4685 207.36C31.4685 239.455 43.4199 251.43 74.0153 269.154C105.567 287.357 117.04 295.021 117.04 314.182C117.04 329.99 105.567 341.007 84.5325 341.007C68.2787 341.007 53.9371 332.385 43.4199 317.535L35.293 306.038H31.9466L14.2586 318.972C9.95611 321.846 9 325.678 9 329.51C9 335.259 12.3464 340.528 19.5172 346.755C29.0783 356.336 45.8102 364 71.6251 364Z" fill="#F3F3F3"/>
<path d="M256.565 364C292.897 364 322.058 332.385 341.18 274.423L332.097 271.07C319.19 302.206 303.414 315.14 289.072 315.14C278.077 315.14 272.341 308.913 272.341 293.584C272.341 289.273 272.819 284.003 274.731 273.465L294.331 161.853H356V140.776H298.155L306.76 90H298.155L254.653 131.196L203.501 155.147L202.067 161.853H233.14L210.672 288.794C209.715 296.937 208.759 304.601 208.759 311.308C208.759 345.797 225.969 364 256.565 364Z" fill="#F3F3F3"/>
</g>
</svg>
