<svg width="1280" height="1286" viewBox="0 0 1280 1286" fill="none" xmlns="http://www.w3.org/2000/svg">
<rect y="70" width="1280" height="1216" fill="#162DFB"/>
<ellipse cx="640" cy="70" rx="640" ry="70" fill="#162DFB"/>
<rect x="500" y="448" width="720" height="734" fill="#FDB62B"/>
<path d="M1184.22 416L500 448.185H1202.11V432.093H1184.22V416Z" fill="#F3F3F3"/>
<path d="M555.777 551.191H570.705V550.423L567.105 548.455V522.151H579.249V548.455L575.649 550.423V551.191H590.529V550.423L586.497 548.455V522.247L590.529 520.279V519.511H555.777V520.279L559.857 522.247V548.455L555.777 550.423V551.191ZM599.866 551.623C602.65 551.623 604.906 550.231 606.49 548.407H606.778C607.642 550.471 609.274 551.671 612.01 551.671C614.698 551.671 616.378 550.423 617.098 549.223V548.551L616.954 548.407H615.562C614.458 548.407 613.738 548.119 613.258 547.639V534.967C613.258 530.647 609.322 528.823 604.618 528.823C602.266 528.823 600.394 529.447 598.09 530.887C596.218 532.039 595.018 533.431 595.018 534.823C595.018 535.927 595.354 536.311 596.314 536.311H599.482L599.674 536.119V533.911C599.674 532.135 600.49 531.223 602.554 531.223C604.858 531.223 606.49 532.807 606.49 535.255V538.231L601.978 539.335C595.93 540.871 594.25 542.647 594.25 546.103C594.154 549.655 596.746 551.623 599.866 551.623ZM600.586 544.759C600.586 542.407 601.69 541.159 606.49 540.151V547.207C605.53 547.591 604.714 547.783 603.754 547.783C601.786 547.783 600.586 546.775 600.586 544.759ZM622.026 531.607L621.546 548.887L618.378 550.423V551.191H626.97V550.423L624.234 548.887L624.618 535.015L632.058 551.191H634.074L641.13 534.967L641.802 548.887L639.066 550.423V551.191H651.786V550.423L648.57 548.887L647.658 531.607L650.874 530.071V529.303H640.842L635.274 542.071H634.89L629.178 529.303H618.858V530.071L622.026 531.607ZM667.301 551.191H679.589V550.423L676.421 548.887V531.607L679.589 530.071V529.303H667.061C661.013 529.303 656.693 531.031 656.693 535.687C656.693 538.375 658.613 540.247 661.685 540.967L656.405 548.791L653.573 550.423V551.191H662.549L663.797 548.695L668.165 541.879H669.653V548.887L667.301 550.423V551.191ZM668.021 540.007C664.901 540.007 663.365 537.991 663.365 535.639C663.365 533.191 664.997 531.415 668.213 531.415H669.653V540.007H668.021ZM681.935 537.511H682.847L686.255 531.655H689.807V548.887L685.823 550.423V551.191H700.559V550.423L696.527 548.887V531.655H700.079L703.487 537.511H704.399V529.303H681.935V537.511ZM724.603 551.191H733.963V550.423L730.891 548.791L722.251 537.751L729.595 531.751L732.763 530.071V529.303H722.875V530.071L724.843 531.799V532.087L716.683 539.287V531.607L719.659 530.071V529.303H706.747V530.071L709.963 531.607V548.887L706.747 550.423V551.191H719.659V550.423L716.683 548.887V540.391L723.115 548.695L724.603 551.191ZM741.194 551.623C743.978 551.623 746.234 550.231 747.818 548.407H748.106C748.97 550.471 750.602 551.671 753.338 551.671C756.026 551.671 757.706 550.423 758.426 549.223V548.551L758.282 548.407H756.89C755.786 548.407 755.066 548.119 754.586 547.639V534.967C754.586 530.647 750.65 528.823 745.946 528.823C743.594 528.823 741.722 529.447 739.418 530.887C737.546 532.039 736.346 533.431 736.346 534.823C736.346 535.927 736.682 536.311 737.642 536.311H740.81L741.002 536.119V533.911C741.002 532.135 741.818 531.223 743.882 531.223C746.186 531.223 747.818 532.807 747.818 535.255V538.231L743.306 539.335C737.258 540.871 735.578 542.647 735.578 546.103C735.482 549.655 738.074 551.623 741.194 551.623ZM741.914 544.759C741.914 542.407 743.018 541.159 747.818 540.151V547.207C746.858 547.591 746.042 547.783 745.082 547.783C743.114 547.783 741.914 546.775 741.914 544.759ZM558.369 597.607V614.887L555.153 616.423V617.191H567.393V616.423L565.089 614.887V597.655H571.857V614.887L569.601 616.423V617.191H581.841V616.423L578.625 614.887V597.607L581.841 596.071V595.303H555.153V596.071L558.369 597.607ZM590.585 617.623C593.369 617.623 595.625 616.231 597.209 614.407H597.497C598.361 616.471 599.993 617.671 602.729 617.671C605.417 617.671 607.097 616.423 607.817 615.223V614.551L607.673 614.407H606.281C605.177 614.407 604.457 614.119 603.977 613.639V600.967C603.977 596.647 600.041 594.823 595.337 594.823C592.985 594.823 591.113 595.447 588.809 596.887C586.937 598.039 585.737 599.431 585.737 600.823C585.737 601.927 586.073 602.311 587.033 602.311H590.201L590.393 602.119V599.911C590.393 598.135 591.209 597.223 593.273 597.223C595.577 597.223 597.209 598.807 597.209 601.255V604.231L592.697 605.335C586.649 606.871 584.969 608.647 584.969 612.103C584.873 615.655 587.465 617.623 590.585 617.623ZM591.305 610.759C591.305 608.407 592.409 607.159 597.209 606.151V613.207C596.249 613.591 595.433 613.783 594.473 613.783C592.505 613.783 591.305 612.775 591.305 610.759ZM620.137 617.671C624.553 617.671 627.913 615.127 629.497 611.767V610.999H629.353C627.145 612.103 625.129 612.487 623.305 612.487C618.265 612.487 616.249 609.127 616.249 604.951C616.249 600.103 617.785 596.935 620.713 596.935C622.489 596.935 623.401 597.847 624.505 599.335L626.185 601.687H626.521L628.777 599.767C629.257 599.335 629.401 599.095 629.401 598.615C629.401 598.231 629.161 597.799 628.633 597.175C627.385 595.735 624.793 594.823 621.817 594.823C614.569 594.823 609.769 599.959 609.769 607.255C609.769 613.543 613.945 617.671 620.137 617.671ZM643.2 617.671C647.616 617.671 650.976 615.127 652.56 611.767V610.999H652.416C650.208 612.103 648.192 612.487 646.368 612.487C641.328 612.487 639.312 609.127 639.312 604.951C639.312 600.103 640.848 596.935 643.776 596.935C645.552 596.935 646.464 597.847 647.568 599.335L649.248 601.687H649.584L651.84 599.767C652.32 599.335 652.464 599.095 652.464 598.615C652.464 598.231 652.224 597.799 651.696 597.175C650.448 595.735 647.856 594.823 644.88 594.823C637.632 594.823 632.832 599.959 632.832 607.255C632.832 613.543 637.008 617.671 643.2 617.671ZM661.507 617.623C664.291 617.623 666.547 616.231 668.131 614.407H668.419C669.283 616.471 670.915 617.671 673.651 617.671C676.339 617.671 678.019 616.423 678.739 615.223V614.551L678.595 614.407H677.203C676.099 614.407 675.379 614.119 674.899 613.639V600.967C674.899 596.647 670.963 594.823 666.259 594.823C663.907 594.823 662.035 595.447 659.731 596.887C657.859 598.039 656.659 599.431 656.659 600.823C656.659 601.927 656.995 602.311 657.955 602.311H661.123L661.315 602.119V599.911C661.315 598.135 662.131 597.223 664.195 597.223C666.499 597.223 668.131 598.807 668.131 601.255V604.231L663.619 605.335C657.571 606.871 655.891 608.647 655.891 612.103C655.795 615.655 658.387 617.623 661.507 617.623ZM662.227 610.759C662.227 608.407 663.331 607.159 668.131 606.151V613.207C667.171 613.591 666.355 613.783 665.395 613.783C663.427 613.783 662.227 612.775 662.227 610.759ZM687.844 617.191L689.332 614.695L695.572 606.391V614.887L692.788 616.423V617.191H705.124V616.423L702.292 614.887V606.391L708.532 614.695L710.02 617.191H719.092V616.423L716.308 614.791L707.764 603.655L714.724 597.751L717.892 596.071V595.303H708.004V596.071L710.02 597.799V598.087L702.292 605.287V597.607L705.268 596.071V595.303H692.644V596.071L695.572 597.607V605.287L687.892 598.087V597.799L689.86 596.071V595.303H679.732V596.071L682.9 597.751L690.148 604.039L681.988 614.791L678.964 616.423V617.191H687.844ZM723.885 597.607V614.887L720.669 616.423V617.191H732.909V616.423L730.605 614.887V612.967L738.333 602.983V614.887L736.077 616.423V617.191H748.317V616.423L745.101 614.887V597.607L748.317 596.071V595.303H736.077V596.071L738.333 597.607V599.335L730.605 609.319V597.607L732.909 596.071V595.303H720.669V596.071L723.885 597.607ZM751.278 628.231H764.958V627.463L761.214 625.927V617.239C762.462 617.527 763.806 617.671 765.294 617.671C771.246 617.671 776.43 613.015 776.43 605.335C776.43 598.807 772.686 594.823 768.414 594.823C765.87 594.823 763.758 595.687 761.406 597.751H761.118L760.734 594.823H760.158L751.422 597.751V598.327L754.494 600.583V625.927L751.278 627.463V628.231ZM764.43 598.759C767.118 598.759 769.71 601.255 769.71 606.727C769.71 613.399 767.31 615.175 765.006 615.175C763.422 615.175 762.126 614.647 761.214 613.591V599.719C762.366 599.095 763.278 598.759 764.43 598.759ZM782.321 628.759C784.001 628.759 786.065 627.847 787.361 625.975C788.801 623.959 788.993 623.191 789.905 620.983L799.505 597.655L802.913 596.071V595.303H793.745V596.071L796.577 597.607V597.799L792.497 608.695H792.161L786.881 597.607V597.463L789.857 596.071V595.303H776.609V596.071L779.585 597.367L789.137 617.239L787.889 620.263C786.449 623.671 785.489 623.815 783.089 623.815H780.929L780.689 624.055V627.367C780.689 628.423 780.881 628.759 782.321 628.759Z" fill="#162DFB"/>
<path d="M1132.84 531.557L1177.49 531.557L1183.87 540.488L1132.84 540.488L1132.84 531.557Z" fill="#162DFB"/>
<path d="M1122.63 523.902L1132.84 531.557L1132.84 540.488L1122.63 532.833L1122.63 528.368L1122.63 523.902Z" fill="#162DFB"/>
<path d="M1134.75 550.057L1141.77 540.488H1158.35L1139.22 553.885L1134.75 550.057Z" fill="#162DFB"/>
<path d="M1136.67 520.713L1143.68 530.282L1160.27 530.282L1141.13 516.885L1136.67 520.713Z" fill="#162DFB"/>
<rect x="60" y="332" width="805" height="796" fill="#F3F3F3"/>
<path d="M825 296L60 332H845V314H825V296Z" fill="#FDB62B"/>
<path d="M790.228 446.272L790.228 409.454L795 404L799.773 409.454L799.773 446.272L790.228 446.272Z" fill="#162DFB"/>
<path d="M782.046 457.181L790.228 446.272L799.773 446.272L791.591 457.181H782.046Z" fill="#162DFB"/>
<path d="M807.954 457.181L799.772 446.272L790.227 446.272L798.409 457.181H807.954Z" fill="#162DFB"/>
<path d="M769.091 441.071L788.863 437.662L788.863 419.935L765 436.298L769.091 441.071Z" fill="#162DFB"/>
<path d="M820.909 441.071L801.137 437.662L801.137 419.935L825 436.298L820.909 441.071Z" fill="#162DFB"/>
</svg>
