<svg width="1280" height="828" viewBox="0 0 1280 828" fill="none" xmlns="http://www.w3.org/2000/svg">
<g clip-path="url(#clip0_574:11895)">
<rect width="1280" height="828" fill="#162DFB"/>
<rect width="1280" height="828" fill="#162DFB"/>
<path d="M1.23688 184H30.9009L31.1889 181.84L19.8129 179.536L35.2209 93.28H81.1569L65.8929 179.248L55.0929 181.84L54.8049 184H84.4689L84.7569 181.84L73.6689 179.536L88.9329 93.712L99.4449 91.12L100.021 88.96H16.7889L16.2129 91.12L27.3009 93.424L12.0369 179.248L1.52488 181.84L1.23688 184ZM102.765 184H133.869L134.301 181.84L121.629 179.392L128.253 141.664H140.349C161.373 141.664 174.765 127.984 174.765 111.712C174.765 96.448 162.669 88.96 143.805 88.96H119.613L119.181 90.976L128.973 93.424L113.709 179.392L103.197 181.84L102.765 184ZM144.093 93.136C157.341 93.136 166.845 99.76 166.845 112.288C166.845 127.264 157.917 137.488 139.053 137.488H128.973L136.893 93.136H144.093ZM220.71 185.44C250.518 185.44 270.966 156.064 270.966 125.104C270.966 102.784 258.15 87.52 237.99 87.52C210.198 87.52 187.734 114.592 187.734 147.856C187.734 170.032 200.694 185.44 220.71 185.44ZM224.022 182.272C207.462 182.272 195.654 167.296 195.654 145.264C195.654 114.448 212.502 90.688 234.822 90.688C251.094 90.688 263.046 105.376 263.046 127.408C263.046 159.232 245.19 182.272 224.022 182.272ZM327.703 185.44C340.807 185.44 348.007 182.704 355.495 178.384L359.959 157.792H357.799L347.863 177.664C342.823 180.544 337.351 181.984 330.151 181.984C312.727 181.984 297.751 166.144 297.751 145.264C297.751 116.32 312.583 91.984 339.943 91.984C348.151 91.984 354.487 93.856 360.103 98.32L362.695 115.6H364.855L367.879 94.576C361.543 90.688 355.639 87.52 342.967 87.52C311.863 87.52 289.687 116.464 289.687 146.56C289.687 170.32 305.671 185.44 327.703 185.44ZM377.971 184H407.635L407.923 181.84L396.547 179.536L397.699 172.768L459.619 108.112L446.947 179.248L436.147 181.84L435.859 184H465.523L465.811 181.84L454.723 179.536L469.987 93.712L480.499 91.12L481.075 88.96H451.411L450.835 91.12L462.211 93.424L461.059 100.336L399.139 164.992L411.811 93.712L422.611 91.12L423.187 88.96H393.523L392.947 91.12L404.035 93.424L388.771 179.248L378.259 181.84L377.971 184ZM484.003 184H510.499L510.931 181.84L500.851 179.536L516.547 97.888L535.267 184.72H538.003L586.243 98.464L575.299 179.536L565.363 181.84L564.787 184H591.571L592.003 181.84L583.363 179.392L594.163 93.856L605.539 90.976L605.971 88.96H586.243L540.739 170.752L522.595 88.96H502.579L502.147 90.832L512.947 93.856L495.091 179.392L484.579 181.84L484.003 184Z" fill="#F3F3F3"/>
<path d="M644.878 184H674.542L674.83 181.84L663.454 179.536L678.862 93.28H724.797L709.534 179.248L698.734 181.84L698.446 184H728.109L728.398 181.84L717.31 179.536L732.574 93.712L743.086 91.12L743.662 88.96H660.43L659.854 91.12L670.942 93.424L655.678 179.248L645.166 181.84L644.878 184ZM742.949 184H766.997L767.429 181.84L755.621 179.824L772.613 147.28H805.589L811.493 179.68L799.685 181.84L799.109 184H826.181L826.613 181.84L819.701 179.68L802.421 88.24H799.685L749.717 179.824L743.525 181.84L742.949 184ZM774.917 142.96L797.237 100.48L804.869 142.96H774.917ZM882.047 185.44C895.151 185.44 902.351 182.704 909.839 178.384L914.303 157.792H912.143L902.207 177.664C897.167 180.544 891.695 181.984 884.495 181.984C867.071 181.984 852.095 166.144 852.095 145.264C852.095 116.32 866.927 91.984 894.287 91.984C902.495 91.984 908.831 93.856 914.447 98.32L917.039 115.6H919.199L922.223 94.576C915.887 90.688 909.983 87.52 897.311 87.52C866.207 87.52 844.031 116.464 844.031 146.56C844.031 170.32 860.015 185.44 882.047 185.44ZM973.172 185.44C986.276 185.44 993.476 182.704 1000.96 178.384L1005.43 157.792H1003.27L993.332 177.664C988.292 180.544 982.82 181.984 975.62 181.984C958.196 181.984 943.22 166.144 943.22 145.264C943.22 116.32 958.052 91.984 985.412 91.984C993.62 91.984 999.956 93.856 1005.57 98.32L1008.16 115.6H1010.32L1013.35 94.576C1007.01 90.688 1001.11 87.52 988.436 87.52C957.332 87.52 935.156 116.464 935.156 146.56C935.156 170.32 951.14 185.44 973.172 185.44ZM1017.03 184H1041.08L1041.51 181.84L1029.7 179.824L1046.69 147.28H1079.67L1085.57 179.68L1073.76 181.84L1073.19 184H1100.26L1100.69 181.84L1093.78 179.68L1076.5 88.24H1073.76L1023.8 179.824L1017.6 181.84L1017.03 184ZM1049 142.96L1071.32 100.48L1078.95 142.96H1049ZM1116.38 184L1171.53 135.76L1163.76 179.248L1151.8 181.84L1151.37 184H1182.33L1182.76 181.84L1171.68 179.248L1179.31 136.048L1217.32 184H1232.16L1232.59 181.84L1224.96 180.256L1186.51 133.168L1231.15 92.704L1239.07 90.976L1239.5 88.96H1212L1211.56 90.976L1222.36 94.144L1179.6 134.464L1186.94 93.424L1197.31 90.976L1197.74 88.96H1169.66L1169.23 90.976L1179.02 93.424L1171.68 134.896L1142.88 94.144L1154.97 90.976L1155.12 88.96H1127.61L1127.47 90.976L1135.82 93.136L1164.91 132.448L1108.89 180.256L1101.69 181.84L1101.55 184H1116.38ZM1243.24 184H1272.9L1273.19 181.84L1261.81 179.536L1262.96 172.768L1324.88 108.112L1312.21 179.248L1301.41 181.84L1301.12 184H1330.79L1331.08 181.84L1319.99 179.536L1335.25 93.712L1345.76 91.12L1346.34 88.96H1316.68L1316.1 91.12L1327.48 93.424L1326.32 100.336L1264.4 164.992L1277.08 93.712L1287.88 91.12L1288.45 88.96H1258.79L1258.21 91.12L1269.3 93.424L1254.04 179.248L1243.52 181.84L1243.24 184ZM1349.12 184H1380.23L1380.66 181.84L1367.99 179.392L1374.61 141.664H1386.71C1407.73 141.664 1421.12 127.984 1421.12 111.712C1421.12 96.448 1409.03 88.96 1390.16 88.96H1365.97L1365.54 90.976L1375.33 93.424L1360.07 179.392L1349.56 181.84L1349.12 184ZM1390.45 93.136C1403.7 93.136 1413.2 99.76 1413.2 112.288C1413.2 127.264 1404.28 137.488 1385.41 137.488H1375.33L1383.25 93.136H1390.45ZM1467.07 185.44C1496.88 185.44 1517.33 156.064 1517.33 125.104C1517.33 102.784 1504.51 87.52 1484.35 87.52C1456.56 87.52 1434.09 114.592 1434.09 147.856C1434.09 170.032 1447.05 185.44 1467.07 185.44ZM1470.38 182.272C1453.82 182.272 1442.01 167.296 1442.01 145.264C1442.01 114.448 1458.86 90.688 1481.18 90.688C1497.45 90.688 1509.41 105.376 1509.41 127.408C1509.41 159.232 1491.55 182.272 1470.38 182.272ZM1527.44 184H1558.4C1577.84 184 1593.97 172.336 1593.97 156.352C1593.97 144.688 1587.2 136.768 1573.52 134.032C1586.77 130.144 1594.54 119.632 1594.54 109.408C1594.54 95.584 1584.18 88.96 1567.62 88.96H1544.14L1543.71 90.976L1553.65 93.424L1538.38 179.392L1527.87 181.84L1527.44 184ZM1567.76 93.424C1580.29 93.424 1586.77 99.04 1586.77 110.272C1586.77 122.368 1577.7 132.736 1561.86 132.736H1554.51L1561.42 93.424H1567.76ZM1563.3 137.056C1577.41 137.056 1586.19 142.816 1586.19 156.496C1586.19 169.6 1577.12 179.824 1558.98 179.824H1546.16L1553.65 137.056H1563.3Z" fill="#F3F3F3" fill-opacity="0.4"/>
<path d="M1.29156 462H30.9556L31.2436 459.84L19.8676 457.536L35.2756 371.28H81.2116L65.9476 457.248L55.1476 459.84L54.8596 462H84.5236L84.8116 459.84L73.7236 457.536L88.9876 371.712L99.4996 369.12L100.076 366.96H16.8436L16.2676 369.12L27.3556 371.424L12.0916 457.248L1.57956 459.84L1.29156 462ZM102.819 462H133.923L134.355 459.84L121.683 457.392L128.307 419.664H140.403C161.427 419.664 174.819 405.984 174.819 389.712C174.819 374.448 162.723 366.96 143.859 366.96H119.667L119.235 368.976L129.027 371.424L113.763 457.392L103.251 459.84L102.819 462ZM144.147 371.136C157.395 371.136 166.899 377.76 166.899 390.288C166.899 405.264 157.971 415.488 139.107 415.488H129.027L136.947 371.136H144.147ZM220.764 463.44C250.572 463.44 271.02 434.064 271.02 403.104C271.02 380.784 258.204 365.52 238.044 365.52C210.252 365.52 187.788 392.592 187.788 425.856C187.788 448.032 200.748 463.44 220.764 463.44ZM224.076 460.272C207.516 460.272 195.708 445.296 195.708 423.264C195.708 392.448 212.556 368.688 234.876 368.688C251.148 368.688 263.1 383.376 263.1 405.408C263.1 437.232 245.244 460.272 224.076 460.272ZM322.751 337.872C320.735 350.976 328.079 359.76 340.895 359.76C353.567 359.76 363.935 350.976 365.951 337.872H357.311C355.727 349.104 349.247 356.736 341.327 356.736C332.831 356.736 329.807 349.248 331.391 337.872H322.751ZM281.135 462H310.799L311.087 459.84L299.711 457.536L300.863 450.768L362.783 386.112L350.111 457.248L339.311 459.84L339.023 462H368.687L368.975 459.84L357.887 457.536L373.151 371.712L383.663 369.12L384.239 366.96H354.575L353.999 369.12L365.375 371.424L364.223 378.336L302.303 442.992L314.975 371.712L325.775 369.12L326.351 366.96H296.687L296.111 369.12L307.199 371.424L291.935 457.248L281.423 459.84L281.135 462ZM406.031 462H442.463L442.895 459.84L428.927 456.96L444.191 371.28H472.847L474.287 392.448H476.447L480.911 366.96H400.991L396.527 392.448H398.687L407.903 371.28H436.415L421.151 456.96L406.463 459.84L406.031 462ZM479.417 462H509.081L509.369 459.84L497.993 457.536L499.145 450.768L561.065 386.112L548.393 457.248L537.593 459.84L537.305 462H566.969L567.257 459.84L556.169 457.536L571.433 371.712L581.945 369.12L582.521 366.96H552.857L552.281 369.12L563.657 371.424L562.505 378.336L500.585 442.992L513.257 371.712L524.057 369.12L524.633 366.96H494.969L494.393 369.12L505.481 371.424L490.217 457.248L479.705 459.84L479.417 462Z" fill="#F3F3F3"/>
<path d="M621.448 462H651.112L651.4 459.84L640.024 457.536L647.656 414.768H696.472L688.984 457.248L678.184 459.84L677.896 462H707.56L707.848 459.84L696.76 457.536L712.024 371.712L722.536 369.12L723.112 366.96H693.448L692.872 369.12L704.248 371.424L697.336 410.448H648.376L655.288 371.712L666.088 369.12L666.664 366.96H637L636.424 369.12L647.512 371.424L632.248 457.248L621.736 459.84L621.448 462ZM722.332 462H746.38L746.812 459.84L735.004 457.824L751.996 425.28H784.972L790.876 457.68L779.068 459.84L778.492 462H805.564L805.996 459.84L799.084 457.68L781.804 366.24H779.068L729.1 457.824L722.908 459.84L722.332 462ZM754.3 420.96L776.62 378.48L784.252 420.96H754.3ZM900.242 463.44C913.346 463.44 920.546 460.704 928.034 456.384L932.498 435.792H930.338L920.402 455.664C915.362 458.544 909.89 459.984 902.69 459.984C885.266 459.984 870.29 444.144 870.29 423.264C870.29 394.32 885.122 369.984 912.482 369.984C920.69 369.984 927.026 371.856 932.642 376.32L935.234 393.6H937.394L940.418 372.576C934.082 368.688 928.178 365.52 915.506 365.52C884.402 365.52 862.226 394.464 862.226 424.56C862.226 448.32 878.21 463.44 900.242 463.44ZM965.015 462H1001.45L1001.88 459.84L987.911 456.96L1003.17 371.28H1031.83L1033.27 392.448H1035.43L1039.89 366.96H959.975L955.511 392.448H957.671L966.887 371.28H995.399L980.135 456.96L965.447 459.84L965.015 462ZM1077.17 463.44C1106.98 463.44 1127.43 434.064 1127.43 403.104C1127.43 380.784 1114.61 365.52 1094.45 365.52C1066.66 365.52 1044.19 392.592 1044.19 425.856C1044.19 448.032 1057.15 463.44 1077.17 463.44ZM1080.48 460.272C1063.92 460.272 1052.11 445.296 1052.11 423.264C1052.11 392.448 1068.96 368.688 1091.28 368.688C1107.55 368.688 1119.51 383.376 1119.51 405.408C1119.51 437.232 1101.65 460.272 1080.48 460.272ZM1179.16 337.872C1177.14 350.976 1184.49 359.76 1197.3 359.76C1209.97 359.76 1220.34 350.976 1222.36 337.872H1213.72C1212.13 349.104 1205.65 356.736 1197.73 356.736C1189.24 356.736 1186.21 349.248 1187.8 337.872H1179.16ZM1137.54 462H1167.21L1167.49 459.84L1156.12 457.536L1157.27 450.768L1219.19 386.112L1206.52 457.248L1195.72 459.84L1195.43 462H1225.09L1225.38 459.84L1214.29 457.536L1229.56 371.712L1240.07 369.12L1240.65 366.96H1210.98L1210.41 369.12L1221.78 371.424L1220.63 378.336L1158.71 442.992L1171.38 371.712L1182.18 369.12L1182.76 366.96H1153.09L1152.52 369.12L1163.61 371.424L1148.34 457.248L1137.83 459.84L1137.54 462ZM1243.43 462H1272.95L1273.38 459.84L1262.29 457.248L1269.92 414.048L1309.38 462H1324.21L1324.64 459.84L1317.01 458.256L1277.12 411.168L1323.2 370.704L1331.12 368.976L1331.56 366.96H1304.05L1303.62 368.976L1314.42 372L1270.21 412.464L1277.56 371.424L1287.92 368.976L1288.36 366.96H1260.28L1259.84 368.976L1269.64 371.424L1254.37 457.248L1243.86 459.84L1243.43 462ZM1369.59 446.16L1417.4 371.424L1425.18 368.976L1425.47 366.96H1400.12L1399.83 368.976L1410.35 371.28V371.712L1373.48 432.48H1372.19L1354.62 371.856V371.424L1365.99 368.976L1366.43 366.96H1338.63L1338.2 368.976L1346.12 370.848L1367 442.128C1361.39 450.336 1355.63 454.656 1345.69 454.656H1344.97L1343.96 455.52L1343.24 459.264C1342.67 462.432 1343.39 463.44 1347.13 463.44C1354.04 463.44 1360.81 459.984 1369.59 446.16Z" fill="#F3F3F3" fill-opacity="0.4"/>
<path d="M1.296 740H32.4L32.832 737.84L20.16 735.392L26.784 697.664H38.88C59.904 697.664 73.296 683.984 73.296 667.712C73.296 652.448 61.2 644.96 42.336 644.96H18.144L17.712 646.976L27.504 649.424L12.24 735.392L1.728 737.84L1.296 740ZM42.624 649.136C55.872 649.136 65.376 655.76 65.376 668.288C65.376 683.264 56.448 693.488 37.584 693.488H27.504L35.424 649.136H42.624ZM79.065 740H142.137L146.457 715.232H144.297L135.369 735.68H97.785L105.273 693.056H128.889L130.041 704.72H132.633L137.529 676.784H134.937L129.609 688.736H106.137L113.049 649.28H145.737L147.609 668.288H149.769L153.801 644.96H95.769L95.193 647.12L105.129 649.568L89.865 735.392L79.641 737.84L79.065 740ZM158.378 740H188.186L188.762 737.84L177.242 735.392L192.362 649.28H225.05L226.922 668.288H229.082L233.114 644.96H175.082L174.506 647.12L184.442 649.568L169.178 735.392L158.954 737.84L158.378 740ZM237.69 740H267.354L267.642 737.84L256.266 735.536L257.418 728.768L319.338 664.112L306.666 735.248L295.866 737.84L295.578 740H325.242L325.53 737.84L314.442 735.536L329.706 649.712L340.218 647.12L340.794 644.96H311.13L310.554 647.12L321.93 649.424L320.778 656.336L258.858 720.992L271.53 649.712L282.33 647.12L282.906 644.96H253.242L252.666 647.12L263.754 649.424L248.49 735.248L237.978 737.84L237.69 740ZM388.937 741.44C402.041 741.44 409.241 738.704 416.729 734.384L421.193 713.792H419.033L409.097 733.664C404.057 736.544 398.585 737.984 391.385 737.984C373.961 737.984 358.985 722.144 358.985 701.264C358.985 672.32 373.817 647.984 401.177 647.984C409.385 647.984 415.721 649.856 421.337 654.32L423.929 671.6H426.089L429.113 650.576C422.777 646.688 416.873 643.52 404.201 643.52C373.097 643.52 350.921 672.464 350.921 702.56C350.921 726.32 366.905 741.44 388.937 741.44ZM453.71 740H490.142L490.574 737.84L476.606 734.96L491.87 649.28H520.526L521.966 670.448H524.126L528.59 644.96H448.67L444.206 670.448H446.366L455.582 649.28H484.094L468.83 734.96L454.142 737.84L453.71 740ZM526.952 740H558.056L558.488 737.84L545.816 735.392L552.44 697.664H564.536C585.56 697.664 598.952 683.984 598.952 667.712C598.952 652.448 586.856 644.96 567.992 644.96H543.8L543.368 646.976L553.16 649.424L537.896 735.392L527.384 737.84L526.952 740ZM568.28 649.136C581.528 649.136 591.032 655.76 591.032 668.288C591.032 683.264 582.104 693.488 563.24 693.488H553.16L561.08 649.136H568.28ZM593.949 740H617.997L618.429 737.84L606.621 735.824L623.613 703.28H656.589L662.493 735.68L650.685 737.84L650.109 740H677.181L677.613 737.84L670.701 735.68L653.421 644.24H650.685L600.717 735.824L594.525 737.84L593.949 740ZM625.917 698.96L648.237 656.48L655.869 698.96H625.917ZM766.531 740L768.835 761.168H771.715L776.323 735.68H763.219L778.627 649.712L789.139 647.12L789.427 644.96H759.763L759.475 647.12L770.851 649.424L755.443 735.68H709.507L724.771 649.712L735.571 647.12L735.859 644.96H706.195L705.907 647.12L716.995 649.424L701.731 735.248L691.219 737.84L690.643 740H766.531ZM792.315 740H821.979L822.267 737.84L810.891 735.536L812.043 728.768L873.963 664.112L861.291 735.248L850.491 737.84L850.203 740H879.867L880.155 737.84L869.067 735.536L884.331 649.712L894.843 647.12L895.419 644.96H865.755L865.179 647.12L876.555 649.424L875.403 656.336L813.483 720.992L826.155 649.712L836.955 647.12L837.531 644.96H807.867L807.291 647.12L818.379 649.424L803.115 735.248L792.603 737.84L792.315 740ZM898.346 740H928.01L928.298 737.84L916.922 735.536L918.074 728.768L979.994 664.112L967.322 735.248L956.522 737.84L956.234 740H985.898L986.186 737.84L975.098 735.536L990.362 649.712L1000.87 647.12L1001.45 644.96H971.786L971.21 647.12L982.586 649.424L981.434 656.336L919.514 720.992L932.186 649.712L942.986 647.12L943.562 644.96H913.898L913.322 647.12L924.41 649.424L909.146 735.248L898.634 737.84L898.346 740Z" fill="#F3F3F3"/>
<path d="M1036.78 740H1060.83L1061.26 737.84L1049.45 735.824L1066.44 703.28H1099.42L1105.32 735.68L1093.51 737.84L1092.94 740H1120.01L1120.44 737.84L1113.53 735.68L1096.25 644.24H1093.51L1043.55 735.824L1037.35 737.84L1036.78 740ZM1068.75 698.96L1091.07 656.48L1098.7 698.96H1068.75ZM1159.25 741.44C1179.55 741.44 1197.55 709.616 1197.55 674.624C1197.55 655.616 1190.35 643.52 1176.53 643.52C1156.22 643.52 1138.51 675.2 1138.51 709.904C1138.51 729.2 1145.42 741.44 1159.25 741.44ZM1160.54 738.272C1151.18 738.272 1146.14 727.616 1146.14 709.184C1146.14 676.352 1160.11 646.688 1175.23 646.688C1184.59 646.688 1189.78 657.344 1189.78 675.488C1189.78 708.464 1175.66 738.272 1160.54 738.272ZM1205.04 740H1259.04L1263.36 720.272H1260.91L1254 733.808H1213.54C1269.26 682.4 1269.84 677.936 1269.84 664.4C1269.84 653.024 1260.91 643.52 1248.24 643.52C1240.32 643.52 1233.55 647.12 1227.79 652.448C1222.46 657.488 1219.58 661.52 1218.86 665.984C1217.86 671.312 1219.58 670.88 1221.74 670.88H1226.06L1226.5 670.448L1227.5 664.544C1229.38 653.456 1236.43 647.552 1245.07 647.552C1256.74 647.552 1262.21 655.76 1262.21 666.848C1262.21 678.512 1256.45 687.728 1205.62 737.264L1205.04 740ZM1277.04 740H1331.04L1335.36 720.272H1332.91L1326 733.808H1285.54C1341.26 682.4 1341.84 677.936 1341.84 664.4C1341.84 653.024 1332.91 643.52 1320.24 643.52C1312.32 643.52 1305.55 647.12 1299.79 652.448C1294.46 657.488 1291.58 661.52 1290.86 665.984C1289.86 671.312 1291.58 670.88 1293.74 670.88H1298.06L1298.5 670.448L1299.5 664.544C1301.38 653.456 1308.43 647.552 1317.07 647.552C1328.74 647.552 1334.21 655.76 1334.21 666.848C1334.21 678.512 1328.45 687.728 1277.62 737.264L1277.04 740Z" fill="#F3F3F3" fill-opacity="0.4"/>
<path d="M-139.708 601H-110.044L-109.756 598.84L-121.132 596.536L-105.724 510.28H-59.7884L-75.0524 596.248L-85.8524 598.84L-86.1404 601H-56.4764L-56.1884 598.84L-67.2764 596.536L-52.0124 510.712L-41.5004 508.12L-40.9244 505.96H-124.156L-124.732 508.12L-113.644 510.424L-128.908 596.248L-139.42 598.84L-139.708 601ZM-38.1806 601H-7.07656L-6.64456 598.84L-19.3166 596.392L-12.6926 558.664H-0.596561C20.4274 558.664 33.8194 544.984 33.8194 528.712C33.8194 513.448 21.7234 505.96 2.85944 505.96H-21.3326L-21.7646 507.976L-11.9726 510.424L-27.2366 596.392L-37.7486 598.84L-38.1806 601ZM3.14744 510.136C16.3954 510.136 25.8994 516.76 25.8994 529.288C25.8994 544.264 16.9714 554.488 -1.89256 554.488H-11.9726L-4.05256 510.136H3.14744ZM79.7644 602.44C109.572 602.44 130.02 573.064 130.02 542.104C130.02 519.784 117.204 504.52 97.0444 504.52C69.2524 504.52 46.7884 531.592 46.7884 564.856C46.7884 587.032 59.7484 602.44 79.7644 602.44ZM83.0764 599.272C66.5164 599.272 54.7084 584.296 54.7084 562.264C54.7084 531.448 71.5564 507.688 93.8764 507.688C110.148 507.688 122.1 522.376 122.1 544.408C122.1 576.232 104.244 599.272 83.0764 599.272ZM181.751 476.872C179.735 489.976 187.079 498.76 199.895 498.76C212.567 498.76 222.935 489.976 224.951 476.872H216.311C214.727 488.104 208.247 495.736 200.327 495.736C191.831 495.736 188.807 488.248 190.391 476.872H181.751ZM140.135 601H169.799L170.087 598.84L158.711 596.536L159.863 589.768L221.783 525.112L209.111 596.248L198.311 598.84L198.023 601H227.687L227.975 598.84L216.887 596.536L232.151 510.712L242.663 508.12L243.239 505.96H213.575L212.999 508.12L224.375 510.424L223.223 517.336L161.303 581.992L173.975 510.712L184.775 508.12L185.351 505.96H155.687L155.111 508.12L166.199 510.424L150.935 596.248L140.423 598.84L140.135 601ZM265.031 601H301.463L301.895 598.84L287.927 595.96L303.191 510.28H331.847L333.287 531.448H335.447L339.911 505.96H259.991L255.527 531.448H257.687L266.903 510.28H295.415L280.151 595.96L265.463 598.84L265.031 601ZM338.417 601H368.081L368.369 598.84L356.993 596.536L358.145 589.768L420.065 525.112L407.393 596.248L396.593 598.84L396.305 601H425.969L426.257 598.84L415.169 596.536L430.433 510.712L440.945 508.12L441.521 505.96H411.857L411.281 508.12L422.657 510.424L421.505 517.336L359.585 581.992L372.257 510.712L383.057 508.12L383.633 505.96H353.969L353.393 508.12L364.481 510.424L349.217 596.248L338.705 598.84L338.417 601Z" fill="#F3F3F3" fill-opacity="0.4"/>
<path d="M480.448 601H510.112L510.4 598.84L499.024 596.536L506.656 553.768H555.472L547.984 596.248L537.184 598.84L536.896 601H566.56L566.848 598.84L555.76 596.536L571.024 510.712L581.536 508.12L582.112 505.96H552.448L551.872 508.12L563.248 510.424L556.336 549.448H507.376L514.288 510.712L525.088 508.12L525.664 505.96H496L495.424 508.12L506.512 510.424L491.248 596.248L480.736 598.84L480.448 601ZM581.332 601H605.38L605.812 598.84L594.004 596.824L610.996 564.28H643.972L649.876 596.68L638.068 598.84L637.492 601H664.564L664.996 598.84L658.084 596.68L640.804 505.24H638.068L588.1 596.824L581.908 598.84L581.332 601ZM613.3 559.96L635.62 517.48L643.252 559.96H613.3ZM759.242 602.44C772.346 602.44 779.546 599.704 787.034 595.384L791.498 574.792H789.338L779.402 594.664C774.362 597.544 768.89 598.984 761.69 598.984C744.266 598.984 729.29 583.144 729.29 562.264C729.29 533.32 744.122 508.984 771.482 508.984C779.69 508.984 786.026 510.856 791.642 515.32L794.234 532.6H796.394L799.418 511.576C793.082 507.688 787.178 504.52 774.506 504.52C743.402 504.52 721.226 533.464 721.226 563.56C721.226 587.32 737.21 602.44 759.242 602.44ZM824.015 601H860.447L860.879 598.84L846.911 595.96L862.175 510.28H890.831L892.271 531.448H894.431L898.895 505.96H818.975L814.511 531.448H816.671L825.887 510.28H854.399L839.135 595.96L824.447 598.84L824.015 601ZM936.171 602.44C965.979 602.44 986.427 573.064 986.427 542.104C986.427 519.784 973.611 504.52 953.451 504.52C925.659 504.52 903.195 531.592 903.195 564.856C903.195 587.032 916.155 602.44 936.171 602.44ZM939.483 599.272C922.923 599.272 911.115 584.296 911.115 562.264C911.115 531.448 927.963 507.688 950.283 507.688C966.555 507.688 978.507 522.376 978.507 544.408C978.507 576.232 960.651 599.272 939.483 599.272ZM1038.16 476.872C1036.14 489.976 1043.49 498.76 1056.3 498.76C1068.97 498.76 1079.34 489.976 1081.36 476.872H1072.72C1071.13 488.104 1064.65 495.736 1056.73 495.736C1048.24 495.736 1045.21 488.248 1046.8 476.872H1038.16ZM996.542 601H1026.21L1026.49 598.84L1015.12 596.536L1016.27 589.768L1078.19 525.112L1065.52 596.248L1054.72 598.84L1054.43 601H1084.09L1084.38 598.84L1073.29 596.536L1088.56 510.712L1099.07 508.12L1099.65 505.96H1069.98L1069.41 508.12L1080.78 510.424L1079.63 517.336L1017.71 581.992L1030.38 510.712L1041.18 508.12L1041.76 505.96H1012.09L1011.52 508.12L1022.61 510.424L1007.34 596.248L996.83 598.84L996.542 601ZM1102.43 601H1131.95L1132.38 598.84L1121.29 596.248L1128.92 553.048L1168.38 601H1183.21L1183.64 598.84L1176.01 597.256L1136.12 550.168L1182.2 509.704L1190.12 507.976L1190.56 505.96H1163.05L1162.62 507.976L1173.42 511L1129.21 551.464L1136.56 510.424L1146.92 507.976L1147.36 505.96H1119.28L1118.84 507.976L1128.64 510.424L1113.37 596.248L1102.86 598.84L1102.43 601ZM1228.59 585.16L1276.4 510.424L1284.18 507.976L1284.47 505.96H1259.12L1258.83 507.976L1269.35 510.28V510.712L1232.48 571.48H1231.19L1213.62 510.856V510.424L1224.99 507.976L1225.43 505.96H1197.63L1197.2 507.976L1205.12 509.848L1226 581.128C1220.39 589.336 1214.63 593.656 1204.69 593.656H1203.97L1202.96 594.52L1202.24 598.264C1201.67 601.432 1202.39 602.44 1206.13 602.44C1213.04 602.44 1219.81 598.984 1228.59 585.16Z" fill="#F3F3F3"/>
<path d="M-321.763 323H-292.099L-291.811 320.84L-303.187 318.536L-287.779 232.28H-241.843L-257.107 318.248L-267.907 320.84L-268.195 323H-238.531L-238.243 320.84L-249.331 318.536L-234.067 232.712L-223.555 230.12L-222.979 227.96H-306.211L-306.787 230.12L-295.699 232.424L-310.963 318.248L-321.475 320.84L-321.763 323ZM-220.235 323H-189.131L-188.699 320.84L-201.371 318.392L-194.747 280.664H-182.651C-161.627 280.664 -148.235 266.984 -148.235 250.712C-148.235 235.448 -160.331 227.96 -179.195 227.96H-203.387L-203.819 229.976L-194.027 232.424L-209.291 318.392L-219.803 320.84L-220.235 323ZM-178.907 232.136C-165.659 232.136 -156.155 238.76 -156.155 251.288C-156.155 266.264 -165.083 276.488 -183.947 276.488H-194.027L-186.107 232.136H-178.907ZM-102.29 324.44C-72.4822 324.44 -52.0342 295.064 -52.0342 264.104C-52.0342 241.784 -64.8502 226.52 -85.0102 226.52C-112.802 226.52 -135.266 253.592 -135.266 286.856C-135.266 309.032 -122.306 324.44 -102.29 324.44ZM-98.9782 321.272C-115.538 321.272 -127.346 306.296 -127.346 284.264C-127.346 253.448 -110.498 229.688 -88.1782 229.688C-71.9062 229.688 -59.9542 244.376 -59.9542 266.408C-59.9542 298.232 -77.8102 321.272 -98.9782 321.272ZM4.70288 324.44C17.8069 324.44 25.0069 321.704 32.4949 317.384L36.9589 296.792H34.7989L24.8629 316.664C19.8229 319.544 14.3509 320.984 7.15088 320.984C-10.2731 320.984 -25.2491 305.144 -25.2491 284.264C-25.2491 255.32 -10.4171 230.984 16.9429 230.984C25.1509 230.984 31.4869 232.856 37.1029 237.32L39.6949 254.6H41.8549L44.8789 233.576C38.5429 229.688 32.6389 226.52 19.9669 226.52C-11.1371 226.52 -33.3131 255.464 -33.3131 285.56C-33.3131 309.32 -17.3291 324.44 4.70288 324.44ZM54.9713 323H84.6353L84.9233 320.84L73.5473 318.536L74.6992 311.768L136.619 247.112L123.947 318.248L113.147 320.84L112.859 323H142.523L142.811 320.84L131.723 318.536L146.987 232.712L157.499 230.12L158.075 227.96H128.411L127.835 230.12L139.211 232.424L138.059 239.336L76.1393 303.992L88.8113 232.712L99.6113 230.12L100.187 227.96H70.5233L69.9473 230.12L81.0353 232.424L65.7713 318.248L55.2593 320.84L54.9713 323ZM161.003 323H187.499L187.931 320.84L177.851 318.536L193.547 236.888L212.267 323.72H215.003L263.243 237.464L252.299 318.536L242.363 320.84L241.787 323H268.571L269.003 320.84L260.363 318.392L271.163 232.856L282.539 229.976L282.971 227.96H263.243L217.739 309.752L199.595 227.96H179.579L179.147 229.832L189.947 232.856L172.091 318.392L161.579 320.84L161.003 323Z" fill="#F3F3F3" fill-opacity="0.4"/>
<path d="M321.878 323H351.542L351.83 320.84L340.454 318.536L355.862 232.28H401.797L386.534 318.248L375.734 320.84L375.446 323H405.109L405.398 320.84L394.31 318.536L409.574 232.712L420.086 230.12L420.662 227.96H337.43L336.854 230.12L347.942 232.424L332.678 318.248L322.166 320.84L321.878 323ZM419.949 323H443.997L444.429 320.84L432.621 318.824L449.613 286.28H482.589L488.493 318.68L476.685 320.84L476.109 323H503.181L503.613 320.84L496.701 318.68L479.421 227.24H476.685L426.717 318.824L420.525 320.84L419.949 323ZM451.917 281.96L474.237 239.48L481.869 281.96H451.917ZM559.047 324.44C572.151 324.44 579.351 321.704 586.839 317.384L591.303 296.792H589.143L579.207 316.664C574.167 319.544 568.695 320.984 561.495 320.984C544.071 320.984 529.095 305.144 529.095 284.264C529.095 255.32 543.927 230.984 571.287 230.984C579.495 230.984 585.831 232.856 591.447 237.32L594.039 254.6H596.199L599.223 233.576C592.887 229.688 586.983 226.52 574.311 226.52C543.207 226.52 521.031 255.464 521.031 285.56C521.031 309.32 537.015 324.44 559.047 324.44ZM650.172 324.44C663.276 324.44 670.476 321.704 677.964 317.384L682.428 296.792H680.268L670.332 316.664C665.292 319.544 659.82 320.984 652.62 320.984C635.196 320.984 620.22 305.144 620.22 284.264C620.22 255.32 635.052 230.984 662.412 230.984C670.62 230.984 676.956 232.856 682.572 237.32L685.164 254.6H687.324L690.348 233.576C684.012 229.688 678.108 226.52 665.436 226.52C634.332 226.52 612.156 255.464 612.156 285.56C612.156 309.32 628.14 324.44 650.172 324.44ZM694.027 323H718.076L718.508 320.84L706.7 318.824L723.692 286.28H756.668L762.572 318.68L750.764 320.84L750.188 323H777.26L777.692 320.84L770.78 318.68L753.5 227.24H750.764L700.796 318.824L694.603 320.84L694.027 323ZM725.996 281.96L748.316 239.48L755.948 281.96H725.996ZM793.381 323L848.533 274.76L840.757 318.248L828.805 320.84L828.373 323H859.333L859.765 320.84L848.677 318.248L856.309 275.048L894.325 323H909.157L909.589 320.84L901.957 319.256L863.509 272.168L908.149 231.704L916.069 229.976L916.501 227.96H888.997L888.565 229.976L899.365 233.144L856.597 273.464L863.941 232.424L874.309 229.976L874.741 227.96H846.661L846.229 229.976L856.021 232.424L848.677 273.896L819.877 233.144L831.973 229.976L832.117 227.96H804.613L804.469 229.976L812.821 232.136L841.909 271.448L785.893 319.256L778.693 320.84L778.549 323H793.381ZM920.237 323H949.901L950.189 320.84L938.813 318.536L939.965 311.768L1001.88 247.112L989.213 318.248L978.413 320.84L978.125 323H1007.79L1008.08 320.84L996.989 318.536L1012.25 232.712L1022.76 230.12L1023.34 227.96H993.677L993.101 230.12L1004.48 232.424L1003.32 239.336L941.405 303.992L954.077 232.712L964.877 230.12L965.453 227.96H935.789L935.213 230.12L946.301 232.424L931.037 318.248L920.525 320.84L920.237 323ZM1026.12 323H1057.23L1057.66 320.84L1044.99 318.392L1051.61 280.664H1063.71C1084.73 280.664 1098.12 266.984 1098.12 250.712C1098.12 235.448 1086.03 227.96 1067.16 227.96H1042.97L1042.54 229.976L1052.33 232.424L1037.07 318.392L1026.56 320.84L1026.12 323ZM1067.45 232.136C1080.7 232.136 1090.2 238.76 1090.2 251.288C1090.2 266.264 1081.28 276.488 1062.41 276.488H1052.33L1060.25 232.136H1067.45ZM1144.07 324.44C1173.88 324.44 1194.33 295.064 1194.33 264.104C1194.33 241.784 1181.51 226.52 1161.35 226.52C1133.56 226.52 1111.09 253.592 1111.09 286.856C1111.09 309.032 1124.05 324.44 1144.07 324.44ZM1147.38 321.272C1130.82 321.272 1119.01 306.296 1119.01 284.264C1119.01 253.448 1135.86 229.688 1158.18 229.688C1174.45 229.688 1186.41 244.376 1186.41 266.408C1186.41 298.232 1168.55 321.272 1147.38 321.272ZM1204.44 323H1235.4C1254.84 323 1270.97 311.336 1270.97 295.352C1270.97 283.688 1264.2 275.768 1250.52 273.032C1263.77 269.144 1271.54 258.632 1271.54 248.408C1271.54 234.584 1261.18 227.96 1244.62 227.96H1221.14L1220.71 229.976L1230.65 232.424L1215.38 318.392L1204.87 320.84L1204.44 323ZM1244.76 232.424C1257.29 232.424 1263.77 238.04 1263.77 249.272C1263.77 261.368 1254.7 271.736 1238.86 271.736H1231.51L1238.42 232.424H1244.76ZM1240.3 276.056C1254.41 276.056 1263.19 281.816 1263.19 295.496C1263.19 308.6 1254.12 318.824 1235.98 318.824H1223.16L1230.65 276.056H1240.3Z" fill="#F3F3F3"/>
</g>
<defs>
<clipPath id="clip0_574:11895">
<rect width="1280" height="828" fill="white"/>
</clipPath>
</defs>
</svg>
