<svg width="1280" height="967" viewBox="0 0 1280 967" fill="none" xmlns="http://www.w3.org/2000/svg">
<g clip-path="url(#clip0_573:11882)">
<rect width="1280" height="967" fill="#162DFB"/>
<path d="M44.2168 168.16L48.9688 158.656L80.6488 94.144L88.2808 92.56V88.96H61.4968V92.56L74.1688 94.576V95.008L47.5288 150.592H45.9448L18.5848 95.008V94.576L30.6808 92.56V88.96H0.00875002V92.56L9.08075 94.864L42.2008 161.536C37.5928 170.464 32.4088 175.792 21.7528 175.792H21.0328L20.1688 176.656V181.264C20.1688 184.432 20.7448 185.44 24.7768 185.44C31.6888 185.44 37.4488 181.84 44.2168 168.16ZM100.516 184H131.62C153.076 184 169.06 172.192 169.06 156.352C169.06 144.256 158.692 135.904 141.124 133.6C153.796 130.144 160.708 120.64 160.708 110.272C160.708 96.016 145.3 88.96 126.58 88.96H100.516V92.56L111.748 95.008V177.952L100.516 180.4V184ZM127.732 94.144C142.852 94.144 151.78 100.768 151.78 113.584C151.78 125.536 142.276 132.448 128.596 132.448H120.388V94.144H127.732ZM133.204 137.488C149.476 137.488 159.988 143.968 159.988 158.368C159.988 170.32 149.332 179.104 134.212 179.104H120.388V137.488H133.204ZM179.861 184H206.645V180.4L193.829 178.528L205.493 148H241.925L254.021 178.528L241.781 180.4V184H272.453V180.4L263.813 178.528L227.237 88.24H224.213L187.493 178.672L179.861 180.4V184ZM207.509 142.96L223.493 101.344L239.909 142.96H207.509ZM329.975 184H361.655V180.4L350.135 177.952V136.048L397.511 184H413.927V180.4L404.423 178.672L358.343 132.736L400.823 94.288L409.319 92.56V88.96H380.807V92.56L391.895 95.296L350.135 134.608V95.008L361.655 92.56V88.96H329.975V92.56L341.495 95.008V134.608L299.735 95.296L310.823 92.56V88.96H281.303V92.56L289.799 94.288L333.143 133.6L287.783 178.672L277.991 180.4V184H294.119L341.495 136.048V177.952L329.975 180.4V184ZM416.533 184H443.317V180.4L430.501 178.528L442.165 148H478.597L490.693 178.528L478.453 180.4V184H509.125V180.4L500.485 178.528L463.909 88.24H460.885L424.165 178.672L416.533 180.4V184ZM444.181 142.96L460.165 101.344L476.581 142.96H444.181ZM523.235 184H591.779V159.232H588.899L582.851 178.96H543.107V137.488H569.315L572.915 149.152H575.795V120.496H572.915L569.315 132.448H543.107V94H578.819L584.867 112.288H587.747V88.96H523.235V92.56L534.467 95.008V177.952L523.235 180.4V184ZM610.546 184H639.922V180.4L628.258 178.096L629.986 98.032L666.562 184.72H669.586L707.314 98.608L708.898 178.096L698.242 180.4V184H727.906V180.4L717.826 177.952L715.378 95.44L727.474 92.56V88.96H705.586L669.874 170.896L634.882 88.96H612.562V92.56L624.946 95.584L621.922 177.952L610.546 180.4V184ZM778.388 184C802.724 184 815.828 171.616 815.828 154.912C815.828 139.36 802.436 129.568 778.244 129.568H765.716V95.008L779.828 92.56V88.96H745.844V92.56L757.076 95.008V177.952L745.844 180.4V184H778.388ZM820.724 184H851.828V180.4L840.596 177.952V95.008L851.828 92.56V88.96H820.724V92.56L831.956 95.008V177.952L820.724 180.4V184ZM778.1 134.608C797.684 134.608 806.756 141.52 806.756 156.928C806.756 169.6 797.54 178.96 778.676 178.96H765.716V134.608H778.1ZM870.579 184H939.123V159.232H936.243L930.195 178.96H890.451V137.488H916.659L920.259 149.152H923.139V120.496H920.259L916.659 132.448H890.451V94H926.163L932.211 112.288H935.091V88.96H870.579V92.56L881.811 95.008V177.952L870.579 180.4V184Z" fill="#F3F3F3"/>
<path d="M994.61 184H1026.87V180.4L1014.48 177.952V94H1064.59V177.952L1052.21 180.4V184H1084.47V180.4L1073.23 177.952V95.008L1084.47 92.56V88.96H994.61V92.56L1005.84 95.008V177.952L994.61 180.4V184ZM1098.56 184H1125.35V180.4L1112.53 178.528L1124.2 148H1160.63L1172.72 178.528L1160.48 180.4V184H1191.16V180.4L1182.52 178.528L1145.94 88.24H1142.92L1106.2 178.672L1098.56 180.4V184ZM1126.21 142.96L1142.2 101.344L1158.61 142.96H1126.21ZM1249.69 185.44C1265.24 185.44 1273.01 182.56 1281.37 178.384L1282.66 156.928H1279.78L1272.01 175.072C1266.53 178.384 1260.49 180.832 1251.7 180.832C1228.66 180.832 1211.09 161.68 1211.09 133.312C1211.09 110.704 1227.51 91.984 1250.98 91.984C1258.9 91.984 1264.95 94.864 1272.44 100.336L1278.2 116.896H1281.22L1280.5 94.576C1272.73 90.832 1265.67 87.52 1252.13 87.52C1225.35 87.52 1203.17 109.84 1203.17 139.072C1203.17 165.424 1222.76 185.44 1249.69 185.44ZM1352.48 185.44C1368.03 185.44 1375.81 182.56 1384.16 178.384L1385.46 156.928H1382.58L1374.8 175.072C1369.33 178.384 1363.28 180.832 1354.5 180.832C1331.46 180.832 1313.89 161.68 1313.89 133.312C1313.89 110.704 1330.31 91.984 1353.78 91.984C1361.7 91.984 1367.75 94.864 1375.23 100.336L1380.99 116.896H1384.02L1383.3 94.576C1375.52 90.832 1368.47 87.52 1354.93 87.52C1328.15 87.52 1305.97 109.84 1305.97 139.072C1305.97 165.424 1325.55 185.44 1352.48 185.44ZM1402.03 184H1428.82V180.4L1416 178.528L1427.67 148H1464.1L1476.19 178.528L1463.95 180.4V184H1494.63V180.4L1485.99 178.528L1449.41 88.24H1446.39L1409.67 178.672L1402.03 180.4V184ZM1429.68 142.96L1445.67 101.344L1462.08 142.96H1429.68ZM1552.15 184H1583.83V180.4L1572.31 177.952V136.048L1619.68 184H1636.1V180.4L1626.59 178.672L1580.51 132.736L1622.99 94.288L1631.49 92.56V88.96H1602.98V92.56L1614.07 95.296L1572.31 134.608V95.008L1583.83 92.56V88.96H1552.15V92.56L1563.67 95.008V134.608L1521.91 95.296L1532.99 92.56V88.96H1503.47V92.56L1511.97 94.288L1555.31 133.6L1509.95 178.672L1500.16 180.4V184H1516.29L1563.67 136.048V177.952L1552.15 180.4V184ZM1649.08 184H1681.33V180.4L1668.95 177.952V171.328L1724.82 108.832V177.952L1712.44 180.4V184H1744.69V180.4L1733.46 177.952V95.008L1744.69 92.56V88.96H1712.44V92.56L1724.82 95.008V100.912L1668.95 163.408V95.008L1681.33 92.56V88.96H1649.08V92.56L1660.31 95.008V177.952L1649.08 180.4V184ZM1763.41 184H1796.53V180.4L1783.57 177.952V142.096H1790.33C1813.81 142.096 1829.79 130.432 1829.79 114.736C1829.79 96.88 1814.81 88.96 1792.21 88.96H1763.41V92.56L1774.93 95.008V177.952L1763.41 180.4V184ZM1793.36 94C1809.63 94 1820.14 100.48 1820.14 115.888C1820.14 128.416 1809.49 137.056 1794.37 137.056H1783.57V94H1793.36ZM1879.2 184C1903.54 184 1916.64 171.616 1916.64 154.912C1916.64 139.36 1903.25 129.568 1879.06 129.568H1866.53V95.008L1880.64 92.56V88.96H1846.66V92.56L1857.89 95.008V177.952L1846.66 180.4V184H1879.2ZM1921.54 184H1952.64V180.4L1941.41 177.952V95.008L1952.64 92.56V88.96H1921.54V92.56L1932.77 95.008V177.952L1921.54 180.4V184ZM1878.91 134.608C1898.5 134.608 1907.57 141.52 1907.57 156.928C1907.57 169.6 1898.35 178.96 1879.49 178.96H1866.53V134.608H1878.91Z" fill="#F3F3F3" fill-opacity="0.4"/>
<path d="M-12.2025 462H20.9175V458.4L7.9575 455.952V420.096H14.7255C38.1975 420.096 54.1815 408.432 54.1815 392.736C54.1815 374.88 39.2055 366.96 16.5975 366.96H-12.2025V370.56L-0.682498 373.008V455.952L-12.2025 458.4V462ZM17.7495 372C34.0215 372 44.5335 378.48 44.5335 393.888C44.5335 406.416 33.8775 415.056 18.7575 415.056H7.9575V372H17.7495ZM71.0475 462H139.592V437.232H136.712L130.664 456.96H90.9195V415.488H117.128L120.728 427.152H123.608V398.496H120.728L117.128 410.448H90.9195V372H126.632L132.68 390.288H135.56V366.96H71.0475V370.56L82.2795 373.008V455.952L71.0475 458.4V462ZM159.079 462H195.223V458.4L179.239 455.952V372H214.951L220.999 390.288H223.879V366.96H159.367V370.56L170.599 373.008V455.952L159.079 458.4V462ZM243.313 462H275.569V458.4L263.185 455.952V449.328L319.057 386.832V455.952L306.673 458.4V462H338.929V458.4L327.697 455.952V373.008L338.929 370.56V366.96H306.673V370.56L319.057 373.008V378.912L263.185 441.408V373.008L275.569 370.56V366.96H243.313V370.56L254.545 373.008V455.952L243.313 458.4V462ZM404.873 463.44C420.425 463.44 428.201 460.56 436.553 456.384L437.849 434.928H434.969L427.193 453.072C421.721 456.384 415.673 458.832 406.889 458.832C383.849 458.832 366.281 439.68 366.281 411.312C366.281 388.704 382.697 369.984 406.169 369.984C414.089 369.984 420.137 372.864 427.625 378.336L433.385 394.896H436.409L435.689 372.576C427.913 368.832 420.857 365.52 407.321 365.52C380.537 365.52 358.361 387.84 358.361 417.072C358.361 443.424 377.945 463.44 404.873 463.44ZM480.166 462H517.606V458.4L503.206 455.952V372H531.286L537.334 393.168H540.214V366.96H457.558V393.168H460.438L466.486 372H494.566V455.952L480.166 458.4V462ZM556.063 462H589.183V458.4L576.223 455.952V420.096H582.991C606.463 420.096 622.447 408.432 622.447 392.736C622.447 374.88 607.471 366.96 584.863 366.96H556.063V370.56L567.583 373.008V455.952L556.063 458.4V462ZM586.015 372C602.287 372 612.799 378.48 612.799 393.888C612.799 406.416 602.143 415.056 587.023 415.056H576.223V372H586.015ZM627.533 462H654.317V458.4L641.501 456.528L653.165 426H689.597L701.693 456.528L689.453 458.4V462H720.125V458.4L711.485 456.528L674.909 366.24H671.885L635.165 456.672L627.533 458.4V462ZM655.181 420.96L671.165 379.344L687.581 420.96H655.181ZM819.483 462L825.531 483.168H828.411V456.96H812.859V373.008L824.091 370.56V366.96H791.835V370.56L804.219 373.008V456.96H754.107V373.008L766.491 370.56V366.96H734.235V370.56L745.467 373.008V455.952L734.235 458.4V462H819.483ZM842.798 462H875.054V458.4L862.67 455.952V449.328L918.542 386.832V455.952L906.157 458.4V462H938.414V458.4L927.182 455.952V373.008L938.414 370.56V366.96H906.157V370.56L918.542 373.008V378.912L862.67 441.408V373.008L875.054 370.56V366.96H842.798V370.56L854.03 373.008V455.952L842.798 458.4V462ZM967.638 462L996.438 418.512H1010.84V455.808L1000.04 458.4V462H1031V458.4L1019.48 455.952V373.008L1031 370.56V366.96H996.726C976.566 366.96 964.182 376.176 964.182 393.168C964.182 404.4 972.102 413.904 987.798 416.784L960.87 456.528L951.366 458.4V462H967.638ZM994.854 413.472C982.758 413.472 973.83 404.832 973.83 393.024C973.83 380.064 982.182 372 995.718 372H1010.84V413.472H994.854Z" fill="#F3F3F3"/>
<path d="M1131.45 463.44C1157.51 463.44 1176.66 442.704 1176.66 414.48C1176.66 386.256 1157.51 365.52 1131.45 365.52C1105.53 365.52 1086.38 386.256 1086.38 414.48C1086.38 442.704 1105.53 463.44 1131.45 463.44ZM1134.47 459.12C1112.58 459.12 1095.3 439.536 1095.3 409.728C1095.3 385.248 1109.27 369.696 1129 369.696C1150.6 369.696 1167.74 389.136 1167.74 418.944C1167.74 443.424 1154.2 459.12 1134.47 459.12ZM1196.05 462H1227.73V458.4L1216.21 455.952V414.048L1266.46 462H1282.88V458.4L1273.23 456.672L1224.42 410.736L1266.9 372.288L1275.39 370.56V366.96H1246.88V370.56L1257.97 373.296L1216.21 412.608V373.008L1227.73 370.56V366.96H1196.05V370.56L1207.57 373.008V455.952L1196.05 458.4V462ZM1338.73 463.44C1364.79 463.44 1383.95 442.704 1383.95 414.48C1383.95 386.256 1364.79 365.52 1338.73 365.52C1312.81 365.52 1293.66 386.256 1293.66 414.48C1293.66 442.704 1312.81 463.44 1338.73 463.44ZM1341.75 459.12C1319.87 459.12 1302.59 439.536 1302.59 409.728C1302.59 385.248 1316.55 369.696 1336.28 369.696C1357.88 369.696 1375.02 389.136 1375.02 418.944C1375.02 443.424 1361.48 459.12 1341.75 459.12ZM1403.33 462H1435.58V458.4L1423.2 455.952V415.488H1477.63V455.952L1465.25 458.4V462H1497.5V458.4L1486.27 455.952V373.008L1497.5 370.56V366.96H1465.25V370.56L1477.63 373.008V410.448H1423.2V373.008L1435.58 370.56V366.96H1403.33V370.56L1414.56 373.008V455.952L1403.33 458.4V462ZM1569.96 462H1602.22V458.4L1590.99 455.952V373.008L1602.22 370.56V366.96H1569.96V370.56L1582.35 373.008V412.032C1576.44 414.48 1567.08 415.776 1560.17 415.776C1540.59 415.776 1533.1 408.576 1533.1 390.144V373.008L1544.62 370.56V366.96H1512.65V370.56L1524.46 373.008V390C1524.46 414.336 1537.42 420.816 1558.3 420.816C1567.37 420.816 1575.87 418.512 1582.35 416.496V455.952L1569.96 458.4V462ZM1620.88 462H1689.42V437.232H1686.54L1680.49 456.96H1640.75V415.488H1666.96L1670.56 427.152H1673.44V398.496H1670.56L1666.96 410.448H1640.75V372H1676.46L1682.51 390.288H1685.39V366.96H1620.88V370.56L1632.11 373.008V455.952L1620.88 458.4V462ZM1708.91 462H1741.16V458.4L1728.78 455.952V415.488H1783.21V455.952L1770.83 458.4V462H1803.08V458.4L1791.85 455.952V373.008L1803.08 370.56V366.96H1770.83V370.56L1783.21 373.008V410.448H1728.78V373.008L1741.16 370.56V366.96H1708.91V370.56L1720.14 373.008V455.952L1708.91 458.4V462ZM1817.22 462H1844V458.4L1831.19 456.528L1842.85 426H1879.28L1891.38 456.528L1879.14 458.4V462H1909.81V458.4L1901.17 456.528L1864.6 366.24H1861.57L1824.85 456.672L1817.22 458.4V462ZM1844.87 420.96L1860.85 379.344L1877.27 420.96H1844.87Z" fill="#F3F3F3" fill-opacity="0.4"/>
<path d="M-0.530624 740H31.7254V736.4L19.3414 733.952V693.488H73.7734V733.952L61.3894 736.4V740H93.6454V736.4L82.4134 733.952V651.008L93.6454 648.56V644.96H61.3894V648.56L73.7734 651.008V688.448H19.3414V651.008L31.7254 648.56V644.96H-0.530624V648.56L10.7014 651.008V733.952L-0.530624 736.4V740ZM112.391 740H180.935V715.232H178.055L172.007 734.96H132.263V693.488H158.471L162.071 705.152H164.951V676.496H162.071L158.471 688.448H132.263V650H167.975L174.023 668.288H176.903V644.96H112.391V648.56L123.623 651.008V733.952L112.391 736.4V740ZM269.831 643.52C257.015 643.52 250.391 646.976 242.903 650.576L242.183 672.896H245.207L251.255 655.328C257.447 650.144 263.351 647.984 269.398 647.984C282.215 647.984 290.567 655.04 290.567 666.992C290.567 681.248 281.063 688.448 267.383 688.448H255.719V693.488H271.991C286.967 693.488 295.895 700.4 295.895 714.512C295.895 727.904 287.255 736.832 270.119 736.832C261.479 736.832 255.431 734.384 249.959 731.072L242.183 712.928H239.303L240.599 734.384C248.519 738.272 255.575 741.44 270.119 741.44C292.151 741.44 304.967 729.632 304.967 713.648C304.967 701.12 295.895 692.624 279.623 690.176C292.583 686.576 299.495 676.64 299.495 666.272C299.495 650.72 285.815 643.52 269.831 643.52ZM317.736 740H344.52V736.4L331.704 734.528L343.368 704H379.8L391.896 734.528L379.656 736.4V740H410.328V736.4L401.688 734.528L365.112 644.24H362.088L325.368 734.672L317.736 736.4V740ZM345.384 698.96L361.368 657.344L377.784 698.96H345.384ZM458.422 740C482.758 740 495.862 727.616 495.862 711.056C495.862 695.792 482.47 686 458.278 686H444.31V650H480.31L486.358 668.288H489.238V644.96H424.438V648.56L435.67 651.008V733.952L424.438 736.4V740H458.422ZM458.134 691.04C477.718 691.04 486.79 697.808 486.79 713.072C486.79 725.6 477.574 734.96 458.71 734.96H444.31V691.04H458.134ZM550.951 724.16L555.703 714.656L587.383 650.144L595.015 648.56V644.96H568.231V648.56L580.903 650.576V651.008L554.263 706.592H552.679L525.319 651.008V650.576L537.415 648.56V644.96H506.743V648.56L515.815 650.864L548.935 717.536C544.327 726.464 539.143 731.792 528.487 731.792H527.767L526.903 732.656V737.264C526.903 740.432 527.479 741.44 531.511 741.44C538.423 741.44 544.183 737.84 550.951 724.16ZM608.651 648.56L619.883 651.008V660.656C619.883 684.128 617.723 711.632 607.643 734.96H596.411V761.168H599.291L605.339 740H680.939L686.987 761.168H689.867V734.96H674.315V651.008L685.547 648.56V644.96H608.651V648.56ZM614.411 734.96C623.483 711.776 625.931 685.28 625.931 660.8V650H665.675V734.96H614.411ZM736.826 740C761.162 740 774.266 727.616 774.266 710.912C774.266 695.36 760.874 685.568 736.682 685.568H724.154V651.008L738.266 648.56V644.96H704.282V648.56L715.514 651.008V733.952L704.282 736.4V740H736.826ZM736.538 690.608C756.122 690.608 765.194 697.52 765.194 712.928C765.194 725.6 755.978 734.96 737.114 734.96H724.154V690.608H736.538ZM801.213 740H838.653V736.4L824.253 733.952V650H852.333L858.381 671.168H861.261V644.96H778.605V671.168H781.485L787.533 650H815.613V733.952L801.213 736.4V740ZM877.11 740H945.654V715.232H942.774L936.726 734.96H896.982V693.488H923.19L926.79 705.152H929.67V676.496H926.79L923.19 688.448H896.982V650H932.694L938.742 668.288H941.622V644.96H877.11V648.56L888.342 651.008V733.952L877.11 736.4V740Z" fill="#F3F3F3"/>
<path d="M1048.37 741.44C1063.93 741.44 1071.7 738.56 1080.05 734.384L1081.35 712.928H1078.47L1070.69 731.072C1065.22 734.384 1059.17 736.832 1050.39 736.832C1027.35 736.832 1009.78 717.68 1009.78 689.312C1009.78 666.704 1026.2 647.984 1049.67 647.984C1057.59 647.984 1063.64 650.864 1071.13 656.336L1076.89 672.896H1079.91L1079.19 650.576C1071.41 646.832 1064.36 643.52 1050.82 643.52C1024.04 643.52 1001.86 665.84 1001.86 695.072C1001.86 721.424 1021.45 741.44 1048.37 741.44ZM1109.7 648.56L1120.93 651.008V660.656C1120.93 684.128 1118.77 711.632 1108.69 734.96H1097.46V761.168H1100.34L1106.39 740H1181.99L1188.03 761.168H1190.91V734.96H1175.36V651.008L1186.59 648.56V644.96H1109.7V648.56ZM1115.46 734.96C1124.53 711.776 1126.98 685.28 1126.98 660.8V650H1166.72V734.96H1115.46ZM1200.72 740H1227.5V736.4L1214.69 734.528L1226.35 704H1262.78L1274.88 734.528L1262.64 736.4V740H1293.31V736.4L1284.67 734.528L1248.1 644.24H1245.07L1208.35 734.672L1200.72 736.4V740ZM1228.37 698.96L1244.35 657.344L1260.77 698.96H1228.37ZM1319.98 740H1357.42V736.4L1343.02 733.952V650H1371.1L1377.15 671.168H1380.03V644.96H1297.37V671.168H1300.25L1306.3 650H1334.38V733.952L1319.98 736.4V740ZM1428.42 740C1452.76 740 1465.86 727.616 1465.86 710.912C1465.86 695.36 1452.47 685.568 1428.28 685.568H1415.75V651.008L1429.86 648.56V644.96H1395.88V648.56L1407.11 651.008V733.952L1395.88 736.4V740H1428.42ZM1428.13 690.608C1447.72 690.608 1456.79 697.52 1456.79 712.928C1456.79 725.6 1447.57 734.96 1428.71 734.96H1415.75V690.608H1428.13Z" fill="#F3F3F3" fill-opacity="0.4"/>
<path d="M-647.202 601H-614.082V597.4L-627.042 594.952V559.096H-620.274C-596.802 559.096 -580.818 547.432 -580.818 531.736C-580.818 513.88 -595.794 505.96 -618.402 505.96H-647.202V509.56L-635.682 512.008V594.952L-647.202 597.4V601ZM-617.25 511C-600.978 511 -590.466 517.48 -590.466 532.888C-590.466 545.416 -601.122 554.056 -616.242 554.056H-627.042V511H-617.25ZM-563.952 601H-495.408V576.232H-498.288L-504.336 595.96H-544.08V554.488H-517.872L-514.272 566.152H-511.392V537.496H-514.272L-517.872 549.448H-544.08V511H-508.368L-502.32 529.288H-499.44V505.96H-563.952V509.56L-552.72 512.008V594.952L-563.952 597.4V601ZM-475.921 601H-439.777V597.4L-455.761 594.952V511H-420.049L-414.001 529.288H-411.121V505.96H-475.633V509.56L-464.401 512.008V594.952L-475.921 597.4V601ZM-391.687 601H-359.431V597.4L-371.815 594.952V588.328L-315.943 525.832V594.952L-328.327 597.4V601H-296.071V597.4L-307.303 594.952V512.008L-296.071 509.56V505.96H-328.327V509.56L-315.943 512.008V517.912L-371.815 580.408V512.008L-359.431 509.56V505.96H-391.687V509.56L-380.455 512.008V594.952L-391.687 597.4V601ZM-230.127 602.44C-214.575 602.44 -206.799 599.56 -198.447 595.384L-197.151 573.928H-200.031L-207.807 592.072C-213.279 595.384 -219.327 597.832 -228.111 597.832C-251.151 597.832 -268.719 578.68 -268.719 550.312C-268.719 527.704 -252.303 508.984 -228.831 508.984C-220.911 508.984 -214.863 511.864 -207.375 517.336L-201.615 533.896H-198.591L-199.311 511.576C-207.087 507.832 -214.143 504.52 -227.679 504.52C-254.463 504.52 -276.639 526.84 -276.639 556.072C-276.639 582.424 -257.055 602.44 -230.127 602.44ZM-154.834 601H-117.394V597.4L-131.794 594.952V511H-103.714L-97.6659 532.168H-94.7859V505.96H-177.442V532.168H-174.562L-168.514 511H-140.434V594.952L-154.834 597.4V601ZM-78.9369 601H-45.8169V597.4L-58.7769 594.952V559.096H-52.0089C-28.5369 559.096 -12.5529 547.432 -12.5529 531.736C-12.5529 513.88 -27.5289 505.96 -50.1369 505.96H-78.9369V509.56L-67.4169 512.008V594.952L-78.9369 597.4V601ZM-48.9849 511C-32.7129 511 -22.2009 517.48 -22.2009 532.888C-22.2009 545.416 -32.8569 554.056 -47.9769 554.056H-58.7769V511H-48.9849ZM-7.46675 601H19.3173V597.4L6.50125 595.528L18.1653 565H54.5973L66.6933 595.528L54.4533 597.4V601H85.1253V597.4L76.4853 595.528L39.9093 505.24H36.8853L0.16525 595.672L-7.46675 597.4V601ZM20.1813 559.96L36.1653 518.344L52.5813 559.96H20.1813ZM184.483 601L190.531 622.168H193.411V595.96H177.859V512.008L189.091 509.56V505.96H156.835V509.56L169.219 512.008V595.96H119.107V512.008L131.491 509.56V505.96H99.235V509.56L110.467 512.008V594.952L99.235 597.4V601H184.483ZM207.798 601H240.054V597.4L227.67 594.952V588.328L283.542 525.832V594.952L271.157 597.4V601H303.414V597.4L292.182 594.952V512.008L303.414 509.56V505.96H271.157V509.56L283.542 512.008V517.912L227.67 580.408V512.008L240.054 509.56V505.96H207.798V509.56L219.03 512.008V594.952L207.798 597.4V601ZM332.638 601L361.438 557.512H375.838V594.808L365.038 597.4V601H395.998V597.4L384.478 594.952V512.008L395.998 509.56V505.96H361.726C341.566 505.96 329.182 515.176 329.182 532.168C329.182 543.4 337.102 552.904 352.798 555.784L325.87 595.528L316.366 597.4V601H332.638ZM359.854 552.472C347.758 552.472 338.83 543.832 338.83 532.024C338.83 519.064 347.182 511 360.718 511H375.838V552.472H359.854Z" fill="#F3F3F3" fill-opacity="0.4"/>
<path d="M496.449 602.44C522.513 602.44 541.665 581.704 541.665 553.48C541.665 525.256 522.513 504.52 496.449 504.52C470.529 504.52 451.377 525.256 451.377 553.48C451.377 581.704 470.529 602.44 496.449 602.44ZM499.473 598.12C477.585 598.12 460.305 578.536 460.305 548.728C460.305 524.248 474.273 508.696 494.001 508.696C515.601 508.696 532.737 528.136 532.737 557.944C532.737 582.424 519.201 598.12 499.473 598.12ZM561.048 601H592.728V597.4L581.208 594.952V553.048L631.464 601H647.88V597.4L638.232 595.672L589.416 549.736L631.896 511.288L640.392 509.56V505.96H611.88V509.56L622.968 512.296L581.208 551.608V512.008L592.728 509.56V505.96H561.048V509.56L572.568 512.008V594.952L561.048 597.4V601ZM703.73 602.44C729.794 602.44 748.946 581.704 748.946 553.48C748.946 525.256 729.794 504.52 703.73 504.52C677.81 504.52 658.658 525.256 658.658 553.48C658.658 581.704 677.81 602.44 703.73 602.44ZM706.754 598.12C684.866 598.12 667.586 578.536 667.586 548.728C667.586 524.248 681.554 508.696 701.282 508.696C722.882 508.696 740.018 528.136 740.018 557.944C740.018 582.424 726.482 598.12 706.754 598.12ZM768.329 601H800.585V597.4L788.201 594.952V554.488H842.633V594.952L830.249 597.4V601H862.505V597.4L851.273 594.952V512.008L862.505 509.56V505.96H830.249V509.56L842.633 512.008V549.448H788.201V512.008L800.585 509.56V505.96H768.329V509.56L779.561 512.008V594.952L768.329 597.4V601ZM934.963 601H967.219V597.4L955.987 594.952V512.008L967.219 509.56V505.96H934.963V509.56L947.347 512.008V551.032C941.443 553.48 932.083 554.776 925.171 554.776C905.587 554.776 898.099 547.576 898.099 529.144V512.008L909.619 509.56V505.96H877.651V509.56L889.459 512.008V529C889.459 553.336 902.419 559.816 923.299 559.816C932.371 559.816 940.867 557.512 947.347 555.496V594.952L934.963 597.4V601ZM985.876 601H1054.42V576.232H1051.54L1045.49 595.96H1005.75V554.488H1031.96L1035.56 566.152H1038.44V537.496H1035.56L1031.96 549.448H1005.75V511H1041.46L1047.51 529.288H1050.39V505.96H985.876V509.56L997.108 512.008V594.952L985.876 597.4V601ZM1073.91 601H1106.16V597.4L1093.78 594.952V554.488H1148.21V594.952L1135.83 597.4V601H1168.08V597.4L1156.85 594.952V512.008L1168.08 509.56V505.96H1135.83V509.56L1148.21 512.008V549.448H1093.78V512.008L1106.16 509.56V505.96H1073.91V509.56L1085.14 512.008V594.952L1073.91 597.4V601ZM1182.22 601H1209V597.4L1196.19 595.528L1207.85 565H1244.28L1256.38 595.528L1244.14 597.4V601H1274.81V597.4L1266.17 595.528L1229.6 505.24H1226.57L1189.85 595.672L1182.22 597.4V601ZM1209.87 559.96L1225.85 518.344L1242.27 559.96H1209.87Z" fill="#F3F3F3"/>
<path d="M-728.163 879H-695.907V875.4L-708.291 872.952V832.488H-653.859V872.952L-666.243 875.4V879H-633.987V875.4L-645.219 872.952V790.008L-633.987 787.56V783.96H-666.243V787.56L-653.859 790.008V827.448H-708.291V790.008L-695.907 787.56V783.96H-728.163V787.56L-716.931 790.008V872.952L-728.163 875.4V879ZM-615.242 879H-546.698V854.232H-549.578L-555.626 873.96H-595.37V832.488H-569.162L-565.562 844.152H-562.682V815.496H-565.562L-569.162 827.448H-595.37V789H-559.658L-553.61 807.288H-550.73V783.96H-615.242V787.56L-604.01 790.008V872.952L-615.242 875.4V879ZM-457.802 782.52C-470.618 782.52 -477.242 785.976 -484.73 789.576L-485.45 811.896H-482.426L-476.378 794.328C-470.186 789.144 -464.282 786.984 -458.234 786.984C-445.418 786.984 -437.066 794.04 -437.066 805.992C-437.066 820.248 -446.57 827.448 -460.25 827.448H-471.914V832.488H-455.642C-440.666 832.488 -431.738 839.4 -431.738 853.512C-431.738 866.904 -440.378 875.832 -457.514 875.832C-466.154 875.832 -472.202 873.384 -477.674 870.072L-485.45 851.928H-488.33L-487.034 873.384C-479.114 877.272 -472.058 880.44 -457.514 880.44C-435.482 880.44 -422.666 868.632 -422.666 852.648C-422.666 840.12 -431.738 831.624 -448.01 829.176C-435.05 825.576 -428.138 815.64 -428.138 805.272C-428.138 789.72 -441.818 782.52 -457.802 782.52ZM-409.896 879H-383.112V875.4L-395.928 873.528L-384.264 843H-347.832L-335.736 873.528L-347.976 875.4V879H-317.304V875.4L-325.944 873.528L-362.52 783.24H-365.544L-402.264 873.672L-409.896 875.4V879ZM-382.248 837.96L-366.264 796.344L-349.848 837.96H-382.248ZM-269.211 879C-244.875 879 -231.771 866.616 -231.771 850.056C-231.771 834.792 -245.163 825 -269.355 825H-283.323V789H-247.323L-241.275 807.288H-238.395V783.96H-303.195V787.56L-291.963 790.008V872.952L-303.195 875.4V879H-269.211ZM-269.499 830.04C-249.915 830.04 -240.843 836.808 -240.843 852.072C-240.843 864.6 -250.059 873.96 -268.923 873.96H-283.323V830.04H-269.499ZM-176.682 863.16L-171.93 853.656L-140.25 789.144L-132.618 787.56V783.96H-159.402V787.56L-146.73 789.576V790.008L-173.37 845.592H-174.954L-202.314 790.008V789.576L-190.218 787.56V783.96H-220.89V787.56L-211.818 789.864L-178.698 856.536C-183.306 865.464 -188.49 870.792 -199.146 870.792H-199.866L-200.73 871.656V876.264C-200.73 879.432 -200.154 880.44 -196.122 880.44C-189.21 880.44 -183.45 876.84 -176.682 863.16ZM-118.982 787.56L-107.75 790.008V799.656C-107.75 823.128 -109.91 850.632 -119.99 873.96H-131.222V900.168H-128.342L-122.294 879H-46.6936L-40.6456 900.168H-37.7656V873.96H-53.3176V790.008L-42.0856 787.56V783.96H-118.982V787.56ZM-113.222 873.96C-104.15 850.776 -101.702 824.28 -101.702 799.8V789H-61.9576V873.96H-113.222ZM9.19306 879C33.5291 879 46.6331 866.616 46.6331 849.912C46.6331 834.36 33.2411 824.568 9.04907 824.568H-3.47894V790.008L10.6331 787.56V783.96H-23.3509V787.56L-12.1189 790.008V872.952L-23.3509 875.4V879H9.19306ZM8.90506 829.608C28.4891 829.608 37.5611 836.52 37.5611 851.928C37.5611 864.6 28.3451 873.96 9.48106 873.96H-3.47894V829.608H8.90506ZM73.5802 879H111.02V875.4L96.6202 872.952V789H124.7L130.748 810.168H133.628V783.96H50.9722V810.168H53.8522L59.9002 789H87.9802V872.952L73.5802 875.4V879ZM149.477 879H218.021V854.232H215.141L209.093 873.96H169.349V832.488H195.557L199.157 844.152H202.037V815.496H199.157L195.557 827.448H169.349V789H205.061L211.109 807.288H213.989V783.96H149.477V787.56L160.709 790.008V872.952L149.477 875.4V879Z" fill="#F3F3F3" fill-opacity="0.4"/>
<path d="M320.74 880.44C336.292 880.44 344.068 877.56 352.42 873.384L353.716 851.928H350.836L343.06 870.072C337.588 873.384 331.54 875.832 322.756 875.832C299.716 875.832 282.148 856.68 282.148 828.312C282.148 805.704 298.564 786.984 322.036 786.984C329.956 786.984 336.004 789.864 343.492 795.336L349.252 811.896H352.276L351.556 789.576C343.78 785.832 336.724 782.52 323.188 782.52C296.404 782.52 274.228 804.84 274.228 834.072C274.228 860.424 293.812 880.44 320.74 880.44ZM382.065 787.56L393.297 790.008V799.656C393.297 823.128 391.137 850.632 381.057 873.96H369.825V900.168H372.705L378.753 879H454.353L460.401 900.168H463.281V873.96H447.729V790.008L458.961 787.56V783.96H382.065V787.56ZM387.825 873.96C396.897 850.776 399.345 824.28 399.345 799.8V789H439.089V873.96H387.825ZM473.088 879H499.872V875.4L487.056 873.528L498.72 843H535.152L547.248 873.528L535.008 875.4V879H565.68V875.4L557.04 873.528L520.464 783.24H517.44L480.72 873.672L473.088 875.4V879ZM500.736 837.96L516.72 796.344L533.136 837.96H500.736ZM592.346 879H629.786V875.4L615.386 872.952V789H643.466L649.514 810.168H652.394V783.96H569.738V810.168H572.618L578.666 789H606.746V872.952L592.346 875.4V879ZM700.787 879C725.123 879 738.227 866.616 738.227 849.912C738.227 834.36 724.835 824.568 700.643 824.568H688.115V790.008L702.227 787.56V783.96H668.243V787.56L679.475 790.008V872.952L668.243 875.4V879H700.787ZM700.499 829.608C720.083 829.608 729.155 836.52 729.155 851.928C729.155 864.6 719.939 873.96 701.075 873.96H688.115V829.608H700.499ZM822.602 879C846.938 879 860.042 866.616 860.042 850.056C860.042 834.792 846.65 825 822.458 825H808.49V789H844.49L850.538 807.288H853.418V783.96H788.618V787.56L799.85 790.008V872.952L788.618 875.4V879H822.602ZM822.314 830.04C841.898 830.04 850.97 836.808 850.97 852.072C850.97 864.6 841.754 873.96 822.89 873.96H808.49V830.04H822.314ZM872.041 879H898.825V875.4L886.009 873.528L897.673 843H934.105L946.201 873.528L933.961 875.4V879H964.633V875.4L955.993 873.528L919.417 783.24H916.393L879.673 873.672L872.041 875.4V879ZM899.689 837.96L915.673 796.344L932.089 837.96H899.689ZM978.743 879H1014.89V875.4L998.903 872.952V789H1034.61L1040.66 807.288H1043.54V783.96H979.031V787.56L990.263 790.008V872.952L978.743 875.4V879ZM1046.84 879H1073.62V875.4L1060.81 873.528L1072.47 843H1108.9L1121 873.528L1108.76 875.4V879H1139.43V875.4L1130.79 873.528L1094.21 783.24H1091.19L1054.47 873.672L1046.84 875.4V879ZM1074.49 837.96L1090.47 796.344L1106.89 837.96H1074.49ZM1196.95 879H1228.63V875.4L1217.11 872.952V831.048L1264.49 879H1280.9V875.4L1271.4 873.672L1225.32 827.736L1267.8 789.288L1276.3 787.56V783.96H1247.78V787.56L1258.87 790.296L1217.11 829.608V790.008L1228.63 787.56V783.96H1196.95V787.56L1208.47 790.008V829.608L1166.71 790.296L1177.8 787.56V783.96H1148.28V787.56L1156.78 789.288L1200.12 828.6L1154.76 873.672L1144.97 875.4V879H1161.1L1208.47 831.048V872.952L1196.95 875.4V879Z" fill="#F3F3F3"/>
<path d="M-627.783 307.16L-623.031 297.656L-591.351 233.144L-583.719 231.56V227.96H-610.503V231.56L-597.831 233.576V234.008L-624.471 289.592H-626.055L-653.415 234.008V233.576L-641.319 231.56V227.96H-671.991V231.56L-662.919 233.864L-629.799 300.536C-634.407 309.464 -639.591 314.792 -650.247 314.792H-650.967L-651.831 315.656V320.264C-651.831 323.432 -651.255 324.44 -647.223 324.44C-640.311 324.44 -634.551 320.84 -627.783 307.16ZM-571.484 323H-540.38C-518.924 323 -502.94 311.192 -502.94 295.352C-502.94 283.256 -513.308 274.904 -530.876 272.6C-518.204 269.144 -511.292 259.64 -511.292 249.272C-511.292 235.016 -526.7 227.96 -545.42 227.96H-571.484V231.56L-560.252 234.008V316.952L-571.484 319.4V323ZM-544.268 233.144C-529.148 233.144 -520.22 239.768 -520.22 252.584C-520.22 264.536 -529.724 271.448 -543.404 271.448H-551.612V233.144H-544.268ZM-538.796 276.488C-522.524 276.488 -512.012 282.968 -512.012 297.368C-512.012 309.32 -522.668 318.104 -537.788 318.104H-551.612V276.488H-538.796ZM-492.139 323H-465.355V319.4L-478.171 317.528L-466.507 287H-430.075L-417.979 317.528L-430.219 319.4V323H-399.547V319.4L-408.187 317.528L-444.763 227.24H-447.787L-484.507 317.672L-492.139 319.4V323ZM-464.491 281.96L-448.507 240.344L-432.091 281.96H-464.491ZM-342.025 323H-310.345V319.4L-321.865 316.952V275.048L-274.489 323H-258.073V319.4L-267.577 317.672L-313.657 271.736L-271.177 233.288L-262.681 231.56V227.96H-291.193V231.56L-280.105 234.296L-321.865 273.608V234.008L-310.345 231.56V227.96H-342.025V231.56L-330.505 234.008V273.608L-372.265 234.296L-361.177 231.56V227.96H-390.697V231.56L-382.201 233.288L-338.857 272.6L-384.217 317.672L-394.009 319.4V323H-377.881L-330.505 275.048V316.952L-342.025 319.4V323ZM-255.467 323H-228.683V319.4L-241.499 317.528L-229.835 287H-193.403L-181.307 317.528L-193.547 319.4V323H-162.875V319.4L-171.515 317.528L-208.091 227.24H-211.115L-247.835 317.672L-255.467 319.4V323ZM-227.819 281.96L-211.835 240.344L-195.419 281.96H-227.819ZM-148.765 323H-80.221V298.232H-83.101L-89.149 317.96H-128.893V276.488H-102.685L-99.085 288.152H-96.205V259.496H-99.085L-102.685 271.448H-128.893V233H-93.181L-87.133 251.288H-84.253V227.96H-148.765V231.56L-137.533 234.008V316.952L-148.765 319.4V323ZM-61.4537 323H-32.0778V319.4L-43.7417 317.096L-42.0137 237.032L-5.43775 323.72H-2.41375L35.3143 237.608L36.8983 317.096L26.2423 319.4V323H55.9063V319.4L45.8263 316.952L43.3783 234.44L55.4743 231.56V227.96H33.5863L-2.12575 309.896L-37.1177 227.96H-59.4377V231.56L-47.0537 234.584L-50.0777 316.952L-61.4537 319.4V323ZM106.388 323C130.724 323 143.828 310.616 143.828 293.912C143.828 278.36 130.436 268.568 106.244 268.568H93.7164V234.008L107.828 231.56V227.96H73.8444V231.56L85.0764 234.008V316.952L73.8444 319.4V323H106.388ZM148.724 323H179.828V319.4L168.596 316.952V234.008L179.828 231.56V227.96H148.724V231.56L159.956 234.008V316.952L148.724 319.4V323ZM106.1 273.608C125.684 273.608 134.756 280.52 134.756 295.928C134.756 308.6 125.54 317.96 106.676 317.96H93.7164V273.608H106.1ZM198.579 323H267.123V298.232H264.243L258.195 317.96H218.451V276.488H244.659L248.259 288.152H251.139V259.496H248.259L244.659 271.448H218.451V233H254.163L260.211 251.288H263.091V227.96H198.579V231.56L209.811 234.008V316.952L198.579 319.4V323Z" fill="#F3F3F3" fill-opacity="0.4"/>
<path d="M322.61 323H354.866V319.4L342.482 316.952V233H392.594V316.952L380.21 319.4V323H412.466V319.4L401.234 316.952V234.008L412.466 231.56V227.96H322.61V231.56L333.842 234.008V316.952L322.61 319.4V323ZM426.564 323H453.349V319.4L440.533 317.528L452.197 287H488.629L500.725 317.528L488.485 319.4V323H519.157V319.4L510.517 317.528L473.941 227.24H470.917L434.197 317.672L426.564 319.4V323ZM454.213 281.96L470.197 240.344L486.613 281.96H454.213ZM577.686 324.44C593.238 324.44 601.014 321.56 609.366 317.384L610.662 295.928H607.782L600.006 314.072C594.534 317.384 588.486 319.832 579.702 319.832C556.662 319.832 539.094 300.68 539.094 272.312C539.094 249.704 555.51 230.984 578.982 230.984C586.902 230.984 592.95 233.864 600.438 239.336L606.198 255.896H609.222L608.502 233.576C600.726 229.832 593.67 226.52 580.134 226.52C553.35 226.52 531.174 248.84 531.174 278.072C531.174 304.424 550.758 324.44 577.686 324.44ZM680.483 324.44C696.035 324.44 703.811 321.56 712.163 317.384L713.459 295.928H710.579L702.803 314.072C697.331 317.384 691.283 319.832 682.499 319.832C659.459 319.832 641.891 300.68 641.891 272.312C641.891 249.704 658.307 230.984 681.779 230.984C689.699 230.984 695.747 233.864 703.235 239.336L708.995 255.896H712.019L711.299 233.576C703.523 229.832 696.467 226.52 682.931 226.52C656.147 226.52 633.971 248.84 633.971 278.072C633.971 304.424 653.555 324.44 680.483 324.44ZM730.033 323H756.817V319.4L744.001 317.528L755.665 287H792.097L804.193 317.528L791.953 319.4V323H822.625V319.4L813.985 317.528L777.409 227.24H774.385L737.665 317.672L730.033 319.4V323ZM757.681 281.96L773.665 240.344L790.081 281.96H757.681ZM880.147 323H911.827V319.4L900.307 316.952V275.048L947.683 323H964.099V319.4L954.595 317.672L908.515 271.736L950.995 233.288L959.491 231.56V227.96H930.979V231.56L942.067 234.296L900.307 273.608V234.008L911.827 231.56V227.96H880.147V231.56L891.667 234.008V273.608L849.907 234.296L860.995 231.56V227.96H831.475V231.56L839.971 233.288L883.315 272.6L837.955 317.672L828.163 319.4V323H844.291L891.667 275.048V316.952L880.147 319.4V323ZM977.079 323H1009.33V319.4L996.951 316.952V310.328L1052.82 247.832V316.952L1040.44 319.4V323H1072.69V319.4L1061.46 316.952V234.008L1072.69 231.56V227.96H1040.44V231.56L1052.82 234.008V239.912L996.951 302.408V234.008L1009.33 231.56V227.96H977.079V231.56L988.311 234.008V316.952L977.079 319.4V323ZM1091.41 323H1124.53V319.4L1111.57 316.952V281.096H1118.33C1141.81 281.096 1157.79 269.432 1157.79 253.736C1157.79 235.88 1142.81 227.96 1120.21 227.96H1091.41V231.56L1102.93 234.008V316.952L1091.41 319.4V323ZM1121.36 233C1137.63 233 1148.14 239.48 1148.14 254.888C1148.14 267.416 1137.49 276.056 1122.37 276.056H1111.57V233H1121.36ZM1207.2 323C1231.54 323 1244.64 310.616 1244.64 293.912C1244.64 278.36 1231.25 268.568 1207.06 268.568H1194.53V234.008L1208.64 231.56V227.96H1174.66V231.56L1185.89 234.008V316.952L1174.66 319.4V323H1207.2ZM1249.54 323H1280.64V319.4L1269.41 316.952V234.008L1280.64 231.56V227.96H1249.54V231.56L1260.77 234.008V316.952L1249.54 319.4V323ZM1206.91 273.608C1226.5 273.608 1235.57 280.52 1235.57 295.928C1235.57 308.6 1226.35 317.96 1207.49 317.96H1194.53V273.608H1206.91Z" fill="#F3F3F3"/>
</g>
<defs>
<clipPath id="clip0_573:11882">
<rect width="1280" height="967" fill="white"/>
</clipPath>
</defs>
</svg>
