<svg width="1160" height="944" viewBox="0 0 1160 944" fill="none" xmlns="http://www.w3.org/2000/svg">
<rect width="1160" height="944" fill="#F3F3F3"/>
<path d="M1082.17 424.846C1114.47 424.846 1140.66 451.031 1140.66 483.331L1140.66 833.514C1140.66 865.815 1114.47 892 1082.17 892L593.086 892C560.785 892 534.6 865.815 534.6 833.514L534.6 483.331C534.6 451.031 560.785 424.846 593.086 424.846L1082.17 424.846Z" fill="#162DFB"/>
<path fill-rule="evenodd" clip-rule="evenodd" d="M927.187 424.845C915.654 403.706 879.759 388.292 837.265 388.292C794.77 388.292 758.875 403.706 747.343 424.845L777.545 424.845C778.739 424.081 780.048 423.306 781.483 422.523C794.643 415.344 814.324 410.224 837.265 410.224C860.206 410.224 879.887 415.344 893.047 422.523C894.481 423.306 895.79 424.081 896.985 424.845L927.187 424.845Z" fill="#0D21D6"/>
<path d="M1048.35 488.577C1056.15 486.487 1064.17 491.116 1066.26 498.916L1098.85 620.575C1100.94 628.375 1096.32 636.393 1088.52 638.483L966.856 671.081C959.056 673.171 951.039 668.543 948.949 660.743L916.35 539.083C914.26 531.283 918.889 523.266 926.689 521.176L1048.35 488.577Z" fill="#F3F3F3"/>
<path fill-rule="evenodd" clip-rule="evenodd" d="M1091.79 622.468L1059.19 500.808C1058.15 496.908 1054.14 494.594 1050.24 495.639L928.581 528.237C924.681 529.282 922.367 533.291 923.412 537.191L956.01 658.85C957.055 662.75 961.064 665.065 964.964 664.02L1086.62 631.421C1090.52 630.376 1092.84 626.368 1091.79 622.468ZM1066.26 498.916C1064.17 491.116 1056.15 486.487 1048.35 488.577L926.689 521.176C918.889 523.266 914.26 531.283 916.35 539.083L948.949 660.743C951.039 668.543 959.056 673.171 966.856 671.081L1088.52 638.483C1096.32 636.393 1100.94 628.375 1098.85 620.575L1066.26 498.916Z" fill="#FDB62B"/>
<path d="M649.352 491.932L668.188 511.375L691.075 496.92L694.885 523.72L721.898 525.479L709.227 549.401L730.047 566.701L705.736 578.607L712.41 604.841L685.744 600.183L675.724 625.33L656.889 605.887L634.001 620.342L630.191 593.542L603.179 591.783L615.849 567.861L595.029 550.561L619.341 538.655L612.666 512.421L639.332 517.079L649.352 491.932Z" fill="#FDB62B"/>
<path fill-rule="evenodd" clip-rule="evenodd" d="M668.188 511.375L649.352 491.932L639.332 517.079L612.666 512.421L619.341 538.655L595.029 550.561L615.849 567.861L603.179 591.783L630.191 593.542L634.001 620.342L656.889 605.887L675.724 625.33L685.744 600.183L712.41 604.841L705.736 578.607L730.047 566.701L709.227 549.401L721.898 525.479L694.885 523.72L691.075 496.92L668.188 511.375ZM685.427 509.134L667.069 520.727L651.962 505.133L643.925 525.303L622.536 521.567L627.89 542.609L608.39 552.158L625.09 566.034L614.927 585.221L636.593 586.632L639.649 608.128L658.007 596.534L673.115 612.129L681.152 591.959L702.54 595.695L697.186 574.653L716.686 565.104L699.987 551.228L710.15 532.041L688.483 530.63L685.427 509.134Z" fill="#F3F3F3"/>
<path d="M766.843 536.668C766.843 530.538 773.479 526.708 778.787 529.772L877.733 586.899C883.041 589.964 883.042 597.625 877.733 600.69L778.787 657.817C773.479 660.882 766.843 657.051 766.843 650.921L766.843 536.668Z" fill="#162DFB"/>
<path fill-rule="evenodd" clip-rule="evenodd" d="M874.078 593.23L775.131 536.104C774.974 536.012 774.875 536.003 774.809 536.004C774.721 536.006 774.603 536.032 774.48 536.104C774.357 536.175 774.275 536.264 774.229 536.339C774.196 536.395 774.154 536.486 774.154 536.668L774.154 650.921C774.154 651.104 774.195 651.194 774.229 651.25C774.275 651.326 774.357 651.415 774.48 651.486C774.603 651.557 774.721 651.583 774.809 651.585C774.875 651.586 774.974 651.577 775.131 651.486L874.078 594.359C874.236 594.268 874.293 594.187 874.325 594.129C874.368 594.052 874.404 593.937 874.404 593.795C874.404 593.652 874.368 593.537 874.325 593.46C874.293 593.402 874.236 593.321 874.078 593.23ZM778.787 529.772C773.479 526.708 766.843 530.538 766.843 536.668L766.843 650.921C766.843 657.051 773.479 660.882 778.787 657.817L877.733 600.69C883.042 597.625 883.041 589.964 877.733 586.899L778.787 529.772Z" fill="#F3F3F3"/>
<path d="M584.743 667.828C583.698 663.928 586.012 659.919 589.912 658.874L632.282 647.522C636.182 646.477 640.191 648.791 641.236 652.691L682.863 808.046C683.908 811.946 681.593 815.955 677.693 817L635.324 828.353C631.424 829.398 627.415 827.084 626.37 823.183L584.743 667.828Z" fill="#162DFB"/>
<path fill-rule="evenodd" clip-rule="evenodd" d="M634.174 654.583L591.804 665.936L633.432 821.291L675.801 809.938L634.174 654.583ZM589.912 658.874C586.012 659.919 583.698 663.928 584.743 667.828L626.37 823.183C627.415 827.084 631.424 829.398 635.324 828.353L677.693 817C681.593 815.955 683.908 811.946 682.863 808.046L641.236 652.691C640.191 648.791 636.182 646.477 632.282 647.522L589.912 658.874Z" fill="#FDB62B"/>
<path d="M928.562 728.987C932.462 730.032 934.777 734.041 933.732 737.941L918.784 793.727C917.739 797.627 913.73 799.942 909.83 798.897L714.93 746.673C711.03 745.628 708.715 741.62 709.76 737.72L724.708 681.933C725.753 678.033 729.762 675.719 733.662 676.764L928.562 728.987Z" fill="#F3F3F3"/>
<path fill-rule="evenodd" clip-rule="evenodd" d="M911.722 791.835L926.67 736.049L731.77 683.825L716.822 739.612L911.722 791.835ZM933.732 737.941C934.777 734.041 932.462 730.032 928.562 728.987L733.662 676.764C729.762 675.719 725.753 678.033 724.708 681.933L709.76 737.72C708.715 741.62 711.03 745.628 714.93 746.673L909.83 798.897C913.73 799.942 917.739 797.627 918.784 793.727L933.732 737.941Z" fill="#FDB62B"/>
<path d="M769.64 733.845L776.623 735.716L776.768 735.173L774.923 733.516L781.299 709.722L781.096 709.667L776.054 710.314L775.991 710.552L777.552 712.859L772.212 732.79L769.786 733.302L769.64 733.845Z" fill="#162DFB"/>
<path d="M786.801 738.806C789.546 739.542 792.108 738.521 793.686 736.836L793.777 736.497L793.675 736.47C791.735 736.931 790.193 736.99 788.939 736.654C784.635 735.501 783.94 732.263 784.683 729.084L794.818 731.799L795.033 731.675C796.277 727.031 794.764 723.865 791.205 722.911C787.375 721.885 783.022 724.57 781.669 729.62C780.488 734.027 782.428 737.634 786.801 738.806ZM790.263 724.257C792.229 724.784 793.138 726.408 792.829 729.595L785.169 727.543C786.243 724.888 788.094 723.676 790.263 724.257Z" fill="#162DFB"/>
<path d="M801.49 742.742C803.626 743.314 805.247 742.55 805.994 741.66L806.085 741.321L805.983 741.294C805.405 741.284 804.598 741.177 803.751 740.95C802.327 740.569 801.286 739.708 801.595 738.556L804.292 728.489L808.766 729.688L809.193 728.095L804.719 726.896L805.718 723.167L805.515 723.113L802.109 726.196L798.856 726.814L798.801 727.017L801.58 727.762L798.729 738.405C798.156 740.541 799.49 742.206 801.49 742.742Z" fill="#162DFB"/>
<path d="M816.649 727.186L817.021 727.286L822.294 724.557C823.427 723.989 823.803 723.399 823.985 722.721L821.205 721.977L816.649 727.186ZM808.344 744.215L815.326 746.086L815.472 745.544L813.627 743.887L817.369 729.922L817.165 729.867L812.124 730.515L812.06 730.752L813.622 733.059L810.915 743.16L808.489 743.673L808.344 744.215Z" fill="#162DFB"/>
<path d="M818.766 747.008L825.816 748.897L825.962 748.355L824.049 746.68L826.801 736.409C827.857 735.857 829.559 735.877 830.712 736.186C832.576 736.685 833.616 738.09 833.08 740.09L830.828 748.496L828.266 748.972L828.121 749.514L835.443 751.476L835.588 750.934L833.54 749.223L836.21 739.257C837.355 738.51 838.914 738.383 840.474 738.801C842.338 739.301 843.378 740.706 842.842 742.706L840.59 751.112L837.893 751.552L837.747 752.094L845.001 754.037L845.146 753.495L843.302 751.838L845.981 741.839C846.68 739.229 845.213 737.383 842.671 736.702C840.671 736.166 838.935 736.681 836.501 738.173L836.399 738.145C836.476 736.095 835.078 734.667 832.909 734.086C831.045 733.586 829.412 733.985 827.254 735.259L827.085 735.214L827.452 732.624L827.249 732.569L822.546 733.307L822.482 733.545L824.044 735.852L821.337 745.953L818.911 746.465L818.766 747.008Z" fill="#162DFB"/>
<path d="M854.989 757.077C857.735 757.813 860.297 756.792 861.875 755.107L861.965 754.768L861.864 754.741C859.924 755.202 858.382 755.261 857.128 754.925C852.823 753.772 852.129 750.534 852.872 747.355L863.006 750.07L863.221 749.946C864.466 745.303 862.953 742.136 859.394 741.182C855.563 740.156 851.211 742.841 849.858 747.891C848.677 752.298 850.617 755.905 854.989 757.077ZM858.452 742.529C860.418 743.055 861.327 744.679 861.018 747.866L853.357 745.814C854.432 743.159 856.282 741.947 858.452 742.529Z" fill="#162DFB"/>
<path d="M868.434 753.05L869.112 753.232L874.815 738.049L871.086 737.05L868.434 753.05ZM866.911 760.09C867.996 760.38 869.242 759.661 869.533 758.576C869.832 757.458 869.104 756.245 868.019 755.955C866.9 755.655 865.697 756.35 865.397 757.468C865.107 758.553 865.792 759.79 866.911 760.09Z" fill="#162DFB"/>
<path d="M633.458 561.79L634.17 561.98L643.929 550.1L646.755 549.586L646.9 549.043L640.257 547.263L640.111 547.805L642.225 549.68L642.17 549.883L635.861 558.11L635.725 558.074L633.92 547.454L633.975 547.251L637.027 546.979L637.172 546.437L629.071 544.266L628.926 544.808L630.915 546.467L633.458 561.79Z" fill="#162DFB"/>
<path d="M647.246 565.847C649.144 566.356 651.211 565.965 652.706 565.131L652.909 565.185C652.955 566.505 653.619 567.555 655.008 567.927C656.534 568.336 657.854 567.745 658.66 566.908L658.687 566.806L658.604 566.711L657.316 566.366C656.299 566.093 655.786 565.702 655.572 565.281L658.151 555.655C658.914 552.807 656.667 551.297 654.26 550.652C652.701 550.234 651.148 550.472 649.676 550.95C648.247 551.402 647.371 552.366 647.107 553.349C646.889 554.163 647.057 554.353 647.734 554.535L649.497 555.007L649.712 554.883L649.966 553.934C650.384 552.374 651.224 551.546 652.952 552.009C654.512 552.427 655.667 554.081 655.249 555.64L654.586 558.114L651.166 557.997C647.023 557.868 645.086 559.129 644.496 561.332C643.906 563.535 645.111 565.275 647.246 565.847ZM647.322 561.363C647.73 559.837 648.615 558.839 654.277 559.267L652.933 564.283C651.423 564.496 650.385 564.436 649.301 564.145C647.674 563.71 646.949 562.753 647.322 561.363Z" fill="#162DFB"/>
<path d="M669.13 550.24C670.282 550.549 671.4 549.904 671.708 548.752C672.026 547.565 671.372 546.482 670.22 546.173C669.033 545.855 667.959 546.475 667.641 547.662C667.332 548.814 667.943 549.923 669.13 550.24ZM660.463 569.026L667.446 570.897L667.591 570.354L665.746 568.697L669.488 554.732L669.285 554.678L664.243 555.325L664.18 555.562L665.741 557.87L663.035 567.971L660.609 568.483L660.463 569.026Z" fill="#162DFB"/>
<path d="M674.455 573.138C676.354 573.647 678.42 573.256 679.915 572.421L680.119 572.476C680.165 573.796 680.828 574.846 682.218 575.218C683.743 575.627 685.064 575.036 685.869 574.198L685.897 574.097L685.813 574.002L684.525 573.656C683.508 573.384 682.996 572.992 682.781 572.572L685.361 562.945C686.124 560.098 683.876 558.588 681.47 557.943C679.91 557.525 678.357 557.763 676.885 558.24C675.456 558.693 674.58 559.657 674.317 560.64C674.099 561.453 674.266 561.644 674.944 561.825L676.706 562.297L676.921 562.173L677.175 561.224C677.593 559.665 678.433 558.837 680.162 559.3C681.721 559.718 682.876 561.371 682.458 562.931L681.795 565.405L678.375 565.288C674.232 565.158 672.296 566.42 671.705 568.623C671.115 570.826 672.32 572.566 674.455 573.138ZM674.531 568.653C674.94 567.128 675.825 566.13 681.487 566.557L680.142 571.574C678.632 571.787 677.595 571.727 676.51 571.436C674.883 571 674.159 570.043 674.531 568.653Z" fill="#162DFB"/>
<path d="M691.557 570.091L692.235 570.273L697.938 555.09L694.209 554.091L691.557 570.091ZM690.034 577.131C691.119 577.421 692.365 576.702 692.655 575.617C692.955 574.498 692.227 573.286 691.142 572.995C690.023 572.696 688.82 573.39 688.52 574.509C688.23 575.594 688.915 576.831 690.034 577.131Z" fill="#162DFB"/>
<path d="M612.715 689.942L614.604 696.993L615.146 696.847L615.64 694.354L625.911 691.602C626.917 692.24 627.751 693.724 628.06 694.877C628.559 696.741 627.863 698.344 625.863 698.88L617.457 701.133L615.764 699.152L615.221 699.298L617.183 706.619L617.725 706.474L618.183 703.844L628.149 701.174C629.368 701.792 630.258 703.079 630.675 704.639C631.175 706.503 630.478 708.106 628.479 708.642L620.072 710.895L618.343 708.779L617.801 708.924L619.744 716.178L620.287 716.032L620.799 713.606L630.798 710.927C633.408 710.228 634.274 708.034 633.592 705.492C633.057 703.492 631.742 702.246 629.233 700.883L629.206 700.782C631.02 699.823 631.558 697.899 630.977 695.73C630.477 693.866 629.316 692.651 627.133 691.419L627.088 691.25L629.515 690.273L629.46 690.069L626.47 686.366L626.232 686.429L625.015 688.935L614.914 691.642L613.257 689.797L612.715 689.942Z" fill="#F3F3F3"/>
<path d="M622.106 726.347C622.842 729.093 625.007 730.802 627.254 731.326L627.593 731.235L627.566 731.133C626.197 729.683 625.375 728.378 625.039 727.124C623.885 722.819 626.342 720.599 629.467 719.652L632.183 729.787L632.397 729.911C637.041 728.667 639.027 725.773 638.073 722.214C637.047 718.384 632.546 715.957 627.495 717.311C623.089 718.491 620.934 721.975 622.106 726.347ZM636.437 722.072C636.963 724.038 636.011 725.637 633.097 726.963L631.044 719.302C633.881 718.906 635.855 719.902 636.437 722.072Z" fill="#F3F3F3"/>
<path d="M624.928 735.523L626.871 742.777L627.414 742.631L627.854 739.934L638.124 737.182C639.14 737.854 639.991 739.406 640.318 740.627C640.845 742.593 640.167 744.264 638.167 744.8L629.761 747.052L628.031 744.936L627.489 745.081L629.433 752.335L629.975 752.19L630.487 749.764L640.487 747.084C643.097 746.385 643.944 744.124 643.235 741.48C642.718 739.548 641.538 738.265 639.347 737L639.301 736.83L641.728 735.853L641.673 735.65L638.683 731.946L638.446 732.01L637.228 734.516L627.127 737.222L625.47 735.378L624.928 735.523Z" fill="#F3F3F3"/>
<path d="M630.214 755.251L632.158 762.505L632.7 762.36L633.14 759.662L643.41 756.91C644.426 757.583 645.278 759.135 645.605 760.355C646.131 762.321 645.453 763.992 643.453 764.528L635.047 766.78L633.318 764.664L632.775 764.81L634.719 772.063L635.261 771.918L635.774 769.492L645.773 766.813C648.383 766.113 649.23 763.852 648.522 761.208C648.004 759.276 646.825 757.994 644.633 756.728L644.587 756.559L647.014 755.581L646.959 755.378L643.969 751.675L643.732 751.738L642.514 754.244L632.413 756.951L630.756 755.106L630.214 755.251Z" fill="#F3F3F3"/>
<path d="M655.481 772.536C655.735 773.486 656.637 774.007 657.587 773.752C658.536 773.498 659.057 772.595 658.802 771.646C658.548 770.697 657.646 770.176 656.696 770.431C655.747 770.685 655.226 771.587 655.481 772.536ZM657.152 778.773C657.406 779.722 658.309 780.243 659.258 779.989C660.207 779.735 660.728 778.832 660.474 777.883C660.219 776.934 659.317 776.413 658.368 776.667C657.419 776.922 656.897 777.824 657.152 778.773ZM636.098 778.566C636.606 780.464 637.978 782.058 639.448 782.936L639.503 783.139C638.383 783.839 637.805 784.938 638.178 786.328C638.586 787.853 639.758 788.702 640.887 788.981L640.988 788.953L641.029 788.833L640.684 787.545C640.411 786.528 640.494 785.889 640.751 785.493L650.378 782.913C653.225 782.151 653.409 779.449 652.764 777.042C652.347 775.483 651.364 774.257 650.215 773.221C649.108 772.21 647.835 771.933 646.852 772.196C646.039 772.414 645.957 772.654 646.139 773.332L646.611 775.095L646.826 775.219L647.775 774.964C649.335 774.547 650.472 774.859 650.935 776.588C651.353 778.147 650.498 779.975 648.939 780.393L646.465 781.056L644.856 778.035C642.897 774.382 640.836 773.336 638.633 773.926C636.43 774.517 635.526 776.43 636.098 778.566ZM640.019 776.389C641.545 775.98 642.851 776.247 645.312 781.364L640.296 782.708C639.356 781.507 638.89 780.579 638.599 779.494C638.163 777.867 638.63 776.761 640.019 776.389Z" fill="#F3F3F3"/>
<path d="M787.941 623.625L794.445 619.87L794.164 619.384L791.48 619.718L785.216 608.869L789.228 606.553L788.403 605.124L784.392 607.44L783.181 605.343C781.567 602.547 781.645 599.666 784.654 597.929C786.021 597.139 787.099 596.76 788.418 596.728L799.103 615.236L797.75 617.313L798.031 617.8L804.291 614.185L804.01 613.699L801.534 613.832L789.217 592.498L788.731 592.779L788.178 593.787C787.991 593.814 787.756 593.828 787.509 593.89C787.074 593.979 786.361 594.147 785.479 594.656C780.769 597.376 779.416 604.437 781.276 607.659L781.96 608.844L779.59 610.212L780.415 611.641L782.785 610.272L789.014 621.061L787.661 623.139L787.941 623.625Z" fill="#FDB62B"/>
<path d="M800.973 593.086C801.824 592.594 802.093 591.588 801.602 590.737C801.111 589.886 800.104 589.616 799.253 590.107C798.402 590.599 798.133 591.605 798.624 592.456C799.115 593.307 800.122 593.577 800.973 593.086ZM806.565 589.857C807.415 589.366 807.685 588.359 807.194 587.508C806.703 586.658 805.696 586.388 804.845 586.879C803.994 587.37 803.724 588.377 804.216 589.228C804.707 590.079 805.714 590.349 806.565 589.857ZM814.001 608.984C817.982 606.686 818.915 602.055 816.564 597.983C814.213 593.91 809.736 592.402 805.755 594.701C801.774 596.999 800.841 601.63 803.192 605.703C805.543 609.775 810.02 611.283 814.001 608.984ZM813.672 607.432C810.603 609.204 807.419 606.707 805.559 603.485C804.032 600.841 803.635 597.627 806.127 596.188C809.196 594.416 812.32 596.948 814.18 600.169C815.689 602.783 816.134 606.011 813.672 607.432Z" fill="#FDB62B"/>
<path d="M827.381 595.1C830.481 593.311 831.598 589.911 830.001 587.145C829.369 586.051 828.264 585.19 827.175 584.846L827.226 584.655L830.158 583.205L829.21 581.564L824.792 584.439C823.887 584.556 822.653 584.945 821.802 585.436C818.702 587.226 817.603 590.656 819.182 593.391C820.13 595.032 821.757 595.957 823.555 596.053L823.661 596.235L822.511 598.034C822.28 598.897 822.387 599.645 822.844 600.435C823.581 601.711 824.958 602.132 826.653 601.558L826.723 601.68L825.433 604.288C825.384 605.046 825.57 605.79 826.009 606.549C827.185 608.585 829.647 609.271 833.506 607.043C837.883 604.516 839.109 600.323 837.6 597.71C836.126 595.157 834.004 594.64 831.056 596.342L827.409 598.447C825.92 599.307 824.989 599.237 824.374 598.173C824.024 597.566 823.994 596.813 824.639 596.035C825.544 595.918 826.47 595.627 827.381 595.1ZM826.966 593.679C825.082 594.767 822.85 593.989 821.622 591.861C820.516 589.947 820.559 587.775 822.291 586.775C824.054 585.757 826.281 586.456 827.562 588.675C828.65 590.559 828.577 592.749 826.966 593.679ZM827.974 604.969C827.167 603.571 826.97 602.388 827.678 601.088C827.739 601.053 827.769 601.035 827.83 601L831.082 599.123C833.543 597.702 834.697 597.805 835.732 599.598C836.855 601.543 836.085 604.42 833.38 605.981C831.344 607.157 829.009 606.762 827.974 604.969Z" fill="#FDB62B"/>
<path d="M838.608 586.268L839.216 585.918L832.512 571.149L829.169 573.079L838.608 586.268ZM842.509 592.323C843.481 591.761 843.854 590.371 843.292 589.399C842.713 588.396 841.341 588.054 840.368 588.615C839.365 589.194 839.006 590.537 839.585 591.539C840.146 592.512 841.506 592.902 842.509 592.323Z" fill="#FDB62B"/>
<path d="M1082.17 777.587C1082.17 806.86 1058.44 830.59 1029.17 830.59C999.897 830.59 976.167 806.86 976.167 777.587C976.167 748.315 999.897 724.584 1029.17 724.584C1058.44 724.584 1082.17 748.315 1082.17 777.587Z" fill="#162DFB"/>
<path fill-rule="evenodd" clip-rule="evenodd" d="M1029.17 823.279C1054.4 823.279 1074.86 802.822 1074.86 777.587C1074.86 752.352 1054.4 731.895 1029.17 731.895C1003.93 731.895 983.478 752.352 983.478 777.587C983.478 802.822 1003.93 823.279 1029.17 823.279ZM1029.17 830.59C1058.44 830.59 1082.17 806.86 1082.17 777.587C1082.17 748.315 1058.44 724.584 1029.17 724.584C999.897 724.584 976.167 748.315 976.167 777.587C976.167 806.86 999.897 830.59 1029.17 830.59Z" fill="#F3F3F3"/>
<path d="M978.582 527.986L972.371 538.744L969.895 538.611L969.615 539.098L975.875 542.712L976.156 542.226L974.802 540.148L981.031 529.359L987.109 532.869L980.881 543.657L978.404 543.524L978.124 544.01L984.384 547.625L984.665 547.139L983.312 545.061L989.523 534.303L991.999 534.436L992.28 533.949L977.51 525.422L977.229 525.908L978.582 527.986Z" fill="#162DFB"/>
<path d="M990.409 551.509C992.111 552.491 994.208 552.648 995.868 552.229L996.051 552.335C995.753 553.622 996.122 554.807 997.368 555.527C998.736 556.316 1000.16 556.087 1001.16 555.487L1001.21 555.396L1001.16 555.282L1000 554.616C999.09 554.089 998.696 553.578 998.598 553.116L1003.58 544.486C1005.05 541.933 1003.27 539.892 1001.12 538.646C999.719 537.839 998.157 537.667 996.612 537.747C995.114 537.814 994.019 538.519 993.51 539.4C993.089 540.13 993.201 540.357 993.809 540.708L995.389 541.62L995.629 541.556L996.12 540.705C996.927 539.307 997.953 538.724 999.502 539.619C1000.9 540.426 1001.59 542.322 1000.78 543.72L999.5 545.939L996.227 544.94C992.259 543.743 990.062 544.46 988.921 546.436C987.781 548.411 988.495 550.403 990.409 551.509ZM991.643 547.196C992.432 545.829 993.545 545.094 998.904 546.972L996.307 551.47C994.793 551.284 993.807 550.958 992.834 550.396C991.375 549.554 990.923 548.442 991.643 547.196Z" fill="#162DFB"/>
<path d="M998.136 564.884L1004.64 568.639L1004.92 568.152L1003.32 565.934L1006.52 560.403C1007.29 561.094 1008.26 561.812 1009.41 562.479C1013.21 564.672 1017.94 563.636 1020.82 558.652C1023.13 554.64 1022.34 550.898 1019.27 549.126C1017.63 548.178 1015.97 547.953 1013.67 548.365L1013.46 548.242L1014.28 546.248L1014.1 546.143L1009.37 545.639L1009.25 545.852L1010.16 548.485L1000.89 564.53L998.416 564.398L998.136 564.884ZM1016.39 550.258C1018.88 551.696 1019.97 554.513 1017.81 558.251C1015.58 562.111 1013.08 562.652 1011.13 561.529C1009.58 560.634 1008.57 559.646 1007.92 557.972L1012.85 549.432C1014.17 549.386 1015.38 549.679 1016.39 550.258Z" fill="#162DFB"/>
<path d="M1028.38 556.738L1022.17 567.496L1019.69 567.363L1019.41 567.849L1024.82 570.972C1029.87 573.885 1033.03 573.886 1034.61 571.151C1035.41 569.753 1035.29 567.654 1032.22 565.395C1035 566.395 1036.53 565.575 1037.37 564.116C1038.72 561.776 1036.64 559.56 1032.96 557.437L1027.31 554.174L1027.03 554.66L1028.38 556.738ZM1033.12 559.27C1035.09 560.411 1035.21 561.896 1034.49 563.142C1033.75 564.418 1032.42 564.904 1030.41 563.746L1028.29 562.518L1030.9 557.99L1033.12 559.27ZM1029.72 564.883C1032.27 566.357 1032.73 568.083 1031.71 569.845C1030.78 571.456 1029.13 571.718 1026.49 570.192L1024.51 569.051L1027.62 563.672L1029.72 564.883Z" fill="#162DFB"/>
<path d="M1041.18 580.821C1045.16 583.12 1049.64 581.612 1051.99 577.54C1054.34 573.467 1053.41 568.836 1049.43 566.538C1045.45 564.239 1040.97 565.747 1038.62 569.819C1036.27 573.892 1037.2 578.523 1041.18 580.821ZM1042.36 579.76C1039.29 577.988 1039.86 573.982 1041.72 570.76C1043.25 568.116 1045.83 566.165 1048.32 567.604C1051.39 569.376 1050.76 573.347 1048.9 576.568C1047.39 579.182 1044.82 581.181 1042.36 579.76Z" fill="#162DFB"/>
<path d="M1056.28 588.08C1054.64 587.132 1054.21 586.116 1054.2 584.654L1054.2 582.421L1053.77 582.175L1051.81 585.579C1052.73 587.002 1053.55 587.963 1055.71 589.209C1059.08 591.156 1062.34 591.053 1063.9 588.349C1064.96 586.525 1064.28 584.472 1061.83 582.611C1064.55 583.577 1066.17 582.604 1067.03 581.115C1068.5 578.563 1066.63 576.469 1064.2 575.066C1062.25 573.943 1060.65 573.627 1059.13 573.52L1057.22 576.832L1057.65 577.078L1059.58 576.046C1060.86 575.369 1061.75 575.233 1063.03 575.97C1064.85 577.023 1065.14 578.408 1064.27 579.928C1063.39 581.447 1062 582.103 1060.11 581.015L1058.35 579.997L1057.68 581.152L1059.42 582.152C1061.73 583.486 1062.05 585.25 1061.12 586.861C1059.96 588.866 1058.16 589.167 1056.28 588.08Z" fill="#162DFB"/>
<path d="M967.299 593.476L971.311 595.792L971.592 595.306L970.243 593.15L967.875 583.354L975.85 582.245L978.591 582.41L978.872 581.924L973.523 578.835L973.243 579.322L973.492 580.925L973.387 581.107L965.307 582.399L968.062 577.627L970.538 577.76L970.819 577.274L964.558 573.66L964.278 574.146L965.631 576.224L959.42 586.982L956.944 586.849L956.663 587.335L962.923 590.949L963.204 590.463L961.851 588.385L965.044 582.854L967.057 591.229L967.299 593.476Z" fill="#162DFB"/>
<path d="M976.27 599.061C977.972 600.043 980.069 600.201 981.73 599.781L981.912 599.887C981.615 601.174 981.984 602.359 983.23 603.079C984.597 603.868 986.026 603.639 987.021 603.039L987.074 602.948L987.018 602.834L985.863 602.168C984.951 601.641 984.557 601.13 984.459 600.668L989.442 592.038C990.916 589.485 989.136 587.444 986.978 586.199C985.581 585.391 984.019 585.219 982.473 585.299C980.976 585.367 979.88 586.071 979.371 586.952C978.95 587.682 979.062 587.909 979.67 588.26L981.25 589.172L981.49 589.108L981.981 588.257C982.788 586.859 983.814 586.276 985.364 587.171C986.762 587.978 987.45 589.874 986.642 591.272L985.362 593.491L982.089 592.492C978.12 591.295 975.923 592.012 974.783 593.988C973.642 595.963 974.356 597.955 976.27 599.061ZM977.504 594.748C978.294 593.381 979.407 592.646 984.765 594.524L982.168 599.022C980.654 598.836 979.668 598.51 978.695 597.948C977.237 597.106 976.785 595.994 977.504 594.748Z" fill="#162DFB"/>
<path d="M983.997 612.436L990.5 616.191L990.781 615.704L989.185 613.486L992.378 607.955C993.154 608.646 994.117 609.364 995.272 610.031C999.071 612.224 1003.8 611.188 1006.68 606.204C1009 602.192 1008.2 598.45 1005.13 596.678C1003.49 595.73 1001.84 595.505 999.531 595.917L999.318 595.794L1000.15 593.8L999.963 593.695L995.229 593.191L995.107 593.404L996.018 596.037L986.754 612.083L984.277 611.95L983.997 612.436ZM1002.25 597.81C1004.74 599.248 1005.83 602.065 1003.67 605.803C1001.44 609.663 998.94 610.204 996.995 609.081C995.446 608.187 994.436 607.198 993.782 605.524L998.712 596.984C1000.04 596.938 1001.24 597.231 1002.25 597.81Z" fill="#162DFB"/>
<path d="M1007.01 614.499L1005.4 613.569L1002.4 618.766L1002.89 619.047L1007.13 616.472L1016.25 621.735L1016.14 626.697L1016.62 626.978L1019.62 621.781L1017.47 620.535L1023.69 609.747L1026.17 609.879L1026.45 609.393L1014.02 602.217L1013.74 602.703L1015.09 604.781L1014.85 605.207C1013.3 607.881 1010.33 612.199 1007.01 614.499ZM1015.03 619.131L1008.68 615.464C1011.81 613.137 1014.79 608.819 1016.37 606.084L1016.63 605.628L1021.28 608.313L1015.03 619.131Z" fill="#162DFB"/>
<path d="M1027.17 619.94L1027.78 620.291L1037.22 607.101L1033.88 605.171L1027.17 619.94ZM1023.88 626.345C1024.85 626.907 1026.24 626.534 1026.8 625.562C1027.38 624.559 1026.99 623.199 1026.02 622.638C1025.02 622.059 1023.68 622.418 1023.1 623.421C1022.53 624.394 1022.88 625.766 1023.88 626.345Z" fill="#162DFB"/>
<path d="M999.878 771.777L1000.52 772.146L1013.02 763.196L1015.88 763.43L1016.16 762.944L1010.2 759.505L1009.92 759.991L1011.48 762.349L1011.37 762.531L1003.15 768.845L1003.03 768.775L1004.03 758.05L1004.14 757.868L1007.16 758.395L1007.44 757.909L1000.18 753.715L999.895 754.201L1001.39 756.319L999.878 771.777Z" fill="#F3F3F3"/>
<path d="M1015.61 781.266C1019.59 783.564 1024.07 782.056 1026.42 777.984C1028.77 773.912 1027.84 769.281 1023.86 766.982C1019.88 764.684 1015.4 766.192 1013.05 770.264C1010.7 774.336 1011.63 778.967 1015.61 781.266ZM1016.79 780.205C1013.72 778.432 1014.29 774.426 1016.15 771.205C1017.68 768.561 1020.26 766.609 1022.76 768.048C1025.82 769.82 1025.19 773.791 1023.33 777.013C1021.82 779.626 1019.25 781.626 1016.79 780.205Z" fill="#F3F3F3"/>
<path d="M1025.33 786.472L1031.59 790.086L1031.87 789.6L1030.52 787.522L1042.83 766.188L1042.65 766.083L1037.62 765.403L1037.49 765.616L1038.4 768.249L1028.09 786.118L1025.61 785.986L1025.33 786.472Z" fill="#F3F3F3"/>
<path d="M1050.13 779.312L1050.46 779.505L1056.26 778.234C1057.5 777.979 1058.02 777.506 1058.37 776.899L1055.88 775.46L1050.13 779.312ZM1040.62 795.705C1043.08 797.127 1045.82 796.804 1047.78 795.585L1047.96 795.281L1047.87 795.228C1045.87 795.172 1044.37 794.83 1043.24 794.181C1039.38 791.952 1039.55 788.645 1041.09 785.766L1050.18 791.012L1050.42 790.948C1052.82 786.785 1052.18 783.335 1048.99 781.492C1045.55 779.51 1040.66 780.976 1038.04 785.505C1035.76 789.455 1036.7 793.442 1040.62 795.705ZM1047.73 782.549C1049.49 783.566 1049.95 785.37 1048.83 788.369L1041.96 784.403C1043.68 782.117 1045.79 781.426 1047.73 782.549Z" fill="#F3F3F3"/>
<path d="M1054.65 795.296L1055.26 795.647L1064.7 782.457L1061.35 780.527L1054.65 795.296ZM1051.36 801.701C1052.33 802.263 1053.72 801.89 1054.28 800.918C1054.86 799.915 1054.47 798.555 1053.5 797.994C1052.49 797.415 1051.15 797.774 1050.57 798.777C1050.01 799.75 1050.35 801.122 1051.36 801.701Z" fill="#F3F3F3"/>
<path fill-rule="evenodd" clip-rule="evenodd" d="M255.136 77.5877V315.917H323.126V77.5877H255.136ZM247.094 55.6555C239.423 55.6555 233.204 61.8744 233.204 69.5459V323.959C233.204 331.63 239.423 337.849 247.094 337.849H331.168C338.839 337.849 345.058 331.63 345.058 323.959V69.5459C345.058 61.8744 338.839 55.6555 331.168 55.6555H247.094Z" fill="#FDB62B"/>
<path d="M55.5547 344.428C55.5547 312.127 81.7396 285.942 114.04 285.942H464.223C496.524 285.942 522.709 312.127 522.709 344.428V833.514C522.709 865.815 496.524 892 464.223 892H114.04C81.7396 892 55.5547 865.815 55.5547 833.514V344.428Z" fill="#162DFB"/>
<path d="M114.04 384.638C114.04 364.45 130.406 348.084 150.594 348.084V348.084C170.782 348.084 187.147 364.45 187.147 384.638V794.038C187.147 814.225 170.782 830.591 150.594 830.591V830.591C130.406 830.591 114.04 814.225 114.04 794.038V384.638Z" fill="#0D21D6"/>
<path d="M391.117 384.638C391.117 364.45 407.483 348.084 427.671 348.084V348.084C447.859 348.084 464.224 364.45 464.224 384.638V794.038C464.224 814.225 447.859 830.591 427.671 830.591V830.591C407.483 830.591 391.117 814.225 391.117 794.038V384.638Z" fill="#0D21D6"/>
<path d="M252.943 384.638C252.943 364.45 269.309 348.084 289.497 348.084V348.084C309.685 348.084 326.05 364.45 326.05 384.638V794.038C326.05 814.225 309.685 830.591 289.497 830.591V830.591C269.309 830.591 252.943 814.225 252.943 794.038V384.638Z" fill="#0D21D6"/>
<path fill-rule="evenodd" clip-rule="evenodd" d="M55.5535 499.415C34.4147 510.947 19 546.842 19 589.336C19 631.831 34.4147 667.726 55.5535 679.258V649.056C54.7895 647.862 54.014 646.553 53.2314 645.118C46.0521 631.958 40.9321 612.277 40.9321 589.336C40.9321 566.395 46.0521 546.714 53.2314 533.554C54.014 532.12 54.7895 530.811 55.5535 529.616V499.415Z" fill="#0D21D6"/>
<path fill-rule="evenodd" clip-rule="evenodd" d="M379.414 285.943C367.882 264.804 331.987 249.389 289.492 249.389C246.998 249.389 211.103 264.804 199.571 285.943L229.772 285.943C230.967 285.179 232.276 284.403 233.71 283.621C246.87 276.441 266.551 271.322 289.492 271.322C312.434 271.322 332.114 276.441 345.274 283.621C346.709 284.403 348.018 285.179 349.212 285.943L379.414 285.943Z" fill="#0D21D6"/>
<path d="M269.761 55.6554C269.761 53.6366 271.397 52 273.416 52H309.97C311.988 52 313.625 53.6366 313.625 55.6554V77.5875C313.625 79.6063 311.988 81.2428 309.97 81.2428H273.416C271.397 81.2428 269.761 79.6063 269.761 77.5875V55.6554Z" fill="#162DFB"/>
<path d="M220.044 411.687C220.044 446.814 191.568 475.29 156.441 475.29C121.314 475.29 92.8379 446.814 92.8379 411.687C92.8379 376.56 121.314 348.084 156.441 348.084C191.568 348.084 220.044 376.56 220.044 411.687Z" fill="#F3F3F3"/>
<path fill-rule="evenodd" clip-rule="evenodd" d="M156.441 467.98C187.531 467.98 212.734 442.777 212.734 411.687C212.734 380.598 187.531 355.395 156.441 355.395C125.352 355.395 100.149 380.598 100.149 411.687C100.149 442.777 125.352 467.98 156.441 467.98ZM156.441 475.29C191.568 475.29 220.044 446.814 220.044 411.687C220.044 376.56 191.568 348.084 156.441 348.084C121.314 348.084 92.8379 376.56 92.8379 411.687C92.8379 446.814 121.314 475.29 156.441 475.29Z" fill="#FDB62B"/>
<path d="M160.732 545.46C158.642 537.66 163.27 529.643 171.07 527.553L387.263 469.624C395.063 467.534 403.08 472.163 405.17 479.963L418.369 529.222C420.459 537.022 415.83 545.039 408.03 547.129L191.838 605.058C184.038 607.148 176.02 602.519 173.93 594.719L160.732 545.46Z" fill="#FDB62B"/>
<path fill-rule="evenodd" clip-rule="evenodd" d="M389.155 476.686L172.963 534.614C169.063 535.659 166.748 539.668 167.793 543.568L180.992 592.827C182.037 596.727 186.046 599.041 189.946 597.996L406.138 540.068C410.038 539.023 412.352 535.014 411.307 531.114L398.109 481.855C397.064 477.955 393.055 475.641 389.155 476.686ZM171.07 527.553C163.27 529.643 158.642 537.66 160.732 545.46L173.93 594.719C176.02 602.519 184.038 607.148 191.838 605.058L408.03 547.129C415.83 545.039 420.459 537.022 418.369 529.222L405.17 479.963C403.08 472.163 395.063 467.534 387.263 469.624L171.07 527.553Z" fill="#F3F3F3"/>
<path d="M251.678 378.221C253.905 370.459 262.003 365.972 269.765 368.2L322.639 383.373C330.401 385.601 334.888 393.698 332.66 401.46L317.487 454.334C315.26 462.096 307.162 466.583 299.4 464.356L246.526 449.182C238.764 446.955 234.277 438.857 236.505 431.095L251.678 378.221Z" fill="#162DFB"/>
<path fill-rule="evenodd" clip-rule="evenodd" d="M320.623 390.4L267.749 375.227C263.868 374.113 259.819 376.357 258.705 380.237L243.532 433.112C242.418 436.993 244.661 441.042 248.542 442.155L301.416 457.328C305.297 458.442 309.346 456.199 310.46 452.318L325.633 399.444C326.747 395.563 324.504 391.514 320.623 390.4ZM269.765 368.2C262.003 365.972 253.905 370.459 251.678 378.221L236.505 431.095C234.277 438.857 238.764 446.955 246.526 449.182L299.4 464.356C307.162 466.583 315.26 462.096 317.487 454.334L332.66 401.46C334.888 393.698 330.401 385.601 322.639 383.373L269.765 368.2Z" fill="#FDB62B"/>
<path d="M239.939 566.175C238.516 566.556 237.575 566.3 235.953 564.99L234.977 564.198L234.74 564.262L233.743 565.692C233.476 566.054 233.429 566.284 233.52 566.623C233.593 566.894 233.819 567.197 234.335 567.495C235.538 568.189 237.559 568.411 240.169 567.711C244.033 566.676 246.325 562.756 245.235 558.689C244.518 556.011 241.923 554.054 238.25 554.312C241.363 552.642 241.69 549.793 241.09 547.556C240.209 544.268 237.405 543.022 233.88 543.966C231.541 544.593 230.303 545.397 229.07 546.49L230.06 550.185L230.535 550.058L231.172 547.961C231.591 546.541 232.369 545.788 233.861 545.388C236.132 544.78 237.6 546.057 238.363 548.905C238.981 551.209 238.351 553.74 235.639 554.466L233.979 554.911L234.324 556.199L236.018 555.745C239.171 554.901 241.422 556.659 242.285 559.879C243.202 563.302 242.38 565.521 239.939 566.175Z" fill="#162DFB"/>
<path d="M259.116 555.405C260.06 558.93 259.609 560.904 256.897 561.631C255.405 562.03 254.259 561.684 253.336 560.95L251.766 559.7L251.528 559.763L250.531 561.193C250.265 561.555 250.217 561.786 250.308 562.125C250.381 562.396 250.632 562.656 251.123 562.996C252.268 563.743 254.348 563.912 256.178 563.422C260.822 562.178 262.763 558.17 261.41 553.119L257.277 537.697L257.074 537.751L255.773 538.863C254.333 538.776 253.176 538.796 251.617 539.214C247.21 540.394 244.32 544.656 245.864 550.419C247.008 554.69 250.191 556.67 253.614 555.753C255.411 555.272 256.89 554.149 258.086 552.375L258.289 552.321L259.116 555.405ZM248.367 548.913C247.095 544.167 248.74 541.765 251.282 541.083C252.502 540.756 253.709 540.651 254.876 541.21C255.331 541.415 255.383 541.474 255.828 543.135L257.935 550.999C257.066 551.958 255.835 552.651 254.852 552.915C252.073 553.66 249.366 552.641 248.367 548.913Z" fill="#162DFB"/>
<path d="M268.616 559.726L275.869 557.782L275.724 557.24L273.027 556.8L271.374 550.631C272.411 550.571 273.6 550.398 274.888 550.053C279.125 548.918 281.738 544.839 280.248 539.28C279.049 534.806 275.839 532.723 272.416 533.641C270.585 534.131 269.257 535.141 267.919 537.061L267.682 537.125L266.857 535.13L266.653 535.185L262.95 538.175L263.014 538.412L265.52 539.63L270.315 557.527L268.47 559.184L268.616 559.726ZM271.178 536.479C273.958 535.734 276.719 536.956 277.836 541.125C278.99 545.43 277.604 547.581 275.435 548.163C273.706 548.626 272.294 548.641 270.647 547.92L268.095 538.395C268.998 537.426 270.06 536.779 271.178 536.479Z" fill="#162DFB"/>
<path d="M289.676 546.091C291.574 545.582 293.168 544.21 294.045 542.74L294.249 542.685C294.949 543.806 296.048 544.383 297.438 544.011C298.963 543.602 299.811 542.43 300.09 541.302L300.063 541.2L299.943 541.16L298.655 541.505C297.638 541.777 296.999 541.694 296.603 541.437L294.023 531.811C293.26 528.963 290.559 528.779 288.152 529.424C286.593 529.842 285.367 530.824 284.331 531.974C283.319 533.08 283.043 534.353 283.306 535.336C283.524 536.15 283.764 536.231 284.442 536.049L286.204 535.577L286.329 535.362L286.074 534.413C285.656 532.854 285.969 531.716 287.698 531.253C289.257 530.835 291.085 531.69 291.502 533.249L292.165 535.724L289.145 537.332C285.492 539.292 284.446 541.352 285.036 543.555C285.627 545.759 287.54 546.663 289.676 546.091ZM287.499 542.169C287.09 540.644 287.357 539.337 292.474 536.876L293.818 541.893C292.617 542.832 291.688 543.299 290.604 543.589C288.977 544.025 287.871 543.559 287.499 542.169Z" fill="#162DFB"/>
<path d="M301.162 535.638C302.424 540.35 305.683 541.801 309.344 540.821C313.954 539.585 315.518 535.933 314.483 532.069C313.275 527.561 309.388 526.749 305.973 527.156C309.063 525.674 310.644 522.489 309.8 519.337C308.81 515.642 305.424 514.261 302.17 515.132C298.916 516.004 296.684 518.927 297.919 523.537L301.162 535.638ZM302.518 516.565C304.551 516.02 305.968 517.239 306.84 520.493C307.503 522.968 307.122 526.157 303.733 527.066L301.902 527.556L300.613 522.743C299.541 518.743 300.687 517.056 302.518 516.565ZM303.873 534.911L302.32 529.115L304.15 528.625C307.404 527.753 310.369 528.92 311.441 532.92C312.404 536.513 311.461 538.691 308.987 539.354C306.648 539.981 304.9 538.742 303.873 534.911Z" fill="#162DFB"/>
<path d="M326.136 536.321C328.881 535.585 330.59 533.42 331.114 531.173L331.023 530.834L330.921 530.861C329.472 532.23 328.166 533.052 326.912 533.388C322.607 534.542 320.387 532.085 319.44 528.96L329.575 526.245L329.699 526.03C328.455 521.386 325.562 519.4 322.003 520.354C318.172 521.38 315.745 525.881 317.099 530.932C318.279 535.338 321.763 537.493 326.136 536.321ZM321.86 521.991C323.826 521.464 325.425 522.416 326.751 525.33L319.09 527.383C318.694 524.546 319.69 522.572 321.86 521.991Z" fill="#162DFB"/>
<path d="M330.686 509.054C331.567 512.342 334.203 514.178 337.898 513.188C341.592 512.198 342.956 509.29 342.075 506.002L339.16 506.783C339.851 509.359 339.475 511.349 337.543 511.866C335.611 512.384 334.292 510.849 333.601 508.273L330.686 509.054ZM341.401 532.231C343.3 531.722 344.591 530.577 345.857 528.385L346.026 528.339L346.598 530.475L351.717 529.103L351.571 528.561L348.901 528.223L345.223 514.495L340.105 515.867L340.25 516.409L342.938 516.815L345.699 527.119C345.027 528.135 343.475 528.987 342.255 529.314C340.289 529.84 338.617 529.162 338.082 527.162L335.393 517.129L330.546 518.428L330.691 518.97L333.108 519.449L335.797 529.482C336.496 532.092 338.758 532.939 341.401 532.231Z" fill="#162DFB"/>
<path d="M128.073 404.524C129.226 400.219 127.759 396.883 122.972 394.547C119.375 392.784 118.818 391.473 119.118 390.354C119.5 388.93 120.389 388.188 124.456 389.278C130.015 390.767 130.914 389.991 131.785 386.737L131.876 386.398L131.777 386.226L131.235 386.08C130.781 387.775 129.756 387.937 125.147 386.702C120.91 385.566 118.171 386.431 117.345 389.516C116.791 391.583 117.989 393.212 120.402 394.513C116.857 394.725 114.103 397.003 113.177 400.46C112.033 404.731 113.745 409.186 118.524 410.467C123.168 411.711 126.938 408.761 128.073 404.524ZM119.356 409.127C115.966 408.219 115.419 404.294 116.4 400.634C117.281 397.346 119.361 395.142 121.971 395.841C125.225 396.713 125.885 400.487 124.859 404.317C124.041 407.367 122.067 409.854 119.356 409.127Z" fill="#162DFB"/>
<path d="M135.148 399.953L131.933 411.952L129.507 412.465L129.361 413.007L136.344 414.878L136.489 414.336L134.645 412.679L134.962 411.493L144.445 405.932L142.102 414.677L139.676 415.19L139.53 415.732L146.513 417.603L146.658 417.061L144.813 415.404L148.028 403.405L150.454 402.892L150.6 402.35L143.617 400.479L143.472 401.021L145.317 402.678L144.999 403.864L135.516 409.425L137.86 400.68L140.286 400.167L140.431 399.625L133.449 397.754L133.303 398.296L135.148 399.953Z" fill="#162DFB"/>
<path d="M151.676 408.85L152.218 408.996L155.649 405.41L158.768 406.246L155.543 418.279L152.643 418.664L152.497 419.206L160.429 421.332L160.574 420.789L158.255 419.005L161.479 406.972L164.598 407.808L165.776 412.629L166.319 412.774L167.872 406.978L153.229 403.054L151.676 408.85Z" fill="#162DFB"/>
<path d="M178.298 426.12L182.773 427.319L182.918 426.776L181.057 425.043L176.235 416.194L183.651 413.059L186.341 412.508L186.487 411.966L180.521 410.367L180.376 410.91L181.032 412.393L180.977 412.597L173.507 415.935L174.933 410.614L177.359 410.101L177.504 409.559L170.522 407.688L170.377 408.23L172.221 409.887L169.006 421.886L166.58 422.399L166.435 422.941L173.417 424.812L173.563 424.27L171.718 422.613L173.371 416.444L177.483 424.012L178.298 426.12Z" fill="#162DFB"/>
<path d="M188.409 429.192C190.307 429.701 192.374 429.31 193.869 428.475L194.072 428.53C194.118 429.85 194.781 430.9 196.171 431.272C197.697 431.681 199.017 431.09 199.823 430.252L199.85 430.151L199.767 430.056L198.479 429.711C197.462 429.438 196.949 429.046 196.735 428.626L199.314 418.999C200.077 416.152 197.83 414.642 195.423 413.997C193.864 413.579 192.311 413.817 190.839 414.294C189.41 414.747 188.534 415.711 188.27 416.694C188.052 417.508 188.219 417.698 188.897 417.879L190.66 418.352L190.875 418.228L191.129 417.278C191.547 415.719 192.387 414.891 194.115 415.354C195.674 415.772 196.83 417.425 196.412 418.985L195.749 421.459L192.329 421.342C188.186 421.213 186.249 422.474 185.659 424.677C185.069 426.88 186.274 428.62 188.409 429.192ZM188.485 424.708C188.893 423.182 189.778 422.184 195.44 422.611L194.096 427.628C192.586 427.841 191.548 427.781 190.464 427.49C188.837 427.054 188.112 426.097 188.485 424.708Z" fill="#162DFB"/>
<path d="M263.173 439.434L269.676 435.679L269.396 435.193L266.729 435.557L261.36 426.258C261.747 425.103 263.025 423.878 264.119 423.247C265.882 422.229 267.672 422.452 268.707 424.245L273.111 431.873L271.462 434L271.743 434.486L278.246 430.731L277.966 430.245L275.49 430.378L270.314 421.413C268.963 419.073 266.559 418.84 264.189 420.208C262.456 421.208 261.523 422.679 260.868 425.124L260.746 425.194L254.359 414.132L254.177 414.238L251.07 418.26L251.193 418.473L253.928 419L264.245 436.87L262.892 438.948L263.173 439.434Z" fill="#F3F3F3"/>
<path d="M287.783 425.63C291.764 423.332 292.697 418.701 290.346 414.629C287.994 410.557 283.518 409.049 279.536 411.347C275.555 413.646 274.623 418.277 276.974 422.349C279.325 426.421 283.802 427.929 287.783 425.63ZM287.454 424.078C284.385 425.85 281.2 423.353 279.341 420.132C277.814 417.488 277.417 414.273 279.909 412.834C282.978 411.062 286.101 413.594 287.961 416.816C289.47 419.429 289.916 422.657 287.454 424.078Z" fill="#F3F3F3"/>
<path d="M297.151 419.817L303.412 416.202L303.131 415.716L300.655 415.849L288.338 394.515L288.155 394.62L285.048 398.643L285.171 398.856L287.907 399.383L298.224 417.252L296.87 419.33L297.151 419.817Z" fill="#F3F3F3"/>
<path d="M309.663 412.998C311.365 412.015 312.55 410.278 313.017 408.63L313.199 408.525C314.165 409.426 315.377 409.699 316.623 408.98C317.99 408.19 318.506 406.839 318.484 405.677L318.431 405.586L318.305 405.577L317.15 406.244C316.238 406.77 315.599 406.856 315.15 406.71L310.167 398.079C308.693 395.527 306.036 396.048 303.878 397.293C302.48 398.1 301.55 399.367 300.847 400.745C300.157 402.076 300.219 403.377 300.728 404.258C301.149 404.988 301.401 405.004 302.009 404.653L303.589 403.741L303.654 403.501L303.162 402.65C302.355 401.252 302.363 400.073 303.913 399.178C305.311 398.371 307.297 398.723 308.104 400.121L309.385 402.34L306.884 404.675C303.863 407.513 303.386 409.774 304.526 411.75C305.667 413.725 307.749 414.103 309.663 412.998ZM306.546 409.773C305.756 408.406 305.676 407.074 309.982 403.373L312.578 407.871C311.661 409.089 310.885 409.78 309.913 410.342C308.454 411.184 307.265 411.019 306.546 409.773Z" fill="#F3F3F3"/>
<path d="M300.098 668.668L302.596 700.953L324.916 724.412L294.984 736.764L279.57 765.242L258.573 740.591L226.726 734.732L243.681 707.145L239.413 675.046L270.889 682.647L300.098 668.668Z" fill="#F3F3F3"/>
<path fill-rule="evenodd" clip-rule="evenodd" d="M302.596 700.953L300.098 668.668L270.889 682.647L239.413 675.046L243.681 707.145L226.726 734.732L258.573 740.591L279.57 765.242L294.984 736.764L324.916 724.412L302.596 700.953ZM312.267 721.723L295.507 704.109L293.632 679.868L271.7 690.364L248.066 684.657L251.271 708.758L238.54 729.472L262.452 733.872L278.218 752.381L289.792 730.998L312.267 721.723Z" fill="#FDB62B"/>
<path d="M267.558 730.034L274.061 726.279L273.78 725.793L271.114 726.158L265.745 716.858C266.132 715.703 267.41 714.479 268.504 713.847C270.267 712.829 272.057 713.052 273.092 714.845L277.496 722.473L275.847 724.6L276.128 725.086L282.631 721.332L282.35 720.845L279.874 720.978L274.698 712.013C273.347 709.673 270.944 709.44 268.573 710.809C266.841 711.809 265.907 713.28 265.252 715.724L265.131 715.795L258.744 704.733L258.562 704.838L255.455 708.861L255.577 709.073L258.313 709.601L268.63 727.47L267.277 729.548L267.558 730.034Z" fill="#162DFB"/>
<path d="M278.125 700.391C279.158 699.795 279.492 698.548 278.895 697.515C278.281 696.451 277.052 696.148 276.019 696.744C274.955 697.359 274.634 698.557 275.248 699.621C275.845 700.654 277.061 701.005 278.125 700.391ZM285.28 719.802L291.54 716.188L291.259 715.702L288.783 715.835L281.554 703.314L281.372 703.419L278.265 707.442L278.388 707.655L281.123 708.182L286.352 717.238L284.999 719.316L285.28 719.802Z" fill="#162DFB"/>
</svg>
