<svg width="1160" height="626" viewBox="0 0 1160 626" fill="none" xmlns="http://www.w3.org/2000/svg">
<rect width="1160" height="626" fill="#162DFB"/>
<rect x="652.178" y="157.889" width="39.9556" height="54.1333" fill="#F3F3F3"/>
<rect x="938.311" y="157.889" width="39.9556" height="54.1333" fill="#F3F3F3"/>
<rect x="795.244" y="157.889" width="39.9556" height="54.1333" fill="#F3F3F3"/>
<rect x="1081.38" y="157.889" width="39.9556" height="54.1333" fill="#F3F3F3"/>
<rect x="699.866" y="157.889" width="39.9556" height="54.1333" fill="#F3F3F3"/>
<rect x="986" y="157.889" width="39.9556" height="54.1333" fill="#F3F3F3"/>
<rect x="842.933" y="157.889" width="39.9556" height="54.1333" fill="#F3F3F3"/>
<rect x="747.555" y="157.889" width="39.9556" height="54.1333" fill="#F3F3F3"/>
<rect x="1033.69" y="157.889" width="39.9556" height="54.1333" fill="#F3F3F3"/>
<rect x="890.622" y="157.889" width="39.9556" height="54.1333" fill="#F3F3F3"/>
<rect x="604.489" y="157.889" width="39.9556" height="54.1333" fill="#F3F3F3"/>
<rect x="652.178" y="343.489" width="39.9556" height="54.1333" fill="#F3F3F3"/>
<rect x="938.311" y="343.489" width="39.9556" height="54.1333" fill="#F3F3F3"/>
<rect x="795.244" y="343.489" width="39.9556" height="54.1333" fill="#F3F3F3"/>
<rect x="1081.38" y="343.489" width="39.9556" height="54.1333" fill="#F3F3F3"/>
<rect x="699.866" y="343.489" width="39.9556" height="54.1333" fill="#F3F3F3"/>
<rect x="986" y="343.489" width="39.9556" height="54.1333" fill="#F3F3F3"/>
<rect x="842.933" y="343.489" width="39.9556" height="54.1333" fill="#F3F3F3"/>
<rect x="747.555" y="343.489" width="39.9556" height="54.1333" fill="#F3F3F3"/>
<rect x="1033.69" y="343.489" width="39.9556" height="54.1333" fill="#F3F3F3"/>
<rect x="890.622" y="343.489" width="39.9556" height="54.1333" fill="#F3F3F3"/>
<rect x="604.489" y="343.489" width="39.9556" height="54.1333" fill="#F3F3F3"/>
<rect x="652.178" y="219.756" width="39.9556" height="54.1333" fill="#F3F3F3"/>
<rect x="938.311" y="219.756" width="39.9556" height="54.1333" fill="#F3F3F3"/>
<rect x="795.244" y="219.756" width="39.9556" height="54.1333" fill="#F3F3F3"/>
<rect x="1081.38" y="219.756" width="39.9556" height="54.1333" fill="#F3F3F3"/>
<rect x="699.866" y="219.756" width="39.9556" height="54.1333" fill="#F3F3F3"/>
<rect x="986" y="219.756" width="39.9556" height="54.1333" fill="#F3F3F3"/>
<rect x="842.933" y="219.756" width="39.9556" height="54.1333" fill="#F3F3F3"/>
<rect x="747.555" y="219.756" width="39.9556" height="54.1333" fill="#F3F3F3"/>
<rect x="1033.69" y="219.756" width="39.9556" height="54.1333" fill="#F3F3F3"/>
<rect x="890.622" y="219.756" width="39.9556" height="54.1333" fill="#F3F3F3"/>
<rect x="604.489" y="219.756" width="39.9556" height="54.1333" fill="#F3F3F3"/>
<rect x="652.178" y="405.355" width="39.9556" height="54.1333" fill="#F3F3F3"/>
<rect x="938.311" y="405.355" width="39.9556" height="54.1333" fill="#F3F3F3"/>
<rect x="795.244" y="405.355" width="39.9556" height="54.1333" fill="#F3F3F3"/>
<rect x="1081.38" y="405.355" width="39.9556" height="54.1333" fill="#F3F3F3"/>
<rect x="699.866" y="405.355" width="39.9556" height="54.1333" fill="#F3F3F3"/>
<rect x="986" y="405.355" width="39.9556" height="54.1333" fill="#F3F3F3"/>
<rect x="842.933" y="405.355" width="39.9556" height="54.1333" fill="#F3F3F3"/>
<rect x="747.555" y="405.355" width="39.9556" height="54.1333" fill="#F3F3F3"/>
<rect x="1033.69" y="405.355" width="39.9556" height="54.1333" fill="#F3F3F3"/>
<rect x="890.622" y="405.355" width="39.9556" height="54.1333" fill="#F3F3F3"/>
<rect x="604.489" y="405.355" width="39.9556" height="54.1333" fill="#F3F3F3"/>
<rect x="652.178" y="281.622" width="39.9556" height="54.1333" fill="#F3F3F3"/>
<rect x="938.311" y="281.622" width="39.9556" height="54.1333" fill="#F3F3F3"/>
<rect x="795.244" y="281.622" width="39.9556" height="54.1333" fill="#F3F3F3"/>
<rect x="1081.38" y="281.622" width="39.9556" height="54.1333" fill="#F3F3F3"/>
<rect x="699.866" y="281.622" width="39.9556" height="54.1333" fill="#F3F3F3"/>
<rect x="986" y="281.622" width="39.9556" height="54.1333" fill="#F3F3F3"/>
<rect x="842.933" y="281.622" width="39.9556" height="54.1333" fill="#F3F3F3"/>
<rect x="747.555" y="281.622" width="39.9556" height="54.1333" fill="#F3F3F3"/>
<rect x="1033.69" y="281.622" width="39.9556" height="54.1333" fill="#F3F3F3"/>
<rect x="890.622" y="281.622" width="39.9556" height="54.1333" fill="#F3F3F3"/>
<rect x="604.489" y="281.622" width="39.9556" height="54.1333" fill="#F3F3F3"/>
<rect x="652.178" y="467.222" width="39.9556" height="54.1333" fill="#F3F3F3"/>
<rect x="938.311" y="467.222" width="39.9556" height="54.1333" fill="#F3F3F3"/>
<rect x="795.244" y="467.222" width="39.9556" height="54.1333" fill="#F3F3F3"/>
<rect x="1081.38" y="467.222" width="39.9556" height="54.1333" fill="#F3F3F3"/>
<rect x="699.866" y="467.222" width="39.9556" height="54.1333" fill="#F3F3F3"/>
<rect x="986" y="467.222" width="39.9556" height="54.1333" fill="#F3F3F3"/>
<rect x="842.933" y="467.222" width="39.9556" height="54.1333" fill="#F3F3F3"/>
<rect x="747.555" y="467.222" width="39.9556" height="54.1333" fill="#F3F3F3"/>
<rect x="1033.69" y="467.222" width="39.9556" height="54.1333" fill="#F3F3F3"/>
<rect x="890.622" y="467.222" width="39.9556" height="54.1333" fill="#F3F3F3"/>
<rect x="604.489" y="467.222" width="39.9556" height="54.1333" fill="#F3F3F3"/>
<rect x="652.178" y="529.089" width="39.9556" height="54.1333" fill="#F3F3F3"/>
<rect x="938.311" y="529.089" width="39.9556" height="54.1333" fill="#F3F3F3"/>
<rect x="795.244" y="529.089" width="39.9556" height="54.1333" fill="#F3F3F3"/>
<rect x="1081.38" y="529.089" width="39.9556" height="54.1333" fill="#F3F3F3"/>
<rect x="699.866" y="529.089" width="39.9556" height="54.1333" fill="#F3F3F3"/>
<rect x="986" y="529.089" width="39.9556" height="54.1333" fill="#F3F3F3"/>
<rect x="842.933" y="529.089" width="39.9556" height="54.1333" fill="#F3F3F3"/>
<rect x="747.555" y="529.089" width="39.9556" height="54.1333" fill="#F3F3F3"/>
<rect x="1033.69" y="529.089" width="39.9556" height="54.1333" fill="#F3F3F3"/>
<rect x="890.622" y="529.089" width="39.9556" height="54.1333" fill="#F3F3F3"/>
<rect x="604.489" y="529.089" width="39.9556" height="54.1333" fill="#F3F3F3"/>
<path d="M606.153 137H615.529V136.488L612.841 135.176V117.704L615.529 116.392V115.88H606.153V116.392L608.841 117.704V135.176L606.153 136.488V137ZM612.873 126.28L622.089 137H628.169V136.488L626.025 135.592L616.649 124.84L624.489 117.256L626.569 116.392V115.88H619.337V116.392L621.673 117.512L612.873 126.28ZM630.239 144.712C631.327 144.712 632.607 144.072 633.471 142.856C634.431 141.512 634.559 141.032 635.167 139.528L641.535 124.072L643.839 122.984V122.472H637.663V122.984L639.775 124.072V124.232L636.703 132.232H636.543L632.703 124.072V123.944L634.943 122.984V122.472H626.591V122.984L628.639 123.912L634.815 136.904L633.855 139.112C632.767 141.576 632.319 141.672 630.751 141.672H629.311L629.151 141.832V143.784C629.151 144.488 629.279 144.712 630.239 144.712ZM645.2 135.464H643.44V141.032H644.016L646.352 137H656.08L658.416 141.032H658.992V135.464H656.72V124.008L658.832 122.984V122.472H645.008V122.984L647.12 124.008V124.456C647.12 127.272 646.8 132.168 645.2 135.464ZM653.04 135.464H647.024C648.432 132.2 648.752 127.336 648.752 124.456V124.008H653.04V135.464ZM665.041 137.32C666.865 137.32 668.465 136.424 669.553 135.24H669.777C670.225 136.52 671.217 137.32 672.817 137.32C674.481 137.32 675.537 136.488 676.049 135.656V135.336L675.953 135.24H674.897C674.065 135.24 673.553 135.048 673.265 134.728V125.992C673.265 123.208 670.769 122.152 667.953 122.152C666.449 122.152 665.169 122.664 663.793 123.528C662.577 124.264 661.873 125.256 661.873 126.184C661.873 126.952 662.097 127.144 662.737 127.144H664.657L664.817 127.016V125.768C664.817 124.488 665.329 123.72 666.833 123.72C668.337 123.72 669.553 124.84 669.553 126.408V128.52L666.545 129.256C662.641 130.216 661.425 131.56 661.393 133.768C661.361 136.008 662.993 137.32 665.041 137.32ZM664.913 132.968C664.913 131.464 665.585 130.536 669.553 129.736V134.44C668.657 134.824 667.953 134.984 667.153 134.984C665.745 134.984 664.913 134.312 664.913 132.968Z" fill="#F3F3F3"/>
<rect x="86.3557" y="157.889" width="39.9556" height="54.1333" fill="#F3F3F3"/>
<rect x="372.489" y="157.889" width="39.9556" height="54.1333" fill="#F3F3F3"/>
<rect x="229.422" y="157.889" width="39.9556" height="54.1333" fill="#F3F3F3"/>
<rect x="515.556" y="157.889" width="39.9556" height="54.1333" fill="#F3F3F3"/>
<rect x="134.044" y="157.889" width="39.9556" height="54.1333" fill="#F3F3F3"/>
<rect x="420.178" y="157.889" width="39.9556" height="54.1333" fill="#F3F3F3"/>
<rect x="277.111" y="157.889" width="39.9556" height="54.1333" fill="#F3F3F3"/>
<rect x="181.733" y="157.889" width="39.9556" height="54.1333" fill="#F3F3F3"/>
<rect x="467.867" y="157.889" width="39.9556" height="54.1333" fill="#F3F3F3"/>
<rect x="324.8" y="157.889" width="39.9556" height="54.1333" fill="#F3F3F3"/>
<rect x="38.6667" y="157.889" width="39.9556" height="54.1333" fill="#F3F3F3"/>
<rect x="86.3557" y="343.489" width="39.9556" height="54.1333" fill="#F3F3F3"/>
<rect x="372.489" y="343.489" width="39.9556" height="54.1333" fill="#F3F3F3"/>
<rect x="229.422" y="343.489" width="39.9556" height="54.1333" fill="#F3F3F3"/>
<rect x="515.556" y="343.489" width="39.9556" height="54.1333" fill="#F3F3F3"/>
<rect x="134.044" y="343.489" width="39.9556" height="54.1333" fill="#F3F3F3"/>
<rect x="420.178" y="343.489" width="39.9556" height="54.1333" fill="#F3F3F3"/>
<rect x="277.111" y="343.489" width="39.9556" height="54.1333" fill="#F3F3F3"/>
<rect x="181.733" y="343.489" width="39.9556" height="54.1333" fill="#F3F3F3"/>
<rect x="467.867" y="343.489" width="39.9556" height="54.1333" fill="#F3F3F3"/>
<rect x="324.8" y="343.489" width="39.9556" height="54.1333" fill="#F3F3F3"/>
<rect x="38.6667" y="343.489" width="39.9556" height="54.1333" fill="#F3F3F3"/>
<rect x="86.3557" y="219.756" width="39.9556" height="54.1333" fill="#F3F3F3"/>
<rect x="372.489" y="219.756" width="39.9556" height="54.1333" fill="#F3F3F3"/>
<rect x="229.422" y="219.756" width="39.9556" height="54.1333" fill="#F3F3F3"/>
<rect x="515.556" y="219.756" width="39.9556" height="54.1333" fill="#F3F3F3"/>
<rect x="134.044" y="219.756" width="39.9556" height="54.1333" fill="#F3F3F3"/>
<rect x="420.178" y="219.756" width="39.9556" height="54.1333" fill="#F3F3F3"/>
<rect x="277.111" y="219.756" width="39.9556" height="54.1333" fill="#F3F3F3"/>
<rect x="181.733" y="219.756" width="39.9556" height="54.1333" fill="#F3F3F3"/>
<rect x="467.867" y="219.756" width="39.9556" height="54.1333" fill="#F3F3F3"/>
<rect x="324.8" y="219.756" width="39.9556" height="54.1333" fill="#F3F3F3"/>
<rect x="38.6667" y="219.756" width="39.9556" height="54.1333" fill="#F3F3F3"/>
<rect x="86.3557" y="405.355" width="39.9556" height="54.1333" fill="#F3F3F3"/>
<rect x="372.489" y="405.355" width="39.9556" height="54.1333" fill="#F3F3F3"/>
<rect x="229.422" y="405.355" width="39.9556" height="54.1333" fill="#F3F3F3"/>
<rect x="515.556" y="405.355" width="39.9556" height="54.1333" fill="#F3F3F3"/>
<rect x="134.044" y="405.355" width="39.9556" height="54.1333" fill="#F3F3F3"/>
<rect x="420.178" y="405.355" width="39.9556" height="54.1333" fill="#F3F3F3"/>
<rect x="277.111" y="405.355" width="39.9556" height="54.1333" fill="#F3F3F3"/>
<rect x="181.733" y="405.355" width="39.9556" height="54.1333" fill="#F3F3F3"/>
<rect x="467.867" y="405.355" width="39.9556" height="54.1333" fill="#F3F3F3"/>
<rect x="324.8" y="405.355" width="39.9556" height="54.1333" fill="#F3F3F3"/>
<rect x="38.6667" y="405.355" width="39.9556" height="54.1333" fill="#F3F3F3"/>
<rect x="86.3557" y="281.622" width="39.9556" height="54.1333" fill="#F3F3F3"/>
<rect x="372.489" y="281.622" width="39.9556" height="54.1333" fill="#F3F3F3"/>
<rect x="229.422" y="281.622" width="39.9556" height="54.1333" fill="#F3F3F3"/>
<rect x="515.556" y="281.622" width="39.9556" height="54.1333" fill="#F3F3F3"/>
<rect x="134.044" y="281.622" width="39.9556" height="54.1333" fill="#F3F3F3"/>
<rect x="420.178" y="281.622" width="39.9556" height="54.1333" fill="#F3F3F3"/>
<rect x="277.111" y="281.622" width="39.9556" height="54.1333" fill="#F3F3F3"/>
<rect x="181.733" y="281.622" width="39.9556" height="54.1333" fill="#F3F3F3"/>
<rect x="467.867" y="281.622" width="39.9556" height="54.1333" fill="#F3F3F3"/>
<rect x="324.8" y="281.622" width="39.9556" height="54.1333" fill="#F3F3F3"/>
<rect x="38.6667" y="281.622" width="39.9556" height="54.1333" fill="#F3F3F3"/>
<rect x="86.3557" y="467.222" width="39.9556" height="54.1333" fill="#F3F3F3"/>
<rect x="372.489" y="467.222" width="39.9556" height="54.1333" fill="#F3F3F3"/>
<rect x="229.422" y="467.222" width="39.9556" height="54.1333" fill="#F3F3F3"/>
<rect x="515.556" y="467.222" width="39.9556" height="54.1333" fill="#F3F3F3"/>
<rect x="134.044" y="467.222" width="39.9556" height="54.1333" fill="#F3F3F3"/>
<rect x="420.178" y="467.222" width="39.9556" height="54.1333" fill="#F3F3F3"/>
<rect x="277.111" y="467.222" width="39.9556" height="54.1333" fill="#F3F3F3"/>
<rect x="181.733" y="467.222" width="39.9556" height="54.1333" fill="#F3F3F3"/>
<rect x="467.867" y="467.222" width="39.9556" height="54.1333" fill="#F3F3F3"/>
<rect x="324.8" y="467.222" width="39.9556" height="54.1333" fill="#F3F3F3"/>
<rect x="38.6667" y="467.222" width="39.9556" height="54.1333" fill="#F3F3F3"/>
<rect x="86.3557" y="529.089" width="39.9556" height="54.1333" fill="#F3F3F3"/>
<rect x="372.489" y="529.089" width="39.9556" height="54.1333" fill="#F3F3F3"/>
<rect x="229.422" y="529.089" width="39.9556" height="54.1333" fill="#F3F3F3"/>
<rect x="515.556" y="529.089" width="39.9556" height="54.1333" fill="#F3F3F3"/>
<rect x="134.044" y="529.089" width="39.9556" height="54.1333" fill="#F3F3F3"/>
<rect x="420.178" y="529.089" width="39.9556" height="54.1333" fill="#F3F3F3"/>
<rect x="277.111" y="529.089" width="39.9556" height="54.1333" fill="#F3F3F3"/>
<rect x="181.733" y="529.089" width="39.9556" height="54.1333" fill="#F3F3F3"/>
<rect x="467.867" y="529.089" width="39.9556" height="54.1333" fill="#F3F3F3"/>
<rect x="324.8" y="529.089" width="39.9556" height="54.1333" fill="#F3F3F3"/>
<rect x="38.6667" y="529.089" width="39.9556" height="54.1333" fill="#F3F3F3"/>
<path d="M51.4027 137.32C57.6747 137.32 62.3147 132.712 62.3147 126.44C62.3147 120.168 57.6747 115.56 51.4027 115.56C45.1627 115.56 40.5227 120.168 40.5227 126.44C40.5227 132.712 45.1627 137.32 51.4027 137.32ZM51.9787 135.688C47.9787 135.688 44.7787 131.624 44.7787 125.416C44.7787 120.36 47.3707 117.16 50.9227 117.16C54.8907 117.16 58.0267 121.192 58.0267 127.4C58.0267 132.456 55.5627 135.688 51.9787 135.688ZM64.9652 127.944H65.5412L67.7492 124.008H70.3732V135.464L67.7812 136.488V137H76.6452V136.488L74.0532 135.464V124.008H76.6772L78.8852 127.944H79.4612V122.472H64.9652V127.944ZM93.03 137H98.438V136.488L96.39 135.4L90.406 128.328L95.654 124.104L97.83 122.984V122.472H91.622V122.984L92.774 124.136V124.328L87.206 129.128V124.008L89.19 122.984V122.472H81.414V122.984L83.494 124.008V135.464L81.414 136.488V137H89.19V136.488L87.206 135.464V129.736L91.942 135.336L93.03 137ZM101.541 144.712C102.629 144.712 103.909 144.072 104.773 142.856C105.733 141.512 105.861 141.032 106.469 139.528L112.837 124.072L115.141 122.984V122.472H108.965V122.984L111.077 124.072V124.232L108.005 132.232H107.845L104.005 124.072V123.944L106.245 122.984V122.472H97.8935V122.984L99.9415 123.912L106.117 136.904L105.157 139.112C104.069 141.576 103.621 141.672 102.053 141.672H100.613L100.453 141.832V143.784C100.453 144.488 100.581 144.712 101.541 144.712ZM116.503 135.464H114.743V141.032H115.319L117.655 137H127.383L129.719 141.032H130.295V135.464H128.023V124.008L130.135 122.984V122.472H116.311V122.984L118.423 124.008V124.456C118.423 127.272 118.103 132.168 116.503 135.464ZM124.343 135.464H118.327C119.735 132.2 120.055 127.336 120.055 124.456V124.008H124.343V135.464ZM136.344 137.32C138.168 137.32 139.768 136.424 140.856 135.24H141.08C141.528 136.52 142.52 137.32 144.12 137.32C145.784 137.32 146.84 136.488 147.352 135.656V135.336L147.256 135.24H146.2C145.368 135.24 144.856 135.048 144.568 134.728V125.992C144.568 123.208 142.072 122.152 139.256 122.152C137.752 122.152 136.472 122.664 135.096 123.528C133.88 124.264 133.176 125.256 133.176 126.184C133.176 126.952 133.4 127.144 134.04 127.144H135.96L136.12 127.016V125.768C136.12 124.488 136.632 123.72 138.136 123.72C139.64 123.72 140.856 124.84 140.856 126.408V128.52L137.848 129.256C133.944 130.216 132.728 131.56 132.696 133.768C132.664 136.008 134.296 137.32 136.344 137.32ZM136.216 132.968C136.216 131.464 136.888 130.536 140.856 129.736V134.44C139.96 134.824 139.256 134.984 138.456 134.984C137.048 134.984 136.216 134.312 136.216 132.968Z" fill="#F3F3F3"/>
<path d="M1053.9 63H1062.06V62.488L1059.5 61.208V41.88H1058.86L1051.18 46.68V47.8L1056.78 44.984V61.208L1053.9 62.488V63ZM1073.16 63.32C1077.8 63.32 1080.07 59.992 1080.07 56.728C1080.07 53.208 1077.86 50.584 1074.44 50.584C1072.23 50.584 1070.47 51.608 1069.35 53.208C1069.99 48.088 1073.22 44.12 1078.44 42.488V41.56C1070.89 43.672 1066.18 48.792 1066.18 55.512C1066.18 59.96 1068.97 63.32 1073.16 63.32ZM1069.22 55.224C1069.22 55.096 1069.22 55 1069.22 54.872C1070.09 53.56 1071.5 52.728 1073.19 52.728C1075.78 52.728 1077.13 54.264 1077.13 57.432C1077.13 59.672 1075.82 61.848 1073.22 61.848C1071.08 61.848 1069.22 59.992 1069.22 55.224ZM1085 52.184C1086.06 52.184 1086.95 51.288 1086.95 50.232C1086.95 49.176 1086.06 48.28 1085 48.28C1083.94 48.28 1083.05 49.176 1083.05 50.232C1083.05 51.288 1083.94 52.184 1085 52.184ZM1085 63.16C1086.06 63.16 1086.95 62.264 1086.95 61.208C1086.95 60.152 1086.06 59.256 1085 59.256C1083.94 59.256 1083.05 60.152 1083.05 61.208C1083.05 62.264 1083.94 63.16 1085 63.16ZM1096.81 63.32C1100.87 63.32 1104.26 60.536 1104.26 57.4C1104.26 54.36 1102.34 52.152 1098.5 51.544C1101.35 50.808 1103.14 48.792 1103.14 46.616C1103.14 43.768 1100.68 41.56 1097.38 41.56C1095.59 41.56 1094.44 42.008 1093 42.904C1091.43 43.832 1090.7 45.048 1090.7 46.136C1090.7 47.128 1091.11 47.256 1091.94 47.256H1093.29L1093.54 47V45.848C1093.54 44.152 1094.82 43 1096.68 43C1098.82 43 1100.04 44.152 1100.04 46.84C1100.04 49.688 1097.83 51.384 1094.79 51.384H1093.93V52.792H1095.82C1099.82 52.792 1101.13 54.616 1101.13 57.496C1101.13 60.088 1099.56 61.88 1096.87 61.88C1094.12 61.88 1092.9 60.792 1092.9 59.416V58.36L1092.68 58.136H1091.21C1090.44 58.136 1090.06 58.264 1090.06 59.16C1090.06 60.056 1090.66 60.952 1091.85 61.848C1093.19 62.872 1094.76 63.32 1096.81 63.32ZM1111.18 63H1119.34V62.488L1116.78 61.208V56.824H1120.58V54.68H1116.78V41.88H1116.14L1105.26 56.184V56.824H1114.06V61.208L1111.18 62.488V63ZM1108.3 54.68L1114.06 46.84V54.68H1108.3Z" fill="#F3F3F3"/>
<path d="M133.623 67.48C143.175 67.48 150.231 60.568 150.231 51.16C150.231 41.752 143.175 34.84 133.623 34.84C124.119 34.84 117.063 41.752 117.063 51.16C117.063 60.568 124.119 67.48 133.623 67.48ZM134.391 64.984C129.015 64.984 124.695 58.888 124.695 49.624C124.695 42.088 128.199 37.288 132.999 37.288C138.375 37.288 142.551 43.336 142.551 52.6C142.551 60.136 139.239 64.984 134.391 64.984ZM153.731 53.32H154.643L158.051 47.464H161.603V64.696L157.619 66.232V67H172.355V66.232L168.323 64.696V47.464H171.875L175.283 53.32H176.195V45.112H153.731V53.32ZM181.759 47.416V64.696L178.543 66.232V67H190.783V66.232L188.479 64.696V47.464H195.247V64.696L192.991 66.232V67H205.231V66.232L202.015 64.696V47.416L205.231 45.88V45.112H178.543V45.88L181.759 47.416ZM208.215 78.04H221.895V77.272L218.151 75.736V67.048C219.399 67.336 220.743 67.48 222.231 67.48C228.183 67.48 233.367 62.824 233.367 55.144C233.367 48.616 229.623 44.632 225.351 44.632C222.807 44.632 220.695 45.496 218.343 47.56H218.055L217.671 44.632H217.095L208.359 47.56V48.136L211.431 50.392V75.736L208.215 77.272V78.04ZM221.367 48.568C224.055 48.568 226.647 51.064 226.647 56.536C226.647 63.208 224.247 64.984 221.943 64.984C220.359 64.984 219.063 64.456 218.151 63.4V49.528C219.303 48.904 220.215 48.568 221.367 48.568ZM242.287 67.432C245.071 67.432 247.327 66.04 248.911 64.216H249.199C250.063 66.28 251.695 67.48 254.431 67.48C257.119 67.48 258.799 66.232 259.519 65.032V64.36L259.375 64.216H257.983C256.879 64.216 256.159 63.928 255.679 63.448V50.776C255.679 46.456 251.743 44.632 247.039 44.632C244.687 44.632 242.815 45.256 240.511 46.696C238.639 47.848 237.439 49.24 237.439 50.632C237.439 51.736 237.775 52.12 238.735 52.12H241.903L242.095 51.928V49.72C242.095 47.944 242.911 47.032 244.975 47.032C247.279 47.032 248.911 48.616 248.911 51.064V54.04L244.399 55.144C238.351 56.68 236.671 58.456 236.671 61.912C236.575 65.464 239.167 67.432 242.287 67.432ZM243.007 60.568C243.007 58.216 244.111 56.968 248.911 55.96V63.016C247.951 63.4 247.135 63.592 246.175 63.592C244.207 63.592 243.007 62.584 243.007 60.568ZM264.4 47.416V64.696L261.184 66.232V67H272.8C280.768 67 285.136 64.84 285.136 60.52C285.136 57.784 282.88 55.72 276.88 55.144C281.152 54.568 283.6 52.888 283.552 50.104C283.6 46.12 278.992 45.112 273.184 45.112H261.184V45.88L264.4 47.416ZM272.896 47.224C275.632 47.224 276.88 48.664 276.88 50.824C276.88 53.176 275.584 54.424 272.752 54.424H271.12V47.224H272.896ZM272.704 56.344C276.544 56.344 278.176 57.976 278.176 60.616C278.176 63.4 276.496 64.888 272.512 64.888H271.12V56.344H272.704ZM295.498 48.856V47.464H300.97V64.696L297.802 66.232V67H310.954V66.232L307.738 64.696V47.416L310.954 45.88V45.112H289.642V45.88L292.954 47.416V48.856C292.954 57.832 292.186 62.536 287.674 62.536H287.002L286.762 62.776V66.088C286.762 67.144 286.954 67.48 288.346 67.48C290.266 67.48 292.09 66.664 293.338 64.408C294.922 61.624 295.498 56.152 295.498 48.856ZM324.91 67.48C329.374 67.48 332.83 64.984 334.414 61.576V60.808H334.27C332.11 61.912 330.046 62.296 328.222 62.296C322.894 62.296 320.734 59.08 320.734 55.048V54.808H334.174L334.366 54.568C334.27 48.232 331.294 44.632 326.11 44.632C319.534 44.632 314.254 49.768 314.254 57.064C314.254 63.352 318.334 67.48 324.91 67.48ZM325.006 46.792C327.166 46.792 328.51 48.28 328.99 52.648H320.878C321.31 48.904 322.75 46.792 325.006 46.792ZM340.946 47.416V64.696L337.73 66.232V67H349.97V66.232L347.666 64.696V56.728H354.914V64.696L352.658 66.232V67H364.898V66.232L361.682 64.696V47.416L364.898 45.88V45.112H352.658V45.88L354.914 47.416V54.376H347.666V47.416L349.97 45.88V45.112H337.73V45.88L340.946 47.416ZM371.087 47.416V64.696L367.871 66.232V67H380.111V66.232L377.807 64.696V62.776L385.535 52.792V64.696L383.279 66.232V67H395.519V66.232L392.303 64.696V47.416L395.519 45.88V45.112H383.279V45.88L385.535 47.416V49.144L377.807 59.128V47.416L380.111 45.88V45.112H367.871V45.88L371.087 47.416ZM409.472 67.48C413.936 67.48 417.392 64.984 418.976 61.576V60.808H418.832C416.672 61.912 414.608 62.296 412.784 62.296C407.456 62.296 405.296 59.08 405.296 55.048V54.808H418.736L418.928 54.568C418.832 48.232 415.856 44.632 410.672 44.632C404.096 44.632 398.816 49.768 398.816 57.064C398.816 63.352 402.896 67.48 409.472 67.48ZM409.568 46.792C411.728 46.792 413.072 48.28 413.552 52.648H405.44C405.872 48.904 407.312 46.792 409.568 46.792Z" fill="#F3F3F3"/>
<path d="M51.6954 59.2534L91.5576 36.7334L101.822 41.2618L56.2654 66.9989L51.6954 59.2534Z" fill="#F3F3F3"/>
<path d="M38.6667 57.7618L51.6954 59.2534L56.2654 66.9989L43.2368 65.5073L38.6667 57.7618Z" fill="#F3F3F3"/>
<path d="M62.8703 74.3326L64.2378 62.4949L79.0438 54.1304L68.8151 75.4001L62.8703 74.3326Z" fill="#F3F3F3"/>
<path d="M49.5628 47.9178L60.7233 52.6777L75.5293 44.3132L51.5904 42.3463L49.5628 47.9178Z" fill="#F3F3F3"/>
</svg>
